<svg width="149" height="163" viewBox="0 0 149 163" fill="none" xmlns="http://www.w3.org/2000/svg">
<g id="Group 191">
<rect id="9" width="134.31" height="134.31" transform="matrix(0.866025 0.5 -0.866025 0.5 32.3159 28.4529)" fill="url(#paint0_linear_9512_62024)" fill-opacity="0.5"/>
<rect id="8" width="134.31" height="134.31" transform="matrix(0.866025 0.5 -0.866025 0.5 32.3184 1.59033)" fill="url(#paint1_linear_9512_62024)" fill-opacity="0.5"/>
<rect id="7" width="134.31" height="134.31" transform="matrix(0.866025 0.5 -0.866025 0.5 32.3188 -25.2742)" fill="url(#paint2_linear_9512_62024)" fill-opacity="0.5"/>
<rect id="6" width="134.31" height="134.31" transform="matrix(0.866025 0.5 -0.866025 0.5 32.3198 -52.1375)" fill="url(#paint3_linear_9512_62024)" fill-opacity="0.5"/>
<rect id="5" width="134.31" height="134.31" transform="matrix(0.866025 0.5 -0.866025 0.5 32.3228 -79)" fill="url(#paint4_linear_9512_62024)" fill-opacity="0.5"/>
</g>
<defs>
<linearGradient id="paint0_linear_9512_62024" x1="135.006" y1="133.614" x2="-0.0139921" y2="135.525" gradientUnits="userSpaceOnUse">
<stop stop-color="white"/>
<stop offset="1" stop-color="#52DC3C"/>
</linearGradient>
<linearGradient id="paint1_linear_9512_62024" x1="135.006" y1="133.614" x2="-0.0139921" y2="135.525" gradientUnits="userSpaceOnUse">
<stop stop-color="white"/>
<stop offset="1" stop-color="#52DC3C"/>
</linearGradient>
<linearGradient id="paint2_linear_9512_62024" x1="135.006" y1="133.614" x2="-0.0139921" y2="135.525" gradientUnits="userSpaceOnUse">
<stop stop-color="white"/>
<stop offset="1" stop-color="#52DC3C"/>
</linearGradient>
<linearGradient id="paint3_linear_9512_62024" x1="135.006" y1="133.614" x2="-0.0139921" y2="135.525" gradientUnits="userSpaceOnUse">
<stop stop-color="white"/>
<stop offset="1" stop-color="#52DC3C"/>
</linearGradient>
<linearGradient id="paint4_linear_9512_62024" x1="135.006" y1="133.614" x2="-0.0139921" y2="135.525" gradientUnits="userSpaceOnUse">
<stop stop-color="white"/>
<stop offset="1" stop-color="#52DC3C"/>
</linearGradient>
</defs>
</svg>
