<svg width="120" height="120" viewBox="0 0 120 120" fill="none" xmlns="http://www.w3.org/2000/svg">
<path d="M104.234 113.787C104.234 116.983 83.8106 119.574 58.617 119.574C33.4234 119.574 13 116.983 13 113.787C13 110.591 33.4234 108 58.617 108C83.8106 108 104.234 110.591 104.234 113.787Z" fill="url(#paint0_linear_1413_64358)"/>
<mask id="mask0_1413_64358" style="mask-type:alpha" maskUnits="userSpaceOnUse" x="9" y="13" width="102" height="102">
<circle cx="59.5835" cy="63.5835" r="50.5835" fill="white"/>
</mask>
<g mask="url(#mask0_1413_64358)">
<path d="M74.7767 62.4394C87.7205 75.7111 93.403 91.0563 87.4671 96.9921L87.3807 97.077L87.3059 97.1483C87.283 97.1761 87.2571 97.2021 87.2311 97.2281C78.2511 106.208 64.7423 108.184 52.8777 103.417L56.0134 114.411C56.4185 115.831 55.5958 117.31 54.1759 117.715C53.9375 117.783 53.6909 117.817 53.443 117.817L37.6113 117.814C36.9343 117.815 36.2824 117.558 35.7879 117.096L35.7208 117.031C35.2369 116.547 34.9375 115.878 34.9374 115.14C34.9374 114.892 34.9717 114.646 35.0396 114.408L38.851 101.023L40.5133 95.1853L40.1838 94.8518C27.1405 81.414 26.3976 60.8224 38.6114 48.6085L38.6871 48.5388L38.7283 48.4945C38.767 48.4529 38.8072 48.4128 38.8475 48.3725C44.7834 42.4365 60.1286 48.1191 73.4001 61.0628L53.9922 77.8391L53.9222 77.9017C52.8004 78.9367 52.6956 80.6831 53.7014 81.8467C53.7464 81.8987 53.7932 81.9491 53.8419 81.9977C54.9516 83.1075 56.7506 83.1078 57.86 81.9984L57.9315 81.9242L58.0004 81.8475L74.7767 62.4395V62.4394Z" fill="#C6C8CF"/>
<path d="M78.6001 56.5684C78.0204 55.6799 78.1204 54.4777 78.9002 53.6978C79.7949 52.803 81.2458 52.8034 82.1409 53.6984C83.036 54.5934 83.0363 56.0444 82.1415 56.9392C81.3617 57.7189 80.1596 57.8189 79.271 57.2392L58.1603 81.662L74.7765 62.4394C87.7202 75.7111 93.4027 91.0563 87.4669 96.9922C81.4273 103.032 65.6475 97.0437 52.2215 83.6178C38.7956 70.1918 32.8077 54.412 38.8472 48.3725C44.7832 42.4365 60.1283 48.1191 73.3999 61.0628L53.9919 77.8391L78.6 56.5684H78.6001Z" fill="#EBECEE"/>
<path d="M82.1411 53.6988C83.0362 54.5939 83.0365 56.0448 82.1417 56.9396C81.3619 57.7193 80.1598 57.8193 79.2713 57.2397L58.0003 81.8478C57.9553 81.8998 57.9085 81.9502 57.8599 81.9989C56.7505 83.1083 54.9515 83.1079 53.8418 81.9981C53.7931 81.9495 53.7463 81.8991 53.7013 81.8471C52.6749 80.6598 52.805 78.8655 53.992 77.8396L78.6002 56.5688C78.0205 55.6803 78.1205 54.4781 78.9004 53.6983C79.7951 52.8034 81.246 52.8038 82.1411 53.6988Z" fill="#BCBFC7"/>
<path d="M50.1344 93.8132L56.0072 114.406C56.412 115.826 55.5891 117.305 54.1688 117.709C53.9303 117.777 53.6836 117.812 53.4357 117.812H37.6012C36.1245 117.812 34.9273 116.615 34.9273 115.139C34.9273 114.891 34.9617 114.645 35.0296 114.406L40.8712 93.9121C41.4624 91.8378 43.3451 90.397 45.5025 90.3676C47.6478 90.3385 49.5462 91.7507 50.1344 93.8132Z" fill="#BCBFC7"/>
<path d="M43.3157 95.002C43.3157 95.6097 43.5571 96.1924 43.987 96.6221C44.4168 97.0517 44.9998 97.2931 45.6076 97.2931C46.2155 97.2931 46.7984 97.0517 47.2283 96.6221C47.6581 96.1924 47.8996 95.6097 47.8996 95.002C47.8996 94.3944 47.6581 93.8116 47.2283 93.382C46.7984 92.9523 46.2155 92.7109 45.6076 92.7109C44.9998 92.7109 44.4168 92.9523 43.987 93.382C43.5571 93.8116 43.3157 94.3944 43.3157 95.002Z" fill="white"/>
<path d="M93.3776 55.1504C93.3776 62.2689 87.6645 68.0532 80.5733 68.1682L80.3581 68.1699V66.6381C86.6391 66.6381 91.7429 61.5973 91.8443 55.3404L91.8458 55.1504H93.3776ZM89.9 55.32C89.9 60.5371 85.7129 64.7764 80.5158 64.8607L80.3581 64.862V63.3353C84.7401 63.3353 88.3007 59.8188 88.3722 55.4538L88.3733 55.32H89.9ZM85.9984 55.1504C85.9984 58.2722 83.4997 60.8106 80.393 60.8744L80.2732 60.8756V59.3488C82.5552 59.3488 84.4119 57.5283 84.4703 55.2605L84.4717 55.1504H85.9984ZM80.3581 45.778V47.3047C75.976 47.3047 72.4154 50.8212 72.3439 55.1862L72.3428 55.32H70.8161C70.8161 50.0501 75.0882 45.778 80.3581 45.778ZM80.2732 49.4252V50.9519C77.9913 50.9519 76.1346 52.7724 76.0762 55.0403L76.0748 55.1504H74.5481C74.5481 51.9884 77.1112 49.4252 80.2732 49.4252ZM80.3581 42.1309V43.6626C74.077 43.6626 68.9733 48.7035 68.8718 54.9604L68.8703 55.1504H67.3386C67.3386 47.9599 73.1676 42.1309 80.3581 42.1309Z" fill="#EBECEE"/>
</g>
<circle cx="66" cy="102" r="13" fill="#EE6354" stroke="white" stroke-width="2"/>
<path fill-rule="evenodd" clip-rule="evenodd" d="M60.9428 106.37C60.4221 105.849 60.4221 105.005 60.9428 104.484L68.4853 96.942C69.006 96.4213 69.8502 96.4213 70.3709 96.942C70.8916 97.4627 70.8916 98.3069 70.3709 98.8276L62.8284 106.37C62.3077 106.891 61.4635 106.891 60.9428 106.37Z" fill="white"/>
<path fill-rule="evenodd" clip-rule="evenodd" d="M60.9429 96.9436C61.4636 96.4229 62.3079 96.4229 62.8286 96.9436L70.371 104.486C70.8917 105.007 70.8917 105.851 70.371 106.372C69.8503 106.892 69.0061 106.892 68.4854 106.372L60.9429 98.8292C60.4222 98.3085 60.4222 97.4643 60.9429 96.9436Z" fill="white"/>
<defs>
<linearGradient id="paint0_linear_1413_64358" x1="13" y1="113.787" x2="104.234" y2="113.787" gradientUnits="userSpaceOnUse">
<stop stop-color="#F6F8FA"/>
<stop offset="0.460263" stop-color="#FAFBFC" stop-opacity="0.13"/>
<stop offset="1" stop-color="white" stop-opacity="0"/>
</linearGradient>
</defs>
</svg>
