<svg width="1440" height="1114" viewBox="0 0 1440 1114" fill="none" xmlns="http://www.w3.org/2000/svg">
<g clip-path="url(#clip0_7550_113866)">
<g filter="url(#filter0_f_7550_113866)">
<path d="M770.714 184.613C829.807 191.907 882.651 186.651 888.745 172.875C894.84 159.098 851.876 142.017 792.784 134.723C733.691 127.43 680.847 132.685 674.752 146.462C668.658 160.239 711.622 177.32 770.714 184.613Z" stroke="url(#paint0_linear_7550_113866)" stroke-opacity="0.4" stroke-width="2" stroke-miterlimit="10"/>
<path d="M770.801 185.579C835.223 192.048 892.348 185.729 898.394 171.464C904.44 157.2 857.117 140.393 792.695 133.924C728.273 127.455 671.148 133.774 665.102 148.039C659.056 162.303 706.379 179.11 770.801 185.579Z" stroke="url(#paint1_linear_7550_113866)" stroke-opacity="0.4" stroke-width="2" stroke-miterlimit="10"/>
<path d="M771.167 186.548C841.383 192.062 903.158 184.576 909.145 169.828C915.132 155.08 863.064 138.655 792.848 133.142C722.632 127.629 660.857 135.115 654.87 149.863C648.883 164.611 700.951 181.035 771.167 186.548Z" stroke="url(#paint2_linear_7550_113866)" stroke-opacity="0.4" stroke-width="2" stroke-miterlimit="10"/>
<path d="M770.687 187.282C846.94 191.683 913.554 182.908 919.472 167.684C925.39 152.459 868.372 136.549 792.119 132.149C715.865 127.748 649.251 136.523 643.333 151.747C637.414 166.972 694.433 182.881 770.687 187.282Z" stroke="url(#paint3_linear_7550_113866)" stroke-opacity="0.4" stroke-width="2" stroke-miterlimit="10"/>
<path d="M771.14 188.362C853.7 191.479 925.362 181.279 931.202 165.58C937.042 149.881 874.848 134.627 792.288 131.51C709.729 128.393 638.067 138.593 632.227 154.292C626.387 169.991 688.581 185.245 771.14 188.362Z" stroke="url(#paint4_linear_7550_113866)" stroke-opacity="0.4" stroke-width="2" stroke-miterlimit="10"/>
<path d="M771.373 188.925C860.7 190.584 937.776 178.823 943.526 162.655C949.277 146.488 881.525 132.035 792.198 130.375C702.871 128.715 625.795 140.476 620.045 156.644C614.294 172.812 682.046 187.265 771.373 188.925Z" stroke="url(#paint5_linear_7550_113866)" stroke-opacity="0.4" stroke-width="2" stroke-miterlimit="10"/>
<path d="M770.945 190.195C867.289 190.214 950.037 176.561 955.768 159.698C961.498 142.836 888.041 129.15 791.697 129.131C695.353 129.111 612.604 142.765 606.874 159.627C601.143 176.49 674.6 190.175 770.945 190.195Z" stroke="url(#paint6_linear_7550_113866)" stroke-opacity="0.4" stroke-width="2" stroke-miterlimit="10"/>
<path d="M771.107 191.359C874.947 189.532 963.741 173.821 969.434 156.268C975.126 138.715 895.562 125.967 791.722 127.794C687.882 129.622 599.088 145.333 593.395 162.886C587.703 180.439 667.267 193.187 771.107 191.359Z" stroke="url(#paint7_linear_7550_113866)" stroke-opacity="0.4" stroke-width="2" stroke-miterlimit="10"/>
<path d="M771.558 192.592C882.938 188.71 977.799 170.777 983.436 152.538C989.074 134.298 903.353 122.659 791.974 126.541C680.594 130.423 585.733 148.356 580.095 166.596C574.457 184.835 660.178 196.474 771.558 192.592Z" stroke="url(#paint8_linear_7550_113866)" stroke-opacity="0.4" stroke-width="2" stroke-miterlimit="10"/>
<path d="M771.28 194.357C890.663 188.208 991.955 167.886 997.522 148.966C1003.09 130.047 910.822 119.693 791.439 125.842C672.056 131.991 570.765 152.313 565.198 171.232C559.631 190.152 651.897 200.505 771.28 194.357Z" stroke="url(#paint9_linear_7550_113866)" stroke-opacity="0.4" stroke-width="2" stroke-miterlimit="10"/>
<path d="M772.006 195.744C899.878 187.063 1008.03 163.954 1013.57 144.128C1019.11 124.302 919.94 115.267 792.068 123.947C664.196 132.628 556.044 155.737 550.504 175.563C544.964 195.39 644.134 204.425 772.006 195.744Z" stroke="url(#paint10_linear_7550_113866)" stroke-opacity="0.4" stroke-width="2" stroke-miterlimit="10"/>
<path d="M771.476 197.393C907.848 185.968 1022.85 159.907 1028.34 139.184C1033.83 118.46 927.728 110.923 791.357 122.348C654.985 133.772 539.983 159.834 534.493 180.557C529.003 201.28 635.104 208.818 771.476 197.393Z" stroke="url(#paint11_linear_7550_113866)" stroke-opacity="0.4" stroke-width="2" stroke-miterlimit="10"/>
<path d="M771.592 198.633C916.943 184.179 1039.16 154.94 1044.57 133.326C1049.99 111.712 936.546 105.908 791.195 120.362C645.845 134.816 523.627 164.054 518.214 185.668C512.801 207.282 626.242 213.087 771.592 198.633Z" stroke="url(#paint12_linear_7550_113866)" stroke-opacity="0.4" stroke-width="2" stroke-miterlimit="10"/>
<path d="M772.193 200.3C926.787 182.549 1056.42 149.919 1061.73 127.419C1067.04 104.92 946.023 101.071 791.429 118.822C636.835 136.573 507.206 169.203 501.894 191.703C496.582 214.202 617.599 218.052 772.193 200.3Z" stroke="url(#paint13_linear_7550_113866)" stroke-opacity="0.4" stroke-width="2" stroke-miterlimit="10"/>
<path d="M772.232 202.646C936.534 181.298 1073.97 144.856 1079.21 121.25C1084.44 97.6443 955.496 95.8143 791.195 117.163C626.894 138.511 489.456 174.953 484.22 198.559C478.983 222.164 607.931 223.994 772.232 202.646Z" stroke="url(#paint14_linear_7550_113866)" stroke-opacity="0.4" stroke-width="2" stroke-miterlimit="10"/>
<path d="M772.192 204.925C946.217 179.706 1091.49 139.052 1096.66 114.123C1101.83 89.1933 964.952 89.4284 790.928 114.648C616.903 139.867 471.634 180.521 466.46 205.451C461.287 230.38 598.168 230.145 772.192 204.925Z" stroke="url(#paint15_linear_7550_113866)" stroke-opacity="0.4" stroke-width="2" stroke-miterlimit="10"/>
<path d="M772.766 207.31C956.773 177.905 1110.05 132.792 1115.12 106.549C1120.19 80.3048 975.132 82.8674 791.126 112.272C607.12 141.677 453.843 186.789 448.773 213.033C443.703 239.277 588.76 236.714 772.766 207.31Z" stroke="url(#paint16_linear_7550_113866)" stroke-opacity="0.4" stroke-width="2" stroke-miterlimit="10"/>
<path d="M773.044 209.625C967.262 175.717 1128.7 125.899 1133.62 98.3549C1138.55 70.8105 985.094 75.9695 790.877 109.878C596.659 143.787 435.223 193.604 430.299 221.149C425.374 248.693 578.827 243.534 773.044 209.625Z" stroke="url(#paint17_linear_7550_113866)" stroke-opacity="0.4" stroke-width="2" stroke-miterlimit="10"/>
<path d="M772.818 212.498C977.695 173.716 1147.65 118.722 1152.42 89.665C1157.2 60.6079 994.983 68.4915 790.106 107.274C585.229 146.056 415.273 201.05 410.499 230.107C405.725 259.164 567.941 251.28 772.818 212.498Z" stroke="url(#paint18_linear_7550_113866)" stroke-opacity="0.4" stroke-width="2" stroke-miterlimit="10"/>
<path d="M773.406 215.185C988.742 171.243 1167.01 110.851 1171.58 80.2954C1176.15 49.7397 1005.3 60.5913 789.958 104.533C574.622 148.475 396.351 208.868 391.78 239.423C387.209 269.979 558.069 259.127 773.406 215.185Z" stroke="url(#paint19_linear_7550_113866)" stroke-opacity="0.4" stroke-width="2" stroke-miterlimit="10"/>
<path d="M773.863 218.356C1000.1 168.832 1187.05 102.349 1191.43 69.8628C1195.8 37.3765 1015.95 51.1886 789.705 100.713C563.465 150.238 376.514 216.721 372.14 249.207C367.765 281.693 547.623 267.881 773.863 218.356Z" stroke="url(#paint20_linear_7550_113866)" stroke-opacity="0.4" stroke-width="2" stroke-miterlimit="10"/>
<path d="M774.267 221.673C1011.41 166.239 1206.96 93.6009 1211.05 59.4301C1215.13 25.2592 1026.2 42.4957 789.06 97.929C551.919 153.362 356.366 226.001 352.281 260.172C348.196 294.342 537.126 277.106 774.267 221.673Z" stroke="url(#paint21_linear_7550_113866)" stroke-opacity="0.4" stroke-width="2" stroke-miterlimit="10"/>
<path d="M775.017 225.013C1023.04 163.295 1227.17 83.8526 1230.94 47.5741C1234.71 11.2957 1036.71 31.9188 788.685 93.6372C540.66 155.356 336.536 234.798 332.762 271.076C328.988 307.355 526.992 286.731 775.017 225.013Z" stroke="url(#paint22_linear_7550_113866)" stroke-opacity="0.4" stroke-width="2" stroke-miterlimit="10"/>
<path d="M775.449 229.817C1034.57 161.421 1247.39 74.6979 1250.8 36.115C1254.21 -2.46788 1046.91 21.7004 787.788 90.0963C528.667 158.492 315.845 245.216 312.438 283.798C309.03 322.381 516.328 298.213 775.449 229.817Z" stroke="url(#paint23_linear_7550_113866)" stroke-opacity="0.4" stroke-width="2" stroke-miterlimit="10"/>
<path d="M776.09 233.703C1046.03 158.284 1267.25 64.0302 1270.2 23.1806C1273.14 -17.6689 1056.69 10.3549 786.752 85.7737C516.809 161.192 295.59 255.447 292.646 296.296C289.701 337.146 506.147 309.122 776.09 233.703Z" stroke="url(#paint24_linear_7550_113866)" stroke-opacity="0.4" stroke-width="2" stroke-miterlimit="10"/>
<path d="M777.607 238.126C1058.58 155.199 1288.31 52.6899 1290.72 9.16648C1293.12 -34.3569 1067.3 -2.4136 786.324 80.5139C505.348 163.441 275.621 265.95 273.214 309.474C270.807 352.997 496.631 321.054 777.607 238.126Z" stroke="url(#paint25_linear_7550_113866)" stroke-opacity="0.4" stroke-width="2" stroke-miterlimit="10"/>
<path d="M778.567 243.53C1070.28 152.778 1308.19 41.6182 1309.96 -4.75212C1311.72 -51.1224 1076.68 -15.144 784.967 75.608C493.256 166.36 255.345 277.52 253.578 323.89C251.811 370.26 486.856 334.282 778.567 243.53Z" stroke="url(#paint26_linear_7550_113866)" stroke-opacity="0.4" stroke-width="2" stroke-miterlimit="10"/>
<path d="M779.601 249.689C1081.97 150.686 1327.91 30.2188 1328.92 -19.3812C1329.93 -68.9812 1085.62 -28.9321 783.249 70.071C480.876 169.074 234.937 289.541 233.93 339.141C232.922 388.741 477.227 348.692 779.601 249.689Z" stroke="url(#paint27_linear_7550_113866)" stroke-opacity="0.4" stroke-width="2" stroke-miterlimit="10"/>
<path d="M781.405 255.17C1093.91 147.594 1347.32 17.6119 1347.41 -35.1528C1347.5 -87.9175 1094.24 -43.4841 781.736 64.0919C469.233 171.668 215.824 301.65 215.733 354.414C215.641 407.179 468.901 362.746 781.405 255.17Z" stroke="url(#paint28_linear_7550_113866)" stroke-opacity="0.4" stroke-width="2" stroke-miterlimit="10"/>
<path d="M783.278 261.778C1105.8 145.179 1366.46 4.85222 1365.46 -51.6508C1364.47 -108.154 1102.2 -59.4364 779.677 57.1625C457.152 173.762 196.5 314.088 197.494 370.592C198.489 427.095 460.753 378.377 783.278 261.778Z" stroke="url(#paint29_linear_7550_113866)" stroke-opacity="0.4" stroke-width="2" stroke-miterlimit="10"/>
<path d="M786.017 269.148C1118.24 143.125 1385.71 -8.15068 1383.42 -68.7355C1381.12 -129.32 1109.95 -76.2721 777.722 49.7511C445.497 175.774 178.033 327.05 180.323 387.635C182.614 448.22 453.792 395.171 786.017 269.148Z" stroke="url(#paint30_linear_7550_113866)" stroke-opacity="0.4" stroke-width="2" stroke-miterlimit="10"/>
<path d="M788.931 276.863C1130.48 141.023 1404.26 -21.6058 1400.44 -86.3779C1396.62 -151.15 1116.65 -93.5379 775.1 42.3023C433.553 178.142 159.77 340.771 163.589 405.543C167.408 470.315 447.384 412.703 788.931 276.863Z" stroke="url(#paint31_linear_7550_113866)" stroke-opacity="0.4" stroke-width="2" stroke-miterlimit="10"/>
<path d="M792.198 285.751C1142.2 139.873 1421.35 -34.8687 1415.69 -104.545C1410.03 -174.221 1121.71 -112.447 771.702 33.4319C421.696 179.31 142.549 354.052 148.209 423.728C153.869 493.404 442.192 431.63 792.198 285.751Z" stroke="url(#paint32_linear_7550_113866)" stroke-opacity="0.4" stroke-width="2" stroke-miterlimit="10"/>
<path d="M795.912 294.989C1153.96 138.677 1437.87 -48.543 1430.06 -123.18C1422.25 -197.817 1125.66 -131.606 767.618 24.7049C409.574 181.016 125.656 368.237 133.469 442.873C141.283 517.51 437.868 451.3 795.912 294.989Z" stroke="url(#paint33_linear_7550_113866)" stroke-opacity="0.4" stroke-width="2" stroke-miterlimit="10"/>
<path d="M800.322 304.724C1165.7 137.648 1453.47 -62.8402 1443.07 -143.08C1432.67 -223.321 1128.04 -152.927 762.659 14.148C397.277 181.223 109.507 381.712 119.908 461.952C130.308 542.193 434.94 471.799 800.322 304.724Z" stroke="url(#paint34_linear_7550_113866)" stroke-opacity="0.4" stroke-width="2" stroke-miterlimit="10"/>
<path d="M805.855 316.543C1177.91 138.428 1468.59 -76.0504 1455.1 -162.509C1441.62 -248.967 1129.09 -174.665 757.033 3.45025C384.981 181.565 94.3023 396.044 107.784 482.502C121.266 568.96 433.803 494.658 805.855 316.543Z" stroke="url(#paint35_linear_7550_113866)" stroke-opacity="0.4" stroke-width="2" stroke-miterlimit="10"/>
<path d="M812.699 328.35C1190.45 138.985 1482.8 -89.9326 1465.68 -182.951C1448.56 -275.969 1128.45 -197.865 750.693 -8.49951C372.938 180.866 80.5876 409.783 97.7102 502.802C114.833 595.82 434.944 517.715 812.699 328.35Z" stroke="url(#paint36_linear_7550_113866)" stroke-opacity="0.4" stroke-width="2" stroke-miterlimit="10"/>
<path d="M820.748 341.346C1203.42 140.462 1496.24 -103.666 1474.77 -203.93C1453.3 -304.195 1125.67 -222.627 742.992 -21.7436C360.316 179.14 67.5019 423.268 88.9735 523.532C110.445 623.797 438.072 542.229 820.748 341.346Z" stroke="url(#paint37_linear_7550_113866)" stroke-opacity="0.4" stroke-width="2" stroke-miterlimit="10"/>
<path d="M829.746 354.894C1216.28 142.377 1508.06 -117.382 1481.47 -225.294C1454.88 -333.206 1119.98 -248.407 733.454 -35.8904C346.924 176.627 55.1357 436.386 81.7259 544.298C108.316 652.21 443.216 567.411 829.746 354.894Z" stroke="url(#paint38_linear_7550_113866)" stroke-opacity="0.4" stroke-width="2" stroke-miterlimit="10"/>
<path d="M840.602 370.721C1229.93 146.513 1519.02 -129.666 1486.3 -246.144C1453.57 -362.621 1111.43 -275.288 722.095 -51.08C332.763 173.128 43.6752 449.308 76.3999 565.785C109.125 682.262 451.269 594.929 840.602 370.721Z" stroke="url(#paint39_linear_7550_113866)" stroke-opacity="0.4" stroke-width="2" stroke-miterlimit="10"/>
<path d="M853.853 386.678C1244.89 150.714 1529.52 -142.269 1489.59 -267.719C1449.65 -393.169 1100.29 -303.579 709.249 -67.6149C318.213 168.349 33.5854 461.333 73.5165 586.782C113.448 712.232 462.816 622.642 853.853 386.678Z" stroke="url(#paint40_linear_7550_113866)" stroke-opacity="0.4" stroke-width="2" stroke-miterlimit="10"/>
<path d="M869.253 404.722C1260.86 157.067 1538.99 -153.36 1490.49 -288.637C1441.98 -423.914 1085.21 -332.813 693.605 -85.1585C302.003 162.497 23.867 472.924 72.3709 608.201C120.875 743.478 477.651 652.377 869.253 404.722Z" stroke="url(#paint41_linear_7550_113866)" stroke-opacity="0.4" stroke-width="2" stroke-miterlimit="10"/>
<path d="M887.806 423.682C1278.81 164.421 1548.25 -163.941 1489.61 -309.736C1430.97 -455.53 1066.45 -363.548 675.447 -104.287C284.439 154.973 15.003 483.336 73.6443 629.13C132.286 774.925 496.798 682.943 887.806 423.682Z" stroke="url(#paint42_linear_7550_113866)" stroke-opacity="0.4" stroke-width="2" stroke-miterlimit="10"/>
<path d="M909.233 443.704C1298.64 172.887 1557.09 -173.918 1486.5 -330.908C1415.9 -487.897 1043 -395.622 653.586 -124.805C264.177 146.012 5.72653 492.818 76.3214 649.807C146.916 806.797 519.824 714.521 909.233 443.704Z" stroke="url(#paint43_linear_7550_113866)" stroke-opacity="0.4" stroke-width="2" stroke-miterlimit="10"/>
<path d="M934.884 465.48C1321.53 183.389 1566.36 -182.185 1481.73 -351.052C1397.1 -519.919 1015.05 -428.133 628.405 -146.042C241.758 136.049 -3.07391 501.623 81.558 670.49C166.19 839.357 548.237 747.571 934.884 465.48Z" stroke="url(#paint44_linear_7550_113866)" stroke-opacity="0.4" stroke-width="2" stroke-miterlimit="10"/>
<path d="M964.61 487.94C1347.26 194.952 1575.51 -189.552 1474.44 -370.873C1373.37 -552.194 981.24 -461.669 598.596 -168.68C215.951 124.308 -12.3089 508.812 88.7633 690.133C189.836 871.454 581.966 780.929 964.61 487.94Z" stroke="url(#paint45_linear_7550_113866)" stroke-opacity="0.4" stroke-width="2" stroke-miterlimit="10"/>
<path d="M999.471 512.064C1377.32 208.354 1586.01 -195.598 1465.6 -390.189C1345.18 -584.781 941.261 -496.323 563.411 -192.613C185.562 111.096 -23.1306 515.049 97.2841 709.64C217.699 904.232 621.622 815.773 999.471 512.064Z" stroke="url(#paint46_linear_7550_113866)" stroke-opacity="0.4" stroke-width="2" stroke-miterlimit="10"/>
<path d="M1040.47 536.44C1412.56 222.398 1598.4 -200.973 1455.56 -409.185C1312.72 -617.397 895.291 -531.605 523.203 -217.563C151.114 96.4793 -34.7285 519.85 108.112 728.062C250.952 936.274 668.384 850.482 1040.47 536.44Z" stroke="url(#paint47_linear_7550_113866)" stroke-opacity="0.4" stroke-width="2" stroke-miterlimit="10"/>
<path d="M1087.1 562.012C1452.43 238.212 1611.7 -204.485 1442.83 -426.778C1273.97 -649.071 840.925 -566.784 475.598 -242.984C110.271 80.8164 -48.9946 523.513 119.868 745.806C288.73 968.1 721.776 885.812 1087.1 562.012Z" stroke="url(#paint48_linear_7550_113866)" stroke-opacity="0.4" stroke-width="2" stroke-miterlimit="10"/>
<path d="M1142.03 588.09C1500.13 254.766 1629.21 -207.319 1430.32 -444.006C1231.44 -680.694 779.908 -602.354 421.801 -269.03C63.6939 64.2941 -65.3816 526.38 133.503 763.067C332.387 999.754 783.918 921.414 1142.03 588.09Z" stroke="url(#paint49_linear_7550_113866)" stroke-opacity="0.4" stroke-width="2" stroke-miterlimit="10"/>
<path d="M162.762 794.982C408.204 1034.1 884.262 943.526 1226.07 592.68C1567.87 241.834 1645.99 -236.426 1400.55 -475.544C1155.11 -714.662 679.052 -624.088 337.246 -273.242C-4.56056 77.6044 -82.6793 555.865 162.762 794.982Z" stroke="url(#paint50_linear_7550_113866)" stroke-opacity="0.4" stroke-width="2" stroke-miterlimit="10"/>
</g>
</g>
<defs>
<filter id="filter0_f_7550_113866" x="-181.326" y="-810.129" width="1925.97" height="1939.7" filterUnits="userSpaceOnUse" color-interpolation-filters="sRGB">
<feFlood flood-opacity="0" result="BackgroundImageFix"/>
<feBlend mode="normal" in="SourceGraphic" in2="BackgroundImageFix" result="shape"/>
<feGaussianBlur stdDeviation="100" result="effect1_foregroundBlur_7550_113866"/>
</filter>
<linearGradient id="paint0_linear_7550_113866" x1="792.784" y1="134.723" x2="786.387" y2="186.548" gradientUnits="userSpaceOnUse">
<stop stop-color="#2EC659"/>
<stop offset="1" stop-color="#FFE600"/>
</linearGradient>
<linearGradient id="paint1_linear_7550_113866" x1="792.695" y1="133.924" x2="787.341" y2="187.24" gradientUnits="userSpaceOnUse">
<stop stop-color="#2EC659"/>
<stop offset="1" stop-color="#FFE600"/>
</linearGradient>
<linearGradient id="paint2_linear_7550_113866" x1="792.848" y1="133.142" x2="788.548" y2="187.913" gradientUnits="userSpaceOnUse">
<stop stop-color="#2EC659"/>
<stop offset="1" stop-color="#FFE600"/>
</linearGradient>
<linearGradient id="paint3_linear_7550_113866" x1="792.118" y1="132.149" x2="788.876" y2="188.332" gradientUnits="userSpaceOnUse">
<stop stop-color="#2EC659"/>
<stop offset="1" stop-color="#FFE600"/>
</linearGradient>
<linearGradient id="paint4_linear_7550_113866" x1="792.288" y1="131.51" x2="790.115" y2="189.079" gradientUnits="userSpaceOnUse">
<stop stop-color="#2EC659"/>
<stop offset="1" stop-color="#FFE600"/>
</linearGradient>
<linearGradient id="paint5_linear_7550_113866" x1="792.198" y1="130.375" x2="791.103" y2="189.291" gradientUnits="userSpaceOnUse">
<stop stop-color="#2EC659"/>
<stop offset="1" stop-color="#FFE600"/>
</linearGradient>
<linearGradient id="paint6_linear_7550_113866" x1="791.697" y1="129.131" x2="791.684" y2="190.199" gradientUnits="userSpaceOnUse">
<stop stop-color="#2EC659"/>
<stop offset="1" stop-color="#FFE600"/>
</linearGradient>
<linearGradient id="paint7_linear_7550_113866" x1="791.722" y1="127.794" x2="792.834" y2="190.977" gradientUnits="userSpaceOnUse">
<stop stop-color="#2EC659"/>
<stop offset="1" stop-color="#FFE600"/>
</linearGradient>
<linearGradient id="paint8_linear_7550_113866" x1="791.973" y1="126.541" x2="794.248" y2="191.801" gradientUnits="userSpaceOnUse">
<stop stop-color="#2EC659"/>
<stop offset="1" stop-color="#FFE600"/>
</linearGradient>
<linearGradient id="paint9_linear_7550_113866" x1="791.439" y1="125.842" x2="794.905" y2="193.14" gradientUnits="userSpaceOnUse">
<stop stop-color="#2EC659"/>
<stop offset="1" stop-color="#FFE600"/>
</linearGradient>
<linearGradient id="paint10_linear_7550_113866" x1="792.068" y1="123.947" x2="796.827" y2="194.059" gradientUnits="userSpaceOnUse">
<stop stop-color="#2EC659"/>
<stop offset="1" stop-color="#FFE600"/>
</linearGradient>
<linearGradient id="paint11_linear_7550_113866" x1="791.356" y1="122.348" x2="797.461" y2="195.216" gradientUnits="userSpaceOnUse">
<stop stop-color="#2EC659"/>
<stop offset="1" stop-color="#FFE600"/>
</linearGradient>
<linearGradient id="paint12_linear_7550_113866" x1="791.195" y1="120.362" x2="798.711" y2="195.936" gradientUnits="userSpaceOnUse">
<stop stop-color="#2EC659"/>
<stop offset="1" stop-color="#FFE600"/>
</linearGradient>
<linearGradient id="paint13_linear_7550_113866" x1="791.429" y1="118.822" x2="800.413" y2="197.06" gradientUnits="userSpaceOnUse">
<stop stop-color="#2EC659"/>
<stop offset="1" stop-color="#FFE600"/>
</linearGradient>
<linearGradient id="paint14_linear_7550_113866" x1="791.195" y1="117.163" x2="801.803" y2="198.804" gradientUnits="userSpaceOnUse">
<stop stop-color="#2EC659"/>
<stop offset="1" stop-color="#FFE600"/>
</linearGradient>
<linearGradient id="paint15_linear_7550_113866" x1="790.927" y1="114.648" x2="803.356" y2="200.409" gradientUnits="userSpaceOnUse">
<stop stop-color="#2EC659"/>
<stop offset="1" stop-color="#FFE600"/>
</linearGradient>
<linearGradient id="paint16_linear_7550_113866" x1="791.126" y1="112.272" x2="805.478" y2="202.082" gradientUnits="userSpaceOnUse">
<stop stop-color="#2EC659"/>
<stop offset="1" stop-color="#FFE600"/>
</linearGradient>
<linearGradient id="paint17_linear_7550_113866" x1="790.876" y1="109.878" x2="807.249" y2="203.653" gradientUnits="userSpaceOnUse">
<stop stop-color="#2EC659"/>
<stop offset="1" stop-color="#FFE600"/>
</linearGradient>
<linearGradient id="paint18_linear_7550_113866" x1="790.106" y1="107.274" x2="808.737" y2="205.699" gradientUnits="userSpaceOnUse">
<stop stop-color="#2EC659"/>
<stop offset="1" stop-color="#FFE600"/>
</linearGradient>
<linearGradient id="paint19_linear_7550_113866" x1="789.958" y1="104.533" x2="810.974" y2="207.519" gradientUnits="userSpaceOnUse">
<stop stop-color="#2EC659"/>
<stop offset="1" stop-color="#FFE600"/>
</linearGradient>
<linearGradient id="paint20_linear_7550_113866" x1="789.705" y1="100.713" x2="813.555" y2="209.668" gradientUnits="userSpaceOnUse">
<stop stop-color="#2EC659"/>
<stop offset="1" stop-color="#FFE600"/>
</linearGradient>
<linearGradient id="paint21_linear_7550_113866" x1="789.06" y1="97.929" x2="815.721" y2="211.983" gradientUnits="userSpaceOnUse">
<stop stop-color="#2EC659"/>
<stop offset="1" stop-color="#FFE600"/>
</linearGradient>
<linearGradient id="paint22_linear_7550_113866" x1="788.685" y1="93.6372" x2="818.673" y2="214.15" gradientUnits="userSpaceOnUse">
<stop stop-color="#2EC659"/>
<stop offset="1" stop-color="#FFE600"/>
</linearGradient>
<linearGradient id="paint23_linear_7550_113866" x1="787.788" y1="90.0963" x2="821.462" y2="217.672" gradientUnits="userSpaceOnUse">
<stop stop-color="#2EC659"/>
<stop offset="1" stop-color="#FFE600"/>
</linearGradient>
<linearGradient id="paint24_linear_7550_113866" x1="786.751" y1="85.7737" x2="824.317" y2="220.229" gradientUnits="userSpaceOnUse">
<stop stop-color="#2EC659"/>
<stop offset="1" stop-color="#FFE600"/>
</linearGradient>
<linearGradient id="paint25_linear_7550_113866" x1="786.324" y1="80.5139" x2="828.416" y2="223.13" gradientUnits="userSpaceOnUse">
<stop stop-color="#2EC659"/>
<stop offset="1" stop-color="#FFE600"/>
</linearGradient>
<linearGradient id="paint26_linear_7550_113866" x1="784.967" y1="75.608" x2="832.033" y2="226.896" gradientUnits="userSpaceOnUse">
<stop stop-color="#2EC659"/>
<stop offset="1" stop-color="#FFE600"/>
</linearGradient>
<linearGradient id="paint27_linear_7550_113866" x1="783.249" y1="70.071" x2="836.012" y2="231.218" gradientUnits="userSpaceOnUse">
<stop stop-color="#2EC659"/>
<stop offset="1" stop-color="#FFE600"/>
</linearGradient>
<linearGradient id="paint28_linear_7550_113866" x1="781.736" y1="64.0919" x2="840.509" y2="234.824" gradientUnits="userSpaceOnUse">
<stop stop-color="#2EC659"/>
<stop offset="1" stop-color="#FFE600"/>
</linearGradient>
<linearGradient id="paint29_linear_7550_113866" x1="779.677" y1="57.1625" x2="845.515" y2="239.278" gradientUnits="userSpaceOnUse">
<stop stop-color="#2EC659"/>
<stop offset="1" stop-color="#FFE600"/>
</linearGradient>
<linearGradient id="paint30_linear_7550_113866" x1="777.722" y1="49.7512" x2="851.521" y2="244.301" gradientUnits="userSpaceOnUse">
<stop stop-color="#2EC659"/>
<stop offset="1" stop-color="#FFE600"/>
</linearGradient>
<linearGradient id="paint31_linear_7550_113866" x1="775.1" y1="42.3023" x2="857.538" y2="249.577" gradientUnits="userSpaceOnUse">
<stop stop-color="#2EC659"/>
<stop offset="1" stop-color="#FFE600"/>
</linearGradient>
<linearGradient id="paint32_linear_7550_113866" x1="771.701" y1="33.432" x2="864.334" y2="255.685" gradientUnits="userSpaceOnUse">
<stop stop-color="#2EC659"/>
<stop offset="1" stop-color="#FFE600"/>
</linearGradient>
<linearGradient id="paint33_linear_7550_113866" x1="767.618" y1="24.7049" x2="871.256" y2="262.096" gradientUnits="userSpaceOnUse">
<stop stop-color="#2EC659"/>
<stop offset="1" stop-color="#FFE600"/>
</linearGradient>
<linearGradient id="paint34_linear_7550_113866" x1="762.659" y1="14.1481" x2="879.064" y2="268.718" gradientUnits="userSpaceOnUse">
<stop stop-color="#2EC659"/>
<stop offset="1" stop-color="#FFE600"/>
</linearGradient>
<linearGradient id="paint35_linear_7550_113866" x1="757.033" y1="3.45025" x2="888.077" y2="277.18" gradientUnits="userSpaceOnUse">
<stop stop-color="#2EC659"/>
<stop offset="1" stop-color="#FFE600"/>
</linearGradient>
<linearGradient id="paint36_linear_7550_113866" x1="750.692" y1="-8.49937" x2="898.093" y2="285.543" gradientUnits="userSpaceOnUse">
<stop stop-color="#2EC659"/>
<stop offset="1" stop-color="#FFE600"/>
</linearGradient>
<linearGradient id="paint37_linear_7550_113866" x1="742.992" y1="-21.7436" x2="909.215" y2="294.905" gradientUnits="userSpaceOnUse">
<stop stop-color="#2EC659"/>
<stop offset="1" stop-color="#FFE600"/>
</linearGradient>
<linearGradient id="paint38_linear_7550_113866" x1="733.454" y1="-35.8902" x2="920.789" y2="304.838" gradientUnits="userSpaceOnUse">
<stop stop-color="#2EC659"/>
<stop offset="1" stop-color="#FFE600"/>
</linearGradient>
<linearGradient id="paint39_linear_7550_113866" x1="722.095" y1="-51.08" x2="934.02" y2="316.924" gradientUnits="userSpaceOnUse">
<stop stop-color="#2EC659"/>
<stop offset="1" stop-color="#FFE600"/>
</linearGradient>
<linearGradient id="paint40_linear_7550_113866" x1="709.249" y1="-67.6149" x2="948.808" y2="329.379" gradientUnits="userSpaceOnUse">
<stop stop-color="#2EC659"/>
<stop offset="1" stop-color="#FFE600"/>
</linearGradient>
<linearGradient id="paint41_linear_7550_113866" x1="693.605" y1="-85.1583" x2="965.085" y2="344.117" gradientUnits="userSpaceOnUse">
<stop stop-color="#2EC659"/>
<stop offset="1" stop-color="#FFE600"/>
</linearGradient>
<linearGradient id="paint42_linear_7550_113866" x1="675.447" y1="-104.287" x2="983.465" y2="360.254" gradientUnits="userSpaceOnUse">
<stop stop-color="#2EC659"/>
<stop offset="1" stop-color="#FFE600"/>
</linearGradient>
<linearGradient id="paint43_linear_7550_113866" x1="653.586" y1="-124.805" x2="1003.41" y2="378.208" gradientUnits="userSpaceOnUse">
<stop stop-color="#2EC659"/>
<stop offset="1" stop-color="#FFE600"/>
</linearGradient>
<linearGradient id="paint44_linear_7550_113866" x1="628.405" y1="-146.042" x2="1026.04" y2="398.975" gradientUnits="userSpaceOnUse">
<stop stop-color="#2EC659"/>
<stop offset="1" stop-color="#FFE600"/>
</linearGradient>
<linearGradient id="paint45_linear_7550_113866" x1="598.595" y1="-168.68" x2="1050.82" y2="421.929" gradientUnits="userSpaceOnUse">
<stop stop-color="#2EC659"/>
<stop offset="1" stop-color="#FFE600"/>
</linearGradient>
<linearGradient id="paint46_linear_7550_113866" x1="563.411" y1="-192.613" x2="1078.66" y2="448.414" gradientUnits="userSpaceOnUse">
<stop stop-color="#2EC659"/>
<stop offset="1" stop-color="#FFE600"/>
</linearGradient>
<linearGradient id="paint47_linear_7550_113866" x1="523.203" y1="-217.563" x2="1110.03" y2="477.733" gradientUnits="userSpaceOnUse">
<stop stop-color="#2EC659"/>
<stop offset="1" stop-color="#FFE600"/>
</linearGradient>
<linearGradient id="paint48_linear_7550_113866" x1="475.598" y1="-242.984" x2="1144.22" y2="511.388" gradientUnits="userSpaceOnUse">
<stop stop-color="#2EC659"/>
<stop offset="1" stop-color="#FFE600"/>
</linearGradient>
<linearGradient id="paint49_linear_7550_113866" x1="421.801" y1="-269.03" x2="1183.59" y2="549.4" gradientUnits="userSpaceOnUse">
<stop stop-color="#2EC659"/>
<stop offset="1" stop-color="#FFE600"/>
</linearGradient>
<linearGradient id="paint50_linear_7550_113866" x1="1400.55" y1="-475.544" x2="162.762" y2="794.982" gradientUnits="userSpaceOnUse">
<stop stop-color="#2EC659"/>
<stop offset="1" stop-color="#FFE600"/>
</linearGradient>
<clipPath id="clip0_7550_113866">
<rect width="1440" height="1114" fill="white"/>
</clipPath>
</defs>
</svg>
