<svg width="334" height="436" viewBox="0 0 334 436" fill="none" xmlns="http://www.w3.org/2000/svg">
<g clip-path="url(#clip0_7550_114338)">
<g opacity="0.4">
<path opacity="0.1" d="M80.163 194.65L94.7372 86.9268C95.2814 83.3961 97.0478 80.1685 99.7283 77.8071C102.409 75.4457 105.833 74.1003 109.405 74.0056H217.128C218.762 73.9608 220.385 74.2795 221.881 74.9389C223.377 75.5982 224.708 76.5816 225.777 77.818C226.847 79.0545 227.628 80.513 228.065 82.0883C228.501 83.6636 228.583 85.3163 228.303 86.9268L213.729 194.65C213.19 198.179 211.428 201.406 208.751 203.768C206.074 206.129 202.653 207.476 199.085 207.571H91.3381C89.704 207.616 88.0804 207.297 86.5845 206.638C85.0887 205.979 83.758 204.995 82.6886 203.759C81.6193 202.522 80.838 201.064 80.4012 199.488C79.9644 197.913 79.8831 196.261 80.163 194.65Z" fill="white"/>
<path opacity="0.1" d="M233.632 194.649L248.276 86.9262C248.821 83.3955 250.587 80.1679 253.268 77.8065C255.948 75.445 259.373 74.0996 262.944 74.005H370.667C372.302 73.9558 373.928 74.2717 375.426 74.9297C376.924 75.5876 378.256 76.571 379.327 77.8085C380.397 79.046 381.178 80.5064 381.613 82.0835C382.048 83.6607 382.126 85.315 381.842 86.9262L367.291 194.649C366.743 198.178 364.975 201.403 362.295 203.764C359.616 206.124 356.194 207.471 352.624 207.571H244.784C243.151 207.616 241.528 207.298 240.033 206.638C238.538 205.979 237.208 204.995 236.14 203.758C235.073 202.521 234.294 201.062 233.86 199.486C233.426 197.911 233.348 196.259 233.632 194.649Z" fill="white"/>
<path opacity="0.1" d="M59.4167 348.121L73.9909 240.352C74.5393 236.823 76.307 233.598 78.9867 231.237C81.6663 228.877 85.0885 227.53 88.6582 227.43H196.381C198.015 227.386 199.639 227.704 201.135 228.364C202.631 229.023 203.962 230.006 205.031 231.243C206.1 232.479 206.882 233.938 207.318 235.513C207.755 237.088 207.836 238.741 207.557 240.352L192.982 348.098C192.438 351.623 190.674 354.844 187.998 357.201C185.322 359.559 181.903 360.901 178.338 360.996H70.5918C68.9623 361.04 67.3435 360.722 65.8516 360.065C64.3597 359.408 63.0317 358.429 61.9632 357.198C60.8948 355.967 60.1123 354.515 59.6719 352.945C59.2316 351.376 59.1445 349.729 59.4167 348.121Z" fill="white"/>
<path opacity="0.1" d="M212.892 348.121L227.443 240.352C227.991 236.823 229.759 233.598 232.438 231.237C235.118 228.877 238.54 227.53 242.11 227.43H349.833C351.467 227.386 353.091 227.704 354.587 228.364C356.083 229.023 357.413 230.006 358.483 231.243C359.552 232.479 360.333 233.938 360.77 235.513C361.207 237.088 361.288 238.741 361.008 240.352L346.457 348.098C345.904 351.623 344.134 354.842 341.455 357.198C338.776 359.554 335.356 360.898 331.79 360.996H224.044C222.415 361.04 220.797 360.723 219.305 360.066C217.814 359.409 216.488 358.429 215.421 357.198C214.354 355.966 213.574 354.513 213.137 352.944C212.699 351.374 212.616 349.727 212.892 348.121Z" fill="white"/>
<path d="M72.9931 194.65L87.6371 86.9268C88.1813 83.3961 89.9477 80.1685 92.6282 77.8071C95.3088 75.4457 98.7333 74.1003 102.304 74.0056H210.028C211.662 73.9608 213.285 74.2795 214.781 74.9389C216.277 75.5982 217.608 76.5816 218.677 77.818C219.746 79.0545 220.528 80.513 220.965 82.0883C221.401 83.6636 221.483 85.3163 221.203 86.9268L206.628 194.65C206.089 198.179 204.328 201.406 201.651 203.768C198.974 206.129 195.553 207.476 191.985 207.571H84.1682C82.5341 207.616 80.9104 207.297 79.4146 206.638C77.9187 205.979 76.588 204.995 75.5187 203.759C74.4493 202.522 73.6681 201.064 73.2313 199.488C72.7945 197.913 72.7132 196.261 72.9931 194.65Z" fill="url(#paint0_linear_7550_114338)"/>
<path opacity="0.2" d="M72.9931 194.65L87.6371 86.9268C88.1813 83.3961 89.9477 80.1685 92.6282 77.8071C95.3088 75.4457 98.7333 74.1003 102.304 74.0056H210.028C211.662 73.9608 213.285 74.2795 214.781 74.9389C216.277 75.5982 217.608 76.5816 218.677 77.818C219.746 79.0545 220.528 80.513 220.965 82.0883C221.401 83.6636 221.483 85.3163 221.203 86.9268L206.628 194.65C206.089 198.179 204.328 201.406 201.651 203.768C198.974 206.129 195.553 207.476 191.985 207.571H84.1682C82.5341 207.616 80.9104 207.297 79.4146 206.638C77.9187 205.979 76.588 204.995 75.5187 203.759C74.4493 202.522 73.6681 201.064 73.2313 199.488C72.7945 197.913 72.7132 196.261 72.9931 194.65Z" fill="white"/>
<path d="M226.462 194.649L241.013 86.9262C241.557 83.3955 243.324 80.1679 246.004 77.8065C248.685 75.445 252.109 74.0996 255.681 74.005H363.404C365.039 73.9558 366.665 74.2717 368.163 74.9297C369.661 75.5876 370.993 76.571 372.064 77.8085C373.134 79.046 373.915 80.5064 374.35 82.0835C374.785 83.6607 374.863 85.315 374.579 86.9262L360.028 194.649C359.48 198.178 357.712 201.403 355.032 203.764C352.353 206.124 348.93 207.471 345.361 207.571H237.614C235.981 207.616 234.358 207.298 232.863 206.638C231.368 205.979 230.038 204.995 228.97 203.758C227.903 202.521 227.124 201.062 226.69 199.486C226.256 197.911 226.179 196.259 226.462 194.649Z" fill="url(#paint1_linear_7550_114338)"/>
<path opacity="0.2" d="M226.462 194.649L241.013 86.9262C241.557 83.3955 243.324 80.1679 246.004 77.8065C248.685 75.445 252.109 74.0996 255.681 74.005H363.404C365.039 73.9558 366.665 74.2717 368.163 74.9297C369.661 75.5876 370.993 76.571 372.064 77.8085C373.134 79.046 373.915 80.5064 374.35 82.0835C374.785 83.6607 374.863 85.315 374.579 86.9262L360.028 194.649C359.48 198.178 357.712 201.403 355.032 203.764C352.353 206.124 348.93 207.471 345.361 207.571H237.614C235.981 207.616 234.358 207.298 232.863 206.638C231.368 205.979 230.038 204.995 228.97 203.758C227.903 202.521 227.124 201.062 226.69 199.486C226.256 197.911 226.179 196.259 226.462 194.649Z" fill="white"/>
<path d="M52.2468 348.121L66.821 240.352C67.3694 236.823 69.1371 233.598 71.8167 231.237C74.4964 228.877 77.9185 227.53 81.4883 227.43H189.211C190.846 227.386 192.469 227.704 193.965 228.364C195.461 229.023 196.792 230.006 197.861 231.243C198.93 232.479 199.712 233.938 200.148 235.513C200.585 237.088 200.666 238.741 200.387 240.352L185.812 348.098C185.268 351.623 183.504 354.844 180.828 357.201C178.152 359.559 174.733 360.901 171.168 360.996H63.4219C61.7925 361.04 60.1736 360.722 58.6817 360.065C57.1898 359.408 55.8618 358.429 54.7933 357.198C53.7248 355.967 52.9423 354.515 52.502 352.945C52.0617 351.376 51.9746 349.729 52.2468 348.121Z" fill="url(#paint2_linear_7550_114338)"/>
<path opacity="0.2" d="M52.2468 348.121L66.821 240.352C67.3694 236.823 69.1371 233.598 71.8167 231.237C74.4964 228.877 77.9185 227.53 81.4883 227.43H189.211C190.846 227.386 192.469 227.704 193.965 228.364C195.461 229.023 196.792 230.006 197.861 231.243C198.93 232.479 199.712 233.938 200.148 235.513C200.585 237.088 200.666 238.741 200.387 240.352L185.812 348.098C185.268 351.623 183.504 354.844 180.828 357.201C178.152 359.559 174.733 360.901 171.168 360.996H63.4219C61.7925 361.04 60.1736 360.722 58.6817 360.065C57.1898 359.408 55.8618 358.429 54.7933 357.198C53.7248 355.967 52.9423 354.515 52.502 352.945C52.0617 351.376 51.9746 349.729 52.2468 348.121Z" fill="white"/>
<path d="M205.72 348.121L220.341 240.352C220.889 236.823 222.657 233.598 225.336 231.237C228.016 228.877 231.438 227.53 235.008 227.43H342.731C344.365 227.386 345.989 227.704 347.485 228.364C348.981 229.023 350.311 230.006 351.381 231.243C352.45 232.479 353.231 233.938 353.668 235.513C354.105 237.088 354.186 238.741 353.906 240.352L339.355 348.098C338.802 351.623 337.032 354.842 334.353 357.198C331.674 359.554 328.254 360.898 324.688 360.996H216.872C215.243 361.04 213.625 360.723 212.134 360.066C210.642 359.409 209.316 358.429 208.249 357.198C207.182 355.966 206.402 354.513 205.965 352.944C205.527 351.374 205.444 349.727 205.72 348.121Z" fill="url(#paint3_linear_7550_114338)"/>
<path opacity="0.2" d="M205.72 348.121L220.341 240.352C220.889 236.823 222.657 233.598 225.336 231.237C228.016 228.877 231.438 227.53 235.008 227.43H342.731C344.365 227.386 345.989 227.704 347.485 228.364C348.981 229.023 350.311 230.006 351.381 231.243C352.45 232.479 353.231 233.938 353.668 235.513C354.105 237.088 354.186 238.741 353.906 240.352L339.355 348.098C338.802 351.623 337.032 354.842 334.353 357.198C331.674 359.554 328.254 360.898 324.688 360.996H216.872C215.243 361.04 213.625 360.723 212.134 360.066C210.642 359.409 209.316 358.429 208.249 357.198C207.182 355.966 206.402 354.513 205.965 352.944C205.527 351.374 205.444 349.727 205.72 348.121Z" fill="white"/>
<path d="M140.997 185.616C139.366 185.653 137.746 185.328 136.254 184.666C134.763 184.004 133.436 183.021 132.368 181.786C131.3 180.552 130.519 179.097 130.078 177.525C129.638 175.954 129.551 174.305 129.822 172.695L138.46 108.904C139.012 105.375 140.78 102.149 143.458 99.7858C146.136 97.4221 149.556 96.0687 153.127 95.9596C154.762 95.9183 156.386 96.2403 157.882 96.9024C159.378 97.5644 160.708 98.55 161.777 99.7881C162.846 101.026 163.626 102.486 164.063 104.062C164.5 105.639 164.581 107.292 164.302 108.904L155.688 172.695C155.13 176.224 153.356 179.447 150.674 181.806C147.991 184.166 144.568 185.514 140.997 185.616Z" fill="white"/>
<path d="M102.231 140.8C102.788 137.269 104.56 134.043 107.243 131.68C109.925 129.316 113.348 127.964 116.921 127.855H180.759C182.393 127.818 184.015 128.143 185.508 128.807C187.002 129.47 188.331 130.456 189.399 131.693C190.467 132.93 191.248 134.388 191.686 135.962C192.124 137.537 192.209 139.189 191.934 140.8C191.377 144.325 189.607 147.545 186.929 149.904C184.251 152.263 180.834 153.613 177.267 153.721H113.476C111.838 153.768 110.211 153.451 108.71 152.794C107.21 152.136 105.874 151.154 104.799 149.919C103.723 148.683 102.935 147.224 102.491 145.648C102.047 144.071 101.958 142.415 102.231 140.8Z" fill="white"/>
<path d="M90.3346 325.934C85.981 320.905 87.0985 312.686 92.8024 307.658L144.022 262.538C149.726 257.509 157.99 257.509 162.298 262.538C166.651 267.567 165.534 275.809 159.83 280.837L108.611 325.934C102.907 330.962 94.6184 330.962 90.3346 325.934Z" fill="white"/>
<path d="M98.9021 262.538C104.606 257.509 112.871 257.509 117.201 262.538L156.198 307.658C160.551 312.686 159.434 320.905 153.73 325.934C148.026 330.962 139.761 330.962 135.454 325.934L96.4342 280.837C92.0806 275.809 93.1981 267.567 98.9021 262.538Z" fill="white"/>
<path d="M255.678 140.8C256.235 137.268 258.008 134.043 260.69 131.679C263.372 129.316 266.795 127.963 270.368 127.855H334.16C335.795 127.814 337.419 128.136 338.914 128.798C340.41 129.46 341.74 130.446 342.809 131.684C343.878 132.922 344.659 134.382 345.096 135.958C345.532 137.534 345.614 139.188 345.335 140.8C344.778 144.325 343.007 147.544 340.33 149.904C337.652 152.263 334.234 153.613 330.667 153.721H266.899C265.264 153.764 263.639 153.445 262.142 152.786C260.644 152.127 259.311 151.145 258.238 149.909C257.166 148.674 256.38 147.217 255.937 145.641C255.494 144.066 255.406 142.413 255.678 140.8Z" fill="white"/>
<path d="M237.66 274.132C238.218 270.604 239.991 267.381 242.674 265.021C245.357 262.662 248.78 261.314 252.351 261.211H316.142C317.773 261.175 319.393 261.499 320.885 262.161C322.376 262.823 323.703 263.807 324.771 265.041C325.839 266.276 326.62 267.731 327.06 269.302C327.501 270.874 327.588 272.523 327.317 274.132C326.765 277.662 324.997 280.887 322.318 283.251C319.64 285.614 316.22 286.968 312.65 287.077H248.835C247.201 287.114 245.579 286.789 244.086 286.126C242.592 285.462 241.263 284.477 240.195 283.24C239.127 282.003 238.346 280.544 237.908 278.97C237.47 277.395 237.385 275.744 237.66 274.132Z" fill="white"/>
<path d="M232.237 314.339C232.794 310.814 234.564 307.594 237.242 305.235C239.92 302.876 243.337 301.525 246.904 301.417H310.695C312.329 301.377 313.951 301.699 315.446 302.36C316.94 303.02 318.27 304.003 319.341 305.238C320.411 306.473 321.195 307.929 321.636 309.502C322.077 311.076 322.165 312.727 321.894 314.339C321.337 317.87 319.564 321.095 316.882 323.459C314.2 325.822 310.776 327.175 307.203 327.283H243.412C241.777 327.324 240.153 327.002 238.657 326.34C237.161 325.678 235.831 324.693 234.762 323.454C233.693 322.216 232.912 320.756 232.476 319.18C232.039 317.604 231.957 315.95 232.237 314.339Z" fill="white"/>
</g>
</g>
<defs>
<linearGradient id="paint0_linear_7550_114338" x1="147.098" y1="74.0015" x2="147.098" y2="207.575" gradientUnits="userSpaceOnUse">
<stop stop-color="#C1F8D0"/>
<stop offset="1" stop-color="#EDF4EF"/>
</linearGradient>
<linearGradient id="paint1_linear_7550_114338" x1="300.521" y1="74" x2="300.521" y2="207.575" gradientUnits="userSpaceOnUse">
<stop stop-color="#C1F8D0"/>
<stop offset="1" stop-color="#EDF4EF"/>
</linearGradient>
<linearGradient id="paint2_linear_7550_114338" x1="126.321" y1="227.426" x2="126.321" y2="361" gradientUnits="userSpaceOnUse">
<stop stop-color="#C1F8D0"/>
<stop offset="1" stop-color="#EDF4EF"/>
</linearGradient>
<linearGradient id="paint3_linear_7550_114338" x1="279.815" y1="227.426" x2="279.815" y2="361" gradientUnits="userSpaceOnUse">
<stop stop-color="#C1F8D0"/>
<stop offset="1" stop-color="#EDF4EF"/>
</linearGradient>
<clipPath id="clip0_7550_114338">
<rect width="334" height="436" fill="white"/>
</clipPath>
</defs>
</svg>
