<svg width="1280" height="297" viewBox="0 0 1280 297" fill="none" xmlns="http://www.w3.org/2000/svg">
<g clip-path="url(#clip0_7550_113224)">
<rect width="92.1174" height="92.1174" transform="matrix(0.866025 0.5 -0.866025 0.5 918.703 16.209)" fill="url(#paint0_linear_7550_113224)" fill-opacity="0.6"/>
<rect width="158.636" height="158.636" transform="matrix(0.866025 0.5 -0.866025 0.5 1245.02 168.781)" fill="url(#paint1_linear_7550_113224)"/>
<rect width="359.68" height="359.68" transform="matrix(0.866025 0.5 -0.866025 0.5 38.4922 0.462891)" fill="url(#paint2_linear_7550_113224)" fill-opacity="0.5"/>
<rect width="359.68" height="359.68" transform="matrix(0.866025 0.5 -0.866025 0.5 38.498 -71.4746)" fill="url(#paint3_linear_7550_113224)" fill-opacity="0.5"/>
<rect width="359.68" height="359.68" transform="matrix(0.866025 0.5 -0.866025 0.5 38.5 -143.418)" fill="url(#paint4_linear_7550_113224)" fill-opacity="0.5"/>
<rect width="359.68" height="359.68" transform="matrix(0.866025 0.5 -0.866025 0.5 38.502 -215.357)" fill="url(#paint5_linear_7550_113224)" fill-opacity="0.5"/>
<rect width="359.68" height="359.68" transform="matrix(0.866025 0.5 -0.866025 0.5 38.5098 -287.295)" fill="url(#paint6_linear_7550_113224)" fill-opacity="0.5"/>
</g>
<defs>
<linearGradient id="paint0_linear_7550_113224" x1="92.5948" y1="91.6401" x2="-0.00959656" y2="92.9509" gradientUnits="userSpaceOnUse">
<stop stop-color="white"/>
<stop offset="1" stop-color="#C1F4BB"/>
</linearGradient>
<linearGradient id="paint1_linear_7550_113224" x1="159.458" y1="157.814" x2="-0.0165263" y2="160.071" gradientUnits="userSpaceOnUse">
<stop stop-color="white"/>
<stop offset="1" stop-color="#D0EFCC"/>
</linearGradient>
<linearGradient id="paint2_linear_7550_113224" x1="361.544" y1="357.816" x2="-0.0374705" y2="362.934" gradientUnits="userSpaceOnUse">
<stop stop-color="white"/>
<stop offset="1" stop-color="#52DC3C"/>
</linearGradient>
<linearGradient id="paint3_linear_7550_113224" x1="361.544" y1="357.816" x2="-0.0374705" y2="362.934" gradientUnits="userSpaceOnUse">
<stop stop-color="white"/>
<stop offset="1" stop-color="#52DC3C"/>
</linearGradient>
<linearGradient id="paint4_linear_7550_113224" x1="361.544" y1="357.816" x2="-0.0374705" y2="362.934" gradientUnits="userSpaceOnUse">
<stop stop-color="white"/>
<stop offset="1" stop-color="#52DC3C"/>
</linearGradient>
<linearGradient id="paint5_linear_7550_113224" x1="361.544" y1="357.816" x2="-0.0374705" y2="362.934" gradientUnits="userSpaceOnUse">
<stop stop-color="white"/>
<stop offset="1" stop-color="#52DC3C"/>
</linearGradient>
<linearGradient id="paint6_linear_7550_113224" x1="361.544" y1="357.816" x2="-0.0374705" y2="362.934" gradientUnits="userSpaceOnUse">
<stop stop-color="white"/>
<stop offset="1" stop-color="#52DC3C"/>
</linearGradient>
<clipPath id="clip0_7550_113224">
<rect width="1280" height="297" fill="white"/>
</clipPath>
</defs>
</svg>
