<svg width="20" height="20" viewBox="0 0 20 20" fill="none" xmlns="http://www.w3.org/2000/svg">
<path fill-rule="evenodd" clip-rule="evenodd" d="M3.3335 15.4167C3.3335 16.5673 4.26624 17.5 5.41683 17.5L14.1668 17.5C15.3174 17.5 16.2502 16.5673 16.2502 15.4167V6.97425C16.2502 6.2813 15.9625 5.61943 15.456 5.14661L13.3407 3.17236C12.8778 2.7403 12.2681 2.5 11.6349 2.5L5.41683 2.5C4.26624 2.5 3.3335 3.43274 3.3335 4.58334L3.3335 15.4167ZM5.41683 15.8333C5.18671 15.8333 5.00016 15.6468 5.00016 15.4167L5.00016 4.58334C5.00016 4.35322 5.18671 4.16667 5.41683 4.16667L11.6349 4.16667C11.846 4.16667 12.0492 4.24677 12.2035 4.39079L14.3188 6.36504C14.4876 6.52265 14.5835 6.74327 14.5835 6.97425L14.5835 15.4167C14.5835 15.6468 14.397 15.8333 14.1668 15.8333L5.41683 15.8333Z" fill="#474D57"/>
<path d="M11 4V7C11 7.55228 11.4477 8 12 8H15" stroke="#474D57" stroke-width="1.65"/>
</svg>
