<svg xmlns="http://www.w3.org/2000/svg" width="121" height="120" viewBox="0 0 121 120" fill="none">
    <g clip-path="url(#clip0_5564_157348)">
        <path d="M11.0951 89.9518C11.0951 90.7979 10.4092 91.4838 9.56316 91.4838C8.71711 91.4838 8.03125 90.7979 8.03125 89.9518C8.03125 89.1058 8.71711 88.4199 9.56316 88.4199C10.4092 88.4199 11.0951 89.1058 11.0951 89.9518Z" fill="#F9F9F9"/>
        <path d="M104.883 95.6534C104.883 96.6405 104.083 97.4407 103.096 97.4407C102.109 97.4407 101.309 96.6405 101.309 95.6534C101.309 94.6664 102.109 93.8662 103.096 93.8662C104.083 93.8662 104.883 94.6664 104.883 95.6534Z" fill="#F6F7F7"/>
        <path d="M16.6057 103.787C16.6057 104.774 15.8055 105.574 14.8185 105.574C13.8314 105.574 13.0312 104.774 13.0312 103.787C13.0312 102.8 13.8314 102 14.8185 102C15.8055 102 16.6057 102.8 16.6057 103.787Z" fill="#F6F7F7"/>
        <path d="M112.031 101.101C112.031 102.37 111.002 103.398 109.733 103.398C108.464 103.398 107.436 102.37 107.436 101.101C107.436 99.8315 108.464 98.8027 109.733 98.8027C111.002 98.8027 112.031 99.8315 112.031 101.101Z" fill="#F3F3F5"/>
        <path d="M101.988 106.207C101.988 107.758 100.731 109.015 99.1796 109.015C97.6285 109.015 96.3711 107.758 96.3711 106.207C96.3711 104.656 97.6285 103.398 99.1796 103.398C100.731 103.398 101.988 104.656 101.988 106.207Z" fill="#E4E5E6"/>
        <path d="M104.265 113.787C104.265 116.983 83.8419 119.574 58.6483 119.574C33.4547 119.574 13.0312 116.983 13.0312 113.787C13.0312 110.591 33.4547 108 58.6483 108C83.8419 108 104.265 110.591 104.265 113.787Z" fill="url(#paint0_linear_5564_157348)"/>
        <path fill-rule="evenodd" clip-rule="evenodd" d="M48.5326 79.8833C48.1123 79.8833 47.8795 80.3704 48.1436 80.6974L55.7509 90.1159C55.951 90.3637 56.3287 90.3637 56.5288 90.1159L64.1361 80.6974C64.4002 80.3704 64.1674 79.8833 63.7471 79.8833L61.173 79.8833C60.8968 79.8833 60.673 79.6594 60.673 79.3833L60.673 70.4933C60.673 70.2171 60.4491 69.9933 60.173 69.9933L52.1071 69.9933C51.8309 69.9933 51.6071 70.2171 51.6071 70.4933L51.6071 79.3833C51.6071 79.6594 51.3832 79.8833 51.1071 79.8833L48.5326 79.8833Z" fill="#BABEC7"/>
        <path fill-rule="evenodd" clip-rule="evenodd" d="M71.6139 74.1148C72.0342 74.1148 72.267 73.6276 72.0028 73.3006L64.3956 63.8821C64.1955 63.6343 63.8178 63.6343 63.6177 63.8821L56.0104 73.3006C55.7463 73.6276 55.979 74.1148 56.3994 74.1148L58.9735 74.1148C59.2497 74.1148 59.4735 74.3386 59.4735 74.6148L59.4735 83.505C59.4735 83.7812 59.6974 84.005 59.9735 84.005L68.0394 84.005C68.3156 84.005 68.5394 83.7812 68.5394 83.505L68.5394 74.6148C68.5394 74.3386 68.7633 74.1148 69.0394 74.1148L71.6139 74.1148Z" fill="#9197A6"/>
        <path d="M46.9306 64.8763V77.9204H43.2445V64.8763C43.2445 59.916 39.4769 55.8825 34.8423 55.8825C30.2076 55.8825 26.4401 59.916 26.4401 64.8763V77.9204H22.7539V64.8763C22.7539 57.7723 28.1765 52 34.8423 52C41.508 52 46.9306 57.7723 46.9306 64.8763Z" fill="url(#paint1_linear_5564_157348)"/>
        <path d="M46.9306 64.8763V77.9204H43.2445V64.8763C43.2445 59.916 39.4769 55.8825 34.8423 55.8825C30.2076 55.8825 26.4401 59.916 26.4401 64.8763V77.9204H22.7539V64.8763C22.7539 57.7723 28.1765 52 34.8423 52C41.508 52 46.9306 57.7723 46.9306 64.8763Z" fill="url(#paint2_radial_5564_157348)" fill-opacity="0.2"/>
        <path d="M22.7539 68.2681L26.4401 68.4166V77.9205H22.7539V68.2681Z" fill="#A0A6B2"/>
        <path d="M46.9303 69.2529V77.921H43.2441V69.1021L46.9303 69.2529Z" fill="#A0A6B2"/>
        <path d="M47.6568 70.4927H22.0312C19.8221 70.4927 18.0312 72.2835 18.0312 74.4927V96.9998C18.0312 99.2089 19.8221 101 22.0312 101H47.6568C49.866 101 51.6568 99.2089 51.6568 96.9998V74.4927C51.6568 72.2835 49.866 70.4927 47.6568 70.4927Z" fill="url(#paint3_linear_5564_157348)"/>
        <path d="M36.2648 86.8639L37.6708 93.5392H31.6973L33.1056 86.8639C32.5549 86.5207 32.1309 86.0076 31.8978 85.402C31.6647 84.7964 31.6352 84.1314 31.8137 83.5076C31.9921 82.8837 32.3689 82.3349 32.887 81.9443C33.4051 81.5536 34.0363 81.3423 34.6852 81.3423C35.3341 81.3423 35.9653 81.5536 36.4834 81.9443C37.0015 82.3349 37.3783 82.8837 37.5568 83.5076C37.7353 84.1314 37.7057 84.7964 37.4726 85.402C37.2395 86.0076 36.8155 86.5207 36.2648 86.8639Z" fill="url(#paint4_linear_5564_157348)"/>
        <g filter="url(#filter0_d_5564_157348)">
            <path d="M96.0312 59.2126C96.0312 59.2126 91.7213 93.7153 84.6399 101.49C76.1375 110.802 69.9604 109.44 66.5313 114.243C63.1021 109.434 56.9308 110.802 48.4167 101.484C41.3353 93.7153 37.0312 59.2067 37.0312 59.2067C55.6919 50.1524 66.543 40 66.543 40C66.8659 40.3171 77.6583 50.2992 96.0312 59.2126Z" fill="url(#paint5_linear_5564_157348)"/>
            <path d="M96.0312 59.2126C96.0312 59.2126 91.7213 93.7153 84.6399 101.49C76.1375 110.802 69.9604 109.44 66.5313 114.243C63.1021 109.434 56.9308 110.802 48.4167 101.484C41.3353 93.7153 37.0312 59.2067 37.0312 59.2067C55.6919 50.1524 66.543 40 66.543 40C66.8659 40.3171 77.6583 50.2992 96.0312 59.2126Z" fill="url(#paint6_radial_5564_157348)" fill-opacity="0.2"/>
            <path d="M91.4552 61.9973C91.4552 61.9973 87.8147 91.1391 81.8313 97.7038C74.6384 105.584 69.4242 104.427 66.5235 108.484C63.6228 104.427 58.4087 105.584 51.2216 97.7038C45.2382 91.1391 41.6035 61.9973 41.6035 61.9973C57.3693 54.3639 66.5235 45.7617 66.5235 45.7617C66.5235 45.7617 75.6894 54.3404 91.4552 61.9973Z" fill="url(#paint7_linear_5564_157348)"/>
            <path d="M41.6113 61.9953C41.6113 61.9953 45.2519 91.1371 51.2352 97.7018C58.4165 105.576 63.6072 104.425 66.5431 108.471V45.7715C66.2553 46.0298 57.1482 54.4559 41.6113 61.9953Z" fill="url(#paint8_linear_5564_157348)"/>
            <path d="M41.6113 61.9953C41.6113 61.9953 45.2519 91.1371 51.2352 97.7018C58.4165 105.576 63.6072 104.425 66.5431 108.471V45.7715C66.2553 46.0298 57.1482 54.4559 41.6113 61.9953Z" fill="url(#paint9_radial_5564_157348)" fill-opacity="0.2"/>
            <path d="M74.7029 85.2942C79.2157 80.7814 79.2157 73.4647 74.7029 68.9519C70.1901 64.4391 62.8734 64.4391 58.3606 68.9519C53.8478 73.4647 53.8478 80.7814 58.3606 85.2942C62.8734 89.807 70.1901 89.807 74.7029 85.2942Z" fill="#00BA34"/>
            <path fill-rule="evenodd" clip-rule="evenodd" d="M65.632 82.3711C65.1113 82.8918 64.2671 82.8918 63.7464 82.3711L59.9752 78.5999C59.4545 78.0792 59.4545 77.235 59.9752 76.7143C60.4959 76.1936 61.3401 76.1936 61.8608 76.7143L65.632 80.4855C66.1527 81.0062 66.1527 81.8504 65.632 82.3711Z" fill="white"/>
            <path fill-rule="evenodd" clip-rule="evenodd" d="M63.7463 82.371C63.2256 81.8503 63.2256 81.0061 63.7463 80.4854L71.2888 72.9429C71.8095 72.4222 72.6537 72.4222 73.1744 72.9429C73.6951 73.4636 73.6951 74.3079 73.1744 74.8285L65.6319 82.371C65.1112 82.8917 64.267 82.8917 63.7463 82.371Z" fill="white"/>
        </g>
    </g>
    <defs>
        <filter id="filter0_d_5564_157348" x="17.0312" y="24" width="99" height="114.243" filterUnits="userSpaceOnUse" color-interpolation-filters="sRGB">
            <feFlood flood-opacity="0" result="BackgroundImageFix"/>
            <feColorMatrix in="SourceAlpha" type="matrix" values="0 0 0 0 0 0 0 0 0 0 0 0 0 0 0 0 0 0 127 0" result="hardAlpha"/>
            <feOffset dy="4"/>
            <feGaussianBlur stdDeviation="10"/>
            <feComposite in2="hardAlpha" operator="out"/>
            <feColorMatrix type="matrix" values="0 0 0 0 0 0 0 0 0 0 0 0 0 0 0 0 0 0 0.04 0"/>
            <feBlend mode="normal" in2="BackgroundImageFix" result="effect1_dropShadow_5564_157348"/>
            <feBlend mode="normal" in="SourceGraphic" in2="effect1_dropShadow_5564_157348" result="shape"/>
        </filter>
        <linearGradient id="paint0_linear_5564_157348" x1="13.0312" y1="113.787" x2="104.265" y2="113.787" gradientUnits="userSpaceOnUse">
            <stop stop-color="#F6F8FA"/>
            <stop offset="0.460263" stop-color="#FAFBFC" stop-opacity="0.13"/>
            <stop offset="1" stop-color="white" stop-opacity="0"/>
        </linearGradient>
        <linearGradient id="paint1_linear_5564_157348" x1="34.8423" y1="52" x2="34.8423" y2="77.9204" gradientUnits="userSpaceOnUse">
            <stop stop-color="#C4C7CD"/>
            <stop offset="1" stop-color="#C1CCD1"/>
        </linearGradient>
        <radialGradient id="paint2_radial_5564_157348" cx="0" cy="0" r="1" gradientUnits="userSpaceOnUse" gradientTransform="translate(34.8423 64.9602) rotate(90) scale(12.9602 12.0884)">
            <stop/>
            <stop offset="1" stop-opacity="0"/>
        </radialGradient>
        <linearGradient id="paint3_linear_5564_157348" x1="34.844" y1="70.4927" x2="34.844" y2="101" gradientUnits="userSpaceOnUse">
            <stop stop-color="#E5E8F1"/>
            <stop offset="1" stop-color="#AFB3BD"/>
        </linearGradient>
        <linearGradient id="paint4_linear_5564_157348" x1="34.6846" y1="81.3423" x2="34.6846" y2="93.5392" gradientUnits="userSpaceOnUse">
            <stop stop-color="#9398A4"/>
            <stop offset="1" stop-color="#61646C"/>
        </linearGradient>
        <linearGradient id="paint5_linear_5564_157348" x1="66.5312" y1="40" x2="66.5313" y2="114.243" gradientUnits="userSpaceOnUse">
            <stop stop-color="#F9FBFC"/>
            <stop offset="1" stop-color="#EAECF5"/>
        </linearGradient>
        <radialGradient id="paint6_radial_5564_157348" cx="0" cy="0" r="1" gradientUnits="userSpaceOnUse" gradientTransform="translate(81.0312 53) rotate(107.835) scale(60.4028 48.0012)">
            <stop stop-color="#D8DBDC"/>
            <stop offset="1" stop-color="white" stop-opacity="0"/>
        </radialGradient>
        <linearGradient id="paint7_linear_5564_157348" x1="66.5294" y1="45.7617" x2="66.5294" y2="108.484" gradientUnits="userSpaceOnUse">
            <stop stop-color="#FBFBFC"/>
            <stop offset="1" stop-color="#DADCE0"/>
        </linearGradient>
        <linearGradient id="paint8_linear_5564_157348" x1="54.0772" y1="45.7715" x2="54.0772" y2="108.471" gradientUnits="userSpaceOnUse">
            <stop stop-color="#E8E7EC"/>
            <stop offset="1" stop-color="#D9DBE0"/>
        </linearGradient>
        <radialGradient id="paint9_radial_5564_157348" cx="0" cy="0" r="1" gradientUnits="userSpaceOnUse" gradientTransform="translate(49.5313 64.5) rotate(49.3987) scale(23.0489 9.16516)">
            <stop stop-color="#F9FDFD"/>
            <stop offset="1" stop-color="#DEEEF3"/>
        </radialGradient>
        <clipPath id="clip0_5564_157348">
            <rect width="120" height="120" fill="white" transform="translate(0.03125)"/>
        </clipPath>
    </defs>
</svg>
