<svg width="120" height="120" viewBox="0 0 120 120" fill="none" xmlns="http://www.w3.org/2000/svg">
<g clip-path="url(#clip0_5485_157075)">
<path d="M17.8728 97.7814C17.8728 99.0034 16.8821 99.9941 15.66 99.9941C14.438 99.9941 13.4473 99.0034 13.4473 97.7814C13.4473 96.5593 14.438 95.5686 15.66 95.5686C16.8821 95.5686 17.8728 96.5593 17.8728 97.7814Z" fill="#EBEEF0"/>
<path d="M11.0638 89.9516C11.0638 90.7976 10.378 91.4835 9.53191 91.4835C8.68586 91.4835 8 90.7976 8 89.9516C8 89.1055 8.68586 88.4197 9.53191 88.4197C10.378 88.4197 11.0638 89.1055 11.0638 89.9516Z" fill="#F9F9F9"/>
<path d="M104.851 95.6537C104.851 96.6408 104.051 97.4409 103.064 97.4409C102.077 97.4409 101.276 96.6408 101.276 95.6537C101.276 94.6666 102.077 93.8665 103.064 93.8665C104.051 93.8665 104.851 94.6666 104.851 95.6537Z" fill="#F6F7F7"/>
<path d="M112 101.101C112 102.37 110.971 103.398 109.702 103.398C108.433 103.398 107.404 102.37 107.404 101.101C107.404 99.8315 108.433 98.8027 109.702 98.8027C110.971 98.8027 112 99.8315 112 101.101Z" fill="#F3F3F5"/>
<path d="M101.957 106.207C101.957 107.758 100.699 109.015 99.1484 109.015C97.5973 109.015 96.3398 107.758 96.3398 106.207C96.3398 104.656 97.5973 103.398 99.1484 103.398C100.699 103.398 101.957 104.656 101.957 106.207Z" fill="#E4E5E6"/>
<path d="M104.234 113.787C104.234 116.983 83.8106 119.574 58.617 119.574C33.4234 119.574 13 116.983 13 113.787C13 110.591 33.4234 108 58.617 108C83.8106 108 104.234 110.591 104.234 113.787Z" fill="url(#paint0_linear_5485_157075)"/>
<path d="M18.7212 53.0371C18.0182 50.4134 19.5752 47.7165 22.199 47.0134L50.5056 39.4287L62.2835 36.2728C64.9072 35.5698 67.6041 37.1268 68.3072 39.7506L84.7877 101.257C85.4907 103.881 83.9337 106.577 81.3099 107.28L41.2254 118.021C38.6017 118.724 35.9048 117.167 35.2017 114.543L18.7212 53.0371Z" fill="url(#paint1_linear_5485_157075)"/>
<path d="M23.5503 55.7342C22.8473 53.1104 24.4043 50.4135 27.0281 49.7104L41.5499 45.8193L46.4354 44.5103C49.0591 43.8072 51.7561 45.3643 52.4591 47.9881L59.837 75.5228C60.54 78.1465 58.983 80.8434 56.3592 81.5465L36.9519 86.7466C34.3281 87.4497 31.6312 85.8926 30.9282 83.2688L23.5503 55.7342Z" fill="url(#paint2_linear_5485_157075)"/>
<path d="M36.524 43.1919C36.7556 40.4855 39.1374 38.4792 41.8438 38.7108L71.0422 41.2093L86.6328 59.7176L82.2436 111.013C82.012 113.719 79.6303 115.725 76.9238 115.494L35.5764 111.956C32.87 111.724 30.8637 109.342 31.0953 106.636L36.524 43.1919Z" fill="url(#paint3_radial_5485_157075)"/>
<path d="M71.042 41.2092L86.6325 59.7175L74.4836 58.678C71.7771 58.4464 69.7709 56.0647 70.0024 53.3582L71.042 41.2092Z" fill="url(#paint4_linear_5485_157075)"/>
<path fill-rule="evenodd" clip-rule="evenodd" d="M48.5004 79.8835C48.08 79.8835 47.8473 80.3707 48.1114 80.6977L55.7187 90.1162C55.9188 90.3639 56.2965 90.3639 56.4966 90.1162L64.1038 80.6977C64.368 80.3707 64.1352 79.8835 63.7149 79.8835L61.1408 79.8835C60.8646 79.8835 60.6408 79.6596 60.6408 79.3835L60.6408 70.4935C60.6408 70.2174 60.4169 69.9935 60.1408 69.9935L52.0749 69.9935C51.7987 69.9935 51.5749 70.2174 51.5749 70.4935L51.5749 79.3835C51.5749 79.6596 51.351 79.8835 51.0749 79.8835L48.5004 79.8835Z" fill="#BABEC7"/>
<path fill-rule="evenodd" clip-rule="evenodd" d="M71.5816 74.1148C72.002 74.1148 72.2347 73.6276 71.9706 73.3006L64.3634 63.8821C64.1632 63.6343 63.7856 63.6343 63.5854 63.8821L55.9782 73.3006C55.7141 73.6276 55.9468 74.1148 56.3672 74.1148L58.9413 74.1148C59.2175 74.1148 59.4413 74.3386 59.4413 74.6148L59.4413 83.505C59.4413 83.7812 59.6652 84.005 59.9413 84.005L68.0072 84.005C68.2834 84.005 68.5072 83.7812 68.5072 83.505L68.5072 74.6148C68.5072 74.3386 68.7311 74.1148 69.0072 74.1148L71.5816 74.1148Z" fill="#9197A6"/>
</g>
<defs>
<linearGradient id="paint0_linear_5485_157075" x1="13" y1="113.787" x2="104.234" y2="113.787" gradientUnits="userSpaceOnUse">
<stop stop-color="#F6F8FA"/>
<stop offset="0.460263" stop-color="#FAFBFC" stop-opacity="0.13"/>
<stop offset="1" stop-color="white" stop-opacity="0"/>
</linearGradient>
<linearGradient id="paint1_linear_5485_157075" x1="37.645" y1="40.5413" x2="60.6334" y2="116.211" gradientUnits="userSpaceOnUse">
<stop stop-color="#C5C8CD"/>
<stop offset="1" stop-color="#ACB0BB"/>
</linearGradient>
<linearGradient id="paint2_linear_5485_157075" x1="15.136" y1="70.7136" x2="48.4564" y2="57.8882" gradientUnits="userSpaceOnUse">
<stop stop-color="#ECEDEE" stop-opacity="0.63"/>
<stop offset="1" stop-color="#AEB3BD" stop-opacity="0"/>
</linearGradient>
<radialGradient id="paint3_radial_5485_157075" cx="0" cy="0" r="1" gradientUnits="userSpaceOnUse" gradientTransform="translate(62.5175 40.4798) rotate(94.8907) scale(69.5164 51.3352)">
<stop stop-color="#F8F9F9"/>
<stop offset="1" stop-color="#D5D8DD"/>
</radialGradient>
<linearGradient id="paint4_linear_5485_157075" x1="78.937" y1="50.5873" x2="69.5831" y2="58.2587" gradientUnits="userSpaceOnUse">
<stop stop-color="#D4D7DE"/>
<stop offset="0.448008" stop-color="#D7DAE0"/>
<stop offset="1" stop-color="#DBDEE2"/>
</linearGradient>
<clipPath id="clip0_5485_157075">
<rect width="120" height="120" fill="white"/>
</clipPath>
</defs>
</svg>
