<svg width="120" height="120" viewBox="0 0 120 120" fill="none" xmlns="http://www.w3.org/2000/svg">
<path d="M107.404 113.787C107.404 116.983 86.981 119.574 61.7874 119.574C36.5938 119.574 16.1704 116.983 16.1704 113.787C16.1704 110.591 36.5938 108 61.7874 108C86.981 108 107.404 110.591 107.404 113.787Z" fill="url(#paint0_linear_1413_66349)"/>
<path d="M26.4058 92.2266L31.3419 110.184L35.6824 92.2266H26.4058Z" fill="#A3AAB6"/>
<path d="M13.7704 67.2542C13.1594 65.8798 13.7782 64.2703 15.1526 63.6593L29.9804 57.0676L42.4876 61.8768L53.1689 85.904C53.7798 87.2784 53.161 88.8879 51.7866 89.4989L30.7892 98.8332C29.4148 99.4442 27.8053 98.8253 27.1943 97.4509L13.7704 67.2542Z" fill="url(#paint1_radial_1413_66349)"/>
<path d="M29.9805 57.0664L42.4876 61.8756L36.318 64.6183C34.9436 65.2293 33.3342 64.6104 32.7232 63.236L29.9805 57.0664Z" fill="url(#paint2_linear_1413_66349)"/>
<path d="M51.8112 54.6306C52.2005 53.1778 53.6939 52.3156 55.1467 52.7049L70.8207 56.9047L77.5207 68.5094L70.7152 93.9078C70.326 95.3606 68.8326 96.2228 67.3798 95.8335L45.184 89.8862C43.7312 89.4969 42.869 88.0035 43.2583 86.5507L51.8112 54.6306Z" fill="url(#paint3_radial_1413_66349)"/>
<path d="M70.8208 56.9062L77.5208 68.5109L70.9991 66.7634C69.5462 66.3741 68.684 64.8808 69.0733 63.428L70.8208 56.9062Z" fill="url(#paint4_linear_1413_66349)"/>
<path d="M85.688 69.0185C86.5037 67.7549 88.1894 67.3918 89.4531 68.2075L100.694 75.4638L103.091 86.5948L91.1952 105.022C90.3794 106.286 88.6937 106.649 87.4301 105.833L71.7134 95.6873C70.4498 94.8716 70.0867 93.1859 70.9024 91.9222L85.688 69.0185Z" fill="url(#paint5_radial_1413_66349)"/>
<path d="M100.693 75.4648L103.091 86.5958L98.6147 83.7062C97.3511 82.8904 96.988 81.2047 97.8037 79.941L100.693 75.4648Z" fill="url(#paint6_linear_1413_66349)"/>
<path d="M86.9787 77.8711L86.1793 103.455C86.093 106.215 89.6962 107.336 91.1912 105.014L93.8724 100.85L86.9787 77.8711Z" fill="url(#paint7_linear_1413_66349)" fill-opacity="0.5"/>
<path d="M39.9193 73.6971C41.5231 77.3049 39.8986 81.5298 36.2908 83.1337C32.683 84.7375 28.4581 83.113 26.8542 79.5052C25.2504 75.8974 26.8749 71.6725 30.4827 70.0686C34.0905 68.4648 38.3154 70.0893 39.9193 73.6971Z" fill="#A0A6B2"/>
<path d="M35.2432 75.7489L32.4684 79.5635L30.5523 75.2532L35.2432 75.7489Z" fill="white"/>
<path d="M49.6546 68.1768L57.0439 74.9503L87.2567 74.9503C88.7608 74.9503 89.9801 76.1696 89.9801 77.6737L89.9801 111.121C89.9801 112.625 88.7608 113.844 87.2567 113.844L34.0652 113.844C32.5611 113.844 31.3418 112.625 31.3418 111.121L31.3418 70.1843C31.3418 68.6802 32.5611 67.4609 34.0652 67.4609L47.8144 67.4609C48.4957 67.4609 49.1523 67.7164 49.6546 68.1768Z" fill="url(#paint8_linear_1413_66349)"/>
<path fill-rule="evenodd" clip-rule="evenodd" d="M37.9961 102.383C38.8327 95.76 44.4863 90.6381 51.3362 90.6381C58.1861 90.6381 63.8397 95.76 64.6763 102.383H60.5435C59.7431 98.0252 55.9253 94.7232 51.3362 94.7232C46.7471 94.7232 42.9293 98.0252 42.1289 102.383H37.9961Z" fill="#989EAC"/>
<path d="M38 86.0431C38 84.7271 39.0669 83.6602 40.383 83.6602C41.6991 83.6602 42.766 84.7271 42.766 86.0431C42.766 87.3592 41.6991 88.4261 40.383 88.4261C39.0669 88.4261 38 87.3592 38 86.0431Z" fill="#949BA9"/>
<path d="M17.8723 96.0839C17.8723 97.3059 16.8816 98.2966 15.6595 98.2966C14.4375 98.2966 13.4468 97.3059 13.4468 96.0839C13.4468 94.8618 14.4375 93.8711 15.6595 93.8711C16.8816 93.8711 17.8723 94.8618 17.8723 96.0839Z" fill="#EBEEF0"/>
<path d="M11.0638 88.2546C11.0638 89.1006 10.378 89.7865 9.53191 89.7865C8.68586 89.7865 8 89.1006 8 88.2546C8 87.4085 8.68586 86.7227 9.53191 86.7227C10.378 86.7227 11.0638 87.4085 11.0638 88.2546Z" fill="#F9F9F9"/>
<path d="M104.851 93.9591C104.851 94.9462 104.051 95.7463 103.064 95.7463C102.077 95.7463 101.276 94.9462 101.276 93.9591C101.276 92.972 102.077 92.1719 103.064 92.1719C104.051 92.1719 104.851 92.972 104.851 93.9591Z" fill="#F6F7F7"/>
<path d="M112 99.4033C112 100.672 110.971 101.701 109.702 101.701C108.433 101.701 107.404 100.672 107.404 99.4033C107.404 98.1343 108.433 97.1055 109.702 97.1055C110.971 97.1055 112 98.1343 112 99.4033Z" fill="#F3F3F5"/>
<path d="M101.957 104.512C101.957 106.063 100.7 107.32 99.1488 107.32C97.5977 107.32 96.3403 106.063 96.3403 104.512C96.3403 102.961 97.5977 101.703 99.1488 101.703C100.7 101.703 101.957 102.961 101.957 104.512Z" fill="#E4E5E6"/>
<path d="M88.1801 60.809C88.7668 59.7928 90.2335 59.7928 90.8202 60.809L98.7405 74.5275C99.3272 75.5437 98.5939 76.8139 97.4205 76.8139H81.5798C80.4064 76.8139 79.673 75.5437 80.2597 74.5275L88.1801 60.809Z" fill="#EE6354"/>
<path fill-rule="evenodd" clip-rule="evenodd" d="M93.4602 59.2864L101.381 73.0049C103.141 76.0534 100.941 79.8641 97.4204 79.8641H81.5796C78.0595 79.8641 75.8594 76.0534 77.6195 73.0049L85.5398 59.2864C87.2999 56.2379 91.7001 56.2379 93.4602 59.2864ZM90.8201 60.8107C90.2334 59.7945 88.7666 59.7945 88.1799 60.8107L80.2596 74.5291C79.6729 75.5453 80.4063 76.8156 81.5796 76.8156H97.4204C98.5937 76.8156 99.3271 75.5453 98.7404 74.5291L90.8201 60.8107Z" fill="white"/>
<path fill-rule="evenodd" clip-rule="evenodd" d="M89.553 71.71C88.9281 71.71 88.4215 71.2034 88.4215 70.5784L88.4215 64.9206C88.4215 64.2957 88.9281 63.7891 89.553 63.7891C90.178 63.7891 90.6846 64.2957 90.6846 64.9206L90.6846 70.5784C90.6846 71.2034 90.178 71.71 89.553 71.71Z" fill="white"/>
<path fill-rule="evenodd" clip-rule="evenodd" d="M89.553 75.103C88.9281 75.103 88.4215 74.5963 88.4215 73.9714C88.4215 73.3465 88.9281 72.8398 89.553 72.8398C90.178 72.8398 90.6846 73.3465 90.6846 73.9714C90.6846 74.5963 90.178 75.103 89.553 75.103Z" fill="white"/>
<defs>
<linearGradient id="paint0_linear_1413_66349" x1="16.1704" y1="113.787" x2="107.404" y2="113.787" gradientUnits="userSpaceOnUse">
<stop stop-color="#F6F8FA"/>
<stop offset="0.460263" stop-color="#FAFBFC" stop-opacity="0.13"/>
<stop offset="1" stop-color="white" stop-opacity="0"/>
</linearGradient>
<radialGradient id="paint1_radial_1413_66349" cx="0" cy="0" r="1" gradientUnits="userSpaceOnUse" gradientTransform="translate(25.6513 58.9921) rotate(66.0325) scale(38.4929 28.4255)">
<stop stop-color="#F8F9F9"/>
<stop offset="1" stop-color="#D5D8DD"/>
</radialGradient>
<linearGradient id="paint2_linear_1413_66349" x1="36.2341" y1="59.471" x2="33.8295" y2="65.7246" gradientUnits="userSpaceOnUse">
<stop stop-color="#E8E7EC"/>
<stop offset="1" stop-color="#D9DBE0"/>
</linearGradient>
<radialGradient id="paint3_radial_1413_66349" cx="0" cy="0" r="1" gradientUnits="userSpaceOnUse" gradientTransform="translate(66.2446 55.6785) rotate(105) scale(38.4929 28.4255)">
<stop stop-color="#F8F9F9"/>
<stop offset="1" stop-color="#D5D8DD"/>
</radialGradient>
<linearGradient id="paint4_linear_1413_66349" x1="74.1708" y1="62.7086" x2="68.3684" y2="66.0586" gradientUnits="userSpaceOnUse">
<stop stop-color="#F9F8F8"/>
<stop offset="1" stop-color="#DBDEE2"/>
</linearGradient>
<radialGradient id="paint5_radial_1413_66349" cx="0" cy="0" r="1" gradientUnits="userSpaceOnUse" gradientTransform="translate(97.3114 73.2805) rotate(122.844) scale(32.7083 24.1538)">
<stop stop-color="#F8F9F9"/>
<stop offset="1" stop-color="#D5D8DD"/>
</radialGradient>
<linearGradient id="paint6_linear_1413_66349" x1="101.892" y1="81.0303" x2="96.3267" y2="82.2291" gradientUnits="userSpaceOnUse">
<stop stop-color="#EDEDF0"/>
<stop offset="1" stop-color="#CCCFD6"/>
</linearGradient>
<linearGradient id="paint7_linear_1413_66349" x1="92.2979" y1="77.8711" x2="92.2979" y2="111.658" gradientUnits="userSpaceOnUse">
<stop stop-color="#A1A7B5" stop-opacity="0.31"/>
<stop offset="1" stop-color="#9BA2AE"/>
</linearGradient>
<linearGradient id="paint8_linear_1413_66349" x1="60.6184" y1="75.1205" x2="60.6609" y2="113.844" gradientUnits="userSpaceOnUse">
<stop stop-color="#FBFBFC"/>
<stop offset="1" stop-color="#DADCE0"/>
</linearGradient>
</defs>
</svg>
