<svg width="120" height="120" viewBox="0 0 120 120" fill="none" xmlns="http://www.w3.org/2000/svg">
<g clip-path="url(#clip0_769_53885)">
<g style="mix-blend-mode:luminosity" opacity="0.6">
<g filter="url(#filter0_f_769_53885)">
<ellipse cx="58.6159" cy="90.7689" rx="47.3991" ry="9.14393" fill="#1F88F8" fill-opacity="0.35"/>
</g>
<path d="M59.1361 109.018C86.2829 109.018 108.29 87.0114 108.29 59.8646C108.29 32.7178 86.2829 10.7109 59.1361 10.7109C31.9893 10.7109 9.98242 32.7178 9.98242 59.8646C9.98242 87.0114 31.9893 109.018 59.1361 109.018Z" fill="url(#paint0_linear_769_53885)"/>
<g filter="url(#filter1_d_769_53885)">
<path d="M100.311 43.9772L58.1896 73.3725L16.0684 43.9772L54.6271 17.057C55.6728 16.3282 56.9167 15.9375 58.1914 15.9375C59.466 15.9375 60.71 16.3282 61.7556 17.057L69.4471 22.4341L71.4609 23.8325L91.7384 37.9918L93.8745 39.4916L100.311 43.9772Z" fill="url(#paint1_linear_769_53885)"/>
</g>
<path d="M51.3407 68.5888L16.0684 93.67V43.9727L51.3407 68.5888Z" fill="url(#paint2_linear_769_53885)"/>
<path d="M65.042 68.5888L100.314 93.67V43.9727L65.042 68.5888Z" fill="url(#paint3_linear_769_53885)"/>
<path d="M16.0684 93.6722L54.5816 66.2906C55.6356 65.5401 56.8974 65.1367 58.1914 65.1367C59.4853 65.1367 60.7471 65.5401 61.8011 66.2906L100.311 93.6722H16.0684Z" fill="url(#paint4_linear_769_53885)"/>
<g filter="url(#filter2_d_769_53885)">
<path d="M20.5186 34.9727C14.0612 37.9933 7.12207 39.8527 0.0194702 40.4657C0.979183 42.6967 7.79819 53.8638 28.0405 63.0653C28.5877 63.1495 41.2282 57.2691 48.165 53.2367C47.9293 53.5734 26.6178 45.7315 20.5186 34.9727Z" fill="url(#paint5_linear_769_53885)"/>
</g>
<path d="M21.0183 40.5254C20.7212 40.3192 20.3448 40.2635 20.0007 40.3749L8.70274 44.0301C8.29802 44.161 8.15382 44.6595 8.42614 44.9863C8.64543 45.2494 9.00437 45.35 9.32843 45.239L20.9146 41.2705C21.2416 41.1585 21.3023 40.7223 21.0183 40.5254Z" fill="#C9DFFF"/>
<path d="M20.8223 45.0243C20.5357 44.7552 20.1244 44.6656 19.7519 44.7909L11.9305 47.4232C11.5856 47.5393 11.4638 47.9648 11.6951 48.2458C11.884 48.4753 12.1954 48.5638 12.4768 48.468L20.6818 45.6743C20.9588 45.58 21.0356 45.2246 20.8223 45.0243Z" fill="#C9DFFF"/>
<path d="M25.0207 47.2564C24.7216 47.0169 24.3194 46.9506 23.9594 47.0815L14.9501 50.3559C14.5965 50.4844 14.4901 50.933 14.7483 51.2066C14.9458 51.416 15.2491 51.4874 15.5193 51.3883L24.9086 47.9427C25.2005 47.8356 25.2633 47.4507 25.0207 47.2564Z" fill="#C9DFFF"/>
<path d="M28.1703 54.0118C27.8933 53.7057 27.4568 53.601 27.0712 53.7482L21.9223 55.713C21.6062 55.8337 21.4922 56.2225 21.6932 56.4948C21.8816 56.7499 22.2173 56.8474 22.5131 56.7329L28.0318 54.5954C28.2698 54.5033 28.3415 54.2011 28.1703 54.0118Z" fill="#C9DFFF"/>
<g filter="url(#filter3_d_769_53885)">
<path d="M95.1626 50.5391C102.993 54.2018 111.407 56.4565 120.019 57.1998C118.855 59.9049 110.587 73.4457 86.0418 84.6031C85.3783 84.7051 70.051 77.5749 61.6396 72.6852C61.9255 73.0936 87.7669 63.5848 95.1626 50.5391Z" fill="url(#paint6_linear_769_53885)"/>
</g>
<path d="M94.5569 57.2734C94.9172 57.0234 95.3736 56.9559 95.7908 57.0909L109.49 61.5231C109.981 61.6819 110.156 62.2863 109.826 62.6826C109.56 63.0017 109.125 63.1235 108.732 62.989L94.6826 58.177C94.2862 58.0412 94.2126 57.5123 94.5569 57.2734Z" fill="#C9DFFF"/>
<path d="M90.7209 60.9203C91.0684 60.594 91.5671 60.4853 92.0188 60.6373L101.503 63.8291C101.921 63.9698 102.069 64.4858 101.788 64.8265C101.559 65.1048 101.182 65.2121 100.84 65.0959L90.8913 61.7084C90.5554 61.594 90.4623 61.1631 90.7209 60.9203Z" fill="#C9DFFF"/>
<path d="M86.7795 63.9471C87.142 63.6567 87.6298 63.5763 88.0663 63.735L98.9906 67.7054C99.4194 67.8613 99.5484 68.4052 99.2353 68.737C98.9958 68.9909 98.628 69.0775 98.3004 68.9573L86.9153 64.7793C86.5614 64.6495 86.4852 64.1827 86.7795 63.9471Z" fill="#C9DFFF"/>
<path d="M77.9098 70.008C78.2456 69.6368 78.7749 69.5099 79.2426 69.6884L85.4858 72.0708C85.8692 72.2171 86.0074 72.6887 85.7637 73.0188C85.5353 73.3281 85.1281 73.4464 84.7695 73.3075L78.0777 70.7157C77.7891 70.6039 77.7022 70.2375 77.9098 70.008Z" fill="#C9DFFF"/>
<path d="M81.9852 66.7719C82.3548 66.5401 82.8108 66.4921 83.2205 66.6419L97.6056 71.9016C98.0654 72.0697 98.1768 72.6691 97.8081 72.9911C97.5642 73.2041 97.2235 73.267 96.9197 73.1551L82.0806 67.6887C81.6804 67.5413 81.6239 66.9985 81.9852 66.7719Z" fill="#C9DFFF"/>
<path d="M31.2863 48.729C30.9815 48.5379 30.6055 48.4983 30.2675 48.6218L18.4041 52.9595C18.0249 53.0981 17.9331 53.5925 18.2371 53.8581C18.4382 54.0337 18.7192 54.0856 18.9698 53.9933L31.2076 49.4851C31.5377 49.3636 31.5842 48.9159 31.2863 48.729Z" fill="#C9DFFF"/>
<path d="M99.1101 22.2805C99.1101 23.0019 98.5253 23.5867 97.804 23.5867C97.0826 23.5867 96.4978 23.0019 96.4978 22.2805C96.4978 21.5591 97.0826 20.9743 97.804 20.9743C98.5253 20.9743 99.1101 21.5591 99.1101 22.2805Z" stroke="url(#paint7_linear_769_53885)" stroke-width="2.61276"/>
<circle cx="25.0256" cy="98.4211" r="1.30638" stroke="url(#paint8_linear_769_53885)" stroke-width="2.61234"/>
<circle cx="88.0999" cy="102.523" r="1.30638" stroke="url(#paint9_linear_769_53885)" stroke-width="2.61234"/>
<path d="M9.66575 82.3852C10.9897 82.1732 12.0468 83.474 11.5684 84.7266L11.4148 85.1287C10.9364 86.3814 9.28144 86.6464 8.43582 85.6058L8.16434 85.2717C7.31872 84.2311 7.91669 82.6653 9.24069 82.4533L9.66575 82.3852Z" fill="url(#paint10_linear_769_53885)"/>
<path d="M108.685 46.844C108.354 45.5447 109.553 44.374 110.844 44.7367L111.258 44.8532C112.549 45.2159 112.963 46.8401 112.004 47.7766L111.696 48.0773C110.736 49.0138 109.123 48.5604 108.791 47.2611L108.685 46.844Z" fill="url(#paint11_linear_769_53885)"/>
</g>
</g>
<defs>
<filter id="filter0_f_769_53885" x="-10.5562" y="59.852" width="138.344" height="61.8351" filterUnits="userSpaceOnUse" color-interpolation-filters="sRGB">
<feFlood flood-opacity="0" result="BackgroundImageFix"/>
<feBlend mode="normal" in="SourceGraphic" in2="BackgroundImageFix" result="shape"/>
<feGaussianBlur stdDeviation="10.8865" result="effect1_foregroundBlur_769_53885"/>
</filter>
<filter id="filter1_d_769_53885" x="12.5847" y="15.9375" width="91.2095" height="64.401" filterUnits="userSpaceOnUse" color-interpolation-filters="sRGB">
<feFlood flood-opacity="0" result="BackgroundImageFix"/>
<feColorMatrix in="SourceAlpha" type="matrix" values="0 0 0 0 0 0 0 0 0 0 0 0 0 0 0 0 0 0 127 0" result="hardAlpha"/>
<feOffset dy="3.48368"/>
<feGaussianBlur stdDeviation="1.74184"/>
<feComposite in2="hardAlpha" operator="out"/>
<feColorMatrix type="matrix" values="0 0 0 0 0 0 0 0 0 0 0 0 0 0 0 0 0 0 0.25 0"/>
<feBlend mode="normal" in2="BackgroundImageFix" result="effect1_dropShadow_769_53885"/>
<feBlend mode="normal" in="SourceGraphic" in2="effect1_dropShadow_769_53885" result="shape"/>
</filter>
<filter id="filter2_d_769_53885" x="-10.4315" y="28.0053" width="69.0476" height="48.9958" filterUnits="userSpaceOnUse" color-interpolation-filters="sRGB">
<feFlood flood-opacity="0" result="BackgroundImageFix"/>
<feColorMatrix in="SourceAlpha" type="matrix" values="0 0 0 0 0 0 0 0 0 0 0 0 0 0 0 0 0 0 127 0" result="hardAlpha"/>
<feOffset dy="3.48368"/>
<feGaussianBlur stdDeviation="5.22552"/>
<feComposite in2="hardAlpha" operator="out"/>
<feColorMatrix type="matrix" values="0 0 0 0 0.0196078 0 0 0 0 0.168627 0 0 0 0 0.396078 0 0 0 0.15 0"/>
<feBlend mode="normal" in2="BackgroundImageFix" result="effect1_dropShadow_769_53885"/>
<feBlend mode="normal" in="SourceGraphic" in2="effect1_dropShadow_769_53885" result="shape"/>
</filter>
<filter id="filter3_d_769_53885" x="41.5538" y="48.7972" width="87.9902" height="63.6777" filterUnits="userSpaceOnUse" color-interpolation-filters="sRGB">
<feFlood flood-opacity="0" result="BackgroundImageFix"/>
<feColorMatrix in="SourceAlpha" type="matrix" values="0 0 0 0 0 0 0 0 0 0 0 0 0 0 0 0 0 0 127 0" result="hardAlpha"/>
<feOffset dx="-5.28021" dy="13.0638"/>
<feGaussianBlur stdDeviation="7.40282"/>
<feComposite in2="hardAlpha" operator="out"/>
<feColorMatrix type="matrix" values="0 0 0 0 0.021441 0 0 0 0 0.168056 0 0 0 0 0.395833 0 0 0 0.15 0"/>
<feBlend mode="normal" in2="BackgroundImageFix" result="effect1_dropShadow_769_53885"/>
<feBlend mode="normal" in="SourceGraphic" in2="effect1_dropShadow_769_53885" result="shape"/>
</filter>
<linearGradient id="paint0_linear_769_53885" x1="58.7572" y1="-5.2947" x2="59.7641" y2="167.325" gradientUnits="userSpaceOnUse">
<stop stop-color="#CAE0FF" stop-opacity="0"/>
<stop offset="1" stop-color="#BCD8FF"/>
</linearGradient>
<linearGradient id="paint1_linear_769_53885" x1="58.1896" y1="15.9375" x2="58.1896" y2="73.3725" gradientUnits="userSpaceOnUse">
<stop stop-color="#EDF4FF"/>
<stop offset="1" stop-color="#ABCCFF"/>
</linearGradient>
<linearGradient id="paint2_linear_769_53885" x1="33.7045" y1="43.9727" x2="33.7045" y2="93.67" gradientUnits="userSpaceOnUse">
<stop stop-color="#ABCCFF"/>
<stop offset="1" stop-color="#70A8FF"/>
</linearGradient>
<linearGradient id="paint3_linear_769_53885" x1="82.6782" y1="43.9727" x2="82.6782" y2="93.67" gradientUnits="userSpaceOnUse">
<stop stop-color="#ABCCFF"/>
<stop offset="1" stop-color="#70A8FF"/>
</linearGradient>
<linearGradient id="paint4_linear_769_53885" x1="58.1896" y1="65.1367" x2="58.1896" y2="93.6722" gradientUnits="userSpaceOnUse">
<stop stop-color="#70A8FF"/>
<stop offset="1" stop-color="#5597FD"/>
</linearGradient>
<linearGradient id="paint5_linear_769_53885" x1="5.24457" y1="47.4756" x2="36.7818" y2="41.3174" gradientUnits="userSpaceOnUse">
<stop stop-color="#C6DDFF"/>
<stop offset="1" stop-color="white"/>
</linearGradient>
<linearGradient id="paint6_linear_769_53885" x1="113.683" y1="65.6996" x2="75.4425" y2="58.2325" gradientUnits="userSpaceOnUse">
<stop stop-color="#C6DDFF"/>
<stop offset="1" stop-color="white"/>
</linearGradient>
<linearGradient id="paint7_linear_769_53885" x1="94.5927" y1="20.6477" x2="102.757" y2="27.7233" gradientUnits="userSpaceOnUse">
<stop stop-color="#94BFFF"/>
<stop offset="1" stop-color="#4C94FE"/>
</linearGradient>
<linearGradient id="paint8_linear_769_53885" x1="21.8144" y1="96.7883" x2="29.9786" y2="103.864" gradientUnits="userSpaceOnUse">
<stop stop-color="#94BFFF"/>
<stop offset="1" stop-color="#4C94FE"/>
</linearGradient>
<linearGradient id="paint9_linear_769_53885" x1="84.8886" y1="100.89" x2="93.0528" y2="107.966" gradientUnits="userSpaceOnUse">
<stop stop-color="#94BFFF"/>
<stop offset="1" stop-color="#4C94FE"/>
</linearGradient>
<linearGradient id="paint10_linear_769_53885" x1="12.6447" y1="81.9082" x2="6.85186" y2="86.6156" gradientUnits="userSpaceOnUse">
<stop stop-color="#70A8FF"/>
<stop offset="1" stop-color="#5597FD"/>
</linearGradient>
<linearGradient id="paint11_linear_769_53885" x1="107.939" y1="43.9205" x2="113.153" y2="49.2624" gradientUnits="userSpaceOnUse">
<stop stop-color="#70A8FF"/>
<stop offset="1" stop-color="#5597FD"/>
</linearGradient>
<clipPath id="clip0_769_53885">
<rect width="120" height="120" fill="white"/>
</clipPath>
</defs>
</svg>
