<svg width="120" height="120" viewBox="0 0 120 120" fill="none" xmlns="http://www.w3.org/2000/svg">
<g clip-path="url(#clip0_1450_67271)">
<path d="M17.8723 97.7831C17.8723 99.0052 16.8816 99.9958 15.6595 99.9958C14.4375 99.9958 13.4468 99.0052 13.4468 97.7831C13.4468 96.561 14.4375 95.5703 15.6595 95.5703C16.8816 95.5703 17.8723 96.561 17.8723 97.7831Z" fill="#EBEEF0"/>
<path d="M11.0638 89.9499C11.0638 90.7959 10.378 91.4818 9.53191 91.4818C8.68586 91.4818 8 90.7959 8 89.9499C8 89.1038 8.68586 88.418 9.53191 88.418C10.378 88.418 11.0638 89.1038 11.0638 89.9499Z" fill="#F9F9F9"/>
<path d="M104.851 95.6544C104.851 96.6415 104.051 97.4417 103.064 97.4417C102.077 97.4417 101.277 96.6415 101.277 95.6544C101.277 94.6674 102.077 93.8672 103.064 93.8672C104.051 93.8672 104.851 94.6674 104.851 95.6544Z" fill="#F6F7F7"/>
<path d="M112 101.103C112 102.372 110.971 103.4 109.702 103.4C108.433 103.4 107.404 102.372 107.404 101.103C107.404 99.8335 108.433 98.8047 109.702 98.8047C110.971 98.8047 112 99.8335 112 101.103Z" fill="#F3F3F5"/>
<path d="M101.957 106.207C101.957 107.758 100.7 109.015 99.1488 109.015C97.5977 109.015 96.3403 107.758 96.3403 106.207C96.3403 104.656 97.5977 103.398 99.1488 103.398C100.7 103.398 101.957 104.656 101.957 106.207Z" fill="#E4E5E6"/>
<path d="M104.234 113.787C104.234 116.983 83.8106 119.574 58.617 119.574C33.4234 119.574 13 116.983 13 113.787C13 110.591 33.4234 108 58.617 108C83.8106 108 104.234 110.591 104.234 113.787Z" fill="url(#paint0_linear_1450_67271)"/>
<path d="M18.7214 53.0359C18.0184 50.4121 19.5755 47.7152 22.1992 47.0122L50.5058 39.4275L62.2837 36.2716C64.9075 35.5686 67.6044 37.1256 68.3074 39.7494L84.788 101.256C85.491 103.879 83.9339 106.576 81.3102 107.279L41.2257 118.02C38.6019 118.723 35.905 117.166 35.202 114.542L18.7214 53.0359Z" fill="url(#paint1_linear_1450_67271)"/>
<path d="M23.5501 55.7351C22.847 53.1114 24.4041 50.4145 27.0279 49.7114L41.5496 45.8203L46.4351 44.5112C49.0589 43.8082 51.7558 45.3653 52.4588 47.989L59.8367 75.5237C60.5398 78.1475 58.9827 80.8444 56.3589 81.5474L36.9517 86.7476C34.3279 87.4506 31.631 85.8936 30.928 83.2698L23.5501 55.7351Z" fill="url(#paint2_linear_1450_67271)"/>
<path d="M36.5236 43.1934C36.7551 40.487 39.1369 38.4807 41.8433 38.7123L71.0417 41.2107L86.6323 59.719L82.2431 111.014C82.0115 113.72 79.6298 115.727 76.9233 115.495L35.5759 111.957C32.8695 111.726 30.8632 109.344 31.0948 106.637L36.5236 43.1934Z" fill="url(#paint3_radial_1450_67271)"/>
<path d="M71.0417 41.2109L86.6323 59.7192L74.4833 58.6797C71.7769 58.4481 69.7706 56.0664 70.0022 53.3599L71.0417 41.2109Z" fill="url(#paint4_linear_1450_67271)"/>
<path fill-rule="evenodd" clip-rule="evenodd" d="M48.5004 79.8823C48.08 79.8823 47.8473 80.3695 48.1114 80.6965L55.7187 90.1149C55.9188 90.3627 56.2965 90.3627 56.4966 90.1149L64.1038 80.6965C64.368 80.3695 64.1352 79.8823 63.7149 79.8823L61.1408 79.8823C60.8646 79.8823 60.6408 79.6584 60.6408 79.3823L60.6408 70.4923C60.6408 70.2161 60.4169 69.9923 60.1408 69.9923L52.0749 69.9923C51.7987 69.9923 51.5749 70.2161 51.5749 70.4923L51.5749 79.3823C51.5749 79.6584 51.351 79.8823 51.0749 79.8823L48.5004 79.8823Z" fill="#BABEC7"/>
<path fill-rule="evenodd" clip-rule="evenodd" d="M71.5819 74.1138C72.0022 74.1138 72.235 73.6266 71.9709 73.2996L64.3636 63.8811C64.1635 63.6334 63.7858 63.6334 63.5857 63.8811L55.9784 73.2996C55.7143 73.6266 55.9471 74.1138 56.3674 74.1138L58.9416 74.1138C59.2177 74.1138 59.4416 74.3377 59.4416 74.6138L59.4416 83.5041C59.4416 83.7802 59.6654 84.0041 59.9416 84.0041L68.0075 84.0041C68.2836 84.0041 68.5075 83.7802 68.5075 83.5041L68.5075 74.6138C68.5075 74.3377 68.7313 74.1138 69.0075 74.1138L71.5819 74.1138Z" fill="#9197A6"/>
</g>
<defs>
<linearGradient id="paint0_linear_1450_67271" x1="13" y1="113.787" x2="104.234" y2="113.787" gradientUnits="userSpaceOnUse">
<stop stop-color="#F6F8FA"/>
<stop offset="0.460263" stop-color="#FAFBFC" stop-opacity="0.13"/>
<stop offset="1" stop-color="white" stop-opacity="0"/>
</linearGradient>
<linearGradient id="paint1_linear_1450_67271" x1="37.6452" y1="40.54" x2="60.6336" y2="116.21" gradientUnits="userSpaceOnUse">
<stop stop-color="#C5C8CD"/>
<stop offset="1" stop-color="#ACB0BB"/>
</linearGradient>
<linearGradient id="paint2_linear_1450_67271" x1="15.1358" y1="70.7146" x2="48.4561" y2="57.8892" gradientUnits="userSpaceOnUse">
<stop stop-color="#ECEDEE" stop-opacity="0.63"/>
<stop offset="1" stop-color="#AEB3BD" stop-opacity="0"/>
</linearGradient>
<radialGradient id="paint3_radial_1450_67271" cx="0" cy="0" r="1" gradientUnits="userSpaceOnUse" gradientTransform="translate(62.517 40.4813) rotate(94.8907) scale(69.5164 51.3352)">
<stop stop-color="#F8F9F9"/>
<stop offset="1" stop-color="#D5D8DD"/>
</radialGradient>
<linearGradient id="paint4_linear_1450_67271" x1="78.9367" y1="50.589" x2="69.5829" y2="58.2604" gradientUnits="userSpaceOnUse">
<stop stop-color="#D4D7DE"/>
<stop offset="0.448008" stop-color="#D7DAE0"/>
<stop offset="1" stop-color="#DBDEE2"/>
</linearGradient>
<clipPath id="clip0_1450_67271">
<rect width="120" height="120" fill="white"/>
</clipPath>
</defs>
</svg>
