<svg width="120" height="120" viewBox="0 0 120 120" fill="none" xmlns="http://www.w3.org/2000/svg">
<path d="M17.8723 100.783C17.8723 102.005 16.8816 102.996 15.6595 102.996C14.4375 102.996 13.4468 102.005 13.4468 100.783C13.4468 99.561 14.4375 98.5703 15.6595 98.5703C16.8816 98.5703 17.8723 99.561 17.8723 100.783Z" fill="#EBEEF0"/>
<path d="M11.0638 92.9499C11.0638 93.7959 10.378 94.4818 9.53191 94.4818C8.68586 94.4818 8 93.7959 8 92.9499C8 92.1038 8.68586 91.418 9.53191 91.418C10.378 91.418 11.0638 92.1038 11.0638 92.9499Z" fill="#F9F9F9"/>
<path d="M78.5107 88.7872C78.5107 89.7743 77.7106 90.5745 76.7235 90.5745C75.7365 90.5745 74.9363 89.7743 74.9363 88.7872C74.9363 87.8002 75.7365 87 76.7235 87C77.7106 87 78.5107 87.8002 78.5107 88.7872Z" fill="#F6F7F7"/>
<path d="M85.6597 94.2354C85.6597 95.5045 84.6309 96.5332 83.3618 96.5332C82.0928 96.5332 81.064 95.5045 81.064 94.2354C81.064 92.9663 82.0928 91.9375 83.3618 91.9375C84.6309 91.9375 85.6597 92.9663 85.6597 94.2354Z" fill="#F3F3F5"/>
<path d="M75.617 99.3398C75.617 100.891 74.3596 102.148 72.8085 102.148C71.2574 102.148 70 100.891 70 99.3398C70 97.7887 71.2574 96.5312 72.8085 96.5312C74.3596 96.5312 75.617 97.7887 75.617 99.3398Z" fill="#E4E5E6"/>
<path d="M30 67.5L43 54.5" stroke="#989EAC" stroke-width="2" stroke-linecap="round"/>
<path d="M23.0755 72.4866C22.5983 70.7056 23.6553 68.8748 25.4364 68.3976L44.6515 63.2489L52.6467 61.1066C54.4278 60.6294 56.2585 61.6863 56.7357 63.4674L67.9231 105.219C68.4004 107 67.3434 108.831 65.5623 109.308L38.352 116.599C36.5709 117.077 34.7402 116.02 34.2629 114.239L23.0755 72.4866Z" fill="url(#paint0_linear_1413_63366)"/>
<path d="M26.3531 74.3148C25.8759 72.5337 26.9329 70.703 28.7139 70.2257L38.5717 67.5844L41.8881 66.6957C43.6692 66.2185 45.4999 67.2755 45.9771 69.0565L50.9854 87.7478C51.4627 89.5288 50.4057 91.3596 48.6246 91.8368L35.4505 95.3668C33.6694 95.844 31.8387 94.7871 31.3614 93.006L26.3531 74.3148Z" fill="url(#paint1_linear_1413_63366)"/>
<path d="M37.2071 38.5L44.2071 31.5H111.5V38.5H37.2071Z" stroke="#D8DBE0"/>
<path d="M85.5 38.5L85.5 107.5L94.5 107.5L94.5 38.5L85.5 38.5Z" stroke="#D8DBE0"/>
<path d="M85.5 38.5L85.5 20.872L89.9321 19.5424L94.5 22.2831L94.5 38.5L85.5 38.5Z" stroke="#D8DBE0"/>
<line x1="46.6464" y1="38.6464" x2="53.6464" y2="31.6464" stroke="#D8DBE0"/>
<line x1="53.5" y1="38" x2="53.5" y2="31" stroke="#D8DBE0"/>
<line x1="44.25" y1="50.25" x2="44.25" y2="31.75" stroke="#D8DBE0" stroke-width="1.5" stroke-linecap="round"/>
<line x1="61.5" y1="38" x2="61.5" y2="31" stroke="#D8DBE0"/>
<line y1="-0.5" x2="9" y2="-0.5" transform="matrix(-1 -1.81051e-08 -1.81051e-08 1 94 48)" stroke="#D8DBE0"/>
<line x1="69.5" y1="38" x2="69.5" y2="31" stroke="#D8DBE0"/>
<line y1="-0.5" x2="9" y2="-0.5" transform="matrix(-1 -1.81051e-08 -1.81051e-08 1 94 56)" stroke="#D8DBE0"/>
<line x1="77.5" y1="38" x2="77.5" y2="31" stroke="#D8DBE0"/>
<line y1="-0.5" x2="9" y2="-0.5" transform="matrix(-1 -1.81051e-08 -1.81051e-08 1 94 64)" stroke="#D8DBE0"/>
<line x1="85.5" y1="38" x2="85.5" y2="31" stroke="#D8DBE0"/>
<line y1="-0.5" x2="9" y2="-0.5" transform="matrix(-1 -1.81051e-08 -1.81051e-08 1 94 72)" stroke="#D8DBE0"/>
<line y1="-0.5" x2="9" y2="-0.5" transform="matrix(-1 -1.81051e-08 -1.81051e-08 1 94 80)" stroke="#D8DBE0"/>
<line x1="101.5" y1="38" x2="101.5" y2="31" stroke="#D8DBE0"/>
<line y1="-0.5" x2="9" y2="-0.5" transform="matrix(-1 -1.81051e-08 -1.81051e-08 1 94 88)" stroke="#D8DBE0"/>
<line y1="-0.5" x2="9" y2="-0.5" transform="matrix(-1 -1.81051e-08 -1.81051e-08 1 94 96)" stroke="#D8DBE0"/>
<line y1="-0.5" x2="9" y2="-0.5" transform="matrix(-1 -1.81051e-08 -1.81051e-08 1 94 104)" stroke="#D8DBE0"/>
<line x1="54.6464" y1="38.6464" x2="61.6464" y2="31.6464" stroke="#D8DBE0"/>
<line y1="-0.5" x2="11.2055" y2="-0.5" transform="matrix(-0.780869 0.624695 0.780869 0.624695 95 41)" stroke="#D8DBE0"/>
<line y1="-0.5" x2="11.2055" y2="-0.5" transform="matrix(-0.780869 0.624695 0.780869 0.624695 95 25)" stroke="#D8DBE0"/>
<line x1="95" y1="24.5" x2="86" y2="24.5" stroke="#D8DBE0"/>
<line x1="62.6464" y1="38.6464" x2="69.6464" y2="31.6464" stroke="#D8DBE0"/>
<line y1="-0.5" x2="11.2055" y2="-0.5" transform="matrix(-0.780869 0.624695 0.780869 0.624695 95 49)" stroke="#D8DBE0"/>
<line x1="70.6464" y1="38.6464" x2="77.6464" y2="31.6464" stroke="#D8DBE0"/>
<line y1="-0.5" x2="11.2055" y2="-0.5" transform="matrix(-0.780869 0.624695 0.780869 0.624695 95 57)" stroke="#D8DBE0"/>
<line x1="78.6464" y1="38.6464" x2="85.6464" y2="31.6464" stroke="#D8DBE0"/>
<line y1="-0.5" x2="11.2055" y2="-0.5" transform="matrix(-0.780869 0.624695 0.780869 0.624695 95 65)" stroke="#D8DBE0"/>
<line x1="86.6464" y1="38.6464" x2="93.6464" y2="31.6464" stroke="#D8DBE0"/>
<line y1="-0.5" x2="11.2055" y2="-0.5" transform="matrix(-0.780869 0.624695 0.780869 0.624695 95 73)" stroke="#D8DBE0"/>
<line x1="94.6464" y1="38.6464" x2="101.646" y2="31.6464" stroke="#D8DBE0"/>
<line y1="-0.5" x2="11.2055" y2="-0.5" transform="matrix(-0.780869 0.624695 0.780869 0.624695 95 81)" stroke="#D8DBE0"/>
<line x1="102.646" y1="38.6464" x2="109.646" y2="31.6464" stroke="#D8DBE0"/>
<line y1="-0.5" x2="11.2055" y2="-0.5" transform="matrix(-0.780869 0.624695 0.780869 0.624695 95 89)" stroke="#D8DBE0"/>
<line y1="-0.5" x2="11.2055" y2="-0.5" transform="matrix(-0.780869 0.624695 0.780869 0.624695 95 97)" stroke="#D8DBE0"/>
<line y1="-0.5" x2="11.2055" y2="-0.5" transform="matrix(-0.780869 0.624695 0.780869 0.624695 95 105)" stroke="#D8DBE0"/>
<path d="M50.8555 31.5195L85.5 20.9985" stroke="#D8DBE0"/>
<line x1="111.761" y1="31.4389" x2="89.7606" y2="19.4389" stroke="#D8DBE0"/>
<circle cx="44" cy="46" r="3" fill="#989EAC"/>
<path d="M41 53C41 54.6569 42.3431 56 44 56C45.6569 56 47 54.6569 47 53C47 51.3431 45.6569 50 44 50" stroke="#D8DBE0" stroke-width="1.5"/>
<path d="M53.5 64.5L43 54.5" stroke="#989EAC" stroke-width="2" stroke-linecap="round"/>
<path d="M33.9698 65.3265C34.127 63.4893 35.7437 62.1274 37.5809 62.2846L57.4015 63.9806L67.9848 76.5445L65.0053 111.365C64.8481 113.202 63.2313 114.564 61.3941 114.407L33.3265 112.005C31.4893 111.848 30.1274 110.231 30.2846 108.394L33.9698 65.3265Z" fill="url(#paint2_radial_1413_63366)"/>
<path d="M57.4014 63.9805L67.9846 76.5444L59.7376 75.8387C57.9004 75.6815 56.5385 74.0647 56.6957 72.2275L57.4014 63.9805Z" fill="url(#paint3_linear_1413_63366)"/>
<path fill-rule="evenodd" clip-rule="evenodd" d="M40 93.6641C40.9491 89.2331 45.0693 86.0961 49.7022 86.4924C54.3352 86.8888 57.8627 90.6801 58.0453 95.2079L55.2501 94.9688C54.9608 91.9751 52.5697 89.521 49.4659 89.2554C46.362 88.9899 43.5887 91.0022 42.7952 93.9032L40 93.6641Z" fill="#989EAC"/>
<path d="M40.9483 82.6117C41.0244 81.7216 41.8078 81.0617 42.6979 81.1379C43.5881 81.214 44.2479 81.9974 44.1718 82.8875C44.0956 83.7777 43.3123 84.4375 42.4221 84.3614C41.532 84.2852 40.8721 83.5019 40.9483 82.6117Z" fill="#949BA9"/>
<path d="M79 106C79 105.448 79.4477 105 80 105H100C100.552 105 101 105.448 101 106V109H79V106Z" fill="#949BA9"/>
<path d="M74.7516 113.615C74.9071 113.242 75.271 113 75.6745 113H89.7825C90.3347 113 90.7825 113.448 90.7825 114V117H73.3384L74.7516 113.615Z" fill="#949BA9"/>
<path d="M76.0678 109.652C76.2133 109.26 76.5872 109 77.0053 109H90.7823V115H74.0833L76.0678 109.652Z" fill="#BBBEC6"/>
<path d="M104.587 113.615C104.431 113.242 104.067 113 103.664 113H89.5559C89.0036 113 88.5559 113.448 88.5559 114V117H106L104.587 113.615Z" fill="#949BA9"/>
<path d="M103.271 109.652C103.125 109.26 102.751 109 102.333 109H88.556V115H105.255L103.271 109.652Z" fill="#BBBEC6"/>
<path d="M74 44.6492V39H95V50H78.4806C78.1768 50 77.8895 49.8619 77.6998 49.6247L74.2191 45.2739C74.0773 45.0966 74 44.8763 74 44.6492Z" fill="#BBBEC6"/>
<rect x="87" y="41" width="7" height="4" fill="white"/>
<rect x="77" y="41" width="7" height="4" fill="white"/>
<defs>
<linearGradient id="paint0_linear_1413_63366" x1="35.9215" y1="64.0041" x2="51.5266" y2="115.371" gradientUnits="userSpaceOnUse">
<stop stop-color="#C5C8CD"/>
<stop offset="1" stop-color="#ACB0BB"/>
</linearGradient>
<linearGradient id="paint1_linear_1413_63366" x1="20.6413" y1="84.4832" x2="43.26" y2="75.777" gradientUnits="userSpaceOnUse">
<stop stop-color="#ECEDEE" stop-opacity="0.63"/>
<stop offset="1" stop-color="#AEB3BD" stop-opacity="0"/>
</linearGradient>
<radialGradient id="paint2_radial_1413_63366" cx="0" cy="0" r="1" gradientUnits="userSpaceOnUse" gradientTransform="translate(51.6148 63.4855) rotate(94.8907) scale(47.1894 34.8476)">
<stop stop-color="#F8F9F9"/>
<stop offset="1" stop-color="#D5D8DD"/>
</radialGradient>
<linearGradient id="paint3_linear_1413_63366" x1="62.7607" y1="70.3465" x2="56.411" y2="75.554" gradientUnits="userSpaceOnUse">
<stop stop-color="#D4D7DE"/>
<stop offset="0.448008" stop-color="#D7DAE0"/>
<stop offset="1" stop-color="#DBDEE2"/>
</linearGradient>
</defs>
</svg>
