<svg width="20" height="20" viewBox="0 0 20 20" fill="none" xmlns="http://www.w3.org/2000/svg">
    <path d="M3.41394 16.9021H15.4996V16.8914H15.6976C15.8589 16.8917 16.015 16.8367 16.1408 16.7357C16.2664 16.6348 16.354 16.494 16.3886 16.3366L17.9669 9.18735C18.059 8.76904 17.9564 8.33163 17.6882 7.99765C17.4199 7.6638 17.0148 7.46951 16.5865 7.46939H16.3833V5.87206C16.3833 5.49702 16.2343 5.13742 15.9691 4.87221C15.704 4.60702 15.3444 4.4581 14.9694 4.4581H9.6141L6.89234 3.07594C6.79321 3.02577 6.68349 2.99975 6.57228 3H3.41397C3.03893 3 2.67932 3.14893 2.41411 3.41411C2.14905 3.6793 2 4.03893 2 4.41384V15.4881C2 15.863 2.14905 16.2226 2.41411 16.4879C2.6793 16.753 3.0389 16.9021 3.41394 16.9021ZM15.1247 15.4776H4.37182L5.82647 8.88324H16.5847L15.1247 15.4776ZM6.40435 4.41374L9.12611 5.79589C9.22523 5.84607 9.33483 5.87208 9.44605 5.87196H14.9692V7.46941L5.82631 7.46929C5.50467 7.47101 5.19301 7.58172 4.94235 7.78329C4.69159 7.98486 4.51665 8.26545 4.4459 8.57923L3.41375 13.2541V4.41366L6.40435 4.41374Z"
          fill="currentColor" stroke="currentColor" stroke-width="0.2"/>
</svg>
