<svg width="20" height="20" viewBox="0 0 20 20" fill="none" xmlns="http://www.w3.org/2000/svg">
<path d="M18.3337 9.99984C18.3337 14.6022 14.6027 18.3332 10.0003 18.3332C5.39795 18.3332 1.66699 14.6022 1.66699 9.99984C1.66699 5.39746 5.39795 1.6665 10.0003 1.6665C14.6027 1.6665 18.3337 5.39746 18.3337 9.99984Z" fill="white"/>
<path fill-rule="evenodd" clip-rule="evenodd" d="M14.3217 6.63133C14.6899 6.8768 14.7763 7.3812 14.5108 7.73522L10.0838 13.6379C9.71273 14.1326 8.98611 14.1753 8.55963 13.7275L5.72931 10.7557C5.43937 10.4513 5.44522 9.97112 5.7425 9.67384V9.67384C6.02869 9.38766 6.48696 9.37006 6.79425 9.63345L9.16634 11.6667L13.3056 6.77479C13.5587 6.47575 13.9957 6.41404 14.3217 6.63133V6.63133Z" fill="#00BA34"/>
</svg>
