<svg width="120" height="120" viewBox="0 0 120 120" fill="none" xmlns="http://www.w3.org/2000/svg">
<path d="M107.234 113.787C107.234 116.983 86.8106 119.574 61.617 119.574C36.4234 119.574 16 116.983 16 113.787C16 110.591 36.4234 108 61.617 108C86.8106 108 107.234 110.591 107.234 113.787Z" fill="url(#paint0_linear_2810_125636)"/>
<path d="M60.293 77.5849L57.5182 81.3995L55.6021 77.0891L60.293 77.5849Z" fill="white"/>
<path d="M86.293 86.5849L83.5182 90.3995L81.6021 86.0891L86.293 86.5849Z" fill="white"/>
<path d="M17.8723 96.0858C17.8723 97.3079 16.8816 98.2986 15.6595 98.2986C14.4375 98.2986 13.4468 97.3079 13.4468 96.0858C13.4468 94.8637 14.4375 93.873 15.6595 93.873C16.8816 93.873 17.8723 94.8637 17.8723 96.0858Z" fill="#EBEEF0"/>
<path d="M11.0638 88.2565C11.0638 89.1026 10.378 89.7884 9.53191 89.7884C8.68586 89.7884 8 89.1026 8 88.2565C8 87.4105 8.68586 86.7246 9.53191 86.7246C10.378 86.7246 11.0638 87.4105 11.0638 88.2565Z" fill="#F9F9F9"/>
<path d="M104.851 93.9572C104.851 94.9442 104.051 95.7444 103.064 95.7444C102.077 95.7444 101.276 94.9442 101.276 93.9572C101.276 92.9701 102.077 92.1699 103.064 92.1699C104.051 92.1699 104.851 92.9701 104.851 93.9572Z" fill="#F6F7F7"/>
<path d="M112 99.4053C112 100.674 110.971 101.703 109.702 101.703C108.433 101.703 107.404 100.674 107.404 99.4053C107.404 98.1362 108.433 97.1074 109.702 97.1074C110.971 97.1074 112 98.1362 112 99.4053Z" fill="#F3F3F5"/>
<path d="M101.957 104.512C101.957 106.063 100.7 107.32 99.1488 107.32C97.5977 107.32 96.3403 106.063 96.3403 104.512C96.3403 102.961 97.5977 101.703 99.1488 101.703C100.7 101.703 101.957 102.961 101.957 104.512Z" fill="#E4E5E6"/>
<path d="M81.4923 80.9918C78.8251 79.452 75.6587 78.2305 72.1739 77.3971C68.6891 76.5637 64.9541 76.1348 61.1822 76.1348C57.4102 76.1348 53.6752 76.5637 50.1904 77.3971C46.7056 78.2305 43.5392 79.452 40.8721 80.9918L61.1822 92.7179L81.4923 80.9918Z" fill="#7AC7FF"/>
<path d="M61.1821 50.8672C64.9541 50.8672 68.6891 51.2961 72.1739 52.1295V77.3983C68.6891 76.5649 64.9541 76.1359 61.1821 76.1359V50.8672Z" fill="#7AC7FF"/>
<path d="M50.1909 52.1295C53.6757 51.2961 57.4107 50.8672 61.1827 50.8672V76.1359C57.4107 76.1359 53.6757 76.5649 50.1909 77.3983V52.1295Z" fill="#7AC7FF"/>
<path d="M72.1738 52.1289C75.6586 52.9623 78.825 54.1838 81.4922 55.7237V80.9924C78.825 79.4525 75.6586 78.231 72.1738 77.3977V52.1289Z" fill="#7AC7FF"/>
<path d="M40.8721 55.7237C43.5392 54.1838 46.7056 52.9623 50.1904 52.1289V77.3977C46.7056 78.231 43.5392 79.4525 40.8721 80.9924V55.7237Z" fill="#7AC7FF"/>
<path d="M61.1822 67.4526L40.8721 55.7266V80.9953L61.1822 92.7214V67.4526Z" fill="#BCBEC6"/>
<path d="M70.2497 81.4467C74.5639 82.2552 78.4853 83.6421 81.6926 85.4938C79.0254 83.9539 75.8589 82.7325 72.3741 81.8991C68.8893 81.0657 65.1543 80.6368 61.3824 80.6368C57.6105 80.6368 53.8755 81.0657 50.3906 81.8991C46.9058 82.7325 43.7395 83.954 41.0723 85.4939L61.3824 97.2199L56.9609 113.605C52.4791 113.202 48.2264 112.192 44.551 110.657C40.8756 109.123 37.8819 107.107 35.815 104.776C33.7481 102.445 32.6669 99.8648 32.6597 97.246C32.6525 94.6272 33.7197 92.0447 35.7738 89.7099C37.8279 87.3751 40.8106 85.3543 44.4776 83.813C48.1447 82.2718 52.3918 81.2538 56.8713 80.8425C61.3509 80.4312 65.9354 80.6383 70.2497 81.4467Z" fill="#AFF4C6"/>
<path d="M61.3824 84.5854L41.0723 72.8594V85.4938L61.3824 97.2198V84.5854Z" fill="#AFF4C6"/>
<path d="M32.6597 84.6123C32.6525 81.9935 33.7197 79.411 35.7738 77.0762V89.7105C33.7334 92.0298 32.6668 94.5935 32.6597 97.1943V97.2466C32.6597 97.2292 32.6597 97.2117 32.6597 97.1943V84.6123Z" fill="#AFF4C6"/>
<path d="M61.3825 84.5859L56.9609 100.971V113.606L61.3825 97.2203V84.5859Z" fill="#D7D8DB"/>
<path fill-rule="evenodd" clip-rule="evenodd" d="M35.815 92.1417C33.7481 89.8106 32.6668 87.2301 32.6597 84.6113V97.2457C32.6668 99.8644 33.7481 102.445 35.8149 104.776V104.776C37.8817 107.107 40.8754 109.122 44.5508 110.657V98.0227C40.8755 96.4881 37.8818 94.4728 35.815 92.1418V92.1417ZM44.551 98.0227C48.2264 99.5573 52.479 100.567 56.9608 100.971V113.605C52.479 113.202 48.2264 112.192 44.551 110.657V98.0227Z" fill="#989EAC"/>
<path fill-rule="evenodd" clip-rule="evenodd" d="M70.2497 68.812C74.5639 69.6204 78.4853 71.0073 81.6926 72.859C79.0254 71.3192 75.8589 70.0977 72.3741 69.2643C68.8893 68.4309 65.1543 68.002 61.3824 68.002C57.6105 68.002 53.8755 68.431 50.3906 69.2643C46.9058 70.0977 43.7395 71.3192 41.0723 72.8591L61.3824 84.5851L56.9609 100.971C52.4791 100.567 48.2264 99.5572 44.551 98.0226C40.8756 96.488 37.8819 94.4727 35.815 92.1416C33.7481 89.8105 32.6669 87.23 32.6597 84.6112C32.6525 81.9925 33.7197 79.41 35.7738 77.0751C37.8279 74.7403 40.8106 72.7196 44.4776 71.1783C48.1447 69.637 52.3918 68.6191 56.8713 68.2078C61.3509 67.7965 65.9354 68.0035 70.2497 68.812Z" fill="#C7CBD0"/>
<path d="M81.4922 55.7266L61.1821 67.4526V92.7214L81.4922 80.9953V55.7266Z" fill="#D7D8DB"/>
<path d="M81.4923 55.7266C78.8251 54.1867 75.6587 52.9652 72.1739 52.1318C68.6891 51.2984 64.9541 50.8695 61.1822 50.8695C57.4102 50.8695 53.6752 51.2984 50.1904 52.1318C46.7056 52.9652 43.5392 54.1867 40.8721 55.7266L61.1822 67.4526L81.4923 55.7266Z" fill="#F1F1F3"/>
<path d="M56.665 113.785C56.665 113.785 56.665 113.786 56.665 113.786C56.665 113.786 56.665 113.787 56.665 113.787C65.4657 114.609 74.8016 113.061 81.5871 109.143C87.1963 105.905 90.0005 101.66 89.9998 97.4159C89.9991 93.1724 87.1949 88.9291 81.5871 85.6914L61.277 97.4174L56.8554 113.803C56.7919 113.797 56.7284 113.791 56.665 113.785Z" fill="#F1F1F3"/>
<path d="M90.0001 78.4627C89.9994 74.2193 87.1952 69.9759 81.5874 66.7383V85.6899C87.1952 88.9275 89.9994 93.1708 90.0001 97.4143V78.4627Z" fill="#F1F1F3"/>
<path d="M81.5874 66.7383L61.2773 78.4643V97.4159L81.5874 85.6898V66.7383Z" fill="#F1F1F3"/>
<path d="M61.2771 78.4648L56.8555 94.8503V113.802L61.2771 97.4164V78.4648Z" fill="#F1F1F3"/>
<path fill-rule="evenodd" clip-rule="evenodd" d="M89.9999 78.466C89.9992 82.7095 87.195 86.9529 81.5872 90.1905V109.142C87.1964 105.904 90.0006 101.659 89.9999 97.4145V78.466ZM81.5872 90.1906C74.8016 94.1082 65.4657 95.6559 56.665 94.8337V113.785C65.4657 114.607 74.8016 113.06 81.5872 109.142V90.1906Z" fill="#D7D8DB"/>
<path fill-rule="evenodd" clip-rule="evenodd" d="M56.665 94.8323V94.8335C65.4657 95.6557 74.8016 94.108 81.5871 90.1903C92.804 83.7142 92.804 73.2144 81.5871 66.7383L61.277 78.4643L56.8554 94.8498C56.7919 94.844 56.7284 94.8382 56.665 94.8323Z" fill="#F1F1F3"/>
<defs>
<linearGradient id="paint0_linear_2810_125636" x1="16" y1="113.787" x2="107.234" y2="113.787" gradientUnits="userSpaceOnUse">
<stop stop-color="#F6F8FA"/>
<stop offset="0.460263" stop-color="#FAFBFC" stop-opacity="0.13"/>
<stop offset="1" stop-color="white" stop-opacity="0"/>
</linearGradient>
</defs>
</svg>
