<svg width="24" height="24" viewBox="0 0 24 24" fill="none" xmlns="http://www.w3.org/2000/svg">
<rect x="3" y="3" width="18" height="18" rx="4" fill="#00BA34"/>
<path d="M10.4731 14.2135C10.5456 14.2389 10.6209 14.25 10.6965 14.25C10.7721 14.25 10.8474 14.2389 10.9198 14.2135C10.9992 14.1856 11.069 14.1403 11.1297 14.087L16.0498 9.77089C16.175 9.66106 16.25 9.51445 16.25 9.34193C16.25 9.16941 16.175 9.02279 16.0498 8.91296C15.9254 8.8038 15.7745 8.75 15.6102 8.75C15.446 8.75 15.295 8.8038 15.1706 8.91296L10.6965 12.8378L8.81662 11.1887C8.69422 11.0814 8.54613 11.0258 8.38339 11.0258C8.22064 11.0258 8.07255 11.0814 7.95015 11.1887C7.82243 11.3008 7.75 11.4502 7.75 11.6233C7.75 11.7964 7.82243 11.9458 7.95015 12.0579L10.2633 14.087C10.324 14.1403 10.3937 14.1856 10.4731 14.2135Z" fill="white" stroke="white" stroke-width="0.5"/>
</svg>
