<svg width="120" height="120" viewBox="0 0 120 120" fill="none" xmlns="http://www.w3.org/2000/svg">
<g id="Discontinue">
<path id="Ellipse 1998" d="M17.8708 97.7831C17.8708 99.0052 16.8802 99.9958 15.6581 99.9958C14.436 99.9958 13.4453 99.0052 13.4453 97.7831C13.4453 96.561 14.436 95.5703 15.6581 95.5703C16.8802 95.5703 17.8708 96.561 17.8708 97.7831Z" fill="#EBEEF0"/>
<path id="Ellipse 2002" d="M11.0638 89.9499C11.0638 90.7959 10.378 91.4818 9.53191 91.4818C8.68586 91.4818 8 90.7959 8 89.9499C8 89.1038 8.68586 88.418 9.53191 88.418C10.378 88.418 11.0638 89.1038 11.0638 89.9499Z" fill="#F9F9F9"/>
<path id="Ellipse 2001" d="M104.848 95.6544C104.848 96.6415 104.048 97.4417 103.061 97.4417C102.074 97.4417 101.273 96.6415 101.273 95.6544C101.273 94.6674 102.074 93.8672 103.061 93.8672C104.048 93.8672 104.848 94.6674 104.848 95.6544Z" fill="#F6F7F7"/>
<path id="Ellipse 2000" d="M112.002 101.103C112.002 102.372 110.973 103.4 109.704 103.4C108.435 103.4 107.406 102.372 107.406 101.103C107.406 99.8335 108.435 98.8047 109.704 98.8047C110.973 98.8047 112.002 99.8335 112.002 101.103Z" fill="#F3F3F5"/>
<path id="Ellipse 1999" d="M101.961 106.207C101.961 107.758 100.703 109.015 99.1523 109.015C97.6012 109.015 96.3438 107.758 96.3438 106.207C96.3438 104.656 97.6012 103.398 99.1523 103.398C100.703 103.398 101.961 104.656 101.961 106.207Z" fill="#E4E5E6"/>
<path id="Ellipse 1997" d="M104.234 113.787C104.234 116.983 83.8106 119.574 58.617 119.574C33.4234 119.574 13 116.983 13 113.787C13 110.591 33.4234 108 58.617 108C83.8106 108 104.234 110.591 104.234 113.787Z" fill="url(#paint0_linear_5101_129944)"/>
<g id="Group 48098820">
<path id="Vector" d="M39.7324 72.5547L39.2303 75.6257L38.6921 78.923L33.7893 109H25.7656L30.673 78.923L31.2112 75.6257L31.7087 72.5547H39.7324Z" fill="url(#paint1_linear_5101_129944)"/>
<path id="Vector_2" d="M38.5698 72.5547C38.1446 75.6031 37.6923 78.6425 37.2129 81.6864L35.8017 90.8001L34.3182 99.9092L33.5538 104.432L32.7578 108.978L33.4091 104.41L34.0921 99.8504L35.5077 90.7323L37.0094 81.6322C37.5159 78.6154 38.027 75.585 38.5698 72.5547Z" fill="#C7C7C7"/>
<path id="Vector_3" d="M39.2292 75.625L38.691 78.9222H30.6719L31.2101 75.625H39.2292Z" fill="#C7C7C7"/>
<path id="Vector_4" d="M79.3359 72.5547L79.8335 75.6257L80.3717 78.923L85.2745 109H93.2982L88.3908 78.923L87.8571 75.6257L87.3551 72.5547H79.3359Z" fill="url(#paint2_linear_5101_129944)"/>
<path id="Vector_5" d="M80.5156 72.5547C80.9363 75.6031 81.3931 78.6425 81.8725 81.6864L83.2837 90.8001L84.7672 99.9092L85.5315 104.432L86.3276 108.978L85.6763 104.41L84.9933 99.8504L83.5776 90.7323L82.076 81.6322C81.5695 78.6154 81.0584 75.585 80.5156 72.5547Z" fill="#C7C7C7"/>
<path id="Vector_6" d="M79.8281 75.625H87.8518L88.3855 78.9222H80.3664L79.8281 75.625Z" fill="#C7C7C7"/>
<path id="Vector_7" d="M39.4373 64.0975H33.0781L33.8696 58.168H38.6458L39.4373 64.0975Z" fill="#C7C7C7"/>
<path id="Vector_8" d="M42.1872 53.9295C42.1872 55.1023 41.8394 56.2487 41.1879 57.2238C40.5363 58.1989 39.6103 58.9589 38.5268 59.4077C37.4433 59.8565 36.2511 59.9739 35.1009 59.7451C33.9506 59.5163 32.8941 58.9516 32.0648 58.1223C31.2356 57.2931 30.6709 56.2365 30.4421 55.0863C30.2133 53.9361 30.3307 52.7439 30.7795 51.6604C31.2283 50.5769 31.9883 49.6508 32.9634 48.9993C33.9385 48.3478 35.0849 48 36.2577 48C37.0365 47.9994 37.8078 48.1524 38.5275 48.4501C39.2472 48.7479 39.9011 49.1847 40.4518 49.7354C41.0025 50.2861 41.4393 50.94 41.7371 51.6597C42.0348 52.3794 42.1878 53.1507 42.1872 53.9295Z" fill="url(#paint3_linear_5101_129944)"/>
<path id="Vector_9" d="M40.7646 53.9292C40.7646 54.8237 40.4993 55.6982 40.0023 56.4419C39.5053 57.1857 38.799 57.7655 37.9725 58.1078C37.1461 58.4501 36.2366 58.5397 35.3593 58.3652C34.4819 58.1906 33.676 57.7599 33.0435 57.1273C32.4109 56.4948 31.9802 55.6889 31.8057 54.8115C31.6311 53.9342 31.7207 53.0248 32.063 52.1983C32.4054 51.3719 32.9851 50.6655 33.7289 50.1685C34.4727 49.6715 35.3471 49.4062 36.2417 49.4062C37.4412 49.4062 38.5916 49.8828 39.4398 50.731C40.2881 51.5792 40.7646 52.7296 40.7646 53.9292Z" fill="white"/>
<path id="Vector_10" d="M40.0283 53.6658C39.9865 53.1284 39.8338 52.6055 39.5801 52.1299C39.3263 51.6543 38.977 51.2363 38.5539 50.9023C38.1292 50.5711 37.6415 50.3297 37.1205 50.1928C36.5996 50.056 36.0562 50.0265 35.5235 50.1063C34.9947 50.1907 34.4895 50.3853 34.0407 50.6775C33.5919 50.9697 33.2095 51.3529 32.9183 51.8024C32.6131 52.2789 32.4129 52.815 32.331 53.3749C32.2491 53.9349 32.2874 54.5059 32.4434 55.0498C32.7143 55.9953 33.3463 56.7962 34.2028 57.2796C35.0399 57.753 36.0211 57.9041 36.9618 57.7048C37.8736 57.5105 38.691 57.0092 39.2775 56.2846C39.8572 55.5725 40.1904 54.6918 40.2273 53.7744C40.2273 53.7337 40.2273 53.6975 40.1957 53.693C40.164 53.6884 40.155 53.7291 40.1505 53.7744C40.1317 54.1445 40.0601 54.51 39.9379 54.8599C39.8142 55.2053 39.647 55.5336 39.4404 55.8368C39.2287 56.1359 38.9811 56.4078 38.7031 56.6464C38.4156 56.884 38.1014 57.0874 37.7669 57.2525C37.2883 57.4808 36.7669 57.6053 36.2368 57.6178C35.7068 57.6302 35.1801 57.5304 34.6913 57.3249C34.1986 57.1174 33.7569 56.8053 33.3969 56.4101C33.0368 56.0149 32.767 55.5461 32.6062 55.0363C32.4399 54.5113 32.3889 53.9567 32.4568 53.4102C32.5247 52.8638 32.7099 52.3385 32.9997 51.8702C33.2778 51.426 33.6485 51.0469 34.0863 50.7589C34.5242 50.4709 35.019 50.2807 35.5371 50.2013C36.2355 50.0883 36.9515 50.167 37.6086 50.4291C38.2658 50.6912 38.8395 51.1267 39.2685 51.6893C39.4788 51.9764 39.6477 52.2915 39.7705 52.6255C39.8916 52.9631 39.972 53.3138 40.0102 53.6703C40.0102 53.6703 40.0283 53.6794 40.0283 53.6658Z" fill="url(#paint4_linear_5101_129944)"/>
<path id="Vector_11" d="M39.4996 53.671C39.4598 53.2112 39.3261 52.7644 39.1067 52.3583C38.8873 51.9522 38.5869 51.5954 38.2241 51.3101C37.8594 51.0292 37.4424 50.8238 36.9974 50.7058C36.5525 50.5878 36.0885 50.5595 35.6325 50.6226C35.1754 50.6893 34.7377 50.8519 34.3479 51.0998C33.9582 51.3477 33.6252 51.6752 33.3711 52.0609C33.0995 52.4704 32.9186 52.9334 32.8406 53.4186C32.7626 53.9038 32.7892 54.4001 32.9188 54.8741C33.0325 55.2838 33.2261 55.6669 33.4885 56.0015C33.7509 56.336 34.0768 56.6154 34.4475 56.8235C35.1775 57.2367 36.0345 57.3656 36.8537 57.1853C37.6437 57.0108 38.3504 56.572 38.8574 55.9415C39.3546 55.3215 39.6428 54.5599 39.6805 53.766C39.6805 53.7298 39.6805 53.6982 39.6443 53.6936C39.6082 53.6891 39.6036 53.7253 39.5991 53.7615C39.5563 54.4004 39.3427 55.0162 38.9807 55.5444C38.6187 56.0727 38.1216 56.4941 37.5412 56.7647C37.1288 56.9657 36.6783 57.0765 36.2197 57.0897C35.7612 57.103 35.305 57.0184 34.8817 56.8416C34.453 56.6635 34.0688 56.3933 33.7561 56.0502C33.4435 55.7071 33.2101 55.2994 33.0725 54.856C32.9353 54.4041 32.8965 53.928 32.9589 53.4599C33.0214 52.9917 33.1835 52.5424 33.4344 52.1423C33.6768 51.7652 33.9972 51.4446 34.3741 51.2019C34.7509 50.9593 35.1754 50.8003 35.6189 50.7357C36.2111 50.6479 36.8159 50.7185 37.372 50.9401C37.928 51.1617 38.4155 51.5266 38.785 51.9975C38.9681 52.2431 39.1201 52.5105 39.2373 52.7936C39.3406 53.0865 39.4118 53.3898 39.4499 53.6982C39.4499 53.6982 39.5041 53.6801 39.4996 53.671Z" fill="url(#paint5_linear_5101_129944)"/>
<path id="Vector_12" d="M38.9639 53.6765C38.9259 53.2945 38.8104 52.9242 38.6245 52.5883C38.4387 52.2524 38.1864 51.9578 37.883 51.7226C37.2724 51.2547 36.5026 51.0452 35.7391 51.1392C35.3565 51.191 34.9892 51.3229 34.6611 51.5263C34.333 51.7297 34.0515 52.0001 33.8349 52.3197C33.6025 52.6656 33.4463 53.0571 33.3769 53.4681C33.3075 53.8791 33.3264 54.3001 33.4324 54.7032C33.5249 55.054 33.6877 55.3824 33.9108 55.6685C34.1339 55.9546 34.4128 56.1924 34.7305 56.3677C35.3544 56.7179 36.0861 56.8243 36.7839 56.6662C37.4524 56.5124 38.0489 56.136 38.4755 55.5988C38.8908 55.0714 39.1326 54.4283 39.1675 53.7579C39.1704 53.7448 39.1683 53.731 39.1616 53.7193C39.1549 53.7076 39.1441 53.6988 39.1313 53.6946C39.1313 53.6946 39.0906 53.7217 39.0906 53.7534C39.0476 54.29 38.8646 54.8059 38.5599 55.2495C38.2551 55.6932 37.8392 56.0491 37.3538 56.2817C37.0049 56.4572 36.6222 56.5553 36.2319 56.5694C35.8416 56.5834 35.4529 56.5131 35.0923 56.3631C34.7302 56.2115 34.4061 55.9816 34.1434 55.6899C33.8806 55.3983 33.6857 55.052 33.5726 54.6761C33.4619 54.2978 33.4337 53.9001 33.4899 53.51C33.5461 53.1199 33.6853 52.7463 33.8983 52.4146C34.1036 52.1022 34.374 51.8378 34.6909 51.6396C35.0078 51.4413 35.3638 51.3138 35.7346 51.2658C36.2253 51.209 36.7225 51.2679 37.1864 51.4377C37.6506 51.6162 38.0583 51.9161 38.3669 52.3061C38.5164 52.509 38.641 52.7292 38.7378 52.9619C38.8296 53.2025 38.8934 53.4529 38.9277 53.7082C38.9277 53.7082 38.9684 53.6856 38.9639 53.6765Z" fill="url(#paint6_linear_5101_129944)"/>
<path id="Vector_13" d="M38.4407 53.6834C38.3993 53.378 38.2982 53.0838 38.1429 52.8176C37.9877 52.5514 37.7815 52.3184 37.5361 52.132C37.0449 51.7721 36.436 51.6106 35.831 51.6797C35.5227 51.713 35.2249 51.8108 34.9568 51.9666C34.6888 52.1224 34.4565 52.3329 34.2751 52.5843C34.0798 52.8641 33.9466 53.1823 33.8842 53.5177C33.8218 53.8531 33.8317 54.1979 33.9133 54.5292C33.986 54.8204 34.118 55.0936 34.3008 55.3317C34.4837 55.5698 34.7135 55.7677 34.9761 55.9132C35.4927 56.2044 36.1006 56.2884 36.6767 56.1484C37.227 56.0146 37.7142 55.6951 38.0562 55.2438C38.3957 54.8118 38.5946 54.2862 38.6261 53.7377C38.6275 53.7263 38.6245 53.7149 38.6178 53.7057C38.6111 53.6965 38.6011 53.6901 38.5899 53.6879C38.5899 53.6879 38.5492 53.6879 38.5447 53.7377C38.504 54.1707 38.3534 54.5861 38.1072 54.9446C37.8611 55.3031 37.5275 55.5929 37.1381 55.7865C36.8569 55.9319 36.5477 56.0148 36.2316 56.0296C35.9154 56.0445 35.5998 55.9909 35.3063 55.8725C35.0095 55.7498 34.7442 55.5616 34.5304 55.3219C34.3166 55.0822 34.1597 54.7973 34.0715 54.4885C33.9826 54.1783 33.9624 53.8525 34.0124 53.5338C34.0624 53.2151 34.1814 52.9111 34.361 52.6431C34.5283 52.3941 34.7475 52.1843 35.0036 52.0282C35.2597 51.872 35.5466 51.7732 35.8445 51.7385C36.2319 51.7029 36.6225 51.7523 36.9888 51.8833C37.3556 52.0225 37.6798 52.2547 37.9296 52.5572C38.0527 52.7159 38.156 52.8891 38.2372 53.0728C38.3105 53.2649 38.3665 53.4632 38.4045 53.6653C38.4045 53.6653 38.4407 53.6879 38.4407 53.6834Z" fill="url(#paint7_linear_5101_129944)"/>
<path id="Vector_14" d="M85.8436 64.0975H79.4844L80.2759 58.168H85.0521L85.8436 64.0975Z" fill="#C7C7C7"/>
<path id="Vector_15" d="M88.5935 53.9295C88.5935 55.1023 88.2457 56.2487 87.5941 57.2238C86.9426 58.1989 86.0165 58.9589 84.9331 59.4077C83.8496 59.8565 82.6573 59.9739 81.5071 59.7451C80.3569 59.5163 79.3004 58.9516 78.4711 58.1223C77.6418 57.2931 77.0771 56.2365 76.8483 55.0863C76.6195 53.9361 76.7369 52.7439 77.1857 51.6604C77.6345 50.5769 78.3945 49.6508 79.3696 48.9993C80.3448 48.3478 81.4912 48 82.6639 48C83.4428 47.9994 84.2141 48.1524 84.9338 48.4501C85.6534 48.7479 86.3073 49.1847 86.8581 49.7354C87.4088 50.2861 87.8455 50.94 88.1433 51.6597C88.4411 52.3794 88.594 53.1507 88.5935 53.9295Z" fill="url(#paint8_linear_5101_129944)"/>
<path id="Vector_16" d="M87.1708 53.9292C87.1708 54.8237 86.9056 55.6982 86.4086 56.4419C85.9116 57.1857 85.2052 57.7655 84.3787 58.1078C83.5523 58.4501 82.6429 58.5397 81.7655 58.3652C80.8882 58.1906 80.0823 57.7599 79.4497 57.1273C78.8172 56.4948 78.3864 55.6889 78.2119 54.8115C78.0374 53.9342 78.127 53.0248 78.4693 52.1983C78.8116 51.3719 79.3913 50.6655 80.1351 50.1685C80.8789 49.6715 81.7534 49.4062 82.6479 49.4062C83.8475 49.4062 84.9979 49.8828 85.8461 50.731C86.6943 51.5792 87.1708 52.7296 87.1708 53.9292Z" fill="white"/>
<path id="Vector_17" d="M86.4346 53.6658C86.3927 53.1284 86.2401 52.6055 85.9863 52.1299C85.7326 51.6543 85.3832 51.2363 84.9601 50.9023C84.5354 50.5711 84.0477 50.3297 83.5268 50.1928C83.0058 50.056 82.4625 50.0265 81.9298 50.1063C81.4009 50.1907 80.8957 50.3853 80.4469 50.6775C79.9981 50.9697 79.6157 51.3529 79.3246 51.8024C79.0194 52.2789 78.8191 52.815 78.7372 53.3749C78.6554 53.9349 78.6937 54.5059 78.8497 55.0498C79.1206 55.9953 79.7526 56.7962 80.6091 57.2796C81.4461 57.753 82.4273 57.9041 83.3681 57.7048C84.2798 57.5105 85.0973 57.0092 85.6838 56.2846C86.2634 55.5725 86.5967 54.6918 86.6336 53.7744C86.6336 53.7337 86.6336 53.6975 86.6019 53.693C86.5703 53.6884 86.5612 53.7291 86.5567 53.7744C86.538 54.1445 86.4664 54.51 86.3441 54.8599C86.2223 55.2061 86.055 55.5346 85.8466 55.8368C85.635 56.1359 85.3874 56.4078 85.1094 56.6464C84.8218 56.884 84.5076 57.0874 84.1731 57.2525C83.6946 57.4808 83.1732 57.6053 82.6431 57.6178C82.113 57.6302 81.5863 57.5304 81.0976 57.3249C80.6023 57.119 80.158 56.8076 79.7955 56.4123C79.433 56.017 79.1612 55.5474 78.9989 55.0363C78.8326 54.5113 78.7816 53.9567 78.8495 53.4102C78.9174 52.8638 79.1026 52.3385 79.3924 51.8702C79.6705 51.426 80.0411 51.0469 80.479 50.7589C80.9169 50.4709 81.4117 50.2807 81.9298 50.2013C82.6282 50.0883 83.3442 50.167 84.0013 50.4291C84.6585 50.6912 85.2322 51.1267 85.6612 51.6893C85.8714 51.9764 86.0404 52.2915 86.1632 52.6255C86.2842 52.9631 86.3647 53.3138 86.4029 53.6703C86.4029 53.6703 86.4346 53.6794 86.4346 53.6658Z" fill="url(#paint9_linear_5101_129944)"/>
<path id="Vector_18" d="M85.9058 53.671C85.866 53.2112 85.7323 52.7644 85.5129 52.3583C85.2935 51.9522 84.9932 51.5954 84.6304 51.3101C84.2656 51.0292 83.8486 50.8238 83.4037 50.7058C82.9587 50.5878 82.4948 50.5595 82.0388 50.6226C81.5817 50.6893 81.1439 50.8519 80.7541 51.0998C80.3644 51.3477 80.0315 51.6752 79.7773 52.0609C79.5057 52.4704 79.3248 52.9334 79.2468 53.4186C79.1688 53.9038 79.1955 54.4001 79.325 54.8741C79.4388 55.2838 79.6324 55.6669 79.8947 56.0015C80.1571 56.336 80.483 56.6154 80.8538 56.8235C81.5838 57.2367 82.4407 57.3656 83.26 57.1853C84.0499 57.0108 84.7567 56.572 85.2636 55.9415C85.7609 55.3215 86.049 54.5599 86.0868 53.766C86.0868 53.7298 86.0868 53.6982 86.0506 53.6936C86.0144 53.6891 86.0099 53.7253 86.0053 53.7615C85.9635 54.396 85.7533 55.0079 85.3963 55.5342C85.0394 56.0605 84.5486 56.4821 83.9746 56.7556C83.5622 56.9566 83.1117 57.0674 82.6531 57.0807C82.1945 57.094 81.7384 57.0094 81.3151 56.8325C80.8864 56.6544 80.5021 56.3843 80.1895 56.0411C79.8769 55.698 79.6435 55.2903 79.5059 54.847C79.3686 54.3951 79.3299 53.919 79.3923 53.4508C79.4547 52.9827 79.6169 52.5334 79.8678 52.1332C80.1102 51.7562 80.4306 51.4356 80.8074 51.1929C81.1843 50.9502 81.6088 50.7912 82.0523 50.7266C82.6445 50.6389 83.2493 50.7094 83.8053 50.9311C84.3614 51.1527 84.8489 51.5175 85.2184 51.9885C85.4015 52.2341 85.5534 52.5015 85.6707 52.7845C85.7739 53.0775 85.8452 53.3808 85.8832 53.6891C85.8832 53.6891 85.9104 53.6801 85.9058 53.671Z" fill="url(#paint10_linear_5101_129944)"/>
<path id="Vector_19" d="M85.378 53.6765C85.3399 53.2945 85.2244 52.9242 85.0386 52.5883C84.8528 52.2524 84.6004 51.9578 84.297 51.7226C83.6864 51.2547 82.9166 51.0452 82.1531 51.1392C81.7706 51.191 81.4033 51.3229 81.0752 51.5263C80.7471 51.7297 80.4656 52.0001 80.249 52.3197C80.0165 52.6656 79.8604 53.0571 79.791 53.4681C79.7216 53.8791 79.7405 54.3001 79.8465 54.7032C79.939 55.054 80.1018 55.3824 80.3249 55.6685C80.548 55.9546 80.8268 56.1924 81.1445 56.3677C81.7685 56.7179 82.5001 56.8243 83.1979 56.6662C83.8665 56.5124 84.4629 56.136 84.8895 55.5988C85.3049 55.0714 85.5466 54.4283 85.5815 53.7579C85.5844 53.7448 85.5823 53.731 85.5756 53.7193C85.569 53.7076 85.5581 53.6988 85.5453 53.6946C85.5453 53.6946 85.5046 53.7217 85.5046 53.7534C85.4626 54.2902 85.2799 54.8065 84.9751 55.2503C84.6702 55.6941 84.2538 56.0499 83.7678 56.2817C83.4189 56.4572 83.0363 56.5553 82.646 56.5694C82.2557 56.5834 81.867 56.5131 81.5064 56.3631C81.1443 56.2115 80.8202 55.9816 80.5574 55.6899C80.2947 55.3983 80.0998 55.052 79.9867 54.6761C79.876 54.2978 79.8478 53.9001 79.904 53.51C79.9601 53.1199 80.0994 52.7463 80.3123 52.4146C80.5176 52.1022 80.788 51.8378 81.1049 51.6396C81.4219 51.4413 81.7779 51.3138 82.1486 51.2658C82.6394 51.209 83.1366 51.2679 83.6005 51.4377C84.0646 51.6162 84.4723 51.9161 84.781 52.3061C84.9305 52.509 85.055 52.7292 85.1518 52.9619C85.2437 53.2025 85.3074 53.4529 85.3418 53.7082C85.3418 53.7082 85.3825 53.6856 85.378 53.6765Z" fill="url(#paint11_linear_5101_129944)"/>
<path id="Vector_20" d="M84.8469 53.6834C84.8056 53.378 84.7044 53.0838 84.5492 52.8176C84.394 52.5514 84.1877 52.3184 83.9424 52.132C83.4511 51.7721 82.8423 51.6106 82.2372 51.6797C81.929 51.713 81.6311 51.8108 81.3631 51.9666C81.0951 52.1224 80.8628 52.3329 80.6813 52.5843C80.4861 52.8641 80.3528 53.1823 80.2904 53.5177C80.228 53.8531 80.2379 54.1979 80.3195 54.5292C80.3923 54.8204 80.5242 55.0936 80.7071 55.3317C80.8899 55.5698 81.1198 55.7677 81.3824 55.9132C81.8989 56.2044 82.5068 56.2884 83.083 56.1484C83.634 56.0135 84.1223 55.6943 84.467 55.2438C84.8034 54.8104 85.0005 54.2853 85.0324 53.7377C85.0337 53.7263 85.0307 53.7149 85.024 53.7057C85.0173 53.6965 85.0074 53.6901 84.9962 53.6879C84.9736 53.6879 84.9555 53.6879 84.951 53.7377C84.9102 54.1707 84.7596 54.5861 84.5135 54.9446C84.2673 55.3031 83.9338 55.5929 83.5443 55.7865C83.2632 55.9319 82.954 56.0148 82.6378 56.0296C82.3217 56.0445 82.0061 55.9909 81.7126 55.8725C81.4157 55.7498 81.1505 55.5616 80.9366 55.3219C80.7228 55.0822 80.566 54.7973 80.4778 54.4885C80.3888 54.1783 80.3686 53.8525 80.4186 53.5338C80.4686 53.2151 80.5876 52.9111 80.7673 52.6431C80.9345 52.3941 81.1537 52.1843 81.4098 52.0282C81.6659 51.872 81.9528 51.7732 82.2508 51.7385C82.6382 51.7029 83.0287 51.7523 83.3951 51.8833C83.7618 52.0225 84.086 52.2547 84.3358 52.5572C84.4589 52.7159 84.5622 52.8891 84.6434 53.0728C84.7167 53.2649 84.7727 53.4632 84.8107 53.6653C84.8107 53.6653 84.8469 53.6879 84.8469 53.6834Z" fill="url(#paint12_linear_5101_129944)"/>
<path id="Vector_21" d="M99.4914 61.0703H19.5625V76.3577H99.4914V61.0703Z" fill="url(#paint13_linear_5101_129944)"/>
<path id="Vector_22" d="M35.9914 61.0703L30.1885 76.3623H19.8672L25.6656 61.0703H35.9914Z" fill="url(#paint14_linear_5101_129944)"/>
<path id="Vector_23" d="M57.1521 61.0703L51.3538 76.3623H41.0234L46.8263 61.0703H57.1521Z" fill="url(#paint15_linear_5101_129944)"/>
<path id="Vector_24" d="M78.3117 61.0703L72.5088 76.3623H62.1875L67.9859 61.0703H78.3117Z" fill="url(#paint16_linear_5101_129944)"/>
<path id="Vector_25" d="M99.4646 61.0703L93.6617 76.3623H83.3359L89.1388 61.0703H99.4646Z" fill="url(#paint17_linear_5101_129944)"/>
<path id="Vector_26" d="M97.8747 90.4961H21.1797V100.171H97.8747V90.4961Z" fill="url(#paint18_linear_5101_129944)"/>
<path id="Vector_27" d="M36.9449 90.4961L31.3817 100.171H21.4766L27.0443 90.4961H36.9449Z" fill="url(#paint19_linear_5101_129944)"/>
<path id="Vector_28" d="M57.2463 90.4961L51.6831 100.171H41.7734L47.3411 90.4961H57.2463Z" fill="url(#paint20_linear_5101_129944)"/>
<path id="Vector_29" d="M77.551 90.4961L71.9833 100.171H62.0781L67.6458 90.4961H77.551Z" fill="url(#paint21_linear_5101_129944)"/>
<path id="Vector_30" d="M97.8524 90.4961L92.2847 100.171H82.375L87.9427 90.4961H97.8524Z" fill="url(#paint22_linear_5101_129944)"/>
</g>
<g id="Group 48098819">
<path id="Vector_31" d="M52.0441 111.306H30.1094L30.3858 110.341L30.8329 108.8L32.7505 102.153L34.474 96.1707L35.6034 92.2296L37.3268 86.2474L38.268 82.9651C38.4788 82.389 38.8616 81.8915 39.3645 81.54C39.8674 81.1885 40.4661 81 41.0797 81C41.6932 81 42.292 81.1885 42.7949 81.54C43.2978 81.8915 43.6805 82.389 43.8914 82.9651L44.2561 84.2357L44.8443 86.2415L46.5619 92.2237L47.6913 96.1648L49.403 102.153L50.1206 104.659L52.0441 111.306Z" fill="url(#paint23_linear_5101_129944)"/>
<path id="Vector_32" d="M53.3282 115.749C53.0228 116.504 52.2891 116.999 51.4739 116.999H26.964C25.5464 116.999 24.5788 115.565 25.1094 114.251L28.0889 106.869C28.3941 106.112 29.128 105.617 29.9435 105.617H54.4573C55.8752 105.617 56.8429 107.052 56.3116 108.367L53.3282 115.749Z" fill="url(#paint24_linear_5101_129944)"/>
<path id="Vector_33" d="M46.5483 92.2009H35.6016L37.3251 86.2188H44.8307L46.5483 92.2009Z" fill="#EBEBEB"/>
<path id="Vector_34" d="M49.4025 102.123H32.75L34.4735 96.1406H47.6849L49.4025 102.123Z" fill="#EBEBEB"/>
<path id="Vector_35" d="M29.7969 109.801C31.5712 110.597 33.4388 111.166 35.3556 111.495C37.2567 111.825 39.1852 111.971 41.1142 111.93C42.073 111.865 43.0436 111.86 43.9965 111.712C44.4789 111.648 44.9612 111.618 45.4377 111.53C45.9141 111.442 46.3847 111.354 46.867 111.271C47.1023 111.224 47.3435 111.189 47.5788 111.136L48.2847 110.96L49.7023 110.618C50.6434 110.365 51.5669 110.03 52.5257 109.801C51.6375 110.218 50.7611 110.642 49.8317 110.977L48.4317 111.46L47.7258 111.689C47.4905 111.76 47.2494 111.812 47.0082 111.877L45.5671 112.224C45.0847 112.33 44.5906 112.383 44.0965 112.465C43.1213 112.605 42.1397 112.695 41.1554 112.736C39.1661 112.772 37.18 112.559 35.2438 112.101C33.302 111.676 31.4553 110.897 29.7969 109.801Z" fill="#27292B"/>
<g id="Vector_36" style="mix-blend-mode:multiply" opacity="0.1">
<path d="M30.5547 110.161C31.408 110.352 32.2412 110.624 33.0429 110.973C36.2898 112.444 42.572 112.938 49.4366 110.879C50.1805 110.71 50.9 110.447 51.5777 110.097L51.3012 108.802C51.3012 108.802 37.0545 104.685 37.878 84.2148L37.2898 86.2207L35.5722 92.2029L34.4428 96.144L32.7311 102.156L30.5547 110.161Z" fill="black"/>
</g>
</g>
<g id="warn">
<path id="Vector_37" d="M60.7889 71.3859H94.2206C94.7058 71.3852 95.1823 71.2577 95.603 71.0161C96.0237 70.7744 96.374 70.427 96.619 70.0082C96.864 69.5894 96.9953 69.1139 96.9999 68.6288C97.0044 68.1436 96.8821 67.6657 96.645 67.2424L79.926 37.4189C79.6839 36.9884 79.3316 36.6301 78.9052 36.3808C78.4789 36.1314 77.9939 36 77.5 36C77.0061 36 76.5211 36.1314 76.0948 36.3808C75.6684 36.6301 75.3161 36.9884 75.074 37.4189L58.355 67.2424C58.1175 67.6664 57.9952 68.1452 58.0001 68.6311C58.0051 69.1171 58.1373 69.5932 58.3834 70.0123C58.6295 70.4313 58.9811 70.7786 59.4031 71.0196C59.8251 71.2606 60.3029 71.3869 60.7889 71.3859Z" fill="#EEBE11"/>
<path id="Vector_38" d="M62.4496 69.6129H92.5596C93.712 69.6129 94.4488 68.3063 93.8757 67.2452L78.8223 38.9898C78.6999 38.7451 78.5117 38.5394 78.279 38.3957C78.0463 38.2519 77.7782 38.1758 77.5046 38.1758C77.2311 38.1758 76.9629 38.2519 76.7302 38.3957C76.4975 38.5394 76.3094 38.7451 76.1869 38.9898L61.1335 67.2452C60.5668 68.3063 61.2972 69.6129 62.4496 69.6129Z" stroke="white" stroke-width="0.788267" stroke-miterlimit="10"/>
<path id="Vector_39" d="M76.9807 60.39H77.8245C78.4732 60.39 79.0179 59.7792 79.084 58.9731L79.9152 49.8422C80.0002 48.8976 79.4083 48.0664 78.6558 48.0664H76.0141C75.2427 48.0664 74.6476 48.9134 74.7547 49.8705L75.7213 59.0015C75.8 59.7949 76.3416 60.39 76.9807 60.39Z" fill="white"/>
<path id="Vector_40" d="M79.0507 63.623C79.0507 63.9618 78.9502 64.2929 78.762 64.5746C78.5738 64.8563 78.3063 65.0758 77.9933 65.2054C77.6803 65.3351 77.3359 65.369 77.0037 65.3029C76.6714 65.2368 76.3662 65.0737 76.1267 64.8341C75.8871 64.5946 75.724 64.2894 75.6579 63.9571C75.5918 63.6249 75.6257 63.2805 75.7554 62.9675C75.885 62.6545 76.1046 62.387 76.3862 62.1988C76.6679 62.0106 76.9991 61.9102 77.3378 61.9102C77.7921 61.9102 78.2278 62.0906 78.549 62.4118C78.8702 62.7331 79.0507 63.1687 79.0507 63.623Z" fill="white"/>
</g>
</g>
<defs>
<linearGradient id="paint0_linear_5101_129944" x1="13" y1="113.787" x2="104.234" y2="113.787" gradientUnits="userSpaceOnUse">
<stop stop-color="#F6F8FA"/>
<stop offset="0.460263" stop-color="#FAFBFC" stop-opacity="0.13"/>
<stop offset="1" stop-color="white" stop-opacity="0"/>
</linearGradient>
<linearGradient id="paint1_linear_5101_129944" x1="32.749" y1="72.5547" x2="32.749" y2="109" gradientUnits="userSpaceOnUse">
<stop stop-color="#ECEEF0"/>
<stop offset="1" stop-color="#D6D9DE"/>
</linearGradient>
<linearGradient id="paint2_linear_5101_129944" x1="86.317" y1="72.5547" x2="86.317" y2="109" gradientUnits="userSpaceOnUse">
<stop stop-color="#ECEEF0"/>
<stop offset="1" stop-color="#D6D9DE"/>
</linearGradient>
<linearGradient id="paint3_linear_5101_129944" x1="36.2577" y1="48" x2="36.2577" y2="59.8591" gradientUnits="userSpaceOnUse">
<stop stop-color="#E3E7F0"/>
<stop offset="1" stop-color="#A8AAB0"/>
</linearGradient>
<linearGradient id="paint4_linear_5101_129944" x1="36.2582" y1="50.0625" x2="36.2582" y2="57.7905" gradientUnits="userSpaceOnUse">
<stop stop-color="#ECEEF0"/>
<stop offset="1" stop-color="#D6D9DE"/>
</linearGradient>
<linearGradient id="paint5_linear_5101_129944" x1="36.2387" y1="50.5898" x2="36.2387" y2="57.2648" gradientUnits="userSpaceOnUse">
<stop stop-color="#ECEEF0"/>
<stop offset="1" stop-color="#D6D9DE"/>
</linearGradient>
<linearGradient id="paint6_linear_5101_129944" x1="36.2523" y1="51.1172" x2="36.2523" y2="56.7376" gradientUnits="userSpaceOnUse">
<stop stop-color="#ECEEF0"/>
<stop offset="1" stop-color="#D6D9DE"/>
</linearGradient>
<linearGradient id="paint7_linear_5101_129944" x1="36.2351" y1="51.6641" x2="36.2351" y2="56.2145" gradientUnits="userSpaceOnUse">
<stop stop-color="#ECEEF0"/>
<stop offset="1" stop-color="#D6D9DE"/>
</linearGradient>
<linearGradient id="paint8_linear_5101_129944" x1="82.6639" y1="48" x2="82.6639" y2="59.8591" gradientUnits="userSpaceOnUse">
<stop stop-color="#E3E7F0"/>
<stop offset="1" stop-color="#A8AAB0"/>
</linearGradient>
<linearGradient id="paint9_linear_5101_129944" x1="82.6645" y1="50.0625" x2="82.6645" y2="57.7905" gradientUnits="userSpaceOnUse">
<stop stop-color="#ECEEF0"/>
<stop offset="1" stop-color="#D6D9DE"/>
</linearGradient>
<linearGradient id="paint10_linear_5101_129944" x1="82.6449" y1="50.5898" x2="82.6449" y2="57.2648" gradientUnits="userSpaceOnUse">
<stop stop-color="#ECEEF0"/>
<stop offset="1" stop-color="#D6D9DE"/>
</linearGradient>
<linearGradient id="paint11_linear_5101_129944" x1="82.6664" y1="51.1172" x2="82.6664" y2="56.7376" gradientUnits="userSpaceOnUse">
<stop stop-color="#ECEEF0"/>
<stop offset="1" stop-color="#D6D9DE"/>
</linearGradient>
<linearGradient id="paint12_linear_5101_129944" x1="82.6413" y1="51.6641" x2="82.6413" y2="56.2145" gradientUnits="userSpaceOnUse">
<stop stop-color="#ECEEF0"/>
<stop offset="1" stop-color="#D6D9DE"/>
</linearGradient>
<linearGradient id="paint13_linear_5101_129944" x1="59.5269" y1="61.0703" x2="59.5269" y2="76.3577" gradientUnits="userSpaceOnUse">
<stop stop-color="#E3E7F0"/>
<stop offset="1" stop-color="#A8AAB0"/>
</linearGradient>
<linearGradient id="paint14_linear_5101_129944" x1="27.9293" y1="61.0703" x2="27.9293" y2="76.3623" gradientUnits="userSpaceOnUse">
<stop stop-color="#ECEEF0"/>
<stop offset="1" stop-color="#D6D9DE"/>
</linearGradient>
<linearGradient id="paint15_linear_5101_129944" x1="49.0878" y1="61.0703" x2="49.0878" y2="76.3623" gradientUnits="userSpaceOnUse">
<stop stop-color="#ECEEF0"/>
<stop offset="1" stop-color="#D6D9DE"/>
</linearGradient>
<linearGradient id="paint16_linear_5101_129944" x1="70.2496" y1="61.0703" x2="70.2496" y2="76.3623" gradientUnits="userSpaceOnUse">
<stop stop-color="#ECEEF0"/>
<stop offset="1" stop-color="#D6D9DE"/>
</linearGradient>
<linearGradient id="paint17_linear_5101_129944" x1="91.4003" y1="61.0703" x2="91.4003" y2="76.3623" gradientUnits="userSpaceOnUse">
<stop stop-color="#ECEEF0"/>
<stop offset="1" stop-color="#D6D9DE"/>
</linearGradient>
<linearGradient id="paint18_linear_5101_129944" x1="59.5272" y1="90.4961" x2="59.5272" y2="100.171" gradientUnits="userSpaceOnUse">
<stop stop-color="#E3E7F0"/>
<stop offset="1" stop-color="#A8AAB0"/>
</linearGradient>
<linearGradient id="paint19_linear_5101_129944" x1="29.2107" y1="90.4961" x2="29.2107" y2="100.171" gradientUnits="userSpaceOnUse">
<stop stop-color="#ECEEF0"/>
<stop offset="1" stop-color="#D6D9DE"/>
</linearGradient>
<linearGradient id="paint20_linear_5101_129944" x1="49.5099" y1="90.4961" x2="49.5099" y2="100.171" gradientUnits="userSpaceOnUse">
<stop stop-color="#ECEEF0"/>
<stop offset="1" stop-color="#D6D9DE"/>
</linearGradient>
<linearGradient id="paint21_linear_5101_129944" x1="69.8146" y1="90.4961" x2="69.8146" y2="100.171" gradientUnits="userSpaceOnUse">
<stop stop-color="#ECEEF0"/>
<stop offset="1" stop-color="#D6D9DE"/>
</linearGradient>
<linearGradient id="paint22_linear_5101_129944" x1="90.1137" y1="90.4961" x2="90.1137" y2="100.171" gradientUnits="userSpaceOnUse">
<stop stop-color="#ECEEF0"/>
<stop offset="1" stop-color="#D6D9DE"/>
</linearGradient>
<linearGradient id="paint23_linear_5101_129944" x1="41.0767" y1="81" x2="41.0767" y2="111.306" gradientUnits="userSpaceOnUse">
<stop stop-color="#A9AEB9"/>
<stop offset="1" stop-color="#6E7078"/>
</linearGradient>
<linearGradient id="paint24_linear_5101_129944" x1="40.7113" y1="105.617" x2="40.7113" y2="116.999" gradientUnits="userSpaceOnUse">
<stop stop-color="#A9AEB9"/>
<stop offset="1" stop-color="#6E7078"/>
</linearGradient>
</defs>
</svg>
