<svg width="24" height="24" viewBox="0 0 24 24" fill="none" xmlns="http://www.w3.org/2000/svg">
<path fill-rule="evenodd" clip-rule="evenodd" d="M18 17.5C18 16.9477 18.4477 16.5 19 16.5C19.5523 16.5 20 16.9477 20 17.5L20 18.5C20 19.8807 18.8807 21 17.5 21L6.5 21C5.11929 21 4 19.8807 4 18.5L4 17.5C4 16.9477 4.44772 16.5 5 16.5C5.55229 16.5 6 16.9477 6 17.5L6 18.5C6 18.7761 6.22386 19 6.5 19L17.5 19C17.7761 19 18 18.7761 18 18.5L18 17.5ZM7.29289 8.29289C6.90237 8.68341 6.90237 9.31658 7.29289 9.7071C7.68342 10.0976 8.31658 10.0976 8.70711 9.7071L11 7.25L11 15.5C11 16.0523 11.4477 16.5 12 16.5C12.5523 16.5 13 16.0523 13 15.5L13 7.25L15.2929 9.70711C15.6834 10.0976 16.3166 10.0976 16.7071 9.70711C17.0976 9.31658 17.0976 8.68342 16.7071 8.29289L12.7071 4.29289C12.3166 3.90237 11.6834 3.90237 11.2929 4.29289L7.29289 8.29289Z" fill="currentColor"/>
</svg>
