<svg width="120" height="120" viewBox="0 0 120 120" fill="none" xmlns="http://www.w3.org/2000/svg">
<rect width="120" height="120" rx="8" fill="#00BA34" fill-opacity="0.1"/>
<path opacity="0.3" d="M17.8723 77.7831C17.8723 79.0052 16.8816 79.9958 15.6595 79.9958C14.4375 79.9958 13.4468 79.0052 13.4468 77.7831C13.4468 76.561 14.4375 75.5703 15.6595 75.5703C16.8816 75.5703 17.8723 76.561 17.8723 77.7831Z" fill="#B3E2C0"/>
<path opacity="0.3" d="M11.0638 69.9499C11.0638 70.7959 10.378 71.4818 9.53191 71.4818C8.68586 71.4818 8 70.7959 8 69.9499C8 69.1038 8.68586 68.418 9.53191 68.418C10.378 68.418 11.0638 69.1038 11.0638 69.9499Z" fill="#B3E2C0"/>
<path opacity="0.3" d="M104.851 74.6544C104.851 75.6415 104.051 76.4417 103.064 76.4417C102.077 76.4417 101.276 75.6415 101.276 74.6544C101.276 73.6674 102.077 72.8672 103.064 72.8672C104.051 72.8672 104.851 73.6674 104.851 74.6544Z" fill="#B3E2C0"/>
<path opacity="0.3" d="M112 80.1026C112 81.3716 110.971 82.4004 109.702 82.4004C108.433 82.4004 107.404 81.3716 107.404 80.1026C107.404 78.8335 108.433 77.8047 109.702 77.8047C110.971 77.8047 112 78.8335 112 80.1026Z" fill="#B3E2C0"/>
<path opacity="0.3" d="M101.957 85.2069C101.957 86.758 100.7 88.0155 99.1488 88.0155C97.5977 88.0155 96.3403 86.758 96.3403 85.2069C96.3403 83.6559 97.5977 82.3984 99.1488 82.3984C100.7 82.3984 101.957 83.6559 101.957 85.2069Z" fill="#B3E2C0"/>
<path opacity="0.8" d="M107 97C107 100.314 85.7335 103 59.5 103C33.2665 103 12 100.314 12 97C12 93.6863 33.2665 91 59.5 91C85.7335 91 107 93.6863 107 97Z" fill="url(#paint0_linear_1413_66876)"/>
<path d="M72.4012 71.9998L71.7169 71.9998L71.7169 71.6577L71.3748 71.6577L71.3748 70.9648L72.4012 70.9648L72.4012 71.9998Z" fill="#F9F9F9"/>
<path d="M75.163 68.2343L69.0132 68.2344L69.0133 74.3842L75.1631 74.3841L75.163 68.2343Z" fill="white"/>
<path d="M75.4721 74.7292L68.6295 74.7293L68.6294 67.8867L75.472 67.8866L75.4721 74.7292ZM69.365 74.0793L74.822 74.0792L74.8219 68.6137L69.365 68.6137L69.365 74.0793Z" fill="#F9F9F9"/>
<path d="M50.495 68.2343L44.3452 68.2344L44.3453 74.3842L50.4951 74.3841L50.495 68.2343Z" fill="white"/>
<path d="M50.8114 74.7292L43.9688 74.7293L43.9688 67.8867L50.8113 67.8866L50.8114 74.7292ZM44.6616 74.045L50.1272 74.045L50.1271 68.5794L44.6616 68.5795L44.6616 74.045Z" fill="#F9F9F9"/>
<path d="M90.987 92.3753C90.987 94.3481 89.3878 95.9474 87.415 95.9474L34.7719 95.9481C32.7991 95.9481 31.1998 94.3489 31.1998 92.3761L31.1992 49.7375L61.0926 30.7574L90.9864 49.7367L90.987 92.3753Z" fill="#ADD5B8"/>
<path d="M39.7524 90.3638L82.9634 90.3633L82.9634 88.6184L39.7523 88.619L39.7524 90.3638Z" fill="#91E1A8"/>
<path d="M90.9864 66.8586C88.5744 68.5693 86.1111 70.1859 83.682 71.8538C81.2529 73.5217 78.7724 75.1212 76.3006 76.7378C73.8287 78.3544 71.1687 80.0993 68.5514 81.7587L68.3205 81.9212L61.4779 86.3091L61.1358 86.5144L60.8022 86.3091C58.5213 84.8494 56.2404 83.3839 53.9596 81.9128L53.7115 81.7588C51.1227 80.0996 48.5368 78.4231 45.9537 76.7296C43.4989 75.1217 41.0355 73.488 38.5807 71.8544C36.1259 70.2207 33.6882 68.5614 31.2761 66.8594C33.8421 68.3134 36.4081 69.8444 38.9057 71.3326C41.4033 72.8209 43.9693 74.369 46.4839 75.9085C49.2894 77.6191 52.0892 79.3497 54.8833 81.1002C56.9789 82.4003 59.0658 83.7175 61.1614 85.0261C63.2398 83.7174 65.3354 82.3916 67.4223 81.1001C70.2107 79.3552 73.0076 77.6245 75.813 75.9081C78.3276 74.3771 80.8509 72.846 83.3826 71.3406C85.9144 69.8352 88.4204 68.3127 90.9864 66.8586Z" fill="white"/>
<path d="M27.6305 38.2034C27.0026 35.8604 28.3931 33.452 30.7361 32.8241L56.0143 26.0505L66.5322 23.2321C68.8753 22.6042 71.2837 23.9947 71.9115 26.3377L86.6297 81.2637C87.2575 83.6068 85.8671 86.0152 83.524 86.643L47.7279 96.235C45.3849 96.8629 42.9765 95.4724 42.3486 93.1294L27.6305 38.2034Z" fill="#D7DAE0"/>
<path d="M31.9425 40.6136C31.3146 38.2705 32.7051 35.8621 35.0482 35.2343L48.0163 31.7593L52.3792 30.5902C54.7222 29.9623 57.1306 31.3528 57.7585 33.6959L64.3474 58.2848C64.9753 60.6278 63.5848 63.0362 61.2417 63.6641L43.9107 68.3082C41.5677 68.936 39.1593 67.5456 38.5314 65.2025L31.9425 40.6136Z" fill="#D7DAE0"/>
<path d="M43.5279 25.3098C43.7347 22.8929 45.8616 21.1012 48.2785 21.308L74.3533 23.5388L88.2761 40.0669L84.3571 85.8743C84.1503 88.2912 82.0234 90.0829 79.6065 89.8761L42.6825 86.7171C40.2656 86.5103 38.4739 84.3834 38.6807 81.9665L43.5279 25.3098Z" fill="url(#paint1_radial_1413_66876)"/>
<path d="M74.353 23.5391L88.2759 40.0671L77.4266 39.1389C75.0097 38.9322 73.218 36.8053 73.4248 34.3884L74.353 23.5391Z" fill="#B3E2C0"/>
<path opacity="0.3" d="M46.7624 38.865L71.6714 40.9961L71.8419 39.0034L46.9329 36.8723L46.7624 38.865Z" fill="#009E2C"/>
<path opacity="0.3" d="M46.3361 43.8455L71.2451 45.9766L71.4156 43.9838L46.5066 41.8528L46.3361 43.8455Z" fill="#009E2C"/>
<path opacity="0.3" d="M45.9101 48.826L70.8191 50.957L70.9896 48.9643L46.0806 46.8332L45.9101 48.826Z" fill="#009E2C"/>
<path opacity="0.3" d="M45.3986 54.8069L82.2639 57.9609L82.4344 55.9682L45.5691 52.8142L45.3986 54.8069Z" fill="#009E2C"/>
<path opacity="0.3" d="M44.9723 59.7874L81.8376 62.9414L82.0081 60.9487L45.1428 57.7947L44.9723 59.7874Z" fill="#009E2C"/>
<path opacity="0.3" d="M44.5461 64.7679L81.4114 67.9219L81.5819 65.9292L44.7165 62.7752L44.5461 64.7679Z" fill="#009E2C"/>
<path opacity="0.3" d="M44.1198 69.7523L80.9851 72.9062L81.1556 70.9135L44.2903 67.7595L44.1198 69.7523Z" fill="#009E2C"/>
<path opacity="0.3" d="M42.0772 74.8007L82.4395 78.2539L82.6125 76.2318L42.2502 72.7786L42.0772 74.8007Z" fill="#009E2C"/>
<path d="M90.8375 57.4641L90.838 93.054C90.838 95.0268 89.2388 96.6261 87.266 96.6261L34.6229 96.6268C32.6501 96.6268 31.0508 95.0275 31.0508 93.0547L31.0503 57.4648C33.6163 58.9189 36.1823 60.4499 38.6798 61.9381C41.1774 63.4263 43.7434 64.9744 46.2581 66.514C49.0635 68.2246 51.8633 69.9552 54.6574 71.7057L54.743 71.6544L54.6745 71.7142C56.7701 73.0143 58.8571 74.3315 60.9527 75.6401C63.0311 74.3314 65.1266 73.0056 67.2136 71.7141L67.1452 71.6542L67.2393 71.6542C70.0276 69.9093 72.8245 68.1787 75.6299 66.4623C78.1446 64.9312 80.6677 63.4002 83.1995 61.8947C85.7312 60.3893 88.2716 58.9182 90.8375 57.4641Z" fill="#91E1A8"/>
<defs>
<linearGradient id="paint0_linear_1413_66876" x1="12" y1="97" x2="107" y2="97" gradientUnits="userSpaceOnUse">
<stop stop-color="#91E1A8" stop-opacity="0.15"/>
<stop offset="0.460263" stop-color="#428455" stop-opacity="0.07"/>
<stop offset="1" stop-color="#91E1A8" stop-opacity="0.15"/>
</linearGradient>
<radialGradient id="paint1_radial_1413_66876" cx="0" cy="0" r="1" gradientUnits="userSpaceOnUse" gradientTransform="translate(66.7405 22.8875) rotate(94.89) scale(62.0794 45.8433)">
<stop stop-color="white"/>
<stop offset="1" stop-color="white"/>
</radialGradient>
</defs>
</svg>
