<svg xmlns="http://www.w3.org/2000/svg" width="32" height="32" viewBox="0 0 32 32" fill="none">
    <g clip-path="url(#clip0_7543_6718)">
        <g clip-path="url(#clip1_7543_6718)">
            <rect width="32" height="32" rx="16" fill="#65A035"/>
            <rect x="10.666" y="10.667" width="10.6667" height="10.6667" fill="#70AE5D"/>
            <rect x="21.334" y="21.333" width="10.6667" height="10.6667" fill="#9DD18D"/>
            <rect x="10.666" y="21.333" width="10.6667" height="10.6667" fill="#77C44C"/>
            <rect y="10.667" width="10.6667" height="10.6667" fill="#8BBE7C"/>
            <rect x="21.334" width="10.6667" height="10.6667" fill="#9DD18D"/>
            <path fill-rule="evenodd" clip-rule="evenodd" d="M14 15C15.6569 15 17 13.8807 17 12.5C17 11.1193 15.6569 10 14 10C12.3431 10 11 11.1193 11 12.5C11 13.8807 12.3431 15 14 15ZM13.5 18.5L11 19.5L9 21.5L11 22H16L18.5 21.5L16.5 19L13.5 18.5Z" fill="white"/>
            <path fill-rule="evenodd" clip-rule="evenodd" d="M9.76101 18.8574C10.7863 17.9192 12.2328 17.25 13.9173 17.25C15.6018 17.25 17.0483 17.9192 18.0736 18.8574C19.0819 19.78 19.7507 21.0304 19.7507 22.25C19.7507 22.7102 19.3776 23.0833 18.9173 23.0833H8.91732C8.45708 23.0833 8.08398 22.7102 8.08398 22.25C8.08398 21.0304 8.75279 19.78 9.76101 18.8574ZM9.93062 21.4167H17.904C17.7234 20.9732 17.4061 20.5058 16.9485 20.087C16.203 19.4048 15.1495 18.9167 13.9173 18.9167C12.6851 18.9167 11.6317 19.4048 10.8861 20.087C10.4285 20.5058 10.1112 20.9732 9.93062 21.4167Z" fill="white"/>
            <path fill-rule="evenodd" clip-rule="evenodd" d="M20.3016 18.4922C20.5531 18.1068 21.0695 17.9983 21.4549 18.2498C22.9144 19.2024 23.9161 20.7548 23.9161 22.2502C23.9161 22.7104 23.543 23.0835 23.0828 23.0835H21.4161C20.9559 23.0835 20.5828 22.7104 20.5828 22.2502C20.5828 21.79 20.9559 21.4169 21.4161 21.4169H22.069C21.8174 20.7993 21.3047 20.142 20.544 19.6455C20.1586 19.394 20.05 18.8777 20.3016 18.4922Z" fill="white"/>
            <path fill-rule="evenodd" clip-rule="evenodd" d="M13.916 14.7503C15.0666 14.7503 15.9993 13.8176 15.9993 12.667C15.9993 11.5164 15.0666 10.5837 13.916 10.5837C12.7654 10.5837 11.8327 11.5164 11.8327 12.667C11.8327 13.8176 12.7654 14.7503 13.916 14.7503ZM13.916 16.417C15.9871 16.417 17.666 14.7381 17.666 12.667C17.666 10.5959 15.9871 8.91699 13.916 8.91699C11.8449 8.91699 10.166 10.5959 10.166 12.667C10.166 14.7381 11.8449 16.417 13.916 16.417Z" fill="white"/>
            <path fill-rule="evenodd" clip-rule="evenodd" d="M18.9966 10.5062C19.1941 10.0905 19.6912 9.9136 20.1069 10.1111C21.3719 10.712 22.2493 12.0026 22.2493 13.4998C22.2493 15.5709 20.5704 17.2498 18.4993 17.2498C18.0391 17.2498 17.666 16.8767 17.666 16.4165C17.666 15.9562 18.0391 15.5831 18.4993 15.5831C19.6499 15.5831 20.5827 14.6504 20.5827 13.4998C20.5827 12.67 20.0976 11.9518 19.3918 11.6165C18.9761 11.419 18.7991 10.9219 18.9966 10.5062Z" fill="white"/>
        </g>
        <rect x="1" y="1" width="30" height="30" rx="15" stroke="white" stroke-width="2"/>
    </g>
    <rect x="0.5" y="0.5" width="31" height="31" rx="15.5" stroke="#E6E8EA"/>
    <defs>
        <clipPath id="clip0_7543_6718">
            <rect width="32" height="32" rx="16" fill="white"/>
        </clipPath>
        <clipPath id="clip1_7543_6718">
            <rect width="32" height="32" rx="16" fill="white"/>
        </clipPath>
    </defs>
</svg>
