<svg width="16" height="16" viewBox="0 0 16 16" fill="none" xmlns="http://www.w3.org/2000/svg">
  <path d="M-0.000137329 2.13333C-0.000137329 0.955124 0.954988 0 2.1332 0H4.89709V4.89723H-0.000137329V2.13333Z"
    fill="#00BA34" />
  <path d="M1.30781 13.8667C1.30781 15.0449 2.26293 16 3.44114 16H6.20504V11.1028H1.30781V13.8667Z" fill="#5ED47F" />
  <path d="M1.30781 11.1035H6.20504V6.20629H1.30781V11.1035Z" fill="#2EC659" />
  <path d="M6.20592 11.1035H11.1031V6.20629H6.20592V11.1035Z" fill="#5ED47F" />
  <path d="M11.1027 11.1035H16V6.20629H11.1027V11.1035Z" fill="#009E2C" />
  <path d="M6.20592 6.20508H11.1031V1.30785H6.20592V6.20508Z" fill="#009E2C" />
  <path d="M11.1027 6.20508H16V5.57451C16 3.2181 14.0897 1.30785 11.7333 1.30785H11.1027V6.20508Z" fill="#008425" />
  <path d="M11.1027 11.1035H16V11.7341C16 14.0905 14.0897 16.0007 11.7333 16.0007H11.1027V11.1035Z" fill="#00BA34" />
  <path d="M6.20592 16H11.1031V11.1028H6.20592V16Z" fill="#2EC659" />
</svg>