<svg width="120" height="120" viewBox="0 0 120 120" fill="none" xmlns="http://www.w3.org/2000/svg">
<path d="M104.234 113.787C104.234 116.983 83.8106 119.574 58.617 119.574C33.4234 119.574 13 116.983 13 113.787C13 110.591 33.4234 108 58.617 108C83.8106 108 104.234 110.591 104.234 113.787Z" fill="url(#paint0_linear_6432_211171)"/>
<path d="M13 53.5C13 55.433 11.433 57 9.5 57C7.567 57 6 55.433 6 53.5C6 51.567 7.567 50 9.5 50C11.433 50 13 51.567 13 53.5Z" fill="#EBEEF0"/>
<path d="M21.0638 93.5319C21.0638 94.378 20.378 95.0638 19.5319 95.0638C18.6859 95.0638 18 94.378 18 93.5319C18 92.6859 18.6859 92 19.5319 92C20.378 92 21.0638 92.6859 21.0638 93.5319Z" fill="#F3F3F5"/>
<path d="M98.51 93.234C98.51 94.2211 97.7098 95.0212 96.7228 95.0212C95.7357 95.0212 94.9355 94.2211 94.9355 93.234C94.9355 92.2469 95.7357 91.4468 96.7228 91.4468C97.7098 91.4468 98.51 92.2469 98.51 93.234Z" fill="#F6F7F7"/>
<path d="M105.66 98.6809C105.66 99.95 104.631 100.979 103.362 100.979C102.093 100.979 101.064 99.95 101.064 98.6809C101.064 97.4118 102.093 96.3831 103.362 96.3831C104.631 96.3831 105.66 97.4118 105.66 98.6809Z" fill="#F3F3F5"/>
<path d="M97 104C97 106.209 95.2091 108 93 108C90.7909 108 89 106.209 89 104C89 101.791 90.7909 100 93 100C95.2091 100 97 101.791 97 104Z" fill="#E4E5E6"/>
<path d="M108.002 64.1921H83.2441V76.7556H108.002V64.1921Z" fill="url(#paint1_linear_6432_211171)"/>
<path d="M105.162 71.1159C105.517 69.6054 104.58 68.093 103.07 67.7379C101.559 67.3828 100.047 68.3194 99.6918 69.8299C99.3367 71.3404 100.273 72.8528 101.784 73.2079C103.294 73.5631 104.807 72.6264 105.162 71.1159Z" fill="#EBEBEB"/>
<path d="M102.432 72.0116C103.281 72.0116 103.97 71.3232 103.97 70.474C103.97 69.6248 103.281 68.9364 102.432 68.9364C101.583 68.9364 100.895 69.6248 100.895 70.474C100.895 71.3232 101.583 72.0116 102.432 72.0116Z" fill="url(#paint2_linear_6432_211171)"/>
<path d="M93.0329 42H18.0957V97.9513H93.0329V42Z" fill="url(#paint3_linear_6432_211171)"/>
<path d="M93.0329 42H18.0957V97.9513H93.0329V42Z" fill="url(#paint4_linear_6432_211171)"/>
<path d="M86.2542 107.652L18.0957 97.9641V42.0222L20.2834 43.6411C21.3331 44.422 22.5732 44.9066 23.8743 45.0443L86.2542 51.7105V107.652Z" fill="url(#paint5_linear_6432_211171)"/>
<path d="M18.1925 44.4082L18 44.6543L18.4923 45.0394L18.6849 44.7932L18.1925 44.4082Z" fill="white"/>
<path d="M81.8331 54.2105L80.583 54.0698L80.6174 53.7573L81.8675 53.8979L81.8331 54.2105ZM79.6267 53.9636L78.3766 53.8229L78.4109 53.5104L79.661 53.651L79.6267 53.9636ZM77.4202 53.7167L76.1701 53.576L76.2045 53.2635L77.4546 53.4073L77.4202 53.7167ZM75.2138 53.4698L73.9637 53.3291L73.9981 53.0166L75.2482 53.1572L75.2138 53.4698ZM73.0074 53.2229L71.7573 53.0822L71.7917 52.7697L73.0418 52.9104L73.0074 53.2229ZM70.8197 52.976L69.5696 52.8353L69.604 52.5228L70.8541 52.6635L70.8197 52.976ZM68.6133 52.7322L67.3632 52.5885L67.3976 52.2759L68.6477 52.4166L68.6133 52.7322ZM66.4069 52.4853L65.1568 52.3447L65.1911 52.0322L66.4412 52.1728L66.4069 52.4853ZM64.2004 52.2384L62.9503 52.0978L62.9847 51.7853L64.2348 51.9259L64.2004 52.2384ZM61.9971 51.9915L60.747 51.8509L60.7814 51.5384L62.0315 51.679L61.9971 51.9915ZM59.7907 51.7446L58.5406 51.604L58.5781 51.2915L59.8282 51.4321L59.7907 51.7446ZM57.5843 51.4977L56.3342 51.3571L56.3686 51.0446L57.6187 51.1852L57.5843 51.4977ZM55.3779 51.2508L54.1278 51.1102L54.1621 50.7977L55.4122 50.9383L55.3779 51.2508ZM53.1714 51.0071L51.9213 50.8633L51.9557 50.5508L53.2058 50.6914L53.1714 51.0071ZM50.9556 50.7727L49.7055 50.632L49.7399 50.3195L50.99 50.4602L50.9556 50.7727ZM48.7492 50.5258L47.4991 50.3852L47.5335 50.0726L48.7836 50.2133L48.7492 50.5258ZM46.5428 50.2789L45.2927 50.1383L45.3271 49.8257L46.5772 49.9695L46.5428 50.2789ZM44.3364 50.032L43.0863 49.8914L43.1206 49.5788L44.3707 49.7195L44.3364 50.032ZM42.1424 49.7726L40.8923 49.632L40.9267 49.3194L42.1768 49.4601L42.1424 49.7726ZM39.9391 49.5257L38.689 49.3851L38.7265 49.0725L39.9766 49.2132L39.9391 49.5257ZM37.7327 49.2819L36.4826 49.1382L36.517 48.8257L37.7671 48.9663L37.7327 49.2819ZM35.5263 49.035L34.2762 48.8944L34.3106 48.5819L35.5607 48.7225L35.5263 49.035ZM33.3199 48.7881L32.0698 48.6475L32.1041 48.335L33.3542 48.4756L33.3199 48.7881ZM31.1322 48.5413L29.8821 48.4006L29.9165 48.0881L31.1666 48.2319L31.1322 48.5413ZM28.9258 48.2944L27.6757 48.1537L27.71 47.8412L28.9601 47.9818L28.9258 48.2944ZM26.7193 48.0475L25.4692 47.9068L25.5036 47.5943L26.7537 47.7349L26.7193 48.0475ZM24.5129 47.8006L23.7629 47.7193C23.5878 47.6974 23.416 47.6724 23.2441 47.6412L23.3003 47.3287C23.466 47.3568 23.6316 47.3818 23.7972 47.4005L24.5473 47.4849L24.5129 47.8006ZM22.3034 47.4068C21.8923 47.2733 21.493 47.1061 21.1095 46.9068L21.2564 46.6286C21.6232 46.8206 22.0059 46.9806 22.4003 47.1068L22.3034 47.4068ZM20.2657 46.3973C20.1626 46.3223 20.0594 46.2473 19.9532 46.1692L19.25 45.6191L19.4406 45.3723L20.1438 45.9223C20.2407 45.9973 20.3407 46.0692 20.4407 46.1411L20.2657 46.3973Z" fill="white"/>
<path d="M83.5782 54.8542H83.2657V54.3698L82.7812 54.3135L82.8156 54.0041L83.5782 54.0885V54.8542Z" fill="white"/>
<path d="M83.5781 103.555H83.2656V102.289H83.5781V103.555ZM83.5781 101.339H83.2656V100.073H83.5781V101.339ZM83.5781 99.1262H83.2656V97.8605H83.5781V99.1262ZM83.5781 96.9135H83.2656V95.6478H83.5781V96.9135ZM83.5781 94.6977H83.2656V93.4476H83.5781V94.6977ZM83.5781 92.4851H83.2656V91.2193H83.5781V92.4851ZM83.5781 90.2724H83.2656V89.0067H83.5781V90.2724ZM83.5781 88.0566H83.2656V86.8065H83.5781V88.0566ZM83.5781 85.8439H83.2656V84.5782H83.5781V85.8439ZM83.5781 83.6312H83.2656V82.3655H83.5781V83.6312ZM83.5781 81.4186H83.2656V80.1497H83.5781V81.4186ZM83.5781 79.2028H83.2656V77.9527H83.5781V79.2028ZM83.5781 76.9901H83.2656V75.7244H83.5781V76.9901ZM83.5781 74.7774H83.2656V73.5117H83.5781V74.7774ZM83.5781 72.5616H83.2656V71.3115H83.5781V72.5616ZM83.5781 70.3489H83.2656V69.0832H83.5781V70.3489ZM83.5781 68.1363H83.2656V66.8705H83.5781V68.1363ZM83.5781 65.9205H83.2656V64.6704H83.5781V65.9205ZM83.5781 63.7078H83.2656V62.442H83.5781V63.7078ZM83.5781 61.4951H83.2656V60.2294H83.5781V61.4951ZM83.5781 59.2824H83.2656V58.0167H83.5781V59.2824ZM83.5781 57.0666H83.2656V55.8165H83.5781V57.0666Z" fill="white"/>
<path d="M83.5774 105.308L82.7773 105.189L82.8242 104.88L83.2649 104.946V104.502H83.5774V105.308Z" fill="white"/>
<path d="M81.8331 105.052L80.583 104.868L80.6267 104.555L81.8768 104.739L81.8331 105.052ZM79.6454 104.739L78.3953 104.555L78.4422 104.243L79.6923 104.427L79.6454 104.739ZM77.4577 104.427L76.2076 104.243L76.2545 103.93L77.5046 104.114L77.4577 104.427ZM75.2701 104.114L74.02 103.93L74.0668 103.617L75.3169 103.802L75.2701 104.114ZM73.0824 103.802L71.8323 103.617L71.8761 103.305L73.1262 103.489L73.0824 103.802ZM70.8947 103.489L69.6446 103.305L69.6884 102.992L70.9385 103.177L70.8947 103.489ZM68.707 103.177L67.4569 102.992L67.5038 102.68L68.7539 102.864L68.707 103.177ZM66.5194 102.864L65.2693 102.68L65.3162 102.367L66.5662 102.552L66.5194 102.864ZM64.3317 102.552L63.0816 102.367L63.1285 102.055L64.3786 102.239L64.3317 102.552ZM62.144 102.239L60.8939 102.055L60.9408 101.742L62.1909 101.93L62.144 102.239ZM59.9564 101.927L58.7063 101.742L58.75 101.43L60.0001 101.614L59.9564 101.927ZM57.7687 101.614L56.5186 101.43L56.5655 101.117L57.8156 101.302L57.7687 101.614ZM55.581 101.302L54.3309 101.117L54.3778 100.805L55.6279 100.989L55.581 101.302ZM53.3933 100.989L52.1432 100.805L52.1901 100.492L53.4402 100.68L53.3933 100.989ZM51.2057 100.677L49.9556 100.492L50.0024 100.18L51.2525 100.364L51.2057 100.677ZM49.018 100.364L47.7679 100.18L47.8116 99.8672L49.0617 100.055L49.018 100.364ZM46.8303 100.052L45.5802 99.8672L45.624 99.5546L46.8741 99.739L46.8303 100.052ZM44.6426 99.739L43.3925 99.5546L43.4394 99.2421L44.6895 99.4265L44.6426 99.739ZM42.455 99.4265L41.2049 99.2421L41.2517 98.9296L42.5018 99.114L42.455 99.4265ZM40.2673 99.114L39.0172 98.9296L39.0641 98.6171L40.3142 98.8046L40.2673 99.114ZM38.0796 98.8014L36.8295 98.6171L36.8733 98.3045L38.1234 98.4889L38.0796 98.8014ZM35.8919 98.4889L34.6418 98.3045L34.6887 97.992L35.9388 98.1795L35.8919 98.4889ZM33.7043 98.1764L32.4542 97.992L32.501 97.6795L33.7511 97.8639L33.7043 98.1764ZM31.5166 97.8639L30.2665 97.6795L30.3134 97.367L31.5635 97.5545L31.5166 97.8639ZM29.3289 97.5513L28.0788 97.367L28.1257 97.0544L29.3758 97.2388L29.3289 97.5513ZM27.1412 97.2388L25.8911 97.0544L25.9349 96.7419L27.185 96.9294L27.1412 97.2388ZM24.9536 96.9263L23.7035 96.7419L23.7503 96.4294L25.0004 96.6138L24.9536 96.9263ZM22.7659 96.6138L21.5158 96.4294L21.5627 96.1169L22.8128 96.3044L22.7659 96.6138ZM20.5782 96.3012L19.3281 96.1169L19.375 95.8043L20.6251 95.9887L20.5782 96.3012Z" fill="white"/>
<path d="M18.1201 95.2639L18.0742 95.573L18.6925 95.6649L18.7384 95.3558L18.1201 95.2639Z" fill="white"/>
<path d="M77.4658 82.4406C78.9658 82.4406 80.1817 81.0554 80.1817 79.3466C80.1817 77.6379 78.9658 76.2527 77.4658 76.2527C75.9659 76.2527 74.75 77.6379 74.75 79.3466C74.75 81.0554 75.9659 82.4406 77.4658 82.4406Z" fill="#EBEBEB"/>
<path d="M78.7332 79.3473C78.7019 79.5905 78.6012 79.8195 78.4431 80.0069C78.285 80.1944 78.0762 80.3322 77.8417 80.404C77.6072 80.4758 77.357 80.4784 77.1211 80.4116C76.8851 80.3448 76.6735 80.2114 76.5114 80.0274C76.3494 79.8433 76.2439 79.6165 76.2075 79.374C76.1711 79.1315 76.2054 78.8836 76.3063 78.6601C76.4072 78.4366 76.5704 78.247 76.7763 78.1139C76.9823 77.9807 77.2222 77.9098 77.4674 77.9097C77.8254 77.9338 78.1594 78.0984 78.3965 78.3677C78.6336 78.637 78.7546 78.9891 78.7332 79.3473Z" fill="url(#paint6_linear_6432_211171)"/>
<path d="M88.1796 60.8106C88.7663 59.7944 90.233 59.7944 90.8197 60.8106L98.7401 74.529C99.3267 75.5452 98.5934 76.8154 97.42 76.8154H81.5793C80.4059 76.8154 79.6725 75.5452 80.2592 74.529L88.1796 60.8106Z" fill="#EE6354"/>
<path fill-rule="evenodd" clip-rule="evenodd" d="M93.4602 59.2864L101.381 73.0049C103.141 76.0534 100.941 79.8641 97.4204 79.8641H81.5796C78.0595 79.8641 75.8594 76.0534 77.6195 73.0049L85.5398 59.2864C87.2999 56.2379 91.7001 56.2379 93.4602 59.2864ZM90.8201 60.8107C90.2334 59.7945 88.7666 59.7945 88.1799 60.8107L80.2596 74.5291C79.6729 75.5453 80.4063 76.8156 81.5796 76.8156H97.4204C98.5937 76.8156 99.3271 75.5453 98.7404 74.5291L90.8201 60.8107Z" fill="white"/>
<path fill-rule="evenodd" clip-rule="evenodd" d="M89.554 71.7103C88.929 71.7103 88.4224 71.2037 88.4224 70.5787L88.4224 64.9209C88.4224 64.296 88.929 63.7894 89.554 63.7894C90.1789 63.7894 90.6855 64.296 90.6855 64.9209L90.6855 70.5787C90.6855 71.2037 90.1789 71.7103 89.554 71.7103Z" fill="white"/>
<path fill-rule="evenodd" clip-rule="evenodd" d="M89.554 75.105C88.929 75.105 88.4224 74.5984 88.4224 73.9734C88.4224 73.3485 88.929 72.8419 89.554 72.8419C90.1789 72.8419 90.6855 73.3485 90.6855 73.9734C90.6855 74.5984 90.1789 75.105 89.554 75.105Z" fill="white"/>
<defs>
<linearGradient id="paint0_linear_6432_211171" x1="13" y1="113.787" x2="104.234" y2="113.787" gradientUnits="userSpaceOnUse">
<stop stop-color="#F6F8FA"/>
<stop offset="0.460263" stop-color="#FAFBFC" stop-opacity="0.22"/>
<stop offset="1" stop-color="white" stop-opacity="0.04"/>
</linearGradient>
<linearGradient id="paint1_linear_6432_211171" x1="95.6232" y1="64.1921" x2="95.6232" y2="76.7556" gradientUnits="userSpaceOnUse">
<stop stop-color="#F2F2F4"/>
<stop offset="1" stop-color="#BEC0C7"/>
</linearGradient>
<linearGradient id="paint2_linear_6432_211171" x1="102.432" y1="68.9364" x2="102.432" y2="72.0116" gradientUnits="userSpaceOnUse">
<stop stop-color="white"/>
<stop offset="1" stop-color="#C2C2C2"/>
</linearGradient>
<linearGradient id="paint3_linear_6432_211171" x1="55.5643" y1="42" x2="55.5643" y2="97.9513" gradientUnits="userSpaceOnUse">
<stop stop-color="#F2F2F4"/>
<stop offset="1" stop-color="#BEC0C7"/>
</linearGradient>
<linearGradient id="paint4_linear_6432_211171" x1="55.5643" y1="42" x2="55.5643" y2="97.9513" gradientUnits="userSpaceOnUse">
<stop stop-color="#DFDFDF"/>
<stop offset="1" stop-color="#A7A7A7"/>
</linearGradient>
<linearGradient id="paint5_linear_6432_211171" x1="52.175" y1="42.0222" x2="52.175" y2="107.652" gradientUnits="userSpaceOnUse">
<stop stop-color="#F2F2F4"/>
<stop offset="1" stop-color="#BEC0C7"/>
</linearGradient>
<linearGradient id="paint6_linear_6432_211171" x1="77.4645" y1="77.9097" x2="77.4645" y2="80.4599" gradientUnits="userSpaceOnUse">
<stop stop-color="white"/>
<stop offset="1" stop-color="#C2C2C2"/>
</linearGradient>
</defs>
</svg>
