<svg width="121" height="120" viewBox="0 0 121 120" fill="none" xmlns="http://www.w3.org/2000/svg">
<g id="Account">
<path id="Ellipse 1997" d="M104.734 113.787C104.734 116.983 84.3106 119.574 59.117 119.574C33.9234 119.574 13.5 116.983 13.5 113.787C13.5 110.591 33.9234 108 59.117 108C84.3106 108 104.734 110.591 104.734 113.787Z" fill="url(#paint0_linear_6446_212005)"/>
<path id="Ellipse 1998" d="M13.5 53.5C13.5 55.433 11.933 57 10 57C8.067 57 6.5 55.433 6.5 53.5C6.5 51.567 8.067 50 10 50C11.933 50 13.5 51.567 13.5 53.5Z" fill="#EBEEF0"/>
<path id="Ellipse 2002" d="M21.5638 93.5319C21.5638 94.378 20.878 95.0638 20.0319 95.0638C19.1859 95.0638 18.5 94.378 18.5 93.5319C18.5 92.6859 19.1859 92 20.0319 92C20.878 92 21.5638 92.6859 21.5638 93.5319Z" fill="#F3F3F5"/>
<path id="Ellipse 2001" d="M99.01 93.234C99.01 94.2211 98.2098 95.0212 97.2228 95.0212C96.2357 95.0212 95.4355 94.2211 95.4355 93.234C95.4355 92.2469 96.2357 91.4468 97.2228 91.4468C98.2098 91.4468 99.01 92.2469 99.01 93.234Z" fill="#F6F7F7"/>
<path id="Ellipse 2000" d="M106.16 98.6809C106.16 99.95 105.131 100.979 103.862 100.979C102.593 100.979 101.564 99.95 101.564 98.6809C101.564 97.4118 102.593 96.3831 103.862 96.3831C105.131 96.3831 106.16 97.4118 106.16 98.6809Z" fill="#F3F3F5"/>
<path id="Ellipse 1999" d="M97.5 104C97.5 106.209 95.7091 108 93.5 108C91.2909 108 89.5 106.209 89.5 104C89.5 101.791 91.2909 100 93.5 100C95.7091 100 97.5 101.791 97.5 104Z" fill="#E4E5E6"/>
<g id="Wallet">
<path id="Vector" d="M108.502 64.1921H83.7441V76.7556H108.502V64.1921Z" fill="url(#paint1_linear_6446_212005)"/>
<path id="Vector_2" d="M105.662 71.1159C106.017 69.6054 105.08 68.093 103.57 67.7379C102.059 67.3828 100.547 68.3194 100.192 69.8299C99.8367 71.3404 100.773 72.8528 102.284 73.2079C103.794 73.5631 105.307 72.6264 105.662 71.1159Z" fill="#EBEBEB"/>
<path id="Vector_3" d="M102.932 72.0116C103.781 72.0116 104.47 71.3232 104.47 70.474C104.47 69.6248 103.781 68.9364 102.932 68.9364C102.083 68.9364 101.395 69.6248 101.395 70.474C101.395 71.3232 102.083 72.0116 102.932 72.0116Z" fill="url(#paint2_linear_6446_212005)"/>
<path id="Vector_4" d="M93.5329 42H18.5957V97.9513H93.5329V42Z" fill="url(#paint3_linear_6446_212005)"/>
<path id="Vector_5" d="M93.5329 42H18.5957V97.9513H93.5329V42Z" fill="url(#paint4_linear_6446_212005)"/>
<path id="Vector_6" d="M86.7542 107.652L18.5957 97.9641V42.0222L20.7834 43.6411C21.8331 44.422 23.0732 44.9066 24.3743 45.0443L86.7542 51.7105V107.652Z" fill="url(#paint5_linear_6446_212005)"/>
<path id="Vector_7" d="M18.6925 44.4081L18.5 44.6543L18.9923 45.0394L19.1849 44.7932L18.6925 44.4081Z" fill="white"/>
<path id="Vector_8" d="M82.3331 54.2105L81.083 54.0698L81.1174 53.7573L82.3675 53.8979L82.3331 54.2105ZM80.1267 53.9636L78.8766 53.8229L78.9109 53.5104L80.161 53.651L80.1267 53.9636ZM77.9202 53.7167L76.6701 53.576L76.7045 53.2635L77.9546 53.4073L77.9202 53.7167ZM75.7138 53.4698L74.4637 53.3291L74.4981 53.0166L75.7482 53.1572L75.7138 53.4698ZM73.5074 53.2229L72.2573 53.0822L72.2917 52.7697L73.5418 52.9104L73.5074 53.2229ZM71.3197 52.976L70.0696 52.8353L70.104 52.5228L71.3541 52.6635L71.3197 52.976ZM69.1133 52.7322L67.8632 52.5885L67.8976 52.2759L69.1477 52.4166L69.1133 52.7322ZM66.9069 52.4853L65.6568 52.3447L65.6911 52.0322L66.9412 52.1728L66.9069 52.4853ZM64.7004 52.2384L63.4503 52.0978L63.4847 51.7853L64.7348 51.9259L64.7004 52.2384ZM62.4971 51.9915L61.247 51.8509L61.2814 51.5384L62.5315 51.679L62.4971 51.9915ZM60.2907 51.7446L59.0406 51.604L59.0781 51.2915L60.3282 51.4321L60.2907 51.7446ZM58.0843 51.4977L56.8342 51.3571L56.8686 51.0446L58.1187 51.1852L58.0843 51.4977ZM55.8779 51.2508L54.6278 51.1102L54.6621 50.7977L55.9122 50.9383L55.8779 51.2508ZM53.6714 51.0071L52.4213 50.8633L52.4557 50.5508L53.7058 50.6914L53.6714 51.0071ZM51.4556 50.7727L50.2055 50.632L50.2399 50.3195L51.49 50.4602L51.4556 50.7727ZM49.2492 50.5258L47.9991 50.3852L48.0335 50.0726L49.2836 50.2133L49.2492 50.5258ZM47.0428 50.2789L45.7927 50.1383L45.8271 49.8257L47.0772 49.9695L47.0428 50.2789ZM44.8364 50.032L43.5863 49.8914L43.6206 49.5788L44.8707 49.7195L44.8364 50.032ZM42.6424 49.7726L41.3923 49.632L41.4267 49.3194L42.6768 49.4601L42.6424 49.7726ZM40.4391 49.5257L39.189 49.3851L39.2265 49.0725L40.4766 49.2132L40.4391 49.5257ZM38.2327 49.2819L36.9826 49.1382L37.017 48.8257L38.2671 48.9663L38.2327 49.2819ZM36.0263 49.035L34.7762 48.8944L34.8106 48.5819L36.0607 48.7225L36.0263 49.035ZM33.8199 48.7881L32.5698 48.6475L32.6041 48.335L33.8542 48.4756L33.8199 48.7881ZM31.6322 48.5413L30.3821 48.4006L30.4165 48.0881L31.6666 48.2319L31.6322 48.5413ZM29.4258 48.2944L28.1757 48.1537L28.21 47.8412L29.4601 47.9818L29.4258 48.2944ZM27.2193 48.0475L25.9692 47.9068L26.0036 47.5943L27.2537 47.7349L27.2193 48.0475ZM25.0129 47.8006L24.2629 47.7193C24.0878 47.6974 23.916 47.6724 23.7441 47.6412L23.8003 47.3287C23.966 47.3568 24.1316 47.3818 24.2972 47.4005L25.0473 47.4849L25.0129 47.8006ZM22.8034 47.4068C22.3923 47.2733 21.993 47.1061 21.6095 46.9068L21.7564 46.6286C22.1232 46.8206 22.5059 46.9806 22.9003 47.1068L22.8034 47.4068ZM20.7657 46.3973C20.6626 46.3223 20.5594 46.2473 20.4532 46.1692L19.75 45.6191L19.9406 45.3723L20.6438 45.9223C20.7407 45.9973 20.8407 46.0692 20.9407 46.1411L20.7657 46.3973Z" fill="white"/>
<path id="Vector_9" d="M84.0782 54.8542H83.7657V54.3698L83.2812 54.3135L83.3156 54.0041L84.0782 54.0885V54.8542Z" fill="white"/>
<path id="Vector_10" d="M84.0781 103.555H83.7656V102.289H84.0781V103.555ZM84.0781 101.339H83.7656V100.073H84.0781V101.339ZM84.0781 99.1262H83.7656V97.8605H84.0781V99.1262ZM84.0781 96.9135H83.7656V95.6478H84.0781V96.9135ZM84.0781 94.6977H83.7656V93.4476H84.0781V94.6977ZM84.0781 92.4851H83.7656V91.2193H84.0781V92.4851ZM84.0781 90.2724H83.7656V89.0067H84.0781V90.2724ZM84.0781 88.0566H83.7656V86.8065H84.0781V88.0566ZM84.0781 85.8439H83.7656V84.5782H84.0781V85.8439ZM84.0781 83.6312H83.7656V82.3655H84.0781V83.6312ZM84.0781 81.4186H83.7656V80.1497H84.0781V81.4186ZM84.0781 79.2028H83.7656V77.9527H84.0781V79.2028ZM84.0781 76.9901H83.7656V75.7244H84.0781V76.9901ZM84.0781 74.7774H83.7656V73.5117H84.0781V74.7774ZM84.0781 72.5616H83.7656V71.3115H84.0781V72.5616ZM84.0781 70.3489H83.7656V69.0832H84.0781V70.3489ZM84.0781 68.1362H83.7656V66.8705H84.0781V68.1362ZM84.0781 65.9205H83.7656V64.6704H84.0781V65.9205ZM84.0781 63.7078H83.7656V62.442H84.0781V63.7078ZM84.0781 61.4951H83.7656V60.2294H84.0781V61.4951ZM84.0781 59.2824H83.7656V58.0167H84.0781V59.2824ZM84.0781 57.0666H83.7656V55.8165H84.0781V57.0666Z" fill="white"/>
<path id="Vector_11" d="M84.0774 105.308L83.2773 105.189L83.3242 104.88L83.7649 104.946V104.502H84.0774V105.308Z" fill="white"/>
<path id="Vector_12" d="M82.3331 105.052L81.083 104.868L81.1267 104.555L82.3768 104.739L82.3331 105.052ZM80.1454 104.739L78.8953 104.555L78.9422 104.243L80.1923 104.427L80.1454 104.739ZM77.9577 104.427L76.7076 104.243L76.7545 103.93L78.0046 104.114L77.9577 104.427ZM75.7701 104.114L74.52 103.93L74.5668 103.617L75.8169 103.802L75.7701 104.114ZM73.5824 103.802L72.3323 103.617L72.3761 103.305L73.6262 103.489L73.5824 103.802ZM71.3947 103.489L70.1446 103.305L70.1884 102.992L71.4385 103.177L71.3947 103.489ZM69.207 103.177L67.9569 102.992L68.0038 102.68L69.2539 102.864L69.207 103.177ZM67.0194 102.864L65.7693 102.68L65.8162 102.367L67.0662 102.552L67.0194 102.864ZM64.8317 102.552L63.5816 102.367L63.6285 102.055L64.8786 102.239L64.8317 102.552ZM62.644 102.239L61.3939 102.055L61.4408 101.742L62.6909 101.93L62.644 102.239ZM60.4564 101.927L59.2063 101.742L59.25 101.43L60.5001 101.614L60.4564 101.927ZM58.2687 101.614L57.0186 101.43L57.0655 101.117L58.3156 101.302L58.2687 101.614ZM56.081 101.302L54.8309 101.117L54.8778 100.805L56.1279 100.989L56.081 101.302ZM53.8933 100.989L52.6432 100.805L52.6901 100.492L53.9402 100.68L53.8933 100.989ZM51.7057 100.677L50.4556 100.492L50.5024 100.18L51.7525 100.364L51.7057 100.677ZM49.518 100.364L48.2679 100.18L48.3116 99.8672L49.5617 100.055L49.518 100.364ZM47.3303 100.052L46.0802 99.8672L46.124 99.5546L47.3741 99.739L47.3303 100.052ZM45.1426 99.739L43.8925 99.5546L43.9394 99.2421L45.1895 99.4265L45.1426 99.739ZM42.955 99.4265L41.7049 99.2421L41.7517 98.9296L43.0018 99.114L42.955 99.4265ZM40.7673 99.114L39.5172 98.9296L39.5641 98.6171L40.8142 98.8046L40.7673 99.114ZM38.5796 98.8014L37.3295 98.6171L37.3733 98.3045L38.6234 98.4889L38.5796 98.8014ZM36.3919 98.4889L35.1418 98.3045L35.1887 97.992L36.4388 98.1795L36.3919 98.4889ZM34.2043 98.1764L32.9542 97.992L33.001 97.6795L34.2511 97.8639L34.2043 98.1764ZM32.0166 97.8639L30.7665 97.6795L30.8134 97.367L32.0635 97.5545L32.0166 97.8639ZM29.8289 97.5513L28.5788 97.367L28.6257 97.0544L29.8758 97.2388L29.8289 97.5513ZM27.6412 97.2388L26.3911 97.0544L26.4349 96.7419L27.685 96.9294L27.6412 97.2388ZM25.4536 96.9263L24.2035 96.7419L24.2503 96.4294L25.5004 96.6138L25.4536 96.9263ZM23.2659 96.6138L22.0158 96.4294L22.0627 96.1169L23.3128 96.3044L23.2659 96.6138ZM21.0782 96.3012L19.8281 96.1169L19.875 95.8043L21.1251 95.9887L21.0782 96.3012Z" fill="white"/>
<path id="Vector_13" d="M18.6201 95.2639L18.5742 95.573L19.1925 95.6649L19.2384 95.3558L18.6201 95.2639Z" fill="white"/>
<path id="Vector_14" d="M77.9658 82.4407C79.4658 82.4407 80.6817 81.0554 80.6817 79.3467C80.6817 77.6379 79.4658 76.2527 77.9658 76.2527C76.4659 76.2527 75.25 77.6379 75.25 79.3467C75.25 81.0554 76.4659 82.4407 77.9658 82.4407Z" fill="#EBEBEB"/>
<path id="Vector_15" d="M79.2332 79.3473C79.2019 79.5905 79.1012 79.8195 78.9431 80.0069C78.785 80.1944 78.5762 80.3322 78.3417 80.404C78.1072 80.4758 77.857 80.4784 77.6211 80.4116C77.3851 80.3448 77.1735 80.2114 77.0114 80.0274C76.8494 79.8433 76.7439 79.6164 76.7075 79.374C76.6711 79.1315 76.7054 78.8836 76.8063 78.6601C76.9072 78.4366 77.0704 78.2469 77.2763 78.1138C77.4823 77.9807 77.7222 77.9098 77.9674 77.9096C78.3254 77.9338 78.6594 78.0984 78.8965 78.3677C79.1336 78.637 79.2546 78.9891 79.2332 79.3473Z" fill="url(#paint6_linear_6446_212005)"/>
</g>
</g>
<defs>
<linearGradient id="paint0_linear_6446_212005" x1="13.5" y1="113.787" x2="104.734" y2="113.787" gradientUnits="userSpaceOnUse">
<stop stop-color="#F6F8FA"/>
<stop offset="0.460263" stop-color="#FAFBFC" stop-opacity="0.22"/>
<stop offset="1" stop-color="white" stop-opacity="0.04"/>
</linearGradient>
<linearGradient id="paint1_linear_6446_212005" x1="96.1232" y1="64.1921" x2="96.1232" y2="76.7556" gradientUnits="userSpaceOnUse">
<stop stop-color="#F2F2F4"/>
<stop offset="1" stop-color="#BEC0C7"/>
</linearGradient>
<linearGradient id="paint2_linear_6446_212005" x1="102.932" y1="68.9364" x2="102.932" y2="72.0116" gradientUnits="userSpaceOnUse">
<stop stop-color="white"/>
<stop offset="1" stop-color="#C2C2C2"/>
</linearGradient>
<linearGradient id="paint3_linear_6446_212005" x1="56.0643" y1="42" x2="56.0643" y2="97.9513" gradientUnits="userSpaceOnUse">
<stop stop-color="#F2F2F4"/>
<stop offset="1" stop-color="#BEC0C7"/>
</linearGradient>
<linearGradient id="paint4_linear_6446_212005" x1="56.0643" y1="42" x2="56.0643" y2="97.9513" gradientUnits="userSpaceOnUse">
<stop stop-color="#DFDFDF"/>
<stop offset="1" stop-color="#A7A7A7"/>
</linearGradient>
<linearGradient id="paint5_linear_6446_212005" x1="52.675" y1="42.0222" x2="52.675" y2="107.652" gradientUnits="userSpaceOnUse">
<stop stop-color="#F2F2F4"/>
<stop offset="1" stop-color="#BEC0C7"/>
</linearGradient>
<linearGradient id="paint6_linear_6446_212005" x1="77.9645" y1="77.9096" x2="77.9645" y2="80.4599" gradientUnits="userSpaceOnUse">
<stop stop-color="white"/>
<stop offset="1" stop-color="#C2C2C2"/>
</linearGradient>
</defs>
</svg>
