<svg width="24" height="23" viewBox="0 0 24 23" fill="none" xmlns="http://www.w3.org/2000/svg">
<path d="M5.74591 15.6098C5.54436 15.6098 5.37686 15.5431 5.24342 15.4097C5.10996 15.2762 5.04324 15.1087 5.04324 14.9072V9.80661C5.04324 9.62499 5.11315 9.46745 5.25297 9.334C5.39278 9.20056 5.55709 9.13383 5.74591 9.13383C5.94027 9.13383 6.10417 9.20056 6.23763 9.334C6.37107 9.46745 6.43779 9.63136 6.43779 9.82572V14.9263C6.43779 15.1151 6.36789 15.2762 6.22808 15.4097C6.08825 15.5431 5.92753 15.6098 5.74591 15.6098ZM10.4877 15.6098C10.2933 15.6098 10.1294 15.5431 9.99598 15.4097C9.86253 15.2762 9.7958 15.1087 9.7958 14.9072V9.80661C9.7958 9.62499 9.86391 9.46745 10.0001 9.334C10.1363 9.20056 10.2989 9.13383 10.4877 9.13383C10.682 9.13383 10.8459 9.20056 10.9794 9.334C11.1128 9.46745 11.1796 9.63136 11.1796 9.82572V14.9263C11.1796 15.1151 11.1115 15.2762 10.9752 15.4097C10.839 15.5431 10.6765 15.6098 10.4877 15.6098ZM3.23758 18.021C3.03436 18.021 2.86062 17.9457 2.71638 17.7951C2.57215 17.6445 2.50004 17.4676 2.50004 17.2643C2.50004 17.0484 2.57216 16.8683 2.7164 16.7241C2.86064 16.5798 3.04074 16.5077 3.2567 16.5077H17.585C17.7882 16.5077 17.9637 16.583 18.1116 16.7336C18.2594 16.8842 18.3333 17.0611 18.3333 17.2643C18.3333 17.4803 18.2594 17.6604 18.1116 17.8046C17.9637 17.9489 17.7818 18.021 17.5659 18.021H3.23758ZM15.0766 15.6098C14.8823 15.6098 14.7184 15.5431 14.5849 15.4097C14.4515 15.2762 14.3847 15.1087 14.3847 14.9072V9.80661C14.3847 9.62499 14.4547 9.46745 14.5945 9.334C14.7343 9.20056 14.895 9.13383 15.0766 9.13383C15.2782 9.13383 15.4457 9.20056 15.5791 9.334C15.7126 9.46745 15.7793 9.63136 15.7793 9.82572V14.9263C15.7793 15.1151 15.7094 15.2762 15.5696 15.4097C15.4298 15.5431 15.2654 15.6098 15.0766 15.6098ZM11.1571 2.68522L17.6539 6.40289C17.8532 6.50256 18.0163 6.64348 18.1431 6.82565C18.2699 7.00783 18.3333 7.20495 18.3333 7.41703C18.3333 7.66012 18.2399 7.85739 18.053 8.00882C17.8661 8.16028 17.6511 8.236 17.408 8.236H3.4037C3.1606 8.236 2.94922 8.16028 2.76955 8.00882C2.58985 7.85739 2.5 7.66012 2.5 7.41703C2.5 7.20495 2.56659 7.01101 2.69978 6.8352C2.83294 6.6594 2.9992 6.51169 3.19855 6.39208L9.6654 2.68522C9.89409 2.56174 10.1427 2.5 10.4113 2.5C10.6798 2.5 10.9284 2.56174 11.1571 2.68522ZM5.75093 6.71187H15.0716L10.4113 4.02413L5.75093 6.71187Z" fill="#474D57"/>
<path d="M23 17C23 19.7614 20.7614 22 18 22C15.2386 22 13 19.7614 13 17C13 14.2386 15.2386 12 18 12C20.7614 12 23 14.2386 23 17Z" fill="#D9304E"/>
<path fill-rule="evenodd" clip-rule="evenodd" d="M20.1302 15.4484C20.2899 15.2886 20.2899 15.0296 20.1302 14.8698C19.9704 14.7101 19.7114 14.7101 19.5516 14.8698L18 16.3422L16.4484 14.8698C16.2886 14.7101 16.0296 14.7101 15.8698 14.8698C15.7101 15.0296 15.7101 15.2886 15.8698 15.4484L17.3422 17L15.8698 18.5516C15.7101 18.7114 15.7101 18.9704 15.8698 19.1302C16.0296 19.2899 16.2886 19.2899 16.4484 19.1302L18 17.6578L19.5516 19.1302C19.7114 19.2899 19.9704 19.2899 20.1302 19.1302C20.2899 18.9704 20.2899 18.7114 20.1302 18.5516L18.6578 17L20.1302 15.4484Z" fill="white"/>
</svg>
