<svg width="120" height="120" viewBox="0 0 120 120" fill="none" xmlns="http://www.w3.org/2000/svg">
<g id="Bucket not Empty">
<rect width="120" height="120" rx="8" fill="#00BA34" fill-opacity="0.1"/>
<path id="Ellipse 1997" opacity="0.8" d="M107 97C107 100.314 85.7335 103 59.5 103C33.2665 103 12 100.314 12 97C12 93.6863 33.2665 91 59.5 91C85.7335 91 107 93.6863 107 97Z" fill="url(#paint0_linear_6452_214181)"/>
<path id="Ellipse 1998" d="M29 83.5C29 85.433 27.433 87 25.5 87C23.567 87 22 85.433 22 83.5C22 81.567 23.567 80 25.5 80C27.433 80 29 81.567 29 83.5Z" fill="#D7F2DE"/>
<path id="Ellipse 2002" d="M21.0638 75.5319C21.0638 76.378 20.378 77.0638 19.5319 77.0638C18.6859 77.0638 18 76.378 18 75.5319C18 74.6859 18.6859 74 19.5319 74C20.378 74 21.0638 74.6859 21.0638 75.5319Z" fill="white"/>
<path id="Ellipse 2001" d="M98.512 75.2345C98.512 76.2216 97.7118 77.0217 96.7247 77.0217C95.7377 77.0217 94.9375 76.2216 94.9375 75.2345C94.9375 74.2474 95.7377 73.4473 96.7247 73.4473C97.7118 73.4473 98.512 74.2474 98.512 75.2345Z" fill="#F6F7F7"/>
<path id="Ellipse 2000" d="M105.66 80.6807C105.66 81.9498 104.631 82.9786 103.362 82.9786C102.093 82.9786 101.064 81.9498 101.064 80.6807C101.064 79.4116 102.093 78.3828 103.362 78.3828C104.631 78.3828 105.66 79.4116 105.66 80.6807Z" fill="white"/>
<path id="Ellipse 1999" d="M97 86C97 88.2091 95.2091 90 93 90C90.7909 90 89 88.2091 89 86C89 83.7909 90.7909 82 93 82C95.2091 82 97 83.7909 97 86Z" fill="#D7F2DE"/>
<g id="Wallet">
<path id="Vector" d="M104.658 54.6552H83.8457V65.2164H104.658V54.6552Z" fill="url(#paint1_linear_6452_214181)"/>
<path id="Vector_2" d="M102.27 60.4756C102.568 59.2058 101.781 57.9345 100.511 57.6359C99.2413 57.3374 97.9699 58.1248 97.6714 59.3945C97.3729 60.6643 98.1602 61.9357 99.43 62.2342C100.7 62.5327 101.971 61.7454 102.27 60.4756Z" fill="#EBEBEB"/>
<path id="Vector_3" d="M99.9762 61.2286C100.69 61.2286 101.269 60.6499 101.269 59.936C101.269 59.2221 100.69 58.6434 99.9762 58.6434C99.2623 58.6434 98.6836 59.2221 98.6836 59.936C98.6836 60.6499 99.2623 61.2286 99.9762 61.2286Z" fill="#72B685"/>
<path id="Vector_4" d="M92.0741 36H29.0801V83.034H92.0741V36Z" fill="url(#paint2_linear_6452_214181)"/>
<path id="Vector_5" d="M92.0741 36H29.0801V83.034H92.0741V36Z" fill="url(#paint3_linear_6452_214181)"/>
<path id="Vector_6" d="M86.3758 91.189L29.0801 83.0448V36.0186L30.9191 37.3795C31.8015 38.036 32.844 38.4434 33.9377 38.5591L86.3758 44.1628V91.189Z" fill="url(#paint4_linear_6452_214181)"/>
<path id="Vector_7" d="M29.1619 38.0243L29 38.2313L29.4139 38.555L29.5757 38.348L29.1619 38.0243Z" fill="white"/>
<path id="Vector_8" d="M82.6597 46.2644L81.6088 46.1462L81.6377 45.8835L82.6885 46.0017L82.6597 46.2644ZM80.8049 46.0569L79.754 45.9387L79.7829 45.6759L80.8338 45.7942L80.8049 46.0569ZM78.9501 45.8493L77.8992 45.7311L77.9281 45.4684L78.979 45.5892L78.9501 45.8493ZM77.0953 45.6418L76.0445 45.5236L76.0734 45.2608L77.1242 45.3791L77.0953 45.6418ZM75.2406 45.4342L74.1897 45.316L74.2186 45.0533L75.2695 45.1715L75.2406 45.4342ZM73.4015 45.2267L72.3507 45.1085L72.3796 44.8458L73.4304 44.964L73.4015 45.2267ZM71.5468 45.0218L70.4959 44.9009L70.5248 44.6382L71.5757 44.7564L71.5468 45.0218ZM69.692 44.8142L68.6411 44.696L68.67 44.4333L69.7209 44.5515L69.692 44.8142ZM67.8372 44.6067L66.7864 44.4885L66.8153 44.2257L67.8661 44.344L67.8372 44.6067ZM65.9851 44.3991L64.9342 44.2809L64.9631 44.0182L66.014 44.1364L65.9851 44.3991ZM64.1303 44.1916L63.0794 44.0734L63.111 43.8106L64.1618 43.9289L64.1303 44.1916ZM62.2755 43.984L61.2247 43.8658L61.2536 43.6031L62.3044 43.7213L62.2755 43.984ZM60.4207 43.7765L59.3699 43.6583L59.3988 43.3956L60.4496 43.5138L60.4207 43.7765ZM58.566 43.5716L57.5151 43.4507L57.544 43.188L58.5949 43.3062L58.566 43.5716ZM56.7033 43.3745L55.6525 43.2563L55.6814 42.9936L56.7322 43.1118L56.7033 43.3745ZM54.8485 43.167L53.7977 43.0488L53.8266 42.7861L54.8774 42.9043L54.8485 43.167ZM52.9938 42.9595L51.9429 42.8412L51.9718 42.5785L53.0227 42.6994L52.9938 42.9595ZM51.139 42.7519L50.0881 42.6337L50.117 42.371L51.1679 42.4892L51.139 42.7519ZM49.2947 42.5338L48.2439 42.4156L48.2728 42.1529L49.3236 42.2711L49.2947 42.5338ZM47.4426 42.3263L46.3917 42.2081L46.4232 41.9454L47.4741 42.0636L47.4426 42.3263ZM45.5878 42.1214L44.5369 42.0005L44.5658 41.7378L45.6167 41.856L45.5878 42.1214ZM43.733 41.9138L42.6822 41.7956L42.7111 41.5329L43.7619 41.6511L43.733 41.9138ZM41.8783 41.7063L40.8274 41.5881L40.8563 41.3254L41.9072 41.4436L41.8783 41.7063ZM40.0392 41.4987L38.9884 41.3805L39.0173 41.1178L40.0681 41.2387L40.0392 41.4987ZM38.1845 41.2912L37.1336 41.173L37.1625 40.9103L38.2134 41.0285L38.1845 41.2912ZM36.3297 41.0837L35.2788 40.9654L35.3077 40.7027L36.3586 40.8209L36.3297 41.0837ZM34.4749 40.8761L33.8444 40.8078C33.6973 40.7894 33.5528 40.7684 33.4083 40.7421L33.4556 40.4794C33.5948 40.5031 33.7341 40.5241 33.8733 40.5398L34.5038 40.6108L34.4749 40.8761ZM32.6175 40.5451C32.272 40.4329 31.9363 40.2923 31.6139 40.1247L31.7374 39.8909C32.0458 40.0524 32.3675 40.1868 32.699 40.2929L32.6175 40.5451ZM30.9046 39.6965C30.8179 39.6335 30.7312 39.5704 30.6419 39.5047L30.0508 39.0424L30.211 38.8348L30.8021 39.2972C30.8836 39.3602 30.9677 39.4207 31.0517 39.4811L30.9046 39.6965Z" fill="white"/>
<path id="Vector_9" d="M84.127 46.8055H83.8642V46.3983L83.457 46.351L83.4859 46.0909L84.127 46.1619V46.8055Z" fill="white"/>
<path id="Vector_10" d="M84.126 87.7444H83.8633V86.6804H84.126V87.7444ZM84.126 85.8817H83.8633V84.8177H84.126V85.8817ZM84.126 84.0217H83.8633V82.9577H84.126V84.0217ZM84.126 82.1617H83.8633V81.0976H84.126V82.1617ZM84.126 80.299H83.8633V79.2481H84.126V80.299ZM84.126 78.439H83.8633V77.375H84.126V78.439ZM84.126 76.5789H83.8633V75.5149H84.126V76.5789ZM84.126 74.7163H83.8633V73.6654H84.126V74.7163ZM84.126 72.8562H83.8633V71.7923H84.126V72.8562ZM84.126 70.9962H83.8633V69.9322H84.126V70.9962ZM84.126 69.1362H83.8633V68.0696H84.126V69.1362ZM84.126 67.2735H83.8633V66.2227H84.126V67.2735ZM84.126 65.4135H83.8633V64.3495H84.126V65.4135ZM84.126 63.5535H83.8633V62.4895H84.126V63.5535ZM84.126 61.6908H83.8633V60.64H84.126V61.6908ZM84.126 59.8308H83.8633V58.7668H84.126V59.8308ZM84.126 57.9708H83.8633V56.9068H84.126V57.9708ZM84.126 56.1081H83.8633V55.0572H84.126V56.1081ZM84.126 54.2481H83.8633V53.1841H84.126V54.2481ZM84.126 52.388H83.8633V51.3241H84.126V52.388ZM84.126 50.528H83.8633V49.464H84.126V50.528ZM84.126 48.6654H83.8633V47.6145H84.126V48.6654Z" fill="white"/>
<path id="Vector_11" d="M84.1257 89.2184L83.4531 89.1186L83.4925 88.8585L83.863 88.9136V88.5406H84.1257V89.2184Z" fill="white"/>
<path id="Vector_12" d="M82.6604 89.003L81.6095 88.848L81.6463 88.5853L82.6972 88.7403L82.6604 89.003ZM80.8214 88.7403L79.7705 88.5853L79.8099 88.3225L80.8608 88.4776L80.8214 88.7403ZM78.9824 88.4776L77.9315 88.3225L77.9709 88.0598L79.0218 88.2148L78.9824 88.4776ZM77.1433 88.2148L76.0925 88.0598L76.1319 87.7971L77.1828 87.9521L77.1433 88.2148ZM75.3043 87.9521L74.2535 87.7971L74.2903 87.5344L75.3411 87.6894L75.3043 87.9521ZM73.4653 87.6894L72.4145 87.5344L72.4512 87.2717L73.5021 87.4267L73.4653 87.6894ZM71.6263 87.4267L70.5754 87.2717L70.6149 87.009L71.6657 87.164L71.6263 87.4267ZM69.7873 87.164L68.7364 87.009L68.7758 86.7463L69.8267 86.9013L69.7873 87.164ZM67.9483 86.9013L66.8974 86.7463L66.9368 86.4835L67.9877 86.6385L67.9483 86.9013ZM66.1093 86.6385L65.0584 86.4835L65.0978 86.2208L66.1487 86.3785L66.1093 86.6385ZM64.2703 86.3758L63.2194 86.2208L63.2562 85.9581L64.307 86.1131L64.2703 86.3758ZM62.4313 86.1131L61.3804 85.9581L61.4198 85.6954L62.4707 85.8504L62.4313 86.1131ZM60.5922 85.8504L59.5414 85.6954L59.5808 85.4327L60.6316 85.5877L60.5922 85.8504ZM58.7532 85.5877L57.7024 85.4327L57.7418 85.17L58.7926 85.3276L58.7532 85.5877ZM56.9142 85.325L55.8634 85.17L55.9028 84.9072L56.9536 85.0622L56.9142 85.325ZM55.0752 85.0622L54.0243 84.9072L54.0611 84.6445L55.112 84.8022L55.0752 85.0622ZM53.2362 84.7995L52.1853 84.6445L52.2221 84.3818L53.273 84.5368L53.2362 84.7995ZM51.3972 84.5368L50.3463 84.3818L50.3857 84.1191L51.4366 84.2741L51.3972 84.5368ZM49.5582 84.2741L48.5073 84.1191L48.5467 83.8564L49.5976 84.0114L49.5582 84.2741ZM47.7192 84.0114L46.6683 83.8564L46.7077 83.5937L47.7586 83.7513L47.7192 84.0114ZM45.8801 83.7487L44.8293 83.5937L44.8661 83.3309L45.9169 83.4859L45.8801 83.7487ZM44.0411 83.4859L42.9903 83.3309L43.0297 83.0682L44.0805 83.2259L44.0411 83.4859ZM42.2021 83.2232L41.1513 83.0682L41.1907 82.8055L42.2415 82.9605L42.2021 83.2232ZM40.3631 82.9605L39.3122 82.8055L39.3517 82.5428L40.4025 82.7004L40.3631 82.9605ZM38.5241 82.6978L37.4732 82.5428L37.5126 82.2801L38.5635 82.4351L38.5241 82.6978ZM36.6851 82.4351L35.6342 82.2801L35.671 82.0174L36.7219 82.175L36.6851 82.4351ZM34.8461 82.1724L33.7952 82.0174L33.8346 81.7546L34.8855 81.9097L34.8461 82.1724ZM33.0071 81.9097L31.9562 81.7546L31.9956 81.4919L33.0465 81.6496L33.0071 81.9097ZM31.1681 81.6469L30.1172 81.4919L30.1566 81.2292L31.2075 81.3842L31.1681 81.6469Z" fill="white"/>
<path id="Vector_13" d="M29.1011 80.775L29.0625 81.0348L29.5822 81.112L29.6208 80.8522L29.1011 80.775Z" fill="white"/>
<path id="Vector_14" d="M78.99 69.9954C80.2509 69.9954 81.273 68.831 81.273 67.3945C81.273 65.9581 80.2509 64.7936 78.99 64.7936C77.7292 64.7936 76.707 65.9581 76.707 67.3945C76.707 68.831 77.7292 69.9954 78.99 69.9954Z" fill="#EBEBEB"/>
<path id="Vector_15" d="M80.053 67.395C80.0267 67.5995 79.942 67.792 79.8091 67.9496C79.6762 68.1071 79.5007 68.223 79.3036 68.2834C79.1065 68.3437 78.8962 68.3459 78.6978 68.2898C78.4995 68.2336 78.3216 68.1215 78.1853 67.9667C78.0491 67.812 77.9604 67.6213 77.9298 67.4175C77.8992 67.2136 77.9281 67.0053 78.0129 66.8174C78.0977 66.6295 78.2349 66.4701 78.408 66.3582C78.5811 66.2463 78.7829 66.1867 78.989 66.1866C79.2899 66.2068 79.5706 66.3452 79.77 66.5716C79.9693 66.798 80.071 67.094 80.053 67.395Z" fill="#72B685"/>
</g>
</g>
<defs>
<linearGradient id="paint0_linear_6452_214181" x1="12" y1="97" x2="107" y2="97" gradientUnits="userSpaceOnUse">
<stop stop-color="#91E1A8" stop-opacity="0.15"/>
<stop offset="0.460263" stop-color="#428455" stop-opacity="0.07"/>
<stop offset="1" stop-color="#91E1A8" stop-opacity="0.15"/>
</linearGradient>
<linearGradient id="paint1_linear_6452_214181" x1="94.2519" y1="54.6552" x2="94.2519" y2="65.2164" gradientUnits="userSpaceOnUse">
<stop stop-color="#91E1A8"/>
<stop offset="1" stop-color="#83D79B"/>
</linearGradient>
<linearGradient id="paint2_linear_6452_214181" x1="60.5771" y1="36" x2="60.5771" y2="83.034" gradientUnits="userSpaceOnUse">
<stop stop-color="#91E1A8"/>
<stop offset="1" stop-color="#83D79B"/>
</linearGradient>
<linearGradient id="paint3_linear_6452_214181" x1="60.5771" y1="36" x2="60.5771" y2="83.034" gradientUnits="userSpaceOnUse">
<stop stop-color="#83E19E"/>
<stop offset="1" stop-color="#5CD37E"/>
</linearGradient>
<linearGradient id="paint4_linear_6452_214181" x1="57.7279" y1="36.0186" x2="57.7279" y2="91.189" gradientUnits="userSpaceOnUse">
<stop stop-color="#A1EFB8"/>
<stop offset="1" stop-color="#7BEF9C"/>
</linearGradient>
</defs>
</svg>
