<svg width="24" height="25" viewBox="0 0 24 25" fill="none" xmlns="http://www.w3.org/2000/svg">
<g id="logo_bsc">
<g id="dex/dex-l">
<path d="M12 3L6.78105 5.91024L8.69979 6.98537L12 5.15024L15.3002 6.98537L17.2189 5.91024L12 3Z" fill="white"/>
<path d="M15.3002 8.50537L17.2189 9.58049V11.7307L13.9187 13.5659V17.2361L12 18.3112L10.0813 17.2361V13.5659L6.78105 11.7307V9.58049L8.69979 8.50537L12 10.3405L15.3002 8.50537Z" fill="white"/>
<path d="M17.2189 13.2507V15.401L15.3002 16.4761V14.3259L17.2189 13.2507Z" fill="white"/>
<path d="M15.2811 17.9961L18.5813 16.161V12.4907L20.5 11.4156V17.2361L15.2811 20.1463V17.9961Z" fill="white"/>
<path d="M18.5813 8.82049L16.6625 7.74537L18.5813 6.67024L20.5 7.74537V9.89561L18.5813 10.9707V8.82049Z" fill="white"/>
<path d="M10.0813 20.9249V18.7746L12 19.8498L13.9187 18.7746V20.9249L12 22L10.0813 20.9249Z" fill="white"/>
<path d="M8.69979 16.4761L6.78105 15.401V13.2507L8.69979 14.3259V16.4761Z" fill="white"/>
<path d="M12 8.82049L10.0813 7.74537L12 6.67024L13.9187 7.74537L12 8.82049Z" fill="white"/>
<path d="M7.33747 7.74537L5.41873 8.82049V10.9707L3.5 9.89561V7.74537L5.41873 6.67024L7.33747 7.74537Z" fill="white"/>
<path d="M3.5 11.4156L5.41873 12.4907V16.161L8.71895 17.9961V20.1463L3.5 17.2361V11.4156Z" fill="white"/>
</g>
</g>
</svg>
