<svg width="24" height="23" viewBox="0 0 24 23" fill="none" xmlns="http://www.w3.org/2000/svg">
<path d="M5.74591 15.6098C5.54436 15.6098 5.37686 15.5431 5.24342 15.4097C5.10996 15.2762 5.04324 15.1087 5.04324 14.9072V9.80661C5.04324 9.62499 5.11315 9.46745 5.25297 9.334C5.39278 9.20056 5.55709 9.13383 5.74591 9.13383C5.94027 9.13383 6.10417 9.20056 6.23763 9.334C6.37107 9.46745 6.43779 9.63136 6.43779 9.82572V14.9263C6.43779 15.1151 6.36789 15.2762 6.22808 15.4097C6.08825 15.5431 5.92753 15.6098 5.74591 15.6098ZM10.4877 15.6098C10.2933 15.6098 10.1294 15.5431 9.99598 15.4097C9.86253 15.2762 9.7958 15.1087 9.7958 14.9072V9.80661C9.7958 9.62499 9.86391 9.46745 10.0001 9.334C10.1363 9.20056 10.2989 9.13383 10.4877 9.13383C10.682 9.13383 10.8459 9.20056 10.9794 9.334C11.1128 9.46745 11.1796 9.63136 11.1796 9.82572V14.9263C11.1796 15.1151 11.1115 15.2762 10.9752 15.4097C10.839 15.5431 10.6765 15.6098 10.4877 15.6098ZM3.23758 18.021C3.03436 18.021 2.86062 17.9457 2.71638 17.7951C2.57215 17.6445 2.50004 17.4676 2.50004 17.2643C2.50004 17.0484 2.57216 16.8683 2.7164 16.7241C2.86064 16.5798 3.04074 16.5077 3.2567 16.5077H17.585C17.7882 16.5077 17.9637 16.583 18.1116 16.7336C18.2594 16.8842 18.3333 17.0611 18.3333 17.2643C18.3333 17.4803 18.2594 17.6604 18.1116 17.8046C17.9637 17.9489 17.7818 18.021 17.5659 18.021H3.23758ZM15.0766 15.6098C14.8823 15.6098 14.7184 15.5431 14.5849 15.4097C14.4515 15.2762 14.3847 15.1087 14.3847 14.9072V9.80661C14.3847 9.62499 14.4547 9.46745 14.5945 9.334C14.7343 9.20056 14.895 9.13383 15.0766 9.13383C15.2782 9.13383 15.4457 9.20056 15.5791 9.334C15.7126 9.46745 15.7793 9.63136 15.7793 9.82572V14.9263C15.7793 15.1151 15.7094 15.2762 15.5696 15.4097C15.4298 15.5431 15.2654 15.6098 15.0766 15.6098ZM11.1571 2.68522L17.6539 6.40289C17.8532 6.50256 18.0163 6.64348 18.1431 6.82565C18.2699 7.00783 18.3333 7.20495 18.3333 7.41703C18.3333 7.66012 18.2399 7.85739 18.053 8.00882C17.8661 8.16028 17.6511 8.236 17.408 8.236H3.4037C3.1606 8.236 2.94922 8.16028 2.76955 8.00882C2.58985 7.85739 2.5 7.66012 2.5 7.41703C2.5 7.20495 2.56659 7.01101 2.69978 6.8352C2.83294 6.6594 2.9992 6.51169 3.19855 6.39208L9.6654 2.68522C9.89409 2.56174 10.1427 2.5 10.4113 2.5C10.6798 2.5 10.9284 2.56174 11.1571 2.68522ZM5.75093 6.71187H15.0716L10.4113 4.02413L5.75093 6.71187Z" fill="#474D57"/>
<path d="M22.5 17C22.5 19.7614 20.2614 22 17.5 22C14.7386 22 12.5 19.7614 12.5 17C12.5 14.2386 14.7386 12 17.5 12C20.2614 12 22.5 14.2386 22.5 17Z" fill="#AEB4BC"/>
<path d="M18.3326 15.5168C18.3326 15.2573 18.2493 15.0483 18.0829 14.8898C17.9164 14.7313 17.6968 14.6521 17.4241 14.6521C17.2538 14.6521 17.099 14.6886 16.9597 14.7616C16.8204 14.8346 16.6997 14.9424 16.5976 15.0851C16.4795 15.2458 16.3259 15.3377 16.1368 15.3608C15.9477 15.384 15.7869 15.3327 15.6545 15.207C15.5591 15.1132 15.5079 14.9961 15.5008 14.8555C15.4938 14.715 15.5316 14.5836 15.6144 14.4612C15.821 14.1545 16.0805 13.9176 16.393 13.7506C16.7055 13.5835 17.0492 13.5 17.4241 13.5C18.0412 13.5 18.5414 13.6826 18.9249 14.0478C19.3083 14.413 19.5 14.8907 19.5 15.4808C19.5 15.7775 19.4354 16.0527 19.3062 16.3064C19.1769 16.5601 18.9503 16.852 18.6264 17.1819C18.4317 17.375 18.2954 17.5311 18.2172 17.6504C18.1391 17.7696 18.084 17.903 18.0519 18.0506C18.0095 18.2131 17.9332 18.3455 17.8231 18.4477C17.7131 18.5499 17.5855 18.6011 17.4404 18.6011C17.285 18.6011 17.1515 18.5473 17.04 18.4399C16.9284 18.3324 16.8726 18.1999 16.8726 18.0422C16.8726 17.7808 16.9289 17.5394 17.0413 17.3179C17.1537 17.0965 17.335 16.8754 17.5851 16.6545C17.8825 16.3929 18.0814 16.1846 18.1819 16.0296C18.2824 15.8746 18.3326 15.7036 18.3326 15.5168ZM17.4241 21C17.201 21 17.0106 20.9184 16.8528 20.7553C16.695 20.5921 16.6161 20.3952 16.6161 20.1644C16.6161 19.9337 16.695 19.7364 16.8528 19.5725C17.0106 19.4086 17.201 19.3266 17.4241 19.3266C17.6472 19.3266 17.838 19.4086 17.9965 19.5725C18.155 19.7364 18.2343 19.9337 18.2343 20.1644C18.2343 20.3952 18.155 20.5921 17.9965 20.7553C17.838 20.9184 17.6472 21 17.4241 21Z" fill="white"/>
</svg>
