<svg width="368" height="470" viewBox="0 0 368 470" fill="none" xmlns="http://www.w3.org/2000/svg">
<rect width="359.68" height="359.68" transform="matrix(0.866025 0.5 -0.866025 0.5 56.4919 287.758)" fill="url(#paint0_linear_10772_6547)" fill-opacity="0.5"/>
<rect width="359.68" height="359.68" transform="matrix(0.866025 0.5 -0.866025 0.5 56.4977 215.82)" fill="url(#paint1_linear_10772_6547)" fill-opacity="0.5"/>
<rect width="359.68" height="359.68" transform="matrix(0.866025 0.5 -0.866025 0.5 56.4997 143.877)" fill="url(#paint2_linear_10772_6547)" fill-opacity="0.5"/>
<rect width="359.68" height="359.68" transform="matrix(0.866025 0.5 -0.866025 0.5 56.5016 71.9375)" fill="url(#paint3_linear_10772_6547)" fill-opacity="0.5"/>
<rect width="359.68" height="359.68" transform="matrix(0.866025 0.5 -0.866025 0.5 56.5095 0)" fill="url(#paint4_linear_10772_6547)" fill-opacity="0.5"/>
<defs>
<linearGradient id="paint0_linear_10772_6547" x1="361.544" y1="357.816" x2="-0.0374705" y2="362.934" gradientUnits="userSpaceOnUse">
<stop stop-color="white"/>
<stop offset="1" stop-color="#52DC3C"/>
</linearGradient>
<linearGradient id="paint1_linear_10772_6547" x1="361.544" y1="357.816" x2="-0.0374705" y2="362.934" gradientUnits="userSpaceOnUse">
<stop stop-color="white"/>
<stop offset="1" stop-color="#52DC3C"/>
</linearGradient>
<linearGradient id="paint2_linear_10772_6547" x1="361.544" y1="357.816" x2="-0.0374705" y2="362.934" gradientUnits="userSpaceOnUse">
<stop stop-color="white"/>
<stop offset="1" stop-color="#52DC3C"/>
</linearGradient>
<linearGradient id="paint3_linear_10772_6547" x1="361.544" y1="357.816" x2="-0.0374705" y2="362.934" gradientUnits="userSpaceOnUse">
<stop stop-color="white"/>
<stop offset="1" stop-color="#52DC3C"/>
</linearGradient>
<linearGradient id="paint4_linear_10772_6547" x1="361.544" y1="357.816" x2="-0.0374705" y2="362.934" gradientUnits="userSpaceOnUse">
<stop stop-color="white"/>
<stop offset="1" stop-color="#52DC3C"/>
</linearGradient>
</defs>
</svg>
