<svg width="24" height="24" viewBox="0 0 24 24" fill="none" xmlns="http://www.w3.org/2000/svg">
<path d="M3.90002 4.28314C3.90002 3.62971 4.59921 3.10001 5.4617 3.10001H14.7667L20.2 7.21631V19.6007C20.2 20.2541 19.5008 20.7838 18.6383 20.7838H5.4617C4.59921 20.7838 3.90002 20.2541 3.90002 19.6007L3.90002 4.28314Z" fill="#666666"/>
<path d="M14.7664 3.10001L20.1997 7.21631H16.328C15.4655 7.21631 14.7664 6.68661 14.7664 6.03318V3.10001Z" fill="#ADADAD"/>
<path d="M18.8 13.5L15.7358 16.3285L14.9698 15.6213L17.2679 13.5L14.9698 11.3787L15.7358 10.6716L18.8 13.5ZM7.33205 13.5L9.63015 15.6213L8.86411 16.3285L5.79999 13.5L8.86411 10.6716L9.63015 11.3787L7.33205 13.5ZM11.1021 18H9.9492L13.4979 9H14.6508L11.1021 18Z" fill="white"/>
</svg>
