<svg width="24" height="24" viewBox="0 0 24 24" fill="none" xmlns="http://www.w3.org/2000/svg">
<path d="M20.5166 19.7273H3.48342C3.35521 19.7273 3.23225 19.6761 3.14159 19.585C3.05093 19.494 3 19.3705 3 19.2417V6.95108C3 6.82229 3.05093 6.69877 3.14159 6.6077C3.23225 6.51663 3.35521 6.46547 3.48342 6.46547H3.54277C3.63958 6.46539 3.73415 6.43622 3.81432 6.38171C3.89449 6.3272 3.95659 6.24984 3.99264 6.15959L4.32553 5.31971C4.36251 5.22254 4.43059 5.14047 4.51906 5.08641C4.61377 5.02979 4.72195 4.99994 4.83217 5H10.4525C10.5281 4.99992 10.603 5.01368 10.6736 5.04061C10.7719 5.08037 10.8539 5.1526 10.9058 5.2454L11.4779 6.22526C11.5205 6.29838 11.5814 6.35903 11.6546 6.40117C11.7278 6.44331 11.8107 6.46548 11.895 6.46547H20.5166C20.6448 6.46547 20.7678 6.51663 20.8584 6.6077C20.9491 6.69877 21 6.82229 21 6.95108V19.2417C21 19.3705 20.9491 19.494 20.8584 19.585C20.7678 19.6761 20.6448 19.7273 20.5166 19.7273Z" fill="#12A73C"/>
<path d="M20.5166 19.7273H3.48342C3.35521 19.7273 3.23225 19.6761 3.14159 19.585C3.05093 19.494 3 19.3705 3 19.2417V6.95108C3 6.82229 3.05093 6.69877 3.14159 6.6077C3.23225 6.51663 3.35521 6.46547 3.48342 6.46547H3.54277C3.63958 6.46539 3.73415 6.43622 3.81432 6.38171C3.89449 6.3272 3.95659 6.24984 3.99264 6.15959L4.32553 5.31971C4.36251 5.22254 4.43059 5.14047 4.51906 5.08641C4.61377 5.02979 4.72195 4.99994 4.83217 5H10.4525C10.5281 4.99992 10.603 5.01368 10.6736 5.04061C10.7719 5.08037 10.8539 5.1526 10.9058 5.2454L11.4779 6.22526C11.5205 6.29838 11.5814 6.35903 11.6546 6.40117C11.7278 6.44331 11.8107 6.46548 11.895 6.46547H20.5166C20.6448 6.46547 20.7678 6.51663 20.8584 6.6077C20.9491 6.69877 21 6.82229 21 6.95108V19.2417C21 19.3705 20.9491 19.494 20.8584 19.585C20.7678 19.6761 20.6448 19.7273 20.5166 19.7273Z" fill="#51D275" fill-opacity="0.2"/>
<path opacity="0.9" d="M9.17869 6.41854H5.67951C5.63809 6.41854 5.59708 6.41036 5.55883 6.39449C5.52058 6.37861 5.48584 6.35535 5.45659 6.32602C5.42735 6.2967 5.40417 6.26189 5.3884 6.22359C5.37263 6.1853 5.36457 6.14427 5.36469 6.10285C5.36469 6.01928 5.39783 5.93911 5.45684 5.87994C5.51586 5.82076 5.59593 5.7874 5.67951 5.78717H9.17869C9.26241 5.78717 9.34271 5.82043 9.40191 5.87963C9.46111 5.93883 9.49437 6.01913 9.49437 6.10285C9.49437 6.18658 9.46111 6.26687 9.40191 6.32607C9.34271 6.38528 9.26241 6.41854 9.17869 6.41854Z" fill="white"/>
</svg>
