<svg width="24" height="24" viewBox="0 0 24 24" fill="none" xmlns="http://www.w3.org/2000/svg">
<path d="M3.90002 4.28314C3.90002 3.62971 4.59921 3.10001 5.4617 3.10001H14.7667L20.2 7.21631V19.6007C20.2 20.2541 19.5008 20.7838 18.6383 20.7838H5.4617C4.59921 20.7838 3.90002 20.2541 3.90002 19.6007L3.90002 4.28314Z" fill="#8CD1C0"/>
<path d="M14.7664 3.10001L20.1997 7.21631H16.328C15.4655 7.21631 14.7664 6.68661 14.7664 6.03318V3.10001Z" fill="#C7F8EC"/>
<path d="M8.5 13.0503L9.5 12.0503L12.25 14.8003L14 13.0503L15.5 14.5503V10H8.5V13.0503ZM8 9H16C16.2761 9 16.5 9.22386 16.5 9.5V17.5C16.5 17.7761 16.2761 18 16 18H8C7.72386 18 7.5 17.7761 7.5 17.5V9.5C7.5 9.22386 7.72386 9 8 9ZM13.75 12.5C13.3358 12.5 13 12.1642 13 11.75C13 11.3358 13.3358 11 13.75 11C14.1642 11 14.5 11.3358 14.5 11.75C14.5 12.1642 14.1642 12.5 13.75 12.5Z" fill="white"/>
</svg>
