<svg width="24" height="24" viewBox="0 0 24 24" fill="none" xmlns="http://www.w3.org/2000/svg">
<path d="M3.90002 4.28314C3.90002 3.62971 4.59921 3.10001 5.4617 3.10001H14.7667L20.2 7.21631V19.6007C20.2 20.2541 19.5008 20.7838 18.6383 20.7838H5.4617C4.59921 20.7838 3.90002 20.2541 3.90002 19.6007L3.90002 4.28314Z" fill="#DFD93F"/>
<path d="M14.7664 3.10001L20.1997 7.21631H16.328C15.4655 7.21631 14.7664 6.68661 14.7664 6.03318V3.10001Z" fill="#F7F8CA"/>
<path d="M8.4 13.7368H9.75C10.2471 13.7368 10.65 14.161 10.65 14.6842V17.0526C10.65 17.5759 10.2471 18 9.75 18H8.4C7.90294 18 7.5 17.5759 7.5 17.0526V13.7368C7.5 11.1208 9.51472 9 12 9C14.4853 9 16.5 11.1208 16.5 13.7368V17.0526C16.5 17.5759 16.0971 18 15.6 18H14.25C13.7529 18 13.35 17.5759 13.35 17.0526V14.6842C13.35 14.161 13.7529 13.7368 14.25 13.7368H15.6C15.6 11.644 13.9882 9.94737 12 9.94737C10.0118 9.94737 8.4 11.644 8.4 13.7368Z" fill="white"/>
</svg>
