<svg width="24" height="24" viewBox="0 0 24 24" fill="none" xmlns="http://www.w3.org/2000/svg">
<path d="M3.90002 4.28314C3.90002 3.62971 4.59921 3.10001 5.4617 3.10001H14.7667L20.2 7.21631V19.6007C20.2 20.2541 19.5008 20.7838 18.6383 20.7838H5.4617C4.59921 20.7838 3.90002 20.2541 3.90002 19.6007L3.90002 4.28314Z" fill="#E06545"/>
<path d="M14.7664 3.10001L20.1997 7.21631H16.328C15.4655 7.21631 14.7664 6.68661 14.7664 6.03318V3.10001Z" fill="#F9A18A"/>
<path d="M7.68273 13.9401H6.35502V13.1835H7.68273C7.89988 13.1835 8.07573 13.1484 8.21027 13.0784C8.34717 13.006 8.44749 12.9079 8.51122 12.7841C8.57495 12.658 8.60681 12.5144 8.60681 12.3533C8.60681 12.1969 8.57495 12.0509 8.51122 11.9155C8.44749 11.78 8.34717 11.6703 8.21027 11.5862C8.07573 11.5021 7.89988 11.4601 7.68273 11.4601H6.67367V15.8H5.70001V10.7H7.68273C8.08399 10.7 8.42625 10.7712 8.70949 10.9137C8.9951 11.0538 9.21225 11.2488 9.36095 11.4986C9.51202 11.7462 9.58755 12.0287 9.58755 12.3463C9.58755 12.6756 9.51202 12.9593 9.36095 13.1975C9.21225 13.4357 8.9951 13.619 8.70949 13.7474C8.42625 13.8758 8.08399 13.9401 7.68273 13.9401Z" fill="white"/>
<path d="M11.8925 15.8H10.7807L10.7878 15.0434H11.8925C12.1922 15.0434 12.4436 14.978 12.6466 14.8473C12.8496 14.7142 13.003 14.5238 13.1069 14.2763C13.2107 14.0265 13.2627 13.7276 13.2627 13.3796V13.1169C13.2627 12.8484 13.2332 12.6113 13.1741 12.4059C13.1151 12.2004 13.0278 12.0276 12.9121 11.8874C12.7988 11.7473 12.6584 11.6411 12.4908 11.5687C12.3232 11.4963 12.1309 11.4601 11.9137 11.4601H10.7595V10.7H11.9137C12.2583 10.7 12.5722 10.7572 12.8555 10.8716C13.1411 10.9861 13.3878 11.1507 13.5955 11.3655C13.8055 11.578 13.966 11.8326 14.077 12.1291C14.1903 12.4257 14.2469 12.7573 14.2469 13.1239V13.3796C14.2469 13.7439 14.1903 14.0755 14.077 14.3744C13.966 14.671 13.8055 14.9255 13.5955 15.138C13.3878 15.3505 13.1399 15.514 12.8519 15.6284C12.564 15.7428 12.2442 15.8 11.8925 15.8ZM11.326 10.7V15.8H10.3523V10.7H11.326Z" fill="white"/>
<path d="M16.0491 10.7V15.8H15.0754V10.7H16.0491ZM18.1274 12.9032V13.6633H15.7942V12.9032H18.1274ZM18.4 10.7V11.4601H15.7942V10.7H18.4Z" fill="white"/>
</svg>
