<svg width="24" height="24" viewBox="0 0 24 24" fill="none" xmlns="http://www.w3.org/2000/svg">
<path d="M3.90002 4.28314C3.90002 3.62971 4.59921 3.10001 5.4617 3.10001H14.7667L20.2 7.21631V19.6007C20.2 20.2541 19.5008 20.7838 18.6383 20.7838H5.4617C4.59921 20.7838 3.90002 20.2541 3.90002 19.6007L3.90002 4.28314Z" fill="#2BC574"/>
<path d="M14.7664 3.10001L20.1997 7.21631H16.328C15.4655 7.21631 14.7664 6.68661 14.7664 6.03318V3.10001Z" fill="#8EDEB3"/>
<path d="M8 12.2222H16V10.8889H8V12.2222ZM13 17.1111V13.1111H11V17.1111H13ZM14 17.1111H16V13.1111H14V17.1111ZM10 17.1111V13.1111H8V17.1111H10ZM7.5 10H16.5C16.7761 10 17 10.199 17 10.4444V17.5556C17 17.801 16.7761 18 16.5 18H7.5C7.22386 18 7 17.801 7 17.5556V10.4444C7 10.199 7.22386 10 7.5 10Z" fill="white"/>
</svg>
