<svg width="24" height="24" viewBox="0 0 24 24" fill="none" xmlns="http://www.w3.org/2000/svg">
<path d="M3.90002 4.28314C3.90002 3.62971 4.59921 3.10001 5.4617 3.10001H14.7667L20.2 7.21631V19.6007C20.2 20.2541 19.5008 20.7838 18.6383 20.7838H5.4617C4.59921 20.7838 3.90002 20.2541 3.90002 19.6007L3.90002 4.28314Z" fill="#F4AA52"/>
<path d="M14.7664 3.10001L20.1997 7.21631H16.328C15.4655 7.21631 14.7664 6.68661 14.7664 6.03318V3.10001Z" fill="#FAE7C3"/>
<path d="M11.1944 8.7021V13.8056H16.2979C16.0641 16.1607 14.0771 18 11.6605 18C9.08656 18 7 15.9134 7 13.3395C7 10.9229 8.83934 8.93592 11.1944 8.7021ZM12.1265 8C14.7147 8.22294 16.7771 10.2853 17 12.8735H12.1265V8Z" fill="white"/>
</svg>
