<svg width="24" height="24" viewBox="0 0 24 24" fill="none" xmlns="http://www.w3.org/2000/svg">
<path d="M3.90002 4.28314C3.90002 3.62971 4.59921 3.10001 5.4617 3.10001H14.7667L20.2 7.21631V19.6007C20.2 20.2541 19.5008 20.7838 18.6383 20.7838H5.4617C4.59921 20.7838 3.90002 20.2541 3.90002 19.6007L3.90002 4.28314Z" fill="#A85ED6"/>
<path d="M14.7664 3.10001L20.1997 7.21631H16.328C15.4655 7.21631 14.7664 6.68661 14.7664 6.03318V3.10001Z" fill="#BEA6DC"/>
<path d="M14.1592 10C14.4228 10 14.6365 10.2057 14.6365 10.4594V12.3888L17.1247 10.7124C17.2326 10.6396 17.3814 10.6649 17.457 10.7688C17.485 10.8074 17.5001 10.8534 17.5001 10.9006V16.4495C17.5001 16.5764 17.3933 16.6792 17.2615 16.6792C17.2125 16.6792 17.1647 16.6647 17.1247 16.6377L14.6365 14.9613V16.8907C14.6365 17.1444 14.4228 17.35 14.1592 17.35H7.47739C7.21381 17.35 7.00012 17.1444 7.00012 16.8907V10.4594C7.00012 10.2057 7.21381 10 7.47739 10H14.1592ZM10.0547 12.2182C9.96241 12.2182 9.88544 12.2812 9.86764 12.3649L9.86376 12.402V14.9481C9.86376 14.9831 9.87411 15.0173 9.89361 15.0468C9.94313 15.1217 10.0397 15.1504 10.1226 15.1199L10.1572 15.1031L12.2357 13.8301C12.2592 13.8156 12.2792 13.7964 12.2942 13.7737C12.3438 13.6988 12.3299 13.6024 12.266 13.5431L12.2357 13.52L10.1572 12.2469C10.1265 12.2282 10.091 12.2182 10.0547 12.2182Z" fill="white"/>
</svg>
