<svg width="120" height="120" viewBox="0 0 120 120" fill="none" xmlns="http://www.w3.org/2000/svg">
<path d="M104.234 113.787C104.234 116.983 83.8106 119.574 58.617 119.574C33.4234 119.574 13 116.983 13 113.787C13 110.591 33.4234 108 58.617 108C83.8106 108 104.234 110.591 104.234 113.787Z" fill="url(#paint0_linear_1413_66132)"/>
<path fill-rule="evenodd" clip-rule="evenodd" d="M83.1701 59.1758H32.7178L38.5924 112.393H38.6267L38.6328 112.447C42.2916 113.648 49.5318 114.466 57.8657 114.466C66.2 114.466 73.4404 113.648 77.099 112.447L77.4851 109.015C77.4408 108.999 77.3959 108.983 77.3503 108.967L83.1701 59.1758Z" fill="url(#paint1_linear_1413_66132)"/>
<path d="M83.1701 58.8285C83.1701 60.9279 71.8759 62.6297 57.9439 62.6297C44.0119 62.6297 32.7178 60.9279 32.7178 58.8285C32.7178 56.7292 44.0119 55.0273 57.9439 55.0273C71.8759 55.0273 83.1701 56.7292 83.1701 58.8285Z" fill="#797E8B"/>
<path fill-rule="evenodd" clip-rule="evenodd" d="M60.9685 55.0544C59.9768 55.0365 58.9675 55.0273 57.944 55.0273C44.0119 55.0273 32.7178 56.7292 32.7178 58.8285C32.7178 60.5154 40.01 61.9457 50.1035 62.4426L60.9685 55.0544Z" fill="#797E8B"/>
<path d="M41.0002 51.5494L52.3986 50.8294L44.8986 59.4428L33.5002 60.1628L41.0002 51.5494Z" fill="#F1F1F3"/>
<path d="M57.1543 60.4593L52.3986 50.83L44.8986 59.4434L50.0344 69.8425L57.1543 60.4593Z" fill="#868B96"/>
<path d="M38.4499 70.1832L50.0342 69.8399L44.8985 59.4408L33.5001 60.1608L38.4499 70.1832Z" fill="#ACAEB5"/>
<path d="M73.4308 52.5436L80.7299 52.9901L75.2816 57.8679L67.9825 57.4213L73.4308 52.5436Z" fill="#F1F1F3"/>
<path d="M82.9877 59.4871L80.7299 52.9919L75.2816 57.8697L77.7199 64.884L82.9877 59.4871Z" fill="#C3C7CF"/>
<path d="M70.3327 64.1831L77.7201 64.8837L75.2818 57.8693L67.9827 57.4227L70.3327 64.1831Z" fill="#ACAEB5"/>
<path d="M62.0231 42.7233L73.4085 51.5132L59.1535 53.4327L47.7681 44.6428L62.0231 42.7233Z" fill="#F1F1F3"/>
<path d="M69.9077 64.5788L73.4083 51.5142L59.1534 53.4337L55.3729 67.5426L69.9077 64.5788Z" fill="#D7D8DB"/>
<path d="M44.1245 58.2406L55.3729 67.5415L59.1534 53.4326L47.768 44.6427L44.1245 58.2406Z" fill="#BCBEC6"/>
<path fill-rule="evenodd" clip-rule="evenodd" d="M50.2079 62.2685C40.8114 61.8059 33.8426 60.5344 32.9251 59H32.8223L38.6968 112.217H59.4306H77.0543L83.2744 59H83.1716C82.0131 60.9374 71.2074 62.4557 58.0483 62.4557C55.3112 62.4557 52.6758 62.39 50.2079 62.2685Z" fill="#DEE0E3"/>
<path d="M59.3223 86C61.9708 86 64.2162 85.0519 66.0586 83.1556C67.9011 81.2593 68.8223 78.9481 68.8223 76.2222V70H63.6404V76.2222C63.6404 77.4667 63.223 78.5185 62.3882 79.3778C61.5533 80.237 60.5314 80.6667 59.3223 80.6667C58.1132 80.6667 57.0912 80.237 56.2564 79.3778C55.4215 78.5185 55.0041 77.4667 55.0041 76.2222V70H49.8223V76.2222C49.8223 78.9481 50.7435 81.2593 52.5859 83.1556C54.4283 85.0519 56.6738 86 59.3223 86Z" fill="#989EAC"/>
<path d="M29 101.5C29 103.433 27.433 105 25.5 105C23.567 105 22 103.433 22 101.5C22 99.567 23.567 98 25.5 98C27.433 98 29 99.567 29 101.5Z" fill="#EBEEF0"/>
<path d="M21.0638 93.5319C21.0638 94.378 20.378 95.0638 19.5319 95.0638C18.6859 95.0638 18 94.378 18 93.5319C18 92.6859 18.6859 92 19.5319 92C20.378 92 21.0638 92.6859 21.0638 93.5319Z" fill="#F3F3F5"/>
<path d="M98.511 93.2325C98.511 94.2196 97.7108 95.0198 96.7238 95.0198C95.7367 95.0198 94.9365 94.2196 94.9365 93.2325C94.9365 92.2455 95.7367 91.4453 96.7238 91.4453C97.7108 91.4453 98.511 92.2455 98.511 93.2325Z" fill="#F6F7F7"/>
<path d="M105.66 98.6807C105.66 99.9498 104.631 100.979 103.362 100.979C102.093 100.979 101.064 99.9498 101.064 98.6807C101.064 97.4116 102.093 96.3828 103.362 96.3828C104.631 96.3828 105.66 97.4116 105.66 98.6807Z" fill="#F3F3F5"/>
<path d="M97 104C97 106.209 95.2091 108 93 108C90.7909 108 89 106.209 89 104C89 101.791 90.7909 100 93 100C95.2091 100 97 101.791 97 104Z" fill="#E4E5E6"/>
<defs>
<linearGradient id="paint0_linear_1413_66132" x1="13" y1="113.787" x2="104.234" y2="113.787" gradientUnits="userSpaceOnUse">
<stop stop-color="#F6F8FA"/>
<stop offset="0.460263" stop-color="#FAFBFC" stop-opacity="0.13"/>
<stop offset="1" stop-color="white" stop-opacity="0"/>
</linearGradient>
<linearGradient id="paint1_linear_1413_66132" x1="35.4823" y1="85.3487" x2="83.1701" y2="85.3487" gradientUnits="userSpaceOnUse">
<stop stop-color="#C2C6CD"/>
<stop offset="1" stop-color="#ECEDEF"/>
</linearGradient>
</defs>
</svg>
