<svg width="120" height="120" viewBox="0 0 120 120" fill="none" xmlns="http://www.w3.org/2000/svg">
<rect width="120" height="120" rx="8" fill="#00BA34" fill-opacity="0.1"/>
<path opacity="0.3" d="M17.8723 77.7811C17.8723 79.0032 16.8816 79.9939 15.6595 79.9939C14.4375 79.9939 13.4468 79.0032 13.4468 77.7811C13.4468 76.559 14.4375 75.5684 15.6595 75.5684C16.8816 75.5684 17.8723 76.559 17.8723 77.7811Z" fill="#B3E2C0"/>
<path opacity="0.3" d="M11.0638 69.9518C11.0638 70.7979 10.378 71.4838 9.53191 71.4838C8.68586 71.4838 8 70.7979 8 69.9518C8 69.1058 8.68586 68.4199 9.53191 68.4199C10.378 68.4199 11.0638 69.1058 11.0638 69.9518Z" fill="#B3E2C0"/>
<path opacity="0.3" d="M104.851 74.6544C104.851 75.6415 104.051 76.4417 103.064 76.4417C102.077 76.4417 101.276 75.6415 101.276 74.6544C101.276 73.6674 102.077 72.8672 103.064 72.8672C104.051 72.8672 104.851 73.6674 104.851 74.6544Z" fill="#B3E2C0"/>
<path opacity="0.3" d="M112 80.1006C112 81.3697 110.971 82.3985 109.702 82.3985C108.433 82.3985 107.404 81.3697 107.404 80.1006C107.404 78.8315 108.433 77.8027 109.702 77.8027C110.971 77.8027 112 78.8315 112 80.1006Z" fill="#B3E2C0"/>
<path opacity="0.3" d="M101.957 85.2069C101.957 86.758 100.7 88.0155 99.1488 88.0155C97.5977 88.0155 96.3403 86.758 96.3403 85.2069C96.3403 83.6559 97.5977 82.3984 99.1488 82.3984C100.7 82.3984 101.957 83.6559 101.957 85.2069Z" fill="#B3E2C0"/>
<path opacity="0.8" d="M107 97C107 100.314 85.7335 103 59.5 103C33.2665 103 12 100.314 12 97C12 93.6863 33.2665 91 59.5 91C85.7335 91 107 93.6863 107 97Z" fill="url(#paint0_linear_748_58663)"/>
<path d="M72.4009 72.0017L71.7167 72.0017L71.7167 71.6596L71.3745 71.6596L71.3745 70.9668L72.4009 70.9668L72.4009 72.0017Z" fill="#F9F9F9"/>
<path d="M75.163 68.2382L69.0132 68.2383L69.0133 74.3881L75.1631 74.388L75.163 68.2382Z" fill="white"/>
<path d="M75.4721 74.7292L68.6295 74.7293L68.6294 67.8867L75.472 67.8866L75.4721 74.7292ZM69.365 74.0793L74.822 74.0792L74.8219 68.6137L69.365 68.6137L69.365 74.0793Z" fill="#F9F9F9"/>
<path d="M50.495 68.2382L44.3452 68.2383L44.3453 74.3881L50.4951 74.388L50.495 68.2382Z" fill="white"/>
<path d="M50.8114 74.7292L43.9688 74.7293L43.9688 67.8867L50.8113 67.8866L50.8114 74.7292ZM44.6616 74.045L50.1272 74.045L50.1271 68.5794L44.6616 68.5795L44.6616 74.045Z" fill="#F9F9F9"/>
<path d="M90.9868 92.3753C90.9868 94.3481 89.3875 95.9474 87.4147 95.9474L34.7716 95.9481C32.7988 95.9481 31.1996 94.3489 31.1995 92.3761L31.199 49.7375L61.0923 30.7574L90.9862 49.7367L90.9868 92.3753Z" fill="#ADD5B8"/>
<path d="M39.7524 90.3658L82.9634 90.3652L82.9634 88.6204L39.7523 88.6209L39.7524 90.3658Z" fill="#91E1A8"/>
<path d="M90.9862 66.8606C88.5742 68.5712 86.1108 70.1878 83.6817 71.8557C81.2526 73.5237 78.7722 75.1232 76.3003 76.7398C73.8285 78.3563 71.1684 80.1012 68.5511 81.7606L68.3202 81.9231L61.4777 86.311L61.1356 86.5163L60.802 86.311C58.5211 84.8513 56.2402 83.3859 53.9593 81.9148L53.7113 81.7608C51.1225 80.1015 48.5365 78.4251 45.9534 76.7316C43.4986 75.1236 41.0353 73.49 38.5805 71.8563C36.1256 70.2227 33.6879 68.5634 31.2759 66.8613C33.8419 68.3153 36.4079 69.8463 38.9055 71.3346C41.403 72.8228 43.969 74.3709 46.4837 75.9105C49.2892 77.6211 52.089 79.3517 54.8831 81.1022C56.9786 82.4022 59.0656 83.7194 61.1612 85.028C63.2396 83.7194 65.3351 82.3936 67.4221 81.102C70.2104 79.3571 73.0073 77.6265 75.8128 75.9101C78.3274 74.379 80.8506 72.848 83.3824 71.3426C85.9141 69.8372 88.4202 68.3146 90.9862 66.8606Z" fill="white"/>
<path d="M27.6305 38.2073C27.0026 35.8643 28.3931 33.4559 30.7361 32.828L56.0143 26.0544L66.5322 23.236C68.8753 22.6081 71.2837 23.9986 71.9115 26.3417L86.6297 81.2676C87.2575 83.6107 85.8671 86.0191 83.524 86.6469L47.7279 96.2389C45.3849 96.8668 42.9765 95.4764 42.3486 93.1333L27.6305 38.2073Z" fill="#D7DAE0"/>
<path d="M31.9425 40.6155C31.3146 38.2725 32.7051 35.8641 35.0482 35.2362L48.0163 31.7612L52.3792 30.5921C54.7222 29.9643 57.1306 31.3547 57.7585 33.6978L64.3474 58.2867C64.9753 60.6298 63.5848 63.0382 61.2417 63.666L43.9107 68.3101C41.5677 68.938 39.1593 67.5475 38.5314 65.2044L31.9425 40.6155Z" fill="#D7DAE0"/>
<path d="M43.5279 25.3117C43.7347 22.8948 45.8616 21.1032 48.2785 21.3099L74.3533 23.5408L88.2761 40.0688L84.3571 85.8763C84.1503 88.2932 82.0234 90.0849 79.6065 89.8781L42.6825 86.7191C40.2656 86.5123 38.4739 84.3854 38.6807 81.9685L43.5279 25.3117Z" fill="url(#paint1_radial_748_58663)"/>
<path d="M74.353 23.5391L88.2759 40.0671L77.4266 39.1389C75.0097 38.9322 73.218 36.8053 73.4248 34.3884L74.353 23.5391Z" fill="#B3E2C0"/>
<path opacity="0.3" d="M46.7629 38.865L71.6719 40.9961L71.8424 39.0034L46.9334 36.8723L46.7629 38.865Z" fill="#009E2C"/>
<path opacity="0.3" d="M46.3366 43.8474L71.2456 45.9785L71.4161 43.9858L46.5071 41.8547L46.3366 43.8474Z" fill="#009E2C"/>
<path opacity="0.3" d="M45.9103 48.8299L70.8193 50.9609L70.9898 48.9682L46.0808 46.8371L45.9103 48.8299Z" fill="#009E2C"/>
<path opacity="0.3" d="M45.3988 54.8069L82.2642 57.9609L82.4346 55.9682L45.5693 52.8142L45.3988 54.8069Z" fill="#009E2C"/>
<path opacity="0.3" d="M44.9726 59.7894L81.8379 62.9434L82.0084 60.9506L45.143 57.7966L44.9726 59.7894Z" fill="#009E2C"/>
<path opacity="0.3" d="M44.5463 64.7718L81.4116 67.9258L81.5821 65.9331L44.7168 62.7791L44.5463 64.7718Z" fill="#009E2C"/>
<path opacity="0.3" d="M44.12 69.7523L80.9854 72.9062L81.1558 70.9135L44.2905 67.7595L44.12 69.7523Z" fill="#009E2C"/>
<path opacity="0.3" d="M42.0777 74.8027L82.4399 78.2559L82.6129 76.2337L42.2507 72.7805L42.0777 74.8027Z" fill="#009E2C"/>
<path d="M90.8375 57.466L90.838 93.0559C90.838 95.0287 89.2388 96.628 87.266 96.628L34.6229 96.6287C32.6501 96.6287 31.0508 95.0295 31.0508 93.0567L31.0503 57.4668C33.6163 58.9208 36.1823 60.4518 38.6798 61.94C41.1774 63.4283 43.7434 64.9764 46.2581 66.5159C49.0635 68.2265 51.8633 69.9571 54.6574 71.7076L54.743 71.6563L54.6745 71.7162C56.7701 73.0163 58.8571 74.3334 60.9527 75.642C63.0311 74.3334 65.1266 73.0076 67.2136 71.716L67.1452 71.6562L67.2393 71.6562C70.0276 69.9113 72.8245 68.1806 75.6299 66.4642C78.1446 64.9332 80.6677 63.4021 83.1995 61.8967C85.7312 60.3913 88.2716 58.9201 90.8375 57.466Z" fill="#91E1A8"/>
<defs>
<linearGradient id="paint0_linear_748_58663" x1="12" y1="97" x2="107" y2="97" gradientUnits="userSpaceOnUse">
<stop stop-color="#91E1A8" stop-opacity="0.15"/>
<stop offset="0.460263" stop-color="#428455" stop-opacity="0.07"/>
<stop offset="1" stop-color="#91E1A8" stop-opacity="0.15"/>
</linearGradient>
<radialGradient id="paint1_radial_748_58663" cx="0" cy="0" r="1" gradientUnits="userSpaceOnUse" gradientTransform="translate(66.7405 22.8895) rotate(94.89) scale(62.0794 45.8433)">
<stop stop-color="white"/>
<stop offset="1" stop-color="white"/>
</radialGradient>
</defs>
</svg>
