<svg width="121" height="120" viewBox="0 0 121 120" fill="none" xmlns="http://www.w3.org/2000/svg">
<path d="M108.385 113.787C108.385 116.983 87.9615 119.574 62.7679 119.574C37.5743 119.574 17.1509 116.983 17.1509 113.787C17.1509 110.591 37.5743 108 62.7679 108C87.9615 108 108.385 110.591 108.385 113.787Z" fill="url(#paint0_linear_1413_66449)"/>
<path d="M27.3862 92.2266L32.3224 110.184L36.6628 92.2266H27.3862Z" fill="#A3AAB6"/>
<path d="M14.7508 67.2542C14.1398 65.8798 14.7587 64.2703 16.1331 63.6593L30.9609 57.0676L43.4681 61.8768L54.1493 85.904C54.7603 87.2784 54.1414 88.8879 52.767 89.4989L31.7696 98.8332C30.3952 99.4442 28.7857 98.8253 28.1748 97.4509L14.7508 67.2542Z" fill="url(#paint1_radial_1413_66449)"/>
<path d="M30.9609 57.0684L43.4681 61.8776L37.2985 64.6203C35.9241 65.2312 34.3146 64.6124 33.7036 63.238L30.9609 57.0684Z" fill="url(#paint2_linear_1413_66449)"/>
<path d="M52.7917 54.6306C53.181 53.1778 54.6743 52.3156 56.1272 52.7049L71.8012 56.9047L78.5012 68.5094L71.6957 93.9078C71.3064 95.3606 69.8131 96.2228 68.3602 95.8335L46.1645 89.8862C44.7116 89.4969 43.8495 88.0035 44.2388 86.5507L52.7917 54.6306Z" fill="url(#paint3_radial_1413_66449)"/>
<path d="M71.8013 56.9043L78.5012 68.509L71.9795 66.7615C70.5267 66.3722 69.6645 64.8789 70.0538 63.426L71.8013 56.9043Z" fill="url(#paint4_linear_1413_66449)"/>
<path d="M86.6684 69.0185C87.4842 67.7549 89.1699 67.3918 90.4336 68.2075L101.674 75.4638L104.072 86.5948L92.1757 105.022C91.3599 106.286 89.6742 106.649 88.4105 105.833L72.6939 95.6873C71.4302 94.8716 71.0671 93.1859 71.8829 91.9222L86.6684 69.0185Z" fill="url(#paint5_radial_1413_66449)"/>
<path d="M101.674 75.4629L104.071 86.5938L99.5952 83.7042C98.3315 82.8884 97.9684 81.2027 98.7842 79.9391L101.674 75.4629Z" fill="url(#paint6_linear_1413_66449)"/>
<path d="M87.9592 77.8711L87.1597 103.455C87.0735 106.215 90.6767 107.336 92.1716 105.014L94.8528 100.85L87.9592 77.8711Z" fill="url(#paint7_linear_1413_66449)" fill-opacity="0.5"/>
<path d="M40.8997 73.6971C42.5036 77.3049 40.8791 81.5298 37.2712 83.1337C33.6634 84.7375 29.4385 83.113 27.8347 79.5052C26.2308 75.8974 27.8554 71.6725 31.4632 70.0686C35.071 68.4648 39.2959 70.0893 40.8997 73.6971Z" fill="#A0A6B2"/>
<path d="M36.2237 75.7489L33.4489 79.5635L31.5328 75.2532L36.2237 75.7489Z" fill="white"/>
<path d="M50.6351 68.1748L58.0244 74.9483L88.2372 74.9483C89.7412 74.9483 90.9606 76.1677 90.9606 77.6718L90.9606 111.119C90.9606 112.623 89.7412 113.842 88.2372 113.842L35.0457 113.842C33.5416 113.842 32.3223 112.623 32.3223 111.119L32.3223 70.1824C32.3223 68.6783 33.5416 67.459 35.0457 67.459L48.7948 67.459C49.4762 67.459 50.1328 67.7144 50.6351 68.1748Z" fill="url(#paint8_linear_1413_66449)"/>
<path fill-rule="evenodd" clip-rule="evenodd" d="M38.9766 102.383C39.8131 95.76 45.4668 90.6381 52.3167 90.6381C59.1666 90.6381 64.8202 95.76 65.6568 102.383H61.524C60.7236 98.0252 56.9057 94.7232 52.3167 94.7232C47.7276 94.7232 43.9098 98.0252 43.1093 102.383H38.9766Z" fill="#989EAC"/>
<path d="M38.9805 86.0431C38.9805 84.7271 40.0474 83.6602 41.3634 83.6602C42.6795 83.6602 43.7464 84.7271 43.7464 86.0431C43.7464 87.3592 42.6795 88.4261 41.3634 88.4261C40.0474 88.4261 38.9805 87.3592 38.9805 86.0431Z" fill="#949BA9"/>
<path d="M18.8528 96.0858C18.8528 97.3079 17.8621 98.2986 16.64 98.2986C15.4179 98.2986 14.4272 97.3079 14.4272 96.0858C14.4272 94.8637 15.4179 93.873 16.64 93.873C17.8621 93.873 18.8528 94.8637 18.8528 96.0858Z" fill="#EBEEF0"/>
<path d="M12.0443 88.2546C12.0443 89.1006 11.3584 89.7865 10.5124 89.7865C9.66633 89.7865 8.98047 89.1006 8.98047 88.2546C8.98047 87.4085 9.66633 86.7227 10.5124 86.7227C11.3584 86.7227 12.0443 87.4085 12.0443 88.2546Z" fill="#F9F9F9"/>
<path d="M105.831 93.9572C105.831 94.9442 105.031 95.7444 104.044 95.7444C103.057 95.7444 102.257 94.9442 102.257 93.9572C102.257 92.9701 103.057 92.1699 104.044 92.1699C105.031 92.1699 105.831 92.9701 105.831 93.9572Z" fill="#F6F7F7"/>
<path d="M112.981 99.4033C112.981 100.672 111.952 101.701 110.683 101.701C109.414 101.701 108.385 100.672 108.385 99.4033C108.385 98.1343 109.414 97.1055 110.683 97.1055C111.952 97.1055 112.981 98.1343 112.981 99.4033Z" fill="#F3F3F5"/>
<path d="M102.938 104.512C102.938 106.063 101.68 107.32 100.129 107.32C98.5782 107.32 97.3208 106.063 97.3208 104.512C97.3208 102.961 98.5782 101.703 100.129 101.703C101.68 101.703 102.938 102.961 102.938 104.512Z" fill="#E4E5E6"/>
<path d="M89.1605 60.811C89.7472 59.7948 91.214 59.7948 91.8007 60.811L99.721 74.5294C100.308 75.5456 99.5743 76.8158 98.401 76.8158H82.5602C81.3869 76.8158 80.6535 75.5456 81.2402 74.5294L89.1605 60.811Z" fill="#EE6354"/>
<path fill-rule="evenodd" clip-rule="evenodd" d="M94.4406 59.2864L102.361 73.0049C104.121 76.0534 101.921 79.8641 98.4008 79.8641H82.5601C79.0399 79.8641 76.8399 76.0534 78.5999 73.0049L86.5203 59.2864C88.2804 56.2379 92.6806 56.2379 94.4406 59.2864ZM91.8005 60.8107C91.2138 59.7945 89.7471 59.7945 89.1604 60.8107L81.2401 74.5291C80.6534 75.5453 81.3867 76.8156 82.5601 76.8156H98.4008C99.5742 76.8156 100.308 75.5453 99.7209 74.5291L91.8005 60.8107Z" fill="white"/>
<path fill-rule="evenodd" clip-rule="evenodd" d="M90.5335 71.71C89.9085 71.71 89.4019 71.2034 89.4019 70.5784L89.4019 64.9206C89.4019 64.2957 89.9085 63.7891 90.5335 63.7891C91.1584 63.7891 91.665 64.2957 91.665 64.9206L91.665 70.5784C91.665 71.2034 91.1584 71.71 90.5335 71.71Z" fill="white"/>
<path fill-rule="evenodd" clip-rule="evenodd" d="M90.5335 75.1049C89.9085 75.1049 89.4019 74.5983 89.4019 73.9734C89.4019 73.3484 89.9085 72.8418 90.5335 72.8418C91.1584 72.8418 91.665 73.3484 91.665 73.9734C91.665 74.5983 91.1584 75.1049 90.5335 75.1049Z" fill="white"/>
<defs>
<linearGradient id="paint0_linear_1413_66449" x1="17.1509" y1="113.787" x2="108.385" y2="113.787" gradientUnits="userSpaceOnUse">
<stop stop-color="#F6F8FA"/>
<stop offset="0.460263" stop-color="#FAFBFC" stop-opacity="0.13"/>
<stop offset="1" stop-color="white" stop-opacity="0"/>
</linearGradient>
<radialGradient id="paint1_radial_1413_66449" cx="0" cy="0" r="1" gradientUnits="userSpaceOnUse" gradientTransform="translate(26.6318 58.9921) rotate(66.0325) scale(38.4929 28.4255)">
<stop stop-color="#F8F9F9"/>
<stop offset="1" stop-color="#D5D8DD"/>
</radialGradient>
<linearGradient id="paint2_linear_1413_66449" x1="37.2145" y1="59.473" x2="34.8099" y2="65.7265" gradientUnits="userSpaceOnUse">
<stop stop-color="#E8E7EC"/>
<stop offset="1" stop-color="#D9DBE0"/>
</linearGradient>
<radialGradient id="paint3_radial_1413_66449" cx="0" cy="0" r="1" gradientUnits="userSpaceOnUse" gradientTransform="translate(67.2251 55.6785) rotate(105) scale(38.4929 28.4255)">
<stop stop-color="#F8F9F9"/>
<stop offset="1" stop-color="#D5D8DD"/>
</radialGradient>
<linearGradient id="paint4_linear_1413_66449" x1="75.1513" y1="62.7066" x2="69.3489" y2="66.0566" gradientUnits="userSpaceOnUse">
<stop stop-color="#F9F8F8"/>
<stop offset="1" stop-color="#DBDEE2"/>
</linearGradient>
<radialGradient id="paint5_radial_1413_66449" cx="0" cy="0" r="1" gradientUnits="userSpaceOnUse" gradientTransform="translate(98.2919 73.2805) rotate(122.844) scale(32.7083 24.1538)">
<stop stop-color="#F8F9F9"/>
<stop offset="1" stop-color="#D5D8DD"/>
</radialGradient>
<linearGradient id="paint6_linear_1413_66449" x1="102.873" y1="81.0284" x2="97.3071" y2="82.2271" gradientUnits="userSpaceOnUse">
<stop stop-color="#EDEDF0"/>
<stop offset="1" stop-color="#CCCFD6"/>
</linearGradient>
<linearGradient id="paint7_linear_1413_66449" x1="93.2784" y1="77.8711" x2="93.2784" y2="111.658" gradientUnits="userSpaceOnUse">
<stop stop-color="#A1A7B5" stop-opacity="0.31"/>
<stop offset="1" stop-color="#9BA2AE"/>
</linearGradient>
<linearGradient id="paint8_linear_1413_66449" x1="61.5989" y1="75.1186" x2="61.6414" y2="113.842" gradientUnits="userSpaceOnUse">
<stop stop-color="#FBFBFC"/>
<stop offset="1" stop-color="#DADCE0"/>
</linearGradient>
</defs>
</svg>
