<svg width="120" height="120" viewBox="0 0 120 120" fill="none" xmlns="http://www.w3.org/2000/svg">
<path d="M107.404 113.787C107.404 116.983 86.9808 119.574 61.7873 119.574C36.5937 119.574 16.1702 116.983 16.1702 113.787C16.1702 110.591 36.5937 108 61.7873 108C86.9808 108 107.404 110.591 107.404 113.787Z" fill="url(#paint0_linear_1413_65247)"/>
<path d="M26.4057 92.2266L31.3419 110.184L35.6823 92.2266H26.4057Z" fill="#A3AAB6"/>
<path d="M13.7703 67.2542C13.1593 65.8798 13.7782 64.2703 15.1526 63.6593L29.9804 57.0676L42.4876 61.8768L53.1688 85.904C53.7798 87.2784 53.1609 88.8879 51.7865 89.4989L30.7891 98.8332C29.4147 99.4442 27.8052 98.8253 27.1943 97.4509L13.7703 67.2542Z" fill="url(#paint1_radial_1413_65247)"/>
<path d="M29.9804 57.0684L42.4876 61.8776L36.318 64.6203C34.9436 65.2312 33.3341 64.6124 32.7231 63.238L29.9804 57.0684Z" fill="url(#paint2_linear_1413_65247)"/>
<path d="M51.811 54.6306C52.2003 53.1778 53.6937 52.3156 55.1465 52.7049L70.8205 56.9047L77.5205 68.5094L70.715 93.9078C70.3257 95.3606 68.8324 96.2228 67.3796 95.8335L45.1838 89.8862C43.731 89.4969 42.8688 88.0035 43.2581 86.5507L51.811 54.6306Z" fill="url(#paint3_radial_1413_65247)"/>
<path d="M70.8206 56.9043L77.5205 68.509L70.9988 66.7615C69.546 66.3722 68.6838 64.8789 69.0731 63.426L70.8206 56.9043Z" fill="url(#paint4_linear_1413_65247)"/>
<path d="M85.6879 69.0185C86.5036 67.7549 88.1893 67.3918 89.453 68.2075L100.693 75.4638L103.091 86.5948L91.1951 105.022C90.3793 106.286 88.6936 106.649 87.43 105.833L71.7133 95.6873C70.4497 94.8716 70.0866 93.1859 70.9023 91.9222L85.6879 69.0185Z" fill="url(#paint5_radial_1413_65247)"/>
<path d="M100.693 75.4629L103.091 86.5938L98.6148 83.7042C97.3511 82.8884 96.988 81.2027 97.8038 79.9391L100.693 75.4629Z" fill="url(#paint6_linear_1413_65247)"/>
<path d="M86.9787 77.8711L86.1792 103.455C86.0929 106.215 89.6961 107.336 91.1911 105.014L93.8723 100.85L86.9787 77.8711Z" fill="url(#paint7_linear_1413_65247)" fill-opacity="0.5"/>
<path d="M39.9193 73.6971C41.5231 77.3049 39.8986 81.5298 36.2908 83.1337C32.683 84.7375 28.4581 83.113 26.8542 79.5052C25.2504 75.8974 26.8749 71.6725 30.4827 70.0686C34.0905 68.4648 38.3154 70.0893 39.9193 73.6971Z" fill="#A0A6B2"/>
<path d="M64.9691 75.5331C66.5729 79.1409 64.9484 83.3658 61.3406 84.9696C57.7328 86.5735 53.5079 84.9489 51.904 81.3411C50.3002 77.7333 51.9247 73.5084 55.5325 71.9046C59.1403 70.3007 63.3652 71.9253 64.9691 75.5331Z" fill="#A0A6B2"/>
<path d="M90.9691 84.5331C92.5729 88.1409 90.9484 92.3658 87.3406 93.9696C83.7328 95.5735 79.5079 93.9489 77.904 90.3411C76.3002 86.7333 77.9247 82.5084 81.5325 80.9046C85.1403 79.3007 89.3652 80.9253 90.9691 84.5331Z" fill="#A0A6B2"/>
<path d="M35.2433 75.7489L32.4685 79.5635L30.5523 75.2532L35.2433 75.7489Z" fill="white"/>
<path d="M60.2931 77.5849L57.5183 81.3995L55.6021 77.0891L60.2931 77.5849Z" fill="white"/>
<path d="M86.2931 86.5849L83.5183 90.3995L81.6021 86.0891L86.2931 86.5849Z" fill="white"/>
<path d="M49.6547 68.1748L57.044 74.9483L87.2568 74.9483C88.7609 74.9483 89.9802 76.1677 89.9802 77.6718L89.9802 111.119C89.9802 112.623 88.7609 113.842 87.2568 113.842L34.0653 113.842C32.5612 113.842 31.3419 112.623 31.3419 111.119L31.3419 70.1824C31.3419 68.6783 32.5612 67.459 34.0653 67.459L47.8145 67.459C48.4958 67.459 49.1525 67.7144 49.6547 68.1748Z" fill="url(#paint8_linear_1413_65247)"/>
<path fill-rule="evenodd" clip-rule="evenodd" d="M37.996 90.6387C38.8326 97.2615 44.4862 102.383 51.3361 102.383C58.186 102.383 63.8396 97.2615 64.6762 90.6387H60.5434C59.743 94.9963 55.9252 98.2982 51.3361 98.2982C46.7471 98.2982 42.9292 94.9963 42.1288 90.6387H37.996Z" fill="#989EAC"/>
<path d="M38.1277 86.0431C38.1277 84.7271 39.1946 83.6602 40.5106 83.6602C41.8267 83.6602 42.8936 84.7271 42.8936 86.0431C42.8936 87.3592 41.8267 88.4261 40.5106 88.4261C39.1946 88.4261 38.1277 87.3592 38.1277 86.0431Z" fill="#949BA9"/>
<path d="M17.8723 96.0858C17.8723 97.3079 16.8817 98.2986 15.6596 98.2986C14.4375 98.2986 13.4468 97.3079 13.4468 96.0858C13.4468 94.8637 14.4375 93.873 15.6596 93.873C16.8817 93.873 17.8723 94.8637 17.8723 96.0858Z" fill="#EBEEF0"/>
<path d="M11.0638 88.2546C11.0638 89.1006 10.378 89.7865 9.53191 89.7865C8.68586 89.7865 8 89.1006 8 88.2546C8 87.4085 8.68586 86.7227 9.53191 86.7227C10.378 86.7227 11.0638 87.4085 11.0638 88.2546Z" fill="#F9F9F9"/>
<path d="M104.851 93.9572C104.851 94.9442 104.051 95.7444 103.064 95.7444C102.077 95.7444 101.277 94.9442 101.277 93.9572C101.277 92.9701 102.077 92.1699 103.064 92.1699C104.051 92.1699 104.851 92.9701 104.851 93.9572Z" fill="#F6F7F7"/>
<path d="M112 99.4033C112 100.672 110.971 101.701 109.702 101.701C108.433 101.701 107.404 100.672 107.404 99.4033C107.404 98.1343 108.433 97.1055 109.702 97.1055C110.971 97.1055 112 98.1343 112 99.4033Z" fill="#F3F3F5"/>
<path d="M101.957 104.512C101.957 106.063 100.7 107.32 99.1489 107.32C97.5978 107.32 96.3404 106.063 96.3404 104.512C96.3404 102.961 97.5978 101.703 99.1489 101.703C100.7 101.703 101.957 102.961 101.957 104.512Z" fill="#E4E5E6"/>
<defs>
<linearGradient id="paint0_linear_1413_65247" x1="16.1702" y1="113.787" x2="107.404" y2="113.787" gradientUnits="userSpaceOnUse">
<stop stop-color="#F6F8FA"/>
<stop offset="0.460263" stop-color="#FAFBFC" stop-opacity="0.13"/>
<stop offset="1" stop-color="white" stop-opacity="0"/>
</linearGradient>
<radialGradient id="paint1_radial_1413_65247" cx="0" cy="0" r="1" gradientUnits="userSpaceOnUse" gradientTransform="translate(25.6513 58.9921) rotate(66.0325) scale(38.4929 28.4255)">
<stop stop-color="#F8F9F9"/>
<stop offset="1" stop-color="#D5D8DD"/>
</radialGradient>
<linearGradient id="paint2_linear_1413_65247" x1="36.234" y1="59.473" x2="33.8294" y2="65.7265" gradientUnits="userSpaceOnUse">
<stop stop-color="#E8E7EC"/>
<stop offset="1" stop-color="#D9DBE0"/>
</linearGradient>
<radialGradient id="paint3_radial_1413_65247" cx="0" cy="0" r="1" gradientUnits="userSpaceOnUse" gradientTransform="translate(66.2444 55.6785) rotate(105) scale(38.4929 28.4255)">
<stop stop-color="#F8F9F9"/>
<stop offset="1" stop-color="#D5D8DD"/>
</radialGradient>
<linearGradient id="paint4_linear_1413_65247" x1="74.1705" y1="62.7066" x2="68.3682" y2="66.0566" gradientUnits="userSpaceOnUse">
<stop stop-color="#F9F8F8"/>
<stop offset="1" stop-color="#DBDEE2"/>
</linearGradient>
<radialGradient id="paint5_radial_1413_65247" cx="0" cy="0" r="1" gradientUnits="userSpaceOnUse" gradientTransform="translate(97.3113 73.2805) rotate(122.844) scale(32.7083 24.1538)">
<stop stop-color="#F8F9F9"/>
<stop offset="1" stop-color="#D5D8DD"/>
</radialGradient>
<linearGradient id="paint6_linear_1413_65247" x1="101.892" y1="81.0284" x2="96.3267" y2="82.2271" gradientUnits="userSpaceOnUse">
<stop stop-color="#EDEDF0"/>
<stop offset="1" stop-color="#CCCFD6"/>
</linearGradient>
<linearGradient id="paint7_linear_1413_65247" x1="92.2978" y1="77.8711" x2="92.2978" y2="111.658" gradientUnits="userSpaceOnUse">
<stop stop-color="#A1A7B5" stop-opacity="0.31"/>
<stop offset="1" stop-color="#9BA2AE"/>
</linearGradient>
<linearGradient id="paint8_linear_1413_65247" x1="60.6185" y1="75.1186" x2="60.6611" y2="113.842" gradientUnits="userSpaceOnUse">
<stop stop-color="#FBFBFC"/>
<stop offset="1" stop-color="#DADCE0"/>
</linearGradient>
</defs>
</svg>
