<svg width="121" height="120" viewBox="0 0 121 120" fill="none" xmlns="http://www.w3.org/2000/svg">
<path d="M107.932 113.787C107.932 116.983 87.5089 119.574 62.3153 119.574C37.1217 119.574 16.6982 116.983 16.6982 113.787C16.6982 110.591 37.1217 108 62.3153 108C87.5089 108 107.932 110.591 107.932 113.787Z" fill="url(#paint0_linear_1413_65978)"/>
<path d="M26.9336 92.2266L31.8698 110.184L36.2102 92.2266H26.9336Z" fill="#A3AAB6"/>
<path d="M14.2987 67.2542C13.6877 65.8798 14.3066 64.2703 15.681 63.6593L30.5088 57.0676L43.0159 61.8768L53.6972 85.904C54.3082 87.2784 53.6893 88.8879 52.3149 89.4989L31.3175 98.8332C29.9431 99.4442 28.3336 98.8253 27.7226 97.4509L14.2987 67.2542Z" fill="url(#paint1_radial_1413_65978)"/>
<path d="M30.5088 57.0684L43.016 61.8776L36.8464 64.6203C35.472 65.2312 33.8625 64.6124 33.2515 63.238L30.5088 57.0684Z" fill="url(#paint2_linear_1413_65978)"/>
<path d="M52.3391 54.6306C52.7284 53.1778 54.2217 52.3156 55.6746 52.7049L71.3486 56.9047L78.0485 68.5094L71.2431 93.9078C70.8538 95.3606 69.3604 96.2228 67.9076 95.8335L45.7119 89.8862C44.259 89.4969 43.3968 88.0035 43.7861 86.5507L52.3391 54.6306Z" fill="url(#paint3_radial_1413_65978)"/>
<path d="M71.3486 56.9043L78.0486 68.509L71.5269 66.7615C70.074 66.3722 69.2119 64.8789 69.6011 63.426L71.3486 56.9043Z" fill="url(#paint4_linear_1413_65978)"/>
<path d="M86.2163 69.0185C87.0321 67.7549 88.7178 67.3918 89.9814 68.2075L101.222 75.4638L103.619 86.5948L91.7235 105.022C90.9078 106.286 89.2221 106.649 87.9584 105.833L72.2417 95.6873C70.9781 94.8716 70.615 93.1859 71.4308 91.9222L86.2163 69.0185Z" fill="url(#paint5_radial_1413_65978)"/>
<path d="M101.222 75.4629L103.619 86.5938L99.143 83.7042C97.8794 82.8884 97.5163 81.2027 98.3321 79.9391L101.222 75.4629Z" fill="url(#paint6_linear_1413_65978)"/>
<path d="M87.5071 77.8711L86.7076 103.455C86.6213 106.215 90.2245 107.336 91.7195 105.014L94.4007 100.85L87.5071 77.8711Z" fill="url(#paint7_linear_1413_65978)" fill-opacity="0.5"/>
<path d="M40.4476 73.6971C42.0514 77.3049 40.4269 81.5298 36.8191 83.1337C33.2113 84.7375 28.9864 83.113 27.3825 79.5052C25.7787 75.8974 27.4032 71.6725 31.011 70.0686C34.6189 68.4648 38.8437 70.0893 40.4476 73.6971Z" fill="#A0A6B2"/>
<path d="M35.7716 75.7489L32.9968 79.5635L31.0806 75.2532L35.7716 75.7489Z" fill="white"/>
<path d="M50.1829 68.1748L57.5722 74.9483L87.785 74.9483C89.2891 74.9483 90.5084 76.1677 90.5084 77.6718L90.5084 111.119C90.5084 112.623 89.2891 113.842 87.785 113.842L34.5935 113.842C33.0894 113.842 31.8701 112.623 31.8701 111.119L31.8701 70.1824C31.8701 68.6783 33.0894 67.459 34.5935 67.459L48.3427 67.459C49.024 67.459 49.6807 67.7144 50.1829 68.1748Z" fill="url(#paint8_linear_1413_65978)"/>
<path fill-rule="evenodd" clip-rule="evenodd" d="M38.5244 102.383C39.361 95.76 45.0146 90.6381 51.8645 90.6381C58.7144 90.6381 64.368 95.76 65.2046 102.383H61.0719C60.2714 98.0252 56.4536 94.7232 51.8645 94.7232C47.2755 94.7232 43.4576 98.0252 42.6572 102.383H38.5244Z" fill="#989EAC"/>
<path d="M38.5283 86.0431C38.5283 84.7271 39.5952 83.6602 40.9113 83.6602C42.2274 83.6602 43.2943 84.7271 43.2943 86.0431C43.2943 87.3592 42.2274 88.4261 40.9113 88.4261C39.5952 88.4261 38.5283 87.3592 38.5283 86.0431Z" fill="#949BA9"/>
<path d="M18.4011 96.0858C18.4011 97.3079 17.4104 98.2986 16.1884 98.2986C14.9663 98.2986 13.9756 97.3079 13.9756 96.0858C13.9756 94.8637 14.9663 93.873 16.1884 93.873C17.4104 93.873 18.4011 94.8637 18.4011 96.0858Z" fill="#EBEEF0"/>
<path d="M11.5922 88.2546C11.5922 89.1006 10.9063 89.7865 10.0602 89.7865C9.21418 89.7865 8.52832 89.1006 8.52832 88.2546C8.52832 87.4085 9.21418 86.7227 10.0602 86.7227C10.9063 86.7227 11.5922 87.4085 11.5922 88.2546Z" fill="#F9F9F9"/>
<path d="M105.379 93.9572C105.379 94.9442 104.579 95.7444 103.592 95.7444C102.605 95.7444 101.805 94.9442 101.805 93.9572C101.805 92.9701 102.605 92.1699 103.592 92.1699C104.579 92.1699 105.379 92.9701 105.379 93.9572Z" fill="#F6F7F7"/>
<path d="M112.528 99.4033C112.528 100.672 111.5 101.701 110.23 101.701C108.961 101.701 107.933 100.672 107.933 99.4033C107.933 98.1343 108.961 97.1055 110.23 97.1055C111.5 97.1055 112.528 98.1343 112.528 99.4033Z" fill="#F3F3F5"/>
<path d="M102.486 104.512C102.486 106.063 101.229 107.32 99.6777 107.32C98.1266 107.32 96.8691 106.063 96.8691 104.512C96.8691 102.961 98.1266 101.703 99.6777 101.703C101.229 101.703 102.486 102.961 102.486 104.512Z" fill="#E4E5E6"/>
<path d="M88.7079 60.811C89.2946 59.7948 90.7613 59.7948 91.348 60.811L99.2684 74.5294C99.8551 75.5456 99.1217 76.8158 97.9483 76.8158H82.1076C80.9342 76.8158 80.2008 75.5456 80.7875 74.5294L88.7079 60.811Z" fill="#EE6354"/>
<path fill-rule="evenodd" clip-rule="evenodd" d="M93.9885 59.2864L101.909 73.0049C103.669 76.0534 101.469 79.8641 97.9487 79.8641H82.108C78.5878 79.8641 76.3877 76.0534 78.1478 73.0049L86.0681 59.2864C87.8282 56.2379 92.2284 56.2379 93.9885 59.2864ZM91.3484 60.8107C90.7617 59.7945 89.295 59.7945 88.7083 60.8107L80.7879 74.5291C80.2012 75.5453 80.9346 76.8156 82.108 76.8156H97.9487C99.1221 76.8156 99.8554 75.5453 99.2687 74.5291L91.3484 60.8107Z" fill="white"/>
<path fill-rule="evenodd" clip-rule="evenodd" d="M90.0804 71.71C89.4554 71.71 88.9488 71.2034 88.9488 70.5784L88.9488 64.9206C88.9488 64.2957 89.4554 63.7891 90.0804 63.7891C90.7053 63.7891 91.2119 64.2957 91.2119 64.9206L91.2119 70.5784C91.2119 71.2034 90.7053 71.71 90.0804 71.71Z" fill="white"/>
<path fill-rule="evenodd" clip-rule="evenodd" d="M90.0804 75.1049C89.4554 75.1049 88.9488 74.5983 88.9488 73.9734C88.9488 73.3484 89.4554 72.8418 90.0804 72.8418C90.7053 72.8418 91.2119 73.3484 91.2119 73.9734C91.2119 74.5983 90.7053 75.1049 90.0804 75.1049Z" fill="white"/>
<defs>
<linearGradient id="paint0_linear_1413_65978" x1="16.6982" y1="113.787" x2="107.932" y2="113.787" gradientUnits="userSpaceOnUse">
<stop stop-color="#F6F8FA"/>
<stop offset="0.460263" stop-color="#FAFBFC" stop-opacity="0.13"/>
<stop offset="1" stop-color="white" stop-opacity="0"/>
</linearGradient>
<radialGradient id="paint1_radial_1413_65978" cx="0" cy="0" r="1" gradientUnits="userSpaceOnUse" gradientTransform="translate(26.1797 58.9921) rotate(66.0325) scale(38.4929 28.4255)">
<stop stop-color="#F8F9F9"/>
<stop offset="1" stop-color="#D5D8DD"/>
</radialGradient>
<linearGradient id="paint2_linear_1413_65978" x1="36.7624" y1="59.473" x2="34.3578" y2="65.7265" gradientUnits="userSpaceOnUse">
<stop stop-color="#E8E7EC"/>
<stop offset="1" stop-color="#D9DBE0"/>
</linearGradient>
<radialGradient id="paint3_radial_1413_65978" cx="0" cy="0" r="1" gradientUnits="userSpaceOnUse" gradientTransform="translate(66.7724 55.6785) rotate(105) scale(38.4929 28.4255)">
<stop stop-color="#F8F9F9"/>
<stop offset="1" stop-color="#D5D8DD"/>
</radialGradient>
<linearGradient id="paint4_linear_1413_65978" x1="74.6986" y1="62.7066" x2="68.8963" y2="66.0566" gradientUnits="userSpaceOnUse">
<stop stop-color="#F9F8F8"/>
<stop offset="1" stop-color="#DBDEE2"/>
</linearGradient>
<radialGradient id="paint5_radial_1413_65978" cx="0" cy="0" r="1" gradientUnits="userSpaceOnUse" gradientTransform="translate(97.8397 73.2805) rotate(122.844) scale(32.7083 24.1538)">
<stop stop-color="#F8F9F9"/>
<stop offset="1" stop-color="#D5D8DD"/>
</radialGradient>
<linearGradient id="paint6_linear_1413_65978" x1="102.42" y1="81.0284" x2="96.855" y2="82.2271" gradientUnits="userSpaceOnUse">
<stop stop-color="#EDEDF0"/>
<stop offset="1" stop-color="#CCCFD6"/>
</linearGradient>
<linearGradient id="paint7_linear_1413_65978" x1="92.8262" y1="77.8711" x2="92.8262" y2="111.658" gradientUnits="userSpaceOnUse">
<stop stop-color="#A1A7B5" stop-opacity="0.31"/>
<stop offset="1" stop-color="#9BA2AE"/>
</linearGradient>
<linearGradient id="paint8_linear_1413_65978" x1="61.1467" y1="75.1186" x2="61.1893" y2="113.842" gradientUnits="userSpaceOnUse">
<stop stop-color="#FBFBFC"/>
<stop offset="1" stop-color="#DADCE0"/>
</linearGradient>
</defs>
</svg>
