<svg width="121" height="120" viewBox="0 0 121 120" fill="none" xmlns="http://www.w3.org/2000/svg">
<path d="M105.222 113.787C105.222 116.983 84.7989 119.574 59.6053 119.574C34.4117 119.574 13.9883 116.983 13.9883 113.787C13.9883 110.591 34.4117 108 59.6053 108C84.7989 108 105.222 110.591 105.222 113.787Z" fill="url(#paint0_linear_1413_64090)"/>
<path fill-rule="evenodd" clip-rule="evenodd" d="M84.3361 64.1738H33.8838L39.7584 117.391H39.7928L39.799 117.445C43.4577 118.646 50.6979 119.464 59.0319 119.464C67.3661 119.464 74.6066 118.646 78.2652 117.445L82.2598 81.9373L84.3361 64.1738Z" fill="url(#paint1_linear_1413_64090)"/>
<ellipse cx="59.1099" cy="63.8285" rx="25.2262" ry="3.8012" fill="url(#paint2_linear_1413_64090)"/>
<path fill-rule="evenodd" clip-rule="evenodd" d="M62.1344 60.0544C61.1428 60.0365 60.1335 60.0273 59.1099 60.0273C45.1779 60.0273 33.8838 61.7292 33.8838 63.8285C33.8838 65.5154 41.176 66.9457 51.2695 67.4426L62.1344 60.0544Z" fill="url(#paint3_linear_1413_64090)"/>
<path fill-rule="evenodd" clip-rule="evenodd" d="M87.5273 39.1671C87.5733 39.4273 87.5781 39.6919 87.5432 39.9599C87.5739 40.1873 87.5735 40.4179 87.5432 40.6511C87.5739 40.8784 87.5735 41.109 87.5432 41.3423C87.5739 41.5696 87.5735 41.8001 87.5432 42.0333C87.5739 42.2607 87.5735 42.4912 87.5432 42.7244C87.5739 42.9518 87.5735 43.1824 87.5432 43.4156C88.1508 47.9114 76.5948 53.6705 61.58 56.3271C46.4517 59.0037 33.5409 57.5172 32.7429 53.0069C32.6968 52.7467 32.6921 52.4821 32.727 52.214C32.6963 51.9867 32.6967 51.7561 32.727 51.5229C32.6963 51.2956 32.6967 51.065 32.727 50.8318C32.6963 50.6045 32.6967 50.3739 32.727 50.1407C32.6963 49.9133 32.6967 49.6828 32.727 49.4495C32.6963 49.2222 32.6967 48.9916 32.727 48.7584C32.1194 44.2626 43.6753 38.5035 58.6901 35.8469C73.8185 33.1703 86.7293 34.6567 87.5273 39.1671Z" fill="url(#paint4_linear_1413_64090)"/>
<ellipse cx="60.135" cy="44.0135" rx="27.8177" ry="8.29353" transform="rotate(-10.0336 60.135 44.0135)" fill="#F8F9F8"/>
<rect x="57.5605" y="74.541" width="3.45564" height="38.7031" rx="1.72782" fill="#BBBEC6"/>
<rect x="71.9912" y="74.4648" width="3.45564" height="38.7031" rx="1.72782" transform="rotate(5 71.9912 74.4648)" fill="#BBBEC6"/>
<rect x="43.0469" y="74.7656" width="3.45564" height="38.7031" rx="1.72782" transform="rotate(-5 43.0469 74.7656)" fill="#BBBEC6"/>
<circle cx="21.9672" cy="61.0649" r="3.8012" fill="#F2F1F3"/>
<circle cx="92.6454" cy="64.6084" r="3.8012" transform="rotate(-131.585 92.6454 64.6084)" fill="#F1F0F2"/>
<circle cx="24.7321" cy="72.8132" r="3.11007" fill="#F5F5F5"/>
<circle cx="99.5979" cy="54.7423" r="3.11007" transform="rotate(-131.585 99.5979 54.7423)" fill="#F5F5F5"/>
<defs>
<linearGradient id="paint0_linear_1413_64090" x1="13.9883" y1="113.787" x2="105.222" y2="113.787" gradientUnits="userSpaceOnUse">
<stop stop-color="#F6F8FA"/>
<stop offset="0.460263" stop-color="#FAFBFC" stop-opacity="0.13"/>
<stop offset="1" stop-color="white" stop-opacity="0"/>
</linearGradient>
<linearGradient id="paint1_linear_1413_64090" x1="36.6483" y1="90.3467" x2="84.3361" y2="90.3467" gradientUnits="userSpaceOnUse">
<stop stop-color="#C2C6CD"/>
<stop offset="1" stop-color="#ECEDEF"/>
</linearGradient>
<linearGradient id="paint2_linear_1413_64090" x1="80.0216" y1="60.0273" x2="53.0676" y2="69.7031" gradientUnits="userSpaceOnUse">
<stop stop-color="#838C9C"/>
<stop offset="1" stop-color="#B0B3BE"/>
</linearGradient>
<linearGradient id="paint3_linear_1413_64090" x1="59.2878" y1="60.0273" x2="43.7374" y2="67.6297" gradientUnits="userSpaceOnUse">
<stop stop-color="#DEDFE3"/>
<stop offset="1" stop-color="#E8E9EB"/>
</linearGradient>
<linearGradient id="paint4_linear_1413_64090" x1="25.655" y1="37.7632" x2="81.0657" y2="63.1077" gradientUnits="userSpaceOnUse">
<stop stop-color="#AFB3BE"/>
<stop offset="0.642459" stop-color="#B2B5C0"/>
<stop offset="1" stop-color="#F8F8F8"/>
</linearGradient>
</defs>
</svg>
