<svg width="24" height="24" viewBox="0 0 24 24" fill="none" xmlns="http://www.w3.org/2000/svg">
<g id="account_balance_FILL0_wght600_GRAD0_opsz48 2">
<path id="Vector" d="M6.89509 18.7318C6.65323 18.7318 6.45223 18.6517 6.2921 18.4916C6.13196 18.3315 6.05188 18.1305 6.05188 17.8886V11.7679C6.05188 11.55 6.13578 11.3609 6.30356 11.2008C6.47134 11.0407 6.66851 10.9606 6.89509 10.9606C7.12832 10.9606 7.32501 11.0407 7.48515 11.2008C7.64529 11.3609 7.72535 11.5576 7.72535 11.7909V17.9115C7.72535 18.1381 7.64146 18.3315 7.47369 18.4916C7.3059 18.6517 7.11304 18.7318 6.89509 18.7318ZM12.5852 18.7318C12.352 18.7318 12.1553 18.6517 11.9952 18.4916C11.835 18.3315 11.755 18.1305 11.755 17.8886V11.7679C11.755 11.55 11.8367 11.3609 12.0002 11.2008C12.1636 11.0407 12.3586 10.9606 12.5852 10.9606C12.8184 10.9606 13.0151 11.0407 13.1753 11.2008C13.3354 11.3609 13.4155 11.5576 13.4155 11.7909V17.9115C13.4155 18.1381 13.3337 18.3315 13.1703 18.4916C13.0068 18.6517 12.8118 18.7318 12.5852 18.7318ZM3.88509 21.6252C3.64123 21.6252 3.43275 21.5348 3.25966 21.3541C3.08658 21.1734 3.00005 20.9611 3.00005 20.7172C3.00005 20.4581 3.08659 20.242 3.25968 20.0689C3.43277 19.8958 3.64889 19.8092 3.90804 19.8092H21.102C21.3458 19.8092 21.5565 19.8996 21.7339 20.0803C21.9113 20.2611 22 20.4734 22 20.7172C22 20.9763 21.9113 21.1925 21.7339 21.3656C21.5565 21.5387 21.3382 21.6252 21.0791 21.6252H3.88509ZM18.092 18.7318C17.8587 18.7318 17.662 18.6517 17.5019 18.4916C17.3418 18.3315 17.2617 18.1305 17.2617 17.8886V11.7679C17.2617 11.55 17.3456 11.3609 17.5134 11.2008C17.6811 11.0407 17.874 10.9606 18.092 10.9606C18.3338 10.9606 18.5348 11.0407 18.6949 11.2008C18.8551 11.3609 18.9352 11.5576 18.9352 11.7909V17.9115C18.9352 18.1381 18.8513 18.3315 18.6835 18.4916C18.5157 18.6517 18.3185 18.7318 18.092 18.7318ZM13.3886 3.22227L21.1847 7.68347C21.4239 7.80307 21.6196 7.97217 21.7717 8.19077C21.9239 8.40939 22 8.64594 22 8.90043C22 9.19214 21.8878 9.42886 21.6636 9.61059C21.4393 9.79233 21.1814 9.8832 20.8897 9.8832H4.08444C3.79272 9.8832 3.53906 9.79233 3.32346 9.61059C3.10782 9.42886 3 9.19214 3 8.90043C3 8.64594 3.07991 8.41321 3.23974 8.20224C3.39953 7.99128 3.59904 7.81403 3.83826 7.67049L11.5985 3.22227C11.8729 3.07409 12.1713 3 12.4935 3C12.8158 3 13.1141 3.07409 13.3886 3.22227ZM6.90112 8.05424H18.0859L12.4935 4.82896L6.90112 8.05424Z" fill="currentColor"/>
</g>
</svg>
