<svg xmlns="http://www.w3.org/2000/svg" width="24" height="24" viewBox="0 0 24 24" fill="none">
  <path fill-rule="evenodd" clip-rule="evenodd" d="M12 9.75L9.75 13.75H14.25L12 9.75ZM10.6792 8.34348C11.2456 7.29168 12.7543 7.29167 13.3207 8.34348L15.9835 13.2888C16.5217 14.2882 15.7978 15.5 14.6628 15.5H9.33705C8.20204 15.5 7.47824 14.2882 8.01635 13.2888L10.6792 8.34348Z" fill="currentColor"/>
  <path fill-rule="evenodd" clip-rule="evenodd" d="M12 4.75C7.99594 4.75 4.75 7.99594 4.75 12C4.75 16.0041 7.99594 19.25 12 19.25C16.0041 19.25 19.25 16.0041 19.25 12C19.25 7.99594 16.0041 4.75 12 4.75ZM2.75 12C2.75 6.89137 6.89137 2.75 12 2.75C17.1086 2.75 21.25 6.89137 21.25 12C21.25 17.1086 17.1086 21.25 12 21.25C6.89137 21.25 2.75 17.1086 2.75 12Z" fill="currentColor"/>
</svg>