<svg width="24" height="24" viewBox="0 0 24 24" fill="none" xmlns="http://www.w3.org/2000/svg">
<g id="account_balance_FILL1_wght600_GRAD0_opsz48 1">
<path id="Vector" d="M6.88872 18.7318C6.6511 18.7318 6.45221 18.6518 6.29208 18.4916C6.13194 18.3315 6.05186 18.1305 6.05186 17.8886V11.7679C6.05186 11.5478 6.13576 11.3582 6.30355 11.1992C6.47132 11.0401 6.66638 10.9606 6.88872 10.9606C7.12634 10.9606 7.32518 11.04 7.48525 11.1989C7.64531 11.3577 7.72533 11.555 7.72533 11.7909V17.9115C7.72533 18.1381 7.64149 18.3315 7.47379 18.4916C7.30608 18.6518 7.11106 18.7318 6.88872 18.7318ZM12.5916 18.7318C12.354 18.7318 12.1551 18.6518 11.9951 18.4916C11.835 18.3315 11.7549 18.1305 11.7549 17.8886V11.7679C11.7549 11.5478 11.8367 11.3582 12.0001 11.1992C12.1636 11.0401 12.3565 10.9606 12.5788 10.9606C12.8165 10.9606 13.0153 11.04 13.1754 11.1989C13.3354 11.3577 13.4155 11.555 13.4155 11.7909V17.9115C13.4155 18.1381 13.3337 18.3315 13.1703 18.4916C13.0068 18.6518 12.8139 18.7318 12.5916 18.7318ZM3.88507 21.6252C3.64121 21.6252 3.43273 21.5349 3.25964 21.3541C3.08656 21.1734 3.00002 20.9611 3.00002 20.7172C3.00002 20.4581 3.08657 20.242 3.25966 20.0689C3.43275 19.8958 3.64887 19.8092 3.90802 19.8092H21.102C21.3443 19.8092 21.5545 19.8996 21.7327 20.0803C21.9109 20.2611 22 20.4734 22 20.7172C22 20.9764 21.911 21.1925 21.7331 21.3656C21.5551 21.5387 21.3371 21.6252 21.0791 21.6252H3.88507ZM18.0983 18.7318C17.8607 18.7318 17.6618 18.6518 17.5018 18.4916C17.3417 18.3315 17.2617 18.1305 17.2617 17.8886V11.7679C17.2617 11.5478 17.3455 11.3582 17.5132 11.1992C17.6809 11.0401 17.876 10.9606 18.0983 10.9606C18.3359 10.9606 18.5348 11.04 18.6949 11.1989C18.8551 11.3577 18.9352 11.555 18.9352 11.7909V17.9115C18.9352 18.1381 18.8513 18.3315 18.6835 18.4916C18.5157 18.6518 18.3206 18.7318 18.0983 18.7318ZM13.3886 3.22227L21.1847 7.68347C21.4239 7.81836 21.6196 7.99075 21.7717 8.20064C21.9239 8.41053 22 8.6438 22 8.90044C22 9.19215 21.8882 9.42887 21.6645 9.6106C21.4409 9.79234 21.1826 9.88321 20.8897 9.88321H4.08442C3.79099 9.88321 3.53689 9.7933 3.32213 9.61349C3.10738 9.43369 3 9.196 3 8.90044C3 8.63299 3.07991 8.3932 3.23972 8.18106C3.39951 7.96894 3.59902 7.79875 3.83824 7.6705L11.5985 3.22227C11.8815 3.07409 12.1799 3 12.4935 3C12.8071 3 13.1055 3.07409 13.3886 3.22227Z" fill="currentColor"/>
</g>
</svg>
