<svg xmlns="http://www.w3.org/2000/svg" width="20" height="20" viewBox="0 0 20 20" fill="none">
    <path fill-rule="evenodd" clip-rule="evenodd" d="M4.47325 11.9092C5.42532 11.0381 6.76853 10.4166 8.33268 10.4166C9.89684 10.4166 11.24 11.0381 12.1921 11.9092C13.1283 12.7659 13.7493 13.927 13.7493 15.0595C13.7493 15.4868 13.4029 15.8333 12.9755 15.8333H3.68983C3.26246 15.8333 2.91602 15.4868 2.91602 15.0595C2.91602 13.927 3.53705 12.7659 4.47325 11.9092ZM4.63075 14.2857H12.0346C11.8669 13.8739 11.5723 13.4398 11.1474 13.051C10.4551 12.4175 9.47686 11.9642 8.33268 11.9642C7.1885 11.9642 6.21028 12.4175 5.518 13.051C5.09306 13.4398 4.79843 13.8739 4.63075 14.2857Z" fill="#00BA34"/>
    <path fill-rule="evenodd" clip-rule="evenodd" d="M8.33333 8.10181C9.35608 8.10181 10.1852 7.27271 10.1852 6.24996C10.1852 5.22721 9.35608 4.39811 8.33333 4.39811C7.31058 4.39811 6.48148 5.22721 6.48148 6.24996C6.48148 7.27271 7.31058 8.10181 8.33333 8.10181ZM8.33333 9.58329C10.1743 9.58329 11.6667 8.09091 11.6667 6.24996C11.6667 4.40901 10.1743 2.91663 8.33333 2.91663C6.49238 2.91663 5 4.40901 5 6.24996C5 8.09091 6.49238 9.58329 8.33333 9.58329Z" fill="#00BA34"/>
    <path fill-rule="evenodd" clip-rule="evenodd" d="M15.1039 7.18746C15.1039 6.89981 14.8707 6.66663 14.5831 6.66663C14.2954 6.66663 14.0623 6.89981 14.0623 7.18746V9.06246H12.1868C11.8992 9.06246 11.666 9.29565 11.666 9.58329C11.666 9.87094 11.8992 10.1041 12.1868 10.1041H14.0623V11.9791C14.0623 12.2668 14.2954 12.5 14.5831 12.5C14.8707 12.5 15.1039 12.2668 15.1039 11.9791V10.1041H16.9785C17.2662 10.1041 17.4993 9.87094 17.4993 9.58329C17.4993 9.29565 17.2662 9.06246 16.9785 9.06246H15.1039V7.18746Z" fill="#00BA34"/>
</svg>
