<svg width="25" height="24" viewBox="0 0 25 24" fill="none" xmlns="http://www.w3.org/2000/svg">
<path d="M7.31341 12.0057L5.28171 14.0374L3.25 12.0057L5.28171 9.97401L7.31341 12.0057ZM12.2557 7.06341L15.737 10.5447L17.7687 8.51301L12.2557 3L6.73129 8.51301L8.76301 10.5447L12.2557 7.06341ZM19.2183 9.97401L17.1866 12.0057L19.2183 14.0374L21.25 12.0057L19.2183 9.97401ZM12.2557 16.9366L8.76301 13.4553L6.73129 15.487L12.2443 21L17.7573 15.487L15.7256 13.4553L12.2557 16.9366ZM12.2557 14.0374L14.2874 12.0057L12.2557 9.97401L10.224 12.0057L12.2557 14.0374Z" fill="#F0B90B"/>
</svg>
