<svg width="18" height="18" viewBox="0 0 18 18" fill="none" xmlns="http://www.w3.org/2000/svg">
<path d="M4.08804 2.75708L9 0L13.912 2.75708L12.1061 3.77561L9 2.03707L5.89392 3.77561L4.08804 2.75708ZM13.912 6.23414L12.1061 5.21561L9 6.95415L5.89392 5.21561L4.08804 6.23414V8.27123L7.19413 10.0097V13.4868L9 14.5054L10.8059 13.4868V10.0097L13.912 8.27123V6.23414ZM13.912 11.7483V9.71123L12.1061 10.7297V12.7668L13.912 11.7483ZM15.1941 12.4683L12.088 14.2068V16.2439L17 13.4868V7.97265L15.1941 8.99123V12.4683ZM13.3883 4.49561L15.1941 5.51414V7.55123L17 6.53268V4.49561L15.1941 3.47707L13.3883 4.49561ZM7.19413 14.9444V16.9815L9 18L10.8059 16.9815V14.9444L9 15.9629L7.19413 14.9444ZM4.08804 11.7483L5.89392 12.7668V10.7297L4.08804 9.71123V11.7483ZM7.19413 4.49561L9 5.51414L10.8059 4.49561L9 3.47707L7.19413 4.49561ZM2.80586 5.51414L4.61173 4.49561L2.80586 3.47707L1 4.49561V6.53268L2.80586 7.55123V5.51414ZM2.80586 8.99123L1 7.97265V13.4868L5.91195 16.2439V14.2068L2.80586 12.4683V8.99123Z" fill="#F0B90B"/>
</svg>
