<svg width="19" height="18" viewBox="0 0 19 18" fill="none" xmlns="http://www.w3.org/2000/svg">
<circle cx="9.02045" cy="9" r="9" fill="#F5F5F5"/>
<path d="M9.02045 1L4.41549 3.45073L6.10849 4.3561L9.02045 2.81073L11.9324 4.3561L13.6254 3.45073L9.02045 1Z" fill="#F0B90B"/>
<path d="M11.9324 5.6361L13.6254 6.54146V8.3522L10.7134 9.89756V12.9883L9.02045 13.8937L7.32745 12.9883V9.89756L4.41549 8.3522V6.54146L6.10849 5.6361L9.02045 7.18146L11.9324 5.6361Z" fill="#F0B90B"/>
<path d="M13.6254 9.6322V11.4429L11.9324 12.3483V10.5376L13.6254 9.6322Z" fill="#F0B90B"/>
<path d="M11.9155 13.6283L14.8274 12.0829V8.99219L16.5204 8.08683V12.9883L11.9155 15.439V13.6283Z" fill="#F0B90B"/>
<path d="M14.8274 5.90146L13.1344 4.9961L14.8274 4.09073L16.5204 4.9961V6.80683L14.8274 7.71219V5.90146Z" fill="#F0B90B"/>
<path d="M7.32745 16.0946V14.2839L9.02045 15.1893L10.7134 14.2839V16.0946L9.02045 17L7.32745 16.0946Z" fill="#F0B90B"/>
<path d="M6.10849 12.3483L4.41549 11.4429V9.6322L6.10849 10.5376V12.3483Z" fill="#F0B90B"/>
<path d="M9.02045 5.90146L7.32745 4.9961L9.02045 4.09073L10.7134 4.9961L9.02045 5.90146Z" fill="#F0B90B"/>
<path d="M4.90645 4.9961L3.21345 5.90146V7.71219L1.52045 6.80683V4.9961L3.21345 4.09073L4.90645 4.9961Z" fill="#F0B90B"/>
<path d="M1.52045 8.08683L3.21345 8.99219V12.0829L6.1254 13.6283V15.439L1.52045 12.9883V8.08683Z" fill="#F0B90B"/>
</svg>
