<svg width="24" height="24" viewBox="0 0 24 24" fill="none" xmlns="http://www.w3.org/2000/svg">
  <mask id="path-1-inside-1_2078_80187" fill="white">
    <path fill-rule="evenodd" clip-rule="evenodd"
      d="M5.15302 4C4.54447 4 4.07701 4.53899 4.16307 5.14142L6.04042 18.2828C6.18117 19.2681 7.02502 20 8.02032 20H15.9797C16.975 20 17.8188 19.2681 17.9596 18.2828L19.837 5.14142C19.923 4.53899 19.4556 4 18.847 4H5.15302ZM10.8672 10.1186V7.76562H9.3672V10.1186C9.3672 11.5724 10.5457 12.7509 11.9996 12.7509C13.4534 12.7509 14.6319 11.5724 14.6319 10.1186V7.76562H13.1319V10.1186C13.1319 10.7439 12.6249 11.2509 11.9996 11.2509C11.3742 11.2509 10.8672 10.7439 10.8672 10.1186Z" />
  </mask>
  <path fill-rule="evenodd" clip-rule="evenodd"
    d="M5.15302 4C4.54447 4 4.07701 4.53899 4.16307 5.14142L6.04042 18.2828C6.18117 19.2681 7.02502 20 8.02032 20H15.9797C16.975 20 17.8188 19.2681 17.9596 18.2828L19.837 5.14142C19.923 4.53899 19.4556 4 18.847 4H5.15302ZM10.8672 10.1186V7.76562H9.3672V10.1186C9.3672 11.5724 10.5457 12.7509 11.9996 12.7509C13.4534 12.7509 14.6319 11.5724 14.6319 10.1186V7.76562H13.1319V10.1186C13.1319 10.7439 12.6249 11.2509 11.9996 11.2509C11.3742 11.2509 10.8672 10.7439 10.8672 10.1186Z"
    fill="currentColor" />
  <path
    d="M4.16307 5.14142L6.14297 4.85858L4.16307 5.14142ZM6.04042 18.2828L8.02032 18L6.04042 18.2828ZM17.9596 18.2828L15.9797 18L17.9596 18.2828ZM19.837 5.14142L21.8168 5.42426V5.42426L19.837 5.14142ZM10.8672 7.76562H12.8672V5.76562H10.8672V7.76562ZM9.3672 7.76562V5.76562H7.3672V7.76562H9.3672ZM14.6319 7.76562H16.6319V5.76562H14.6319V7.76562ZM13.1319 7.76562V5.76562H11.1319V7.76562H13.1319ZM6.14297 4.85858C6.22903 5.46101 5.76157 6 5.15302 6V2C3.32737 2 1.92499 3.61696 2.18317 5.42426L6.14297 4.85858ZM8.02032 18L6.14297 4.85858L2.18317 5.42426L4.06052 18.5657L8.02032 18ZM8.02032 18H8.02032L4.06052 18.5657C4.34203 20.5363 6.02972 22 8.02032 22V18ZM15.9797 18H8.02032V22H15.9797V18ZM15.9797 18L15.9797 18V22C17.9703 22 19.658 20.5363 19.9395 18.5657L15.9797 18ZM17.8571 4.85858L15.9797 18L19.9395 18.5657L21.8168 5.42426L17.8571 4.85858ZM18.847 6C18.2385 6 17.771 5.46101 17.8571 4.85858L21.8168 5.42426C22.075 3.61697 20.6727 2 18.847 2V6ZM5.15302 6H18.847V2H5.15302V6ZM8.8672 7.76562V10.1186H12.8672V7.76562H8.8672ZM9.3672 9.76562H10.8672V5.76562H9.3672V9.76562ZM11.3672 10.1186V7.76562H7.3672V10.1186H11.3672ZM11.9996 10.7509C11.6503 10.7509 11.3672 10.4678 11.3672 10.1186H7.3672C7.3672 12.6769 9.44117 14.7509 11.9996 14.7509V10.7509ZM12.6319 10.1186C12.6319 10.4678 12.3488 10.7509 11.9996 10.7509V14.7509C14.5579 14.7509 16.6319 12.6769 16.6319 10.1186H12.6319ZM12.6319 7.76562V10.1186H16.6319V7.76562H12.6319ZM13.1319 9.76562H14.6319V5.76562H13.1319V9.76562ZM15.1319 10.1186V7.76562H11.1319V10.1186H15.1319ZM11.9996 13.2509C13.7295 13.2509 15.1319 11.8485 15.1319 10.1186H11.1319C11.1319 9.63938 11.5204 9.25092 11.9996 9.25092V13.2509ZM8.8672 10.1186C8.8672 11.8485 10.2696 13.2509 11.9996 13.2509V9.25092C12.4787 9.25092 12.8672 9.63938 12.8672 10.1186H8.8672Z"
    fill="currentColor" mask="url(#path-1-inside-1_2078_80187)" />
</svg>