<svg width="24" height="24" viewBox="0 0 24 24" fill="none" xmlns="http://www.w3.org/2000/svg">
<path d="M18.3688 3.0849C14.8622 1.81907 9.17836 1.81907 5.67297 3.0849C3.79729 3.7645 2.92693 4.66719 3.05811 5.55881L4.96533 19.566C5.04732 20.1784 5.73477 20.7828 7.02643 21.2512C9.78508 22.2496 14.258 22.2496 17.0179 21.2512C18.3095 20.7828 18.997 20.1784 19.0777 19.566L20.9862 5.55723C21.1148 4.66957 20.2445 3.7645 18.3688 3.0849Z" fill="url(#paint0_linear_5485_157067)"/>
<path d="M12.0201 8.63483C16.9781 8.63483 20.9974 7.17939 20.9974 5.38402C20.9974 3.58864 16.9781 2.1332 12.0201 2.1332C7.06205 2.1332 3.04279 3.58864 3.04279 5.38402C3.04279 7.17939 7.06205 8.63483 12.0201 8.63483Z" fill="#FAFAFA"/>
<path d="M12.0202 8.66169C9.7131 8.66169 7.40602 8.34523 5.64891 7.70757C3.93847 7.0881 3 6.26294 3 5.38318C3 4.50343 3.94226 3.67906 5.64891 3.05959C9.16313 1.78743 14.8785 1.78743 18.3889 3.05959C20.1006 3.67906 21.0378 4.50422 21.0378 5.38318C21.0378 6.26215 20.0968 7.0881 18.3889 7.70757C16.6356 8.34365 14.3323 8.66169 12.0202 8.66169ZM12.0202 2.16401C9.73076 2.16401 7.44008 2.48047 5.69684 3.11339C4.01668 3.72178 3.09082 4.52875 3.09082 5.38556C3.09082 6.24237 4.01668 7.04696 5.69684 7.65852C9.18331 8.92435 14.857 8.92435 18.3448 7.65852C20.0249 7.05013 20.9495 6.24316 20.9495 5.38556C20.9495 4.52796 20.0249 3.72415 18.3448 3.11339C16.6028 2.47968 14.3108 2.16401 12.0202 2.16401Z" fill="#D3E9F7"/>
<path d="M12.0202 8.34209C16.7267 8.34209 20.5421 7.0177 20.5421 5.384C20.5421 3.75029 16.7267 2.4259 12.0202 2.4259C7.31369 2.4259 3.49829 3.75029 3.49829 5.384C3.49829 7.0177 7.31369 8.34209 12.0202 8.34209Z" fill="url(#paint1_linear_5485_157067)"/>
<defs>
<linearGradient id="paint0_linear_5485_157067" x1="12.0219" y1="-4.99997" x2="12.0219" y2="22" gradientUnits="userSpaceOnUse">
<stop stop-color="#EDF7FB"/>
<stop offset="1" stop-color="#CADBE4"/>
</linearGradient>
<linearGradient id="paint1_linear_5485_157067" x1="12.0202" y1="2.4259" x2="12.0202" y2="8.34209" gradientUnits="userSpaceOnUse">
<stop stop-color="#DBEAF3"/>
<stop offset="1" stop-color="#C3CFD6"/>
</linearGradient>
</defs>
</svg>
