<svg width="20" height="20" viewBox="0 0 20 20" fill="none" xmlns="http://www.w3.org/2000/svg">
  <path fill-rule="evenodd" clip-rule="evenodd"
    d="M6.66669 4.16667C6.66669 3.24619 7.41288 2.5 8.33335 2.5H14.5834C15.5038 2.5 16.25 3.24619 16.25 4.16667V12.0833C16.25 13.0038 15.5038 13.75 14.5834 13.75H8.33335C7.41288 13.75 6.66669 13.0038 6.66669 12.0833V4.16667ZM14.5834 4.16667L8.33335 4.16667V12.0833H14.5834V4.16667Z"
    fill="currentColor" />
  <path fill-rule="evenodd" clip-rule="evenodd"
    d="M4.16665 7.08301C4.62688 7.08301 4.99998 7.4561 4.99998 7.91634V14.583C4.99998 15.0432 5.37308 15.4163 5.83331 15.4163H12.0833C12.5436 15.4163 12.9166 15.7894 12.9166 16.2497C12.9166 16.7099 12.5436 17.083 12.0833 17.083H5.83331C4.4526 17.083 3.33331 15.9637 3.33331 14.583V7.91634C3.33331 7.4561 3.70641 7.08301 4.16665 7.08301Z"
    fill="currentColor" />
</svg>