<svg width="20" height="20" viewBox="0 0 20 20" fill="none" xmlns="http://www.w3.org/2000/svg">
<g id="icon_regular_Deposit">
<path id="Ellipse 265 (Stroke)" fill-rule="evenodd" clip-rule="evenodd" d="M5.73177 4.81161C6.06593 5.12808 6.08028 5.65552 5.76381 5.98969C4.77308 7.03581 4.16667 8.44619 4.16667 10C4.16667 13.2217 6.77834 15.8333 10 15.8333C13.2217 15.8333 15.8333 13.2217 15.8333 10C15.8333 8.44619 15.2269 7.03581 14.2362 5.98969C13.9197 5.65552 13.9341 5.12808 14.2682 4.81161C14.6024 4.49514 15.1298 4.50949 15.4463 4.84365C16.7185 6.18697 17.5 8.00312 17.5 10C17.5 14.1421 14.1421 17.5 10 17.5C5.85786 17.5 2.5 14.1421 2.5 10C2.5 8.00312 3.28151 6.18697 4.55369 4.84365C4.87016 4.50949 5.3976 4.49514 5.73177 4.81161Z" fill="#00BA34"/>
<path id="Vector 236 (Stroke)" fill-rule="evenodd" clip-rule="evenodd" d="M13.5059 8.57741C13.8314 8.90285 13.8314 9.43049 13.5059 9.75592L10.5893 12.6726C10.2638 12.998 9.73618 12.998 9.41074 12.6726L6.49408 9.75592C6.16864 9.43049 6.16864 8.90285 6.49408 8.57741C6.81951 8.25197 7.34715 8.25197 7.67259 8.57741L9.16667 10.2083L9.16667 3.33333C9.16667 2.8731 9.53976 2.5 10 2.5C10.4602 2.5 10.8333 2.8731 10.8333 3.33333L10.8333 10.2083L12.3274 8.57741C12.6528 8.25197 13.1805 8.25197 13.5059 8.57741Z" fill="#00BA34"/>
</g>
</svg>
