<svg width="120" height="120" viewBox="0 0 120 120" fill="none" xmlns="http://www.w3.org/2000/svg">
<path d="M17.8723 97.7814C17.8723 99.0034 16.8816 99.9941 15.6595 99.9941C14.4375 99.9941 13.4468 99.0034 13.4468 97.7814C13.4468 96.5593 14.4375 95.5686 15.6595 95.5686C16.8816 95.5686 17.8723 96.5593 17.8723 97.7814Z" fill="#EBEEF0"/>
<path d="M11.0638 89.9516C11.0638 90.7976 10.378 91.4835 9.53191 91.4835C8.68586 91.4835 8 90.7976 8 89.9516C8 89.1055 8.68586 88.4197 9.53191 88.4197C10.378 88.4197 11.0638 89.1055 11.0638 89.9516Z" fill="#F9F9F9"/>
<path d="M104.851 95.6537C104.851 96.6408 104.051 97.4409 103.064 97.4409C102.077 97.4409 101.276 96.6408 101.276 95.6537C101.276 94.6666 102.077 93.8665 103.064 93.8665C104.051 93.8665 104.851 94.6666 104.851 95.6537Z" fill="#F6F7F7"/>
<path d="M112 101.101C112 102.37 110.971 103.398 109.702 103.398C108.433 103.398 107.404 102.37 107.404 101.101C107.404 99.8315 108.433 98.8027 109.702 98.8027C110.971 98.8027 112 99.8315 112 101.101Z" fill="#F3F3F5"/>
<path d="M101.957 106.207C101.957 107.758 100.7 109.015 99.1488 109.015C97.5977 109.015 96.3403 107.758 96.3403 106.207C96.3403 104.656 97.5977 103.398 99.1488 103.398C100.7 103.398 101.957 104.656 101.957 106.207Z" fill="#E4E5E6"/>
<path d="M104.234 113.787C104.234 116.983 83.8106 119.574 58.617 119.574C33.4234 119.574 13 116.983 13 113.787C13 110.591 33.4234 108 58.617 108C83.8106 108 104.234 110.591 104.234 113.787Z" fill="url(#paint0_linear_4774_123502)"/>
<path d="M39.726 72.5542L39.224 75.6253L38.6858 78.9225L33.7829 109H25.7593L30.6666 78.9225L31.2049 75.6253L31.7024 72.5542H39.726Z" fill="url(#paint1_linear_4774_123502)"/>
<path d="M38.5634 72.5542C38.1383 75.6026 37.686 78.642 37.2065 81.686L35.7954 90.7996L34.3119 99.9088L33.5475 104.432L32.7515 108.977L33.4028 104.409L34.0857 99.85L35.5014 90.7318L37.003 81.6317C37.5096 78.6149 38.0207 75.5845 38.5634 72.5542Z" fill="#C7C7C7"/>
<path d="M39.2253 75.6257L38.6871 78.9229H30.668L31.2062 75.6257H39.2253Z" fill="#C7C7C7"/>
<path d="M79.3311 72.5542L79.8286 75.6253L80.3668 78.9225L85.2696 109H93.2933L88.3859 78.9225L87.8522 75.6253L87.3502 72.5542H79.3311Z" fill="url(#paint2_linear_4774_123502)"/>
<path d="M80.5151 72.5542C80.9358 75.6026 81.3926 78.642 81.872 81.686L83.2832 90.7996L84.7667 99.9088L85.5311 104.432L86.3271 108.977L85.6758 104.409L84.9928 99.85L83.5772 90.7318L82.0755 81.6317C81.569 78.6149 81.0579 75.5845 80.5151 72.5542Z" fill="#C7C7C7"/>
<path d="M79.8262 75.6257H87.8498L88.3835 78.9229H80.3644L79.8262 75.6257Z" fill="#C7C7C7"/>
<path d="M39.4334 64.0973H33.0742L33.8657 58.1677H38.6419L39.4334 64.0973Z" fill="#C7C7C7"/>
<path d="M42.1848 53.9295C42.1848 55.1023 41.837 56.2487 41.1855 57.2238C40.5339 58.1989 39.6078 58.9589 38.5244 59.4077C37.4409 59.8565 36.2486 59.9739 35.0984 59.7451C33.9482 59.5163 32.8917 58.9516 32.0624 58.1223C31.2331 57.2931 30.6684 56.2365 30.4396 55.0863C30.2108 53.9361 30.3283 52.7439 30.777 51.6604C31.2258 50.5769 31.9858 49.6508 32.9609 48.9993C33.9361 48.3478 35.0825 48 36.2552 48C37.0341 47.9994 37.8054 48.1524 38.5251 48.4501C39.2447 48.7479 39.8986 49.1847 40.4494 49.7354C41.0001 50.2861 41.4368 50.94 41.7346 51.6597C42.0324 52.3794 42.1853 53.1507 42.1848 53.9295Z" fill="url(#paint3_linear_4774_123502)"/>
<path d="M40.7587 53.9294C40.7587 54.824 40.4934 55.6984 39.9965 56.4422C39.4995 57.186 38.7931 57.7657 37.9666 58.108C37.1402 58.4504 36.2308 58.5399 35.3534 58.3654C34.4761 58.1909 33.6702 57.7601 33.0376 57.1276C32.4051 56.495 31.9743 55.6891 31.7998 54.8118C31.6253 53.9344 31.7149 53.025 32.0572 52.1986C32.3995 51.3721 32.9792 50.6657 33.723 50.1687C34.4668 49.6718 35.3413 49.4065 36.2358 49.4065C37.4354 49.4065 38.5858 49.883 39.434 50.7312C40.2822 51.5794 40.7587 52.7299 40.7587 53.9294Z" fill="white"/>
<path d="M40.0215 53.6666C39.9796 53.1291 39.827 52.6062 39.5733 52.1306C39.3195 51.655 38.9701 51.2371 38.547 50.9031C38.1223 50.5718 37.6346 50.3304 37.1137 50.1935C36.5927 50.0567 36.0494 50.0272 35.5167 50.107C34.9878 50.1914 34.4827 50.386 34.0339 50.6782C33.585 50.9704 33.2027 51.3536 32.9115 51.8031C32.6063 52.2796 32.406 52.8157 32.3242 53.3757C32.2423 53.9356 32.2806 54.5066 32.4366 55.0506C32.7075 55.996 33.3395 56.797 34.196 57.2804C35.0331 57.7537 36.0142 57.9049 36.955 57.7055C37.8667 57.5112 38.6842 57.0099 39.2707 56.2853C39.8503 55.5732 40.1836 54.6925 40.2205 53.7751C40.2205 53.7344 40.2205 53.6982 40.1888 53.6937C40.1572 53.6892 40.1481 53.7299 40.1436 53.7751C40.1249 54.1452 40.0533 54.5108 39.931 54.8606C39.8073 55.206 39.6401 55.5343 39.4335 55.8375C39.2219 56.1366 38.9743 56.4085 38.6963 56.6472C38.4087 56.8848 38.0946 57.0882 37.76 57.2532C37.2815 57.4815 36.7601 57.606 36.23 57.6185C35.6999 57.631 35.1732 57.5311 34.6845 57.3256C34.1918 57.1181 33.7501 56.806 33.39 56.4108C33.03 56.0156 32.7602 55.5468 32.5994 55.037C32.433 54.5121 32.3821 53.9574 32.45 53.411C32.5179 52.8645 32.7031 52.3392 32.9929 51.871C33.271 51.4267 33.6416 51.0477 34.0795 50.7597C34.5174 50.4717 35.0122 50.2814 35.5302 50.202C36.2287 50.089 36.9446 50.1678 37.6018 50.4298C38.259 50.6919 38.8326 51.1275 39.2616 51.69C39.4719 51.9771 39.6409 52.2923 39.7637 52.6263C39.8847 52.9638 39.9652 53.3145 40.0034 53.6711C40.0034 53.6711 40.0215 53.6801 40.0215 53.6666Z" fill="url(#paint4_linear_4774_123502)"/>
<path d="M39.4923 53.6708C39.4525 53.2109 39.3187 52.7641 39.0994 52.358C38.88 51.9519 38.5796 51.5952 38.2168 51.3098C37.8521 51.029 37.4351 50.8236 36.9901 50.7056C36.5452 50.5875 36.0812 50.5592 35.6252 50.6223C35.1681 50.689 34.7303 50.8516 34.3406 51.0995C33.9508 51.3474 33.6179 51.6749 33.3637 52.0606C33.0921 52.4702 32.9113 52.9331 32.8332 53.4183C32.7552 53.9035 32.7819 54.3998 32.9114 54.8739C33.0252 55.2835 33.2188 55.6667 33.4812 56.0012C33.7435 56.3358 34.0695 56.6151 34.4402 56.8232C35.1702 57.2364 36.0271 57.3653 36.8464 57.1851C37.6363 57.0105 38.3431 56.5718 38.85 55.9413C39.3473 55.3212 39.6354 54.5597 39.6732 53.7658C39.6732 53.7296 39.6732 53.6979 39.637 53.6934C39.6008 53.6889 39.5963 53.7251 39.5918 53.7612C39.5489 54.4002 39.3354 55.0159 38.9734 55.5442C38.6114 56.0724 38.1143 56.4939 37.5339 56.7644C37.1215 56.9654 36.671 57.0762 36.2124 57.0895C35.7538 57.1028 35.2977 57.0182 34.8744 56.8413C34.4457 56.6632 34.0614 56.3931 33.7488 56.0499C33.4362 55.7068 33.2028 55.2991 33.0652 54.8558C32.9279 54.4039 32.8892 53.9278 32.9516 53.4596C33.014 52.9915 33.1762 52.5422 33.4271 52.142C33.6694 51.765 33.9899 51.4443 34.3667 51.2017C34.7436 50.959 35.1681 50.8 35.6116 50.7354C36.2038 50.6477 36.8086 50.7182 37.3646 50.9399C37.9207 51.1615 38.4082 51.5263 38.7777 51.9973C38.9608 52.2429 39.1127 52.5103 39.23 52.7933C39.3332 53.0863 39.4045 53.3896 39.4425 53.6979C39.4425 53.6979 39.4968 53.6798 39.4923 53.6708Z" fill="url(#paint5_linear_4774_123502)"/>
<path d="M38.9605 53.6763C38.9224 53.2943 38.807 52.924 38.6211 52.5881C38.4353 52.2521 38.183 51.9576 37.8795 51.7224C37.269 51.2545 36.4991 51.045 35.7357 51.1389C35.3531 51.1908 34.9858 51.3227 34.6577 51.5261C34.3296 51.7295 34.0481 51.9998 33.8315 52.3194C33.599 52.6654 33.4429 53.0568 33.3735 53.4678C33.3041 53.8788 33.323 54.2999 33.429 54.703C33.5215 55.0538 33.6843 55.3822 33.9074 55.6683C34.1305 55.9544 34.4094 56.1922 34.7271 56.3674C35.351 56.7177 36.0826 56.824 36.7805 56.6659C37.449 56.5122 38.0455 56.1358 38.472 55.5985C38.8874 55.0712 39.1292 54.4281 39.164 53.7577C39.1669 53.7445 39.1649 53.7307 39.1582 53.719C39.1515 53.7073 39.1407 53.6986 39.1279 53.6944C39.1279 53.6944 39.0871 53.7215 39.0871 53.7532C39.0442 54.2897 38.8612 54.8056 38.5564 55.2493C38.2517 55.693 37.8358 56.0489 37.3503 56.2815C37.0015 56.457 36.6188 56.5551 36.2285 56.5691C35.8382 56.5832 35.4495 56.5128 35.0889 56.3629C34.7268 56.2113 34.4027 55.9814 34.14 55.6897C33.8772 55.398 33.6823 55.0518 33.5692 54.6758C33.4585 54.2975 33.4303 53.8999 33.4865 53.5098C33.5427 53.1196 33.6819 52.7461 33.8948 52.4144C34.1002 52.102 34.3705 51.8376 34.6875 51.6393C35.0044 51.441 35.3604 51.3135 35.7312 51.2656C36.2219 51.2088 36.7191 51.2677 37.183 51.4374C37.6472 51.616 38.0548 51.9159 38.3635 52.3058C38.513 52.5087 38.6376 52.7289 38.7344 52.9617C38.8262 53.2023 38.89 53.4527 38.9243 53.7079C38.9243 53.7079 38.965 53.6853 38.9605 53.6763Z" fill="url(#paint6_linear_4774_123502)"/>
<path d="M38.4392 53.6817C38.3979 53.3763 38.2967 53.0821 38.1415 52.8159C37.9862 52.5497 37.78 52.3167 37.5346 52.1303C37.0434 51.7704 36.4345 51.6088 35.8295 51.678C35.5212 51.7113 35.2234 51.8091 34.9554 51.9649C34.6873 52.1207 34.4551 52.3312 34.2736 52.5826C34.0784 52.8624 33.9451 53.1806 33.8827 53.516C33.8203 53.8514 33.8302 54.1962 33.9118 54.5275C33.9846 54.8187 34.1165 55.0919 34.2994 55.33C34.4822 55.5681 34.7121 55.766 34.9747 55.9115C35.4912 56.2027 36.0991 56.2867 36.6753 56.1467C37.2255 56.0129 37.7127 55.6934 38.0548 55.2421C38.3943 54.8101 38.5932 54.2845 38.6247 53.736C38.626 53.7246 38.623 53.7132 38.6163 53.704C38.6096 53.6947 38.5997 53.6884 38.5885 53.6862C38.5885 53.6862 38.5478 53.6862 38.5432 53.736C38.5025 54.1689 38.3519 54.5844 38.1058 54.9429C37.8596 55.3014 37.526 55.5912 37.1366 55.7848C36.8555 55.9302 36.5463 56.0131 36.2301 56.0279C35.914 56.0428 35.5984 55.9892 35.3048 55.8708C35.008 55.7481 34.7428 55.5599 34.5289 55.3202C34.3151 55.0805 34.1582 54.7956 34.0701 54.4868C33.9811 54.1766 33.9609 53.8508 34.0109 53.5321C34.0609 53.2134 34.1799 52.9094 34.3595 52.6414C34.5268 52.3924 34.746 52.1826 35.0021 52.0264C35.2582 51.8703 35.5451 51.7715 35.8431 51.7368C36.2305 51.7012 36.621 51.7506 36.9874 51.8816C37.3541 52.0208 37.6783 52.253 37.9281 52.5555C38.0512 52.7142 38.1545 52.8873 38.2357 53.0711C38.309 53.2632 38.365 53.4615 38.403 53.6636C38.403 53.6636 38.4392 53.6862 38.4392 53.6817Z" fill="url(#paint7_linear_4774_123502)"/>
<path d="M85.8436 64.0973H79.4844L80.2759 58.1677H85.0521L85.8436 64.0973Z" fill="#C7C7C7"/>
<path d="M88.5925 53.9295C88.5925 55.1023 88.2447 56.2487 87.5932 57.2238C86.9416 58.1989 86.0156 58.9589 84.9321 59.4077C83.8486 59.8565 82.6564 59.9739 81.5061 59.7451C80.3559 59.5163 79.2994 58.9516 78.4701 58.1223C77.6409 57.2931 77.0761 56.2365 76.8473 55.0863C76.6185 53.9361 76.736 52.7439 77.1848 51.6604C77.6336 50.5769 78.3936 49.6508 79.3687 48.9993C80.3438 48.3478 81.4902 48 82.6629 48C83.4418 47.9994 84.2131 48.1524 84.9328 48.4501C85.6525 48.7479 86.3064 49.1847 86.8571 49.7354C87.4078 50.2861 87.8445 50.94 88.1423 51.6597C88.4401 52.3794 88.5931 53.1507 88.5925 53.9295Z" fill="url(#paint8_linear_4774_123502)"/>
<path d="M87.1689 53.9294C87.1689 54.824 86.9036 55.6984 86.4066 56.4422C85.9096 57.186 85.2032 57.7657 84.3768 58.108C83.5503 58.4504 82.6409 58.5399 81.7636 58.3654C80.8862 58.1909 80.0803 57.7601 79.4478 57.1276C78.8152 56.495 78.3845 55.6891 78.21 54.8118C78.0354 53.9344 78.125 53.025 78.4673 52.1986C78.8097 51.3721 79.3894 50.6657 80.1332 50.1687C80.877 49.6718 81.7514 49.4065 82.646 49.4065C83.8455 49.4065 84.9959 49.883 85.8441 50.7312C86.6924 51.5794 87.1689 52.7299 87.1689 53.9294Z" fill="white"/>
<path d="M86.4292 53.6666C86.3873 53.1291 86.2347 52.6062 85.981 52.1306C85.7272 51.655 85.3778 51.2371 84.9547 50.9031C84.53 50.5718 84.0424 50.3304 83.5214 50.1935C83.0004 50.0567 82.4571 50.0272 81.9244 50.107C81.3956 50.1914 80.8904 50.386 80.4416 50.6782C79.9928 50.9704 79.6104 51.3536 79.3192 51.8031C79.014 52.2796 78.8138 52.8157 78.7319 53.3757C78.65 53.9356 78.6883 54.5066 78.8443 55.0506C79.1152 55.996 79.7472 56.797 80.6037 57.2804C81.4408 57.7537 82.4219 57.9049 83.3627 57.7055C84.2744 57.5112 85.0919 57.0099 85.6784 56.2853C86.258 55.5732 86.5913 54.6925 86.6282 53.7751C86.6282 53.7344 86.6282 53.6982 86.5966 53.6937C86.5649 53.6892 86.5559 53.7299 86.5513 53.7751C86.5326 54.1452 86.461 54.5108 86.3388 54.8606C86.2169 55.2068 86.0496 55.5354 85.8412 55.8375C85.6296 56.1366 85.382 56.4085 85.104 56.6472C84.8165 56.8848 84.5023 57.0882 84.1678 57.2532C83.6892 57.4815 83.1678 57.606 82.6377 57.6185C82.1076 57.631 81.5809 57.5311 81.0922 57.3256C80.597 57.1197 80.1526 56.8083 79.7901 56.413C79.4277 56.0178 79.1558 55.5482 78.9936 55.037C78.8272 54.5121 78.7762 53.9574 78.8441 53.411C78.9121 52.8645 79.0972 52.3392 79.387 51.871C79.6651 51.4267 80.0358 51.0477 80.4736 50.7597C80.9115 50.4717 81.4064 50.2814 81.9244 50.202C82.6228 50.089 83.3388 50.1678 83.9959 50.4298C84.6531 50.6919 85.2268 51.1275 85.6558 51.69C85.8661 51.9771 86.0351 52.2923 86.1578 52.6263C86.2789 52.9638 86.3593 53.3145 86.3976 53.6711C86.3976 53.6711 86.4292 53.6801 86.4292 53.6666Z" fill="url(#paint9_linear_4774_123502)"/>
<path d="M85.9 53.6708C85.8602 53.2109 85.7264 52.7641 85.5071 52.358C85.2877 51.9519 84.9873 51.5952 84.6245 51.3098C84.2598 51.029 83.8428 50.8236 83.3978 50.7056C82.9529 50.5875 82.4889 50.5592 82.0329 50.6223C81.5758 50.689 81.138 50.8516 80.7483 51.0995C80.3585 51.3474 80.0256 51.6749 79.7714 52.0606C79.4998 52.4702 79.319 52.9331 79.241 53.4183C79.163 53.9035 79.1896 54.3998 79.3192 54.8739C79.4329 55.2835 79.6265 55.6667 79.8889 56.0012C80.1512 56.3358 80.4772 56.6151 80.8479 56.8232C81.5779 57.2364 82.4349 57.3653 83.2541 57.1851C84.044 57.0105 84.7508 56.5718 85.2577 55.9413C85.755 55.3212 86.0432 54.5597 86.0809 53.7658C86.0809 53.7296 86.0809 53.6979 86.0447 53.6934C86.0085 53.6889 86.004 53.7251 85.9995 53.7612C85.9576 54.3958 85.7474 55.0077 85.3905 55.5339C85.0335 56.0602 84.5428 56.4818 83.9687 56.7554C83.5563 56.9564 83.1058 57.0672 82.6473 57.0805C82.1887 57.0937 81.7326 57.0091 81.3092 56.8323C80.8806 56.6542 80.4963 56.384 80.1836 56.0409C79.871 55.6978 79.6376 55.2901 79.5001 54.8467C79.3628 54.3948 79.324 53.9187 79.3865 53.4506C79.4489 52.9824 79.611 52.5331 79.8619 52.133C80.1043 51.756 80.4247 51.4353 80.8016 51.1927C81.1784 50.95 81.6029 50.791 82.0465 50.7264C82.6386 50.6387 83.2434 50.7092 83.7995 50.9308C84.3555 51.1524 84.843 51.5173 85.2125 51.9882C85.3956 52.2338 85.5476 52.5012 85.6648 52.7843C85.7681 53.0773 85.8394 53.3806 85.8774 53.6889C85.8774 53.6889 85.9045 53.6798 85.9 53.6708Z" fill="url(#paint10_linear_4774_123502)"/>
<path d="M85.3707 53.6763C85.3326 53.2943 85.2171 52.924 85.0313 52.5881C84.8454 52.2521 84.5931 51.9576 84.2897 51.7224C83.6791 51.2545 82.9093 51.045 82.1458 51.1389C81.7633 51.1908 81.396 51.3227 81.0679 51.5261C80.7397 51.7295 80.4582 51.9998 80.2417 52.3194C80.0092 52.6654 79.8531 53.0568 79.7837 53.4678C79.7143 53.8788 79.7332 54.2999 79.8391 54.703C79.9317 55.0538 80.0944 55.3822 80.3176 55.6683C80.5407 55.9544 80.8195 56.1922 81.1372 56.3674C81.7611 56.7177 82.4928 56.824 83.1906 56.6659C83.8592 56.5122 84.4556 56.1358 84.8822 55.5985C85.2976 55.0712 85.5393 54.4281 85.5742 53.7577C85.5771 53.7445 85.575 53.7307 85.5683 53.719C85.5616 53.7073 85.5508 53.6986 85.538 53.6944C85.538 53.6944 85.4973 53.7215 85.4973 53.7532C85.4553 54.29 85.2726 54.8063 84.9677 55.2501C84.6629 55.6939 84.2465 56.0496 83.7605 56.2815C83.4116 56.457 83.029 56.5551 82.6387 56.5691C82.2484 56.5832 81.8597 56.5128 81.4991 56.3629C81.1369 56.2113 80.8129 55.9814 80.5501 55.6897C80.2874 55.398 80.0924 55.0518 79.9793 54.6758C79.8687 54.2975 79.8405 53.8999 79.8966 53.5098C79.9528 53.1196 80.0921 52.7461 80.305 52.4144C80.5103 52.102 80.7807 51.8376 81.0976 51.6393C81.4145 51.441 81.7705 51.3135 82.1413 51.2656C82.632 51.2088 83.1292 51.2677 83.5932 51.4374C84.0573 51.616 84.465 51.9159 84.7736 52.3058C84.9232 52.5087 85.0477 52.7289 85.1445 52.9617C85.2364 53.2023 85.3001 53.4527 85.3345 53.7079C85.3345 53.7079 85.3752 53.6853 85.3707 53.6763Z" fill="url(#paint11_linear_4774_123502)"/>
<path d="M84.8469 53.6817C84.8056 53.3763 84.7044 53.0821 84.5492 52.8159C84.394 52.5497 84.1877 52.3167 83.9424 52.1303C83.4511 51.7704 82.8423 51.6088 82.2372 51.678C81.929 51.7113 81.6311 51.8091 81.3631 51.9649C81.0951 52.1207 80.8628 52.3312 80.6813 52.5826C80.4861 52.8624 80.3528 53.1806 80.2904 53.516C80.228 53.8514 80.2379 54.1962 80.3195 54.5275C80.3923 54.8187 80.5242 55.0919 80.7071 55.33C80.8899 55.5681 81.1198 55.766 81.3824 55.9115C81.8989 56.2027 82.5068 56.2867 83.083 56.1467C83.634 56.0118 84.1223 55.6926 84.467 55.2421C84.8034 54.8087 85.0005 54.2836 85.0324 53.736C85.0337 53.7246 85.0307 53.7132 85.024 53.704C85.0173 53.6947 85.0074 53.6884 84.9962 53.6862C84.9736 53.6862 84.9555 53.6862 84.951 53.736C84.9102 54.1689 84.7596 54.5844 84.5135 54.9429C84.2673 55.3014 83.9338 55.5912 83.5443 55.7848C83.2632 55.9302 82.954 56.0131 82.6378 56.0279C82.3217 56.0428 82.0061 55.9892 81.7126 55.8708C81.4157 55.7481 81.1505 55.5599 80.9366 55.3202C80.7228 55.0805 80.566 54.7956 80.4778 54.4868C80.3888 54.1766 80.3686 53.8508 80.4186 53.5321C80.4686 53.2134 80.5876 52.9094 80.7673 52.6414C80.9345 52.3924 81.1537 52.1826 81.4098 52.0264C81.6659 51.8703 81.9528 51.7715 82.2508 51.7368C82.6382 51.7012 83.0287 51.7506 83.3951 51.8816C83.7618 52.0208 84.086 52.253 84.3358 52.5555C84.4589 52.7142 84.5622 52.8873 84.6434 53.0711C84.7167 53.2632 84.7727 53.4615 84.8107 53.6636C84.8107 53.6636 84.8469 53.6862 84.8469 53.6817Z" fill="url(#paint12_linear_4774_123502)"/>
<path d="M99.4874 61.0718H19.5586V76.3592H99.4874V61.0718Z" fill="url(#paint13_linear_4774_123502)"/>
<path d="M35.9889 61.0718L30.186 76.3637H19.8647L25.6631 61.0718H35.9889Z" fill="url(#paint14_linear_4774_123502)"/>
<path d="M57.1473 61.0718L51.3489 76.3637H41.0186L46.8214 61.0718H57.1473Z" fill="url(#paint15_linear_4774_123502)"/>
<path d="M78.3063 61.0718L72.5034 76.3637H62.1821L67.9805 61.0718H78.3063Z" fill="url(#paint16_linear_4774_123502)"/>
<path d="M99.4641 61.0718L93.6612 76.3637H83.3354L89.1383 61.0718H99.4641Z" fill="url(#paint17_linear_4774_123502)"/>
<path d="M97.8708 90.4978H21.1758V100.172H97.8708V90.4978Z" fill="url(#paint18_linear_4774_123502)"/>
<path d="M36.9381 90.4978L31.3749 100.172H21.4697L27.0374 90.4978H36.9381Z" fill="url(#paint19_linear_4774_123502)"/>
<path d="M57.2424 90.4978L51.6792 100.172H41.7695L47.3372 90.4978H57.2424Z" fill="url(#paint20_linear_4774_123502)"/>
<path d="M77.5471 90.4978L71.9794 100.172H62.0742L67.6419 90.4978H77.5471Z" fill="url(#paint21_linear_4774_123502)"/>
<path d="M97.8514 90.4978L92.2837 100.172H82.374L87.9417 90.4978H97.8514Z" fill="url(#paint22_linear_4774_123502)"/>
<path d="M52.0417 111.306H30.1069L30.3834 110.341L30.8304 108.8L32.748 102.153L34.4715 96.1707L35.6009 92.2296L37.3244 86.2474L38.2656 82.9651C38.4764 82.389 38.8592 81.8915 39.3621 81.54C39.865 81.1885 40.4637 81 41.0772 81C41.6908 81 42.2895 81.1885 42.7924 81.54C43.2953 81.8915 43.6781 82.389 43.8889 82.9651L44.2536 84.2357L44.8419 86.2415L46.5595 92.2237L47.6888 96.1648L49.4006 102.153L50.1182 104.659L52.0417 111.306Z" fill="url(#paint23_linear_4774_123502)"/>
<path d="M53.3282 115.749C53.0228 116.505 52.2891 117 51.4739 117H26.964C25.5464 117 24.5788 115.566 25.1094 114.251L28.0889 106.869C28.3941 106.113 29.128 105.618 29.9435 105.618H54.4573C55.8752 105.618 56.8429 107.053 56.3116 108.367L53.3282 115.749Z" fill="url(#paint24_linear_4774_123502)"/>
<path d="M46.5449 92.1992H35.5981L37.3216 86.217H44.8273L46.5449 92.1992Z" fill="#EBEBEB"/>
<path d="M49.4011 102.124H32.7485L34.472 96.1416H47.6835L49.4011 102.124Z" fill="#EBEBEB"/>
<path d="M29.7964 109.799C31.5707 110.595 33.4384 111.164 35.3551 111.493C37.2562 111.823 39.1847 111.969 41.1138 111.928C42.0726 111.864 43.0431 111.858 43.996 111.711C44.4784 111.646 44.9607 111.617 45.4372 111.528C45.9136 111.44 46.3842 111.352 46.8666 111.27C47.1018 111.223 47.343 111.187 47.5783 111.134L48.2842 110.958L49.7018 110.617C50.6429 110.364 51.5664 110.028 52.5252 109.799C51.637 110.217 50.7606 110.64 49.8312 110.976L48.4312 111.458L47.7253 111.687C47.4901 111.758 47.2489 111.811 47.0077 111.875L45.5666 112.223C45.0842 112.328 44.5901 112.381 44.096 112.464C43.1209 112.603 42.1392 112.694 41.1549 112.734C39.1656 112.771 37.1795 112.557 35.2433 112.099C33.3015 111.675 31.4548 110.895 29.7964 109.799Z" fill="#27292B"/>
<g style="mix-blend-mode:multiply" opacity="0.1">
<path d="M30.5552 110.16C31.4085 110.351 32.2417 110.623 33.0434 110.972C36.2903 112.442 42.5725 112.936 49.4371 110.878C50.181 110.709 50.9005 110.446 51.5782 110.095L51.3017 108.801C51.3017 108.801 37.055 104.684 37.8785 84.2136L37.2903 86.2195L35.5727 92.2017L34.4433 96.1427L32.7316 102.154L30.5552 110.16Z" fill="black"/>
</g>
<path d="M60.7889 71.3859H94.2206C94.7058 71.3852 95.1823 71.2577 95.603 71.0161C96.0237 70.7744 96.374 70.427 96.619 70.0082C96.864 69.5894 96.9953 69.1139 96.9999 68.6288C97.0044 68.1436 96.8821 67.6657 96.645 67.2424L79.926 37.4189C79.6839 36.9884 79.3316 36.6301 78.9052 36.3808C78.4789 36.1314 77.9939 36 77.5 36C77.0061 36 76.5211 36.1314 76.0948 36.3808C75.6684 36.6301 75.3161 36.9884 75.074 37.4189L58.355 67.2424C58.1175 67.6664 57.9952 68.1452 58.0001 68.6311C58.0051 69.1171 58.1373 69.5932 58.3834 70.0123C58.6295 70.4313 58.9811 70.7786 59.4031 71.0196C59.8251 71.2606 60.3029 71.3869 60.7889 71.3859Z" fill="#EEBE11"/>
<path d="M62.4462 69.6131H92.5562C93.7086 69.6131 94.4453 68.3064 93.8723 67.2453L78.8189 38.9899C78.6964 38.7453 78.5083 38.5396 78.2756 38.3958C78.0429 38.252 77.7747 38.1759 77.5012 38.1759C77.2277 38.1759 76.9595 38.252 76.7268 38.3958C76.4941 38.5396 76.306 38.7453 76.1835 38.9899L61.1301 67.2453C60.5634 68.3064 61.2938 69.6131 62.4462 69.6131Z" stroke="white" stroke-width="0.788267" stroke-miterlimit="10"/>
<path d="M76.9817 60.3883H77.8255C78.4741 60.3883 79.0188 59.7775 79.085 58.9714L79.9162 49.8405C80.0012 48.8959 79.4093 48.0647 78.6568 48.0647H76.0151C75.2437 48.0647 74.6486 48.9117 74.7556 49.8688L75.7223 58.9997C75.801 59.7932 76.3425 60.3883 76.9817 60.3883Z" fill="white"/>
<path d="M79.0497 63.6213C79.0497 63.96 78.9492 64.2912 78.761 64.5729C78.5728 64.8546 78.3053 65.0741 77.9923 65.2037C77.6793 65.3334 77.335 65.3673 77.0027 65.3012C76.6704 65.2351 76.3652 65.072 76.1257 64.8324C75.8862 64.5929 75.723 64.2877 75.6569 63.9554C75.5908 63.6232 75.6248 63.2788 75.7544 62.9658C75.884 62.6528 76.1036 62.3853 76.3853 62.1971C76.6669 62.0089 76.9981 61.9084 77.3369 61.9084C77.7911 61.9084 78.2268 62.0889 78.548 62.4101C78.8692 62.7313 79.0497 63.167 79.0497 63.6213Z" fill="white"/>
<defs>
<linearGradient id="paint0_linear_4774_123502" x1="13" y1="113.787" x2="104.234" y2="113.787" gradientUnits="userSpaceOnUse">
<stop stop-color="#F6F8FA"/>
<stop offset="0.460263" stop-color="#FAFBFC" stop-opacity="0.13"/>
<stop offset="1" stop-color="white" stop-opacity="0"/>
</linearGradient>
<linearGradient id="paint1_linear_4774_123502" x1="32.7426" y1="72.5542" x2="32.7426" y2="109" gradientUnits="userSpaceOnUse">
<stop stop-color="#ECEEF0"/>
<stop offset="1" stop-color="#D6D9DE"/>
</linearGradient>
<linearGradient id="paint2_linear_4774_123502" x1="86.3122" y1="72.5542" x2="86.3122" y2="109" gradientUnits="userSpaceOnUse">
<stop stop-color="#ECEEF0"/>
<stop offset="1" stop-color="#D6D9DE"/>
</linearGradient>
<linearGradient id="paint3_linear_4774_123502" x1="36.2552" y1="48" x2="36.2552" y2="59.8591" gradientUnits="userSpaceOnUse">
<stop stop-color="#E3E7F0"/>
<stop offset="1" stop-color="#A8AAB0"/>
</linearGradient>
<linearGradient id="paint4_linear_4774_123502" x1="36.2514" y1="50.0632" x2="36.2514" y2="57.7912" gradientUnits="userSpaceOnUse">
<stop stop-color="#ECEEF0"/>
<stop offset="1" stop-color="#D6D9DE"/>
</linearGradient>
<linearGradient id="paint5_linear_4774_123502" x1="36.2314" y1="50.5896" x2="36.2314" y2="57.2645" gradientUnits="userSpaceOnUse">
<stop stop-color="#ECEEF0"/>
<stop offset="1" stop-color="#D6D9DE"/>
</linearGradient>
<linearGradient id="paint6_linear_4774_123502" x1="36.2489" y1="51.1169" x2="36.2489" y2="56.7374" gradientUnits="userSpaceOnUse">
<stop stop-color="#ECEEF0"/>
<stop offset="1" stop-color="#D6D9DE"/>
</linearGradient>
<linearGradient id="paint7_linear_4774_123502" x1="36.2336" y1="51.6624" x2="36.2336" y2="56.2128" gradientUnits="userSpaceOnUse">
<stop stop-color="#ECEEF0"/>
<stop offset="1" stop-color="#D6D9DE"/>
</linearGradient>
<linearGradient id="paint8_linear_4774_123502" x1="82.6629" y1="48" x2="82.6629" y2="59.8591" gradientUnits="userSpaceOnUse">
<stop stop-color="#E3E7F0"/>
<stop offset="1" stop-color="#A8AAB0"/>
</linearGradient>
<linearGradient id="paint9_linear_4774_123502" x1="82.6591" y1="50.0632" x2="82.6591" y2="57.7912" gradientUnits="userSpaceOnUse">
<stop stop-color="#ECEEF0"/>
<stop offset="1" stop-color="#D6D9DE"/>
</linearGradient>
<linearGradient id="paint10_linear_4774_123502" x1="82.6391" y1="50.5896" x2="82.6391" y2="57.2645" gradientUnits="userSpaceOnUse">
<stop stop-color="#ECEEF0"/>
<stop offset="1" stop-color="#D6D9DE"/>
</linearGradient>
<linearGradient id="paint11_linear_4774_123502" x1="82.6591" y1="51.1169" x2="82.6591" y2="56.7374" gradientUnits="userSpaceOnUse">
<stop stop-color="#ECEEF0"/>
<stop offset="1" stop-color="#D6D9DE"/>
</linearGradient>
<linearGradient id="paint12_linear_4774_123502" x1="82.6413" y1="51.6624" x2="82.6413" y2="56.2128" gradientUnits="userSpaceOnUse">
<stop stop-color="#ECEEF0"/>
<stop offset="1" stop-color="#D6D9DE"/>
</linearGradient>
<linearGradient id="paint13_linear_4774_123502" x1="59.523" y1="61.0718" x2="59.523" y2="76.3592" gradientUnits="userSpaceOnUse">
<stop stop-color="#E3E7F0"/>
<stop offset="1" stop-color="#A8AAB0"/>
</linearGradient>
<linearGradient id="paint14_linear_4774_123502" x1="27.9268" y1="61.0718" x2="27.9268" y2="76.3637" gradientUnits="userSpaceOnUse">
<stop stop-color="#ECEEF0"/>
<stop offset="1" stop-color="#D6D9DE"/>
</linearGradient>
<linearGradient id="paint15_linear_4774_123502" x1="49.0829" y1="61.0718" x2="49.0829" y2="76.3637" gradientUnits="userSpaceOnUse">
<stop stop-color="#ECEEF0"/>
<stop offset="1" stop-color="#D6D9DE"/>
</linearGradient>
<linearGradient id="paint16_linear_4774_123502" x1="70.2442" y1="61.0718" x2="70.2442" y2="76.3637" gradientUnits="userSpaceOnUse">
<stop stop-color="#ECEEF0"/>
<stop offset="1" stop-color="#D6D9DE"/>
</linearGradient>
<linearGradient id="paint17_linear_4774_123502" x1="91.3998" y1="61.0718" x2="91.3998" y2="76.3637" gradientUnits="userSpaceOnUse">
<stop stop-color="#ECEEF0"/>
<stop offset="1" stop-color="#D6D9DE"/>
</linearGradient>
<linearGradient id="paint18_linear_4774_123502" x1="59.5233" y1="90.4978" x2="59.5233" y2="100.172" gradientUnits="userSpaceOnUse">
<stop stop-color="#E3E7F0"/>
<stop offset="1" stop-color="#A8AAB0"/>
</linearGradient>
<linearGradient id="paint19_linear_4774_123502" x1="29.2039" y1="90.4978" x2="29.2039" y2="100.172" gradientUnits="userSpaceOnUse">
<stop stop-color="#ECEEF0"/>
<stop offset="1" stop-color="#D6D9DE"/>
</linearGradient>
<linearGradient id="paint20_linear_4774_123502" x1="49.506" y1="90.4978" x2="49.506" y2="100.172" gradientUnits="userSpaceOnUse">
<stop stop-color="#ECEEF0"/>
<stop offset="1" stop-color="#D6D9DE"/>
</linearGradient>
<linearGradient id="paint21_linear_4774_123502" x1="69.8107" y1="90.4978" x2="69.8107" y2="100.172" gradientUnits="userSpaceOnUse">
<stop stop-color="#ECEEF0"/>
<stop offset="1" stop-color="#D6D9DE"/>
</linearGradient>
<linearGradient id="paint22_linear_4774_123502" x1="90.1127" y1="90.4978" x2="90.1127" y2="100.172" gradientUnits="userSpaceOnUse">
<stop stop-color="#ECEEF0"/>
<stop offset="1" stop-color="#D6D9DE"/>
</linearGradient>
<linearGradient id="paint23_linear_4774_123502" x1="41.0743" y1="81" x2="41.0743" y2="111.306" gradientUnits="userSpaceOnUse">
<stop stop-color="#A9AEB9"/>
<stop offset="1" stop-color="#6E7078"/>
</linearGradient>
<linearGradient id="paint24_linear_4774_123502" x1="40.7113" y1="105.618" x2="40.7113" y2="117" gradientUnits="userSpaceOnUse">
<stop stop-color="#A9AEB9"/>
<stop offset="1" stop-color="#6E7078"/>
</linearGradient>
</defs>
</svg>
