<svg width="120" height="120" viewBox="0 0 120 120" fill="none" xmlns="http://www.w3.org/2000/svg">
<g clip-path="url(#clip0_4774_123503)">
<path d="M86.0827 55.2697V75.1667H80.4599V55.2697C80.4599 47.7033 74.7129 41.5508 67.6434 41.5508C60.5738 41.5508 54.8269 47.7033 54.8269 55.2697V75.1667H49.2041V55.2697C49.2041 44.4334 57.4757 35.6284 67.6434 35.6284C77.8111 35.6284 86.0827 44.4334 86.0827 55.2697Z" fill="url(#paint0_linear_4774_123503)"/>
<path d="M86.0827 55.2697V75.1667H80.4599V55.2697C80.4599 47.7033 74.7129 41.5508 67.6434 41.5508C60.5738 41.5508 54.8269 47.7033 54.8269 55.2697V75.1667H49.2041V55.2697C49.2041 44.4334 57.4757 35.6284 67.6434 35.6284C77.8111 35.6284 86.0827 44.4334 86.0827 55.2697Z" fill="url(#paint1_radial_4774_123503)" fill-opacity="0.2"/>
<path d="M49.2041 60.4426L54.8269 60.6691V75.1663H49.2041V60.4426Z" fill="#A0A6B2"/>
<path d="M86.0822 61.9449V75.167H80.4595V61.7147L86.0822 61.9449Z" fill="#A0A6B2"/>
<path d="M89.2917 63.8359H46C43.7909 63.8359 42 65.6268 42 67.8359V106.371C42 108.58 43.7909 110.371 46 110.371H89.2917C91.5008 110.371 93.2917 108.58 93.2917 106.371V67.8359C93.2917 65.6268 91.5008 63.8359 89.2917 63.8359Z" fill="url(#paint2_linear_4774_123503)"/>
<path d="M69.813 88.8098L71.9576 98.9921H62.8457L64.994 88.8098C64.1539 88.2863 63.5072 87.5035 63.1516 86.5798C62.7961 85.6561 62.751 84.6417 63.0232 83.6901C63.2955 82.7384 63.8702 81.9014 64.6605 81.3055C65.4508 80.7095 66.4137 80.3872 67.4035 80.3872C68.3933 80.3872 69.3561 80.7095 70.1464 81.3055C70.9367 81.9014 71.5114 82.7384 71.7837 83.6901C72.0559 84.6417 72.0108 85.6561 71.6553 86.5798C71.2997 87.5035 70.653 88.2863 69.813 88.8098Z" fill="url(#paint3_linear_4774_123503)"/>
<path d="M17.8723 97.7814C17.8723 99.0034 16.8816 99.9941 15.6595 99.9941C14.4375 99.9941 13.4468 99.0034 13.4468 97.7814C13.4468 96.5593 14.4375 95.5686 15.6595 95.5686C16.8816 95.5686 17.8723 96.5593 17.8723 97.7814Z" fill="#EBEEF0"/>
<path d="M11.0638 89.9516C11.0638 90.7976 10.378 91.4835 9.53191 91.4835C8.68586 91.4835 8 90.7976 8 89.9516C8 89.1055 8.68586 88.4197 9.53191 88.4197C10.378 88.4197 11.0638 89.1055 11.0638 89.9516Z" fill="#F9F9F9"/>
<path d="M104.851 95.6537C104.851 96.6408 104.051 97.4409 103.064 97.4409C102.077 97.4409 101.276 96.6408 101.276 95.6537C101.276 94.6666 102.077 93.8665 103.064 93.8665C104.051 93.8665 104.851 94.6666 104.851 95.6537Z" fill="#F6F7F7"/>
<path d="M112 101.101C112 102.37 110.971 103.398 109.702 103.398C108.433 103.398 107.404 102.37 107.404 101.101C107.404 99.8315 108.433 98.8027 109.702 98.8027C110.971 98.8027 112 99.8315 112 101.101Z" fill="#F3F3F5"/>
<path d="M101.957 106.207C101.957 107.758 100.7 109.015 99.1488 109.015C97.5977 109.015 96.3403 107.758 96.3403 106.207C96.3403 104.656 97.5977 103.398 99.1488 103.398C100.7 103.398 101.957 104.656 101.957 106.207Z" fill="#E4E5E6"/>
<path d="M104.234 113.787C104.234 116.983 83.8106 119.574 58.617 119.574C33.4234 119.574 13 116.983 13 113.787C13 110.591 33.4234 108 58.617 108C83.8106 108 104.234 110.591 104.234 113.787Z" fill="url(#paint4_linear_4774_123503)"/>
<g filter="url(#filter0_d_4774_123503)">
<path d="M22 58.8966C22 57.2968 23.2968 56 24.8966 56H61.1034C62.7032 56 64 57.2968 64 58.8966V95.1034C64 96.7032 62.7032 98 61.1034 98H24.8966C23.2968 98 22 96.7032 22 95.1034V58.8966Z" fill="url(#paint5_radial_4774_123503)"/>
<path d="M28.3845 68.7116H27.7925V61.7935H34.7107V62.3854H28.3845V68.7116Z" fill="#BABEC7"/>
<path d="M58.2072 92.2072H51.2891V91.6153H57.6153V85.2891H58.2072V92.2072Z" fill="#BABEC7"/>
<path d="M34.7107 92.2072H27.7925V85.2891H28.3845V91.6153H34.7107V92.2072Z" fill="#BABEC7"/>
<path d="M58.2072 68.7116H57.6153V62.3854H51.2891V61.7935H58.2072V68.7116Z" fill="#BABEC7"/>
<path d="M46.2217 65.7254L46.4931 65.7747L46.2688 65.6018C46.2097 65.5558 46.1484 65.5099 46.0882 65.4661L46.074 65.4551H46.0565C44.6699 65.1783 42.9823 64.6934 41.0398 63.9963L41.0234 63.9897H41.0059C40.9413 63.9985 40.8767 64.0094 40.8133 64.0215L40.5703 64.0685L40.8133 64.1572C42.9298 64.9276 44.7498 65.4529 46.2217 65.7254Z" fill="#9197A6"/>
<path d="M47.2213 66.6075L47.4402 66.659L47.2782 66.4904C47.2366 66.4467 47.1939 66.4051 47.1502 66.3624L47.1348 66.3482H47.114C45.1792 65.8885 42.7299 65.2144 39.8375 64.3465L39.8112 64.3389L39.7882 64.3487L39.6624 64.4089L39.5059 64.4866L39.6832 64.5402C42.7059 65.4453 45.2415 66.1424 47.2213 66.6075Z" fill="#9197A6"/>
<path d="M48.1411 67.6612L48.36 67.7378L48.2188 67.5551C48.198 67.5277 48.1761 67.5014 48.1553 67.4752L48.1268 67.4402V67.4128L48.0787 67.3953C46.4054 66.8043 43.4604 65.8905 38.9285 64.8891L38.8979 64.8826L38.8738 64.9001C38.841 64.9242 38.8081 64.9471 38.7753 64.9734L38.6582 65.0653L38.8125 65.0993C43.4483 66.1225 46.447 67.0571 48.1411 67.6612Z" fill="#9197A6"/>
<path d="M48.989 68.8785L49.2079 68.9879L49.0755 68.78L48.9802 68.63L48.9682 68.6114L48.9485 68.6027C46.9337 67.5871 43.424 66.2344 38.1436 65.5515H38.1108L38.0889 65.5734L38.0035 65.6588L37.9072 65.7605L38.055 65.7791C43.4339 66.4631 46.9699 67.8421 48.989 68.8785Z" fill="#9197A6"/>
<path d="M47.5643 68.9428C48.3135 69.3115 49.0371 69.7301 49.7301 70.1959L49.949 70.3403L49.8341 70.1116C49.8111 70.0656 49.787 70.0219 49.764 69.977L49.7531 69.9573V69.9343L49.7214 69.9135C49.0609 69.4788 48.3742 69.0856 47.665 68.736C45.5857 67.705 42.1252 66.4487 37.4587 66.3119H37.4248L37.4051 66.3371L37.3329 66.4279L37.2388 66.5373H37.3931C42.0442 66.6654 45.4915 67.9141 47.5643 68.9428Z" fill="#9197A6"/>
<path d="M37.8543 68.4758L37.9243 68.4824V68.2482L37.8532 68.2416C37.2846 68.1966 36.7124 68.2488 36.1613 68.3959L36.1328 68.4036L36.1208 68.431C36.1033 68.4682 36.0869 68.5054 36.0704 68.5404L36.0103 68.6838L36.1613 68.64C36.7113 68.4848 37.2847 68.4292 37.8543 68.4758Z" fill="#9197A6"/>
<path d="M47.6436 69.7108C48.6011 70.2425 49.5107 70.8562 50.3621 71.545L50.5624 71.7113L50.465 71.4717C50.4409 71.4115 50.4146 71.3524 50.3884 71.2944L50.3807 71.2769L50.3654 71.2637C46.5412 68.2239 41.7051 66.7499 36.8355 67.1401H36.8026L36.7862 67.1663C36.7654 67.1981 36.7457 67.2309 36.726 67.2637L36.7851 67.3075L36.7238 67.2681L36.6494 67.3907L36.7972 67.3787C40.5642 67.0595 44.3407 67.8715 47.6436 69.7108Z" fill="#9197A6"/>
<path d="M40.3497 68.0235C42.8592 68.3004 46.6972 69.2864 50.7147 72.4109L50.9018 72.5565L50.8208 72.3376C50.8066 72.2982 50.7913 72.2588 50.776 72.2183L50.7628 72.1844V72.1603L50.7355 72.1395C46.7038 69.0457 42.8646 68.0662 40.353 67.7893C39.0593 67.6436 37.753 67.648 36.4603 67.8025H36.4275L36.2939 68.0596L36.4373 68.041C37.7362 67.8811 39.0495 67.8752 40.3497 68.0235Z" fill="#9197A6"/>
<path d="M35.7824 77.0994L35.5635 77.0074L35.5405 77.0709C35.21 78.1403 34.9882 79.2402 34.8784 80.3541V80.365V80.376C34.8992 80.4745 34.9222 80.573 34.9463 80.6715L35.0491 81.0983L35.0853 80.6726C35.1821 79.4814 35.4093 78.3045 35.7627 77.1628L35.7824 77.0994Z" fill="#9197A6"/>
<path d="M35.414 73.13V73.0589L35.1776 73.0447V73.1158C35.2181 74.5921 35.0495 76.3847 34.6304 78.9292V78.95C34.6435 79.0594 34.6588 79.1689 34.6752 79.2717L34.742 79.7172L34.8142 79.2794C35.2706 76.5719 35.4599 74.6742 35.414 73.13Z" fill="#9197A6"/>
<path d="M36.0578 76.3539L36.361 75.404L36.1345 75.3164L35.8335 76.2663L36.0578 76.3539Z" fill="#9197A6"/>
<path d="M35.4508 72.5113C35.5143 72.0593 35.7175 71.6384 36.032 71.3075L36.0834 71.2604L35.9127 71.0886L35.8645 71.1335C35.5116 71.4967 35.2845 71.9635 35.2166 72.4654L35.209 72.5332L35.4432 72.5825L35.4508 72.5113Z" fill="#9197A6"/>
<path d="M35.5435 74.4437L35.7798 74.4721V74.4021C35.8017 73.764 36.4365 72.8699 36.4682 72.8349L36.5076 72.7802L36.3139 72.6335L36.2734 72.6872C36.2471 72.7299 35.5686 73.6448 35.5456 74.3714L35.5435 74.4437Z" fill="#9197A6"/>
<path d="M36.922 73.3184L36.9723 73.2702L36.7928 73.0973L36.7458 73.1476C36.6615 73.2385 35.9107 74.079 35.5124 75.8004L35.4971 75.8672L35.728 75.9383L35.7433 75.8716C36.146 74.1304 36.9154 73.326 36.922 73.3184Z" fill="#9197A6"/>
<path d="M37.0583 74.21L36.8547 74.0743L36.3403 74.9115L36.545 75.0473L37.0583 74.21Z" fill="#9197A6"/>
<path d="M37.1866 71.3274L37.2511 71.3077L37.1636 71.0823L37.0979 71.1031C37.0476 71.1195 35.87 71.5047 35.5439 72.7217L35.5264 72.7884L35.754 72.8661L35.7715 72.8005C36.0692 71.6929 37.1406 71.3427 37.1866 71.3274Z" fill="#9197A6"/>
<path d="M37.5384 69.7897L37.6085 69.7799L37.5527 69.5479L37.4848 69.5577C36.3696 69.7197 35.7338 70.1213 35.3989 70.4332L35.3759 70.4562V70.4759L35.2402 70.9596L35.4482 70.7342C35.6999 70.4573 36.3116 69.9681 37.5384 69.7897Z" fill="#9197A6"/>
<path d="M40.6804 68.8986C43.1833 68.996 47.0137 69.8497 51.0541 73.3648L51.2435 73.529L51.1647 73.2959C51.1461 73.2423 51.1286 73.1865 51.1089 73.1361V73.1131L51.0837 73.0923C47.0235 69.6067 43.1767 68.7607 40.6651 68.6644C38.09 68.5649 36.2569 69.2007 35.7568 69.3977L35.7316 69.4075L35.7218 69.4327C35.7086 69.4655 35.6966 69.4995 35.6857 69.5323L35.6211 69.714L35.7754 69.6505C36.1158 69.5006 37.9762 68.7892 40.6804 68.8986Z" fill="#9197A6"/>
<path d="M40.9792 69.5272C38.1195 69.6367 36.1934 70.7945 36.1113 70.8405L36.0522 70.8755L36.1912 71.0769L36.2492 71.0419C36.328 70.9937 38.2126 69.861 41.012 69.757C43.4952 69.6629 47.3069 70.3776 51.3605 74.3152L51.5466 74.4957L51.4755 74.2517C51.4579 74.1926 51.4393 74.1335 51.4207 74.0755L51.4153 74.0558L51.3999 74.0416C47.3212 70.1412 43.482 69.4342 40.9792 69.5272Z" fill="#9197A6"/>
<path d="M46.274 71.1007C44.7006 70.4453 42.9858 70.2027 41.2923 70.3959C38.4579 70.7319 36.604 72.2356 36.5865 72.2509L36.5361 72.2936L36.6937 72.4785L36.7452 72.4359C38.0967 71.4491 39.6798 70.8272 41.3416 70.6301C43.7974 70.3379 47.5796 70.9103 51.6288 75.2845L51.816 75.4859L51.747 75.2265C51.7295 75.1631 51.7131 75.1007 51.6956 75.0383V75.0197L51.6825 75.0066C49.9533 73.1669 48.1334 71.8536 46.274 71.1007Z" fill="#9197A6"/>
<path d="M43.9974 71.1318C39.9481 70.764 37.1027 73.6248 37.0721 73.6488L37.0239 73.697L37.2012 73.8666L37.2483 73.8196C37.2756 73.7911 40.0576 71.0015 43.9963 71.3605C46.7147 71.6078 49.3664 73.2516 51.8759 76.2458L52.0663 76.4724L51.9973 76.1922C51.982 76.1287 51.9667 76.0674 51.9525 76.004V75.9843L51.9371 75.9657C49.408 73.0108 46.7333 71.3824 43.9974 71.1318Z" fill="#9197A6"/>
<path d="M37.2127 75.5411C39.165 72.7406 43.1016 70.9031 47.4999 73.1116C49.7861 74.2596 50.7426 75.6232 51.8501 77.2013C51.9551 77.3508 52.0624 77.5026 52.1718 77.6565L52.3513 77.9083L52.2977 77.6128C52.2846 77.5416 52.2725 77.4716 52.2594 77.4081V77.3873L52.2474 77.3709C52.1773 77.2724 52.1084 77.175 52.0405 77.0765C50.9111 75.47 49.936 74.0823 47.5929 72.9036C43.072 70.6317 39.025 72.5184 37.0189 75.3955C35.1869 78.0221 35.3172 81.048 35.559 82.6185V82.6338C35.6159 82.7838 35.6685 82.9337 35.7319 83.0803L35.8666 83.0519C35.3248 80.2809 35.8162 77.5449 37.2127 75.5411Z" fill="#9197A6"/>
<path d="M46.8018 83.0642C46.387 81.996 46.19 81.8833 46.0357 81.9205C45.6527 82.0125 46.0073 83.4056 46.0105 83.4198C46.2075 84.1739 49.3243 85.9041 50.6551 86.6122L50.7153 86.645L50.8248 86.4458L50.7569 86.4097C48.6622 85.2923 46.3793 83.909 46.2371 83.3794C46.0817 82.784 46.0773 82.3167 46.1101 82.1755C46.1703 82.2423 46.317 82.4579 46.5774 83.1287C47.1979 84.7276 49.5903 85.6579 50.9615 86.0694L51.0152 86.0858L51.0403 86.0387L51.0852 85.9501L51.1224 85.8735L51.036 85.8472C49.7041 85.4434 47.3752 84.5416 46.8018 83.0642Z" fill="#9197A6"/>
<path d="M47.1182 82.6873C46.698 81.7177 46.3675 81.2919 46.0479 81.3127C45.7284 81.3335 45.5007 81.803 45.3432 82.8536C45.1243 84.2632 49.1068 86.4947 50.3325 87.1458L50.3872 87.1754L50.42 87.1272C50.4386 87.101 50.455 87.0736 50.4715 87.0473L50.5109 86.9839L50.4397 86.9455C47.9894 85.6421 45.4252 83.8911 45.5763 82.9062C45.7634 81.6892 45.991 81.548 46.0851 81.5437C46.153 81.5437 46.4135 81.6312 46.9027 82.7595C47.3918 83.8878 48.8222 84.8859 51.15 85.6826L51.2091 85.7034L51.2321 85.6498C51.2386 85.6356 51.2452 85.6224 51.2507 85.6093C51.2561 85.5962 51.2649 85.5808 51.2714 85.5655L51.3032 85.4933L51.2233 85.467C48.9918 84.7064 47.5724 83.7445 47.1182 82.6873Z" fill="#9197A6"/>
<path d="M47.44 82.3107C46.9092 81.1988 46.42 80.656 45.9385 80.6516C45.4569 80.6473 45.0498 81.1988 44.6832 82.3184C44.0178 84.3518 48.5694 86.9258 49.98 87.6656L50.0337 87.694L50.1694 87.508L50.0917 87.4675C49.1176 86.9531 44.2914 84.2938 44.9075 82.4081C45.2359 81.4122 45.597 80.8858 45.9625 80.8858C46.3281 80.8858 46.7581 81.4133 47.2276 82.3972C47.7486 83.4916 49.0881 84.436 51.3217 85.2962L51.3797 85.3192L51.406 85.2667C51.4204 85.2375 51.4331 85.2075 51.4443 85.1769L51.4706 85.1091L51.3984 85.0817C49.2238 84.2445 47.9291 83.3373 47.44 82.3107Z" fill="#9197A6"/>
<path d="M47.7551 81.9354C47.0722 80.6385 46.4013 79.9655 45.7611 79.9524C45.1209 79.9392 44.5419 80.5543 44.0166 81.792C43.4913 83.0298 44.3307 84.54 46.4352 86.1696C47.4307 86.921 48.4859 87.5897 49.5903 88.169L49.6418 88.1953L49.6746 88.1548L49.7348 88.0826L49.7873 88.0158L49.7063 87.9742C48.6065 87.3997 43.175 84.4098 44.2344 81.9015C44.7203 80.7513 45.238 80.1756 45.7742 80.1898C46.3105 80.2041 46.9135 80.8279 47.5482 82.0317C48.2705 83.403 50.1364 84.3299 51.4782 84.9045L51.5438 84.9329L51.5788 84.8421C51.5854 84.8224 51.5931 84.8038 51.5996 84.7841L51.6226 84.7206L51.5559 84.6921C50.2514 84.1285 48.439 83.2355 47.7551 81.9354Z" fill="#9197A6"/>
<path d="M48.0742 81.5592C47.1812 80.0172 46.3517 79.2609 45.5374 79.2303C44.7495 79.2073 44.0173 79.8935 43.3487 81.2702C43.0203 81.9575 42.9995 82.7028 43.3005 83.4831C44.2712 86.0057 48.3566 88.2294 49.1653 88.6497L49.2135 88.6738L49.2474 88.6387L49.312 88.5687L49.3722 88.5019L49.2857 88.4571C48.4879 88.0445 44.4616 85.8623 43.5194 83.4152C43.2436 82.6995 43.2578 82.0166 43.5632 81.3862C44.1793 80.1113 44.837 79.4656 45.5199 79.4656H45.5473C46.2663 79.4875 47.0258 80.2054 47.8696 81.662C48.6094 82.9403 50.263 83.8508 51.6211 84.5009L51.689 84.5326L51.7142 84.4669C51.7251 84.4385 51.7349 84.4089 51.7448 84.3794L51.7656 84.3181L51.7032 84.2886C50.3834 83.6538 48.7746 82.7706 48.0742 81.5592Z" fill="#9197A6"/>
<path d="M48.3927 81.1834C47.6091 79.9533 46.5443 78.5306 45.2814 78.4956H45.2431C44.3326 78.4956 43.4724 79.254 42.6866 80.7511C42.2291 81.6266 42.1788 82.5558 42.5367 83.521C43.5785 86.3358 47.8587 88.6723 48.7057 89.1123L48.7506 89.1352L48.7845 89.1046C48.8086 89.0827 48.8327 89.0608 48.8557 89.0378L48.9257 88.9711L48.8327 88.9229C47.9966 88.4896 43.7788 86.2078 42.7566 83.4554C42.4283 82.5558 42.471 81.6868 42.8989 80.8726C43.6551 79.4291 44.4617 78.7046 45.2978 78.7287C46.4382 78.7561 47.4461 80.1142 48.1968 81.2951C48.9629 82.4989 50.4261 83.381 51.7602 84.089L51.8324 84.1273L51.8565 84.0551C51.8663 84.0245 51.8751 83.9938 51.8838 83.9643L51.8981 83.9084L51.8444 83.8789C50.5443 83.1872 49.1183 82.3249 48.3927 81.1834Z" fill="#9197A6"/>
<path d="M48.7079 80.8024L48.6893 80.7761C47.9047 79.65 46.5914 77.7643 44.9969 77.7457H44.975C43.9255 77.7457 42.9307 78.5807 42.0201 80.2278C41.7305 80.7288 41.5564 81.2882 41.5104 81.865C41.4644 82.4419 41.5477 83.0218 41.7542 83.5624C42.8245 86.5457 46.9536 88.8975 48.1936 89.5476L48.2352 89.5695L48.2767 89.5367C48.3008 89.5181 48.3249 89.4995 48.3479 89.4798L48.4256 89.413L48.3282 89.3627C47.4527 88.9085 43.0489 86.4943 41.9742 83.5011C41.7802 82.9911 41.7023 82.4443 41.7463 81.9004C41.7902 81.3565 41.9548 80.8292 42.2281 80.3569C43.1036 78.7701 44.0448 77.9701 45.0155 77.9832C46.482 78.0007 47.746 79.8174 48.5 80.9019L48.5186 80.9282C49.3131 82.0697 50.7336 82.9922 51.8817 83.6642L51.9583 83.7101L52.0217 83.4847L51.9703 83.4551C50.8529 82.7963 49.4685 81.9 48.7079 80.8024Z" fill="#9197A6"/>
<path d="M49.0308 80.4299C48.9914 80.3785 48.9498 80.3205 48.9071 80.2647L48.8031 80.1279C47.9276 78.9602 46.4732 77.0056 44.7145 77.0012C43.5271 77.0012 42.3988 77.9128 41.358 79.7109C40.6335 80.9651 40.5055 82.2795 40.9772 83.6179C42.0978 86.8015 46.3528 89.2726 47.6299 89.9544L47.6682 89.9741L47.8871 89.8307L47.7777 89.7738C46.5126 89.1062 42.3057 86.6844 41.2015 83.5588C40.7539 82.2871 40.8732 81.0417 41.567 79.8379C42.5662 78.1087 43.6332 77.2332 44.7408 77.2332C46.3681 77.2332 47.7777 79.1254 48.6204 80.2537C48.7014 80.3632 48.778 80.465 48.8491 80.558C49.6819 81.6524 50.97 82.5585 51.9987 83.2261L52.0797 83.2786L52.1027 83.1911L52.1257 83.097L52.1355 83.0477L52.0907 83.0182C51.0849 82.3714 49.8329 81.4849 49.0308 80.4299Z" fill="#9197A6"/>
<path d="M49.76 80.1944C47.6687 77.0666 45.8016 76.3979 44.6022 76.3881C43.1795 76.3826 41.9406 77.2636 41.1001 78.8942C40.1152 80.816 39.9817 82.7027 40.7149 84.5008C41.9833 87.6088 45.5029 89.6159 46.9529 90.3339L46.9847 90.3492L47.0142 90.3361C47.0503 90.3196 47.0854 90.301 47.1237 90.2824L47.2408 90.22L47.1127 90.1566C45.9877 89.6094 42.2175 87.5749 40.9338 84.4286C40.2268 82.6983 40.3549 80.8762 41.3125 79.0146C42.1059 77.4726 43.2714 76.6234 44.5956 76.6234H44.6197C45.7579 76.6321 47.5384 77.28 49.5674 80.3126C50.189 81.2428 51.3009 82.0844 52.1239 82.6261L52.2093 82.6819L52.2301 82.579C52.2366 82.5495 52.2421 82.5199 52.2476 82.4915L52.2563 82.4444L52.2137 82.416C51.4224 81.8918 50.3532 81.0797 49.76 80.1944Z" fill="#9197A6"/>
<path d="M50.0451 79.6948C49.1849 78.421 48.351 77.5192 47.4186 76.8571C46.1644 75.9652 44.8785 75.6095 43.6977 75.8262C42.415 76.0637 41.29 76.9764 40.5152 78.3958C38.809 81.5345 39.69 84.1621 40.734 85.8125C42.3439 88.3919 45.2944 89.9843 46.4883 90.549L46.5179 90.5621L46.5452 90.5512C46.5846 90.5358 46.6219 90.5205 46.6547 90.503L46.7915 90.4417L46.647 90.375C45.4596 89.8278 42.5245 88.2628 40.9245 85.7019C39.9198 84.1063 39.064 81.5651 40.7231 78.5206C41.464 77.157 42.542 76.2825 43.7589 76.0571C44.8708 75.8513 46.0922 76.1928 47.2894 77.042C48.1923 77.6834 49.0054 78.5632 49.8481 79.8108C50.334 80.531 51.1274 81.3025 52.2065 82.1091L52.2952 82.1747L52.3149 82.0729C52.3225 82.039 52.328 82.0051 52.3324 81.9701L52.3389 81.9263L52.3017 81.8989C51.2697 81.123 50.508 80.3821 50.0451 79.6948Z" fill="#9197A6"/>
<path d="M50.3302 79.1949C49.3727 77.7886 48.5092 76.8967 47.4454 76.1973C46.0698 75.2989 44.6635 74.9574 43.3765 75.2124C41.9877 75.4849 40.7653 76.4381 39.9336 77.8947C38.5109 80.3823 38.5393 83.2419 40.0003 85.7415C41.6189 88.5092 44.7062 90.1541 45.9527 90.733L45.9779 90.744L46.0019 90.7374C46.0435 90.7264 46.084 90.7133 46.1245 90.7002L46.3029 90.6422L46.1333 90.5656C44.8857 89.9998 41.8104 88.3866 40.2028 85.6408C39.37 84.2181 38.2548 81.3333 40.1415 78.0272C40.9426 76.6242 42.1114 75.7071 43.4411 75.4455C44.6668 75.2036 46.0107 75.532 47.3283 76.3932C48.3625 77.0696 49.203 77.944 50.1387 79.3174C50.6115 80.0124 51.3338 80.7631 52.2859 81.5511L52.3811 81.6299L52.3975 81.5139C52.403 81.4778 52.4074 81.4417 52.4107 81.4044V81.3661L52.3789 81.3399C51.4739 80.5804 50.78 79.8592 50.3302 79.1949Z" fill="#9197A6"/>
<path d="M50.6159 78.6926C49.8553 77.585 48.9469 76.4359 47.4717 75.5363C43.6786 73.2228 40.7259 75.0909 39.3503 77.3968C37.8422 79.9205 37.8181 83.0132 39.2693 85.6715C40.808 88.4819 43.7201 90.1388 45.3191 90.8775L45.3398 90.8873H45.3617C45.4143 90.8786 45.4712 90.8698 45.5193 90.8589L45.7284 90.8184L45.5248 90.7265C43.9226 90.0031 41.005 88.3735 39.4739 85.5828C38.0578 83.0001 38.0884 79.9927 39.5549 77.5391C40.878 75.3229 43.7136 73.5227 47.3623 75.7454C48.7926 76.6209 49.6802 77.7415 50.4266 78.825C50.9827 79.5988 51.6244 80.3073 52.3395 80.9372L52.4435 81.0324L52.4556 80.8999C52.4556 80.8616 52.461 80.8233 52.4632 80.7905L52.3932 80.7785L52.4632 80.7883V80.7533L52.4359 80.7281C51.7559 80.1189 51.1455 79.4362 50.6159 78.6926Z" fill="#9197A6"/>
<path d="M50.9036 78.192C49.9624 76.8361 49.0246 75.7537 47.5012 74.8793C45.7501 73.8692 43.9543 73.5923 42.3203 74.0782C40.8976 74.5039 39.6336 75.5009 38.7669 76.8952C37.1494 79.4878 37.0651 82.7414 38.5392 85.5977C40.0265 88.4792 42.9168 90.181 44.5146 90.9394L44.5299 90.946H44.5441C44.6142 90.946 44.6831 90.946 44.7532 90.946L45.0268 90.9307L44.7685 90.8125C43.1586 90.0705 40.2355 88.3972 38.7493 85.5102C37.3146 82.7293 37.3978 79.5611 38.9682 77.0352C40.4062 74.7272 43.4771 72.8317 47.395 75.0839C48.8757 75.9354 49.7917 76.9926 50.7099 78.3179C51.2052 79.0207 51.7599 79.6798 52.3679 80.2878L52.4773 80.4049V80.2495C52.4773 80.2068 52.4773 80.1652 52.4773 80.1225V80.0919L52.4555 80.07C51.8875 79.4877 51.3685 78.8595 50.9036 78.192Z" fill="#9197A6"/>
<path d="M51.1896 77.6912C50.348 76.4874 49.3718 75.2256 47.5299 74.2199C45.6487 73.1922 43.7247 72.9318 41.9672 73.468C40.4514 73.9298 39.1075 74.9695 38.1828 76.3944C36.1505 79.5276 36.6572 83.1665 37.8085 85.5271C39.1217 88.2072 41.5579 89.8926 43.3767 90.8348L43.3942 90.8436H43.4052C43.4982 90.8611 43.5945 90.8753 43.6919 90.8874L44.0892 90.9377L43.7215 90.755C41.8501 89.828 39.3439 88.1525 38.0197 85.4395C36.8958 83.1413 36.4011 79.5889 38.3841 76.5345C40.0662 73.9408 43.5157 72.2828 47.4303 74.4223C49.2251 75.4073 50.1773 76.6352 50.9991 77.8149C51.4205 78.418 51.8765 78.9961 52.3649 79.5462L52.4919 79.6896L52.4864 79.4882C52.4864 79.4466 52.4864 79.4051 52.4864 79.3602V79.335L52.4689 79.3153C52.0132 78.7976 51.5861 78.2555 51.1896 77.6912Z" fill="#9197A6"/>
<path d="M52.4151 78.4875V78.4667L52.402 78.4492C52.0474 77.9962 51.7355 77.5584 51.4761 77.1907C50.5481 75.8774 49.55 74.6025 47.5582 73.5628C43.2726 71.3215 39.4685 73.1196 37.5993 75.896C35.4335 79.1135 35.9643 83.0577 37.0784 85.4566C37.8631 87.1573 39.1698 88.6555 40.9536 89.9031L40.9733 89.9173C41.2335 90.0731 41.5029 90.213 41.7799 90.3365L41.8368 90.2139C39.6983 88.9006 38.1684 87.2744 37.2907 85.3745C36.2029 83.0314 35.683 79.1803 37.7985 76.0383C39.613 73.3417 43.3054 71.594 47.4641 73.7674C49.4012 74.7809 50.3785 76.023 51.2879 77.3133C51.5517 77.6897 51.9073 78.1888 52.3101 78.6955L52.4534 78.8782L52.4337 78.6594C52.4264 78.601 52.4202 78.5437 52.4151 78.4875Z" fill="#9197A6"/>
<path d="M42.8524 64.0041C42.7019 63.9895 42.5502 63.9925 42.4004 64.0128C43.3061 64.3323 44.2277 64.6048 45.1615 64.8292C44.7117 64.502 43.4061 64.0511 42.8524 64.0041Z" fill="#9197A6"/>
</g>
</g>
<defs>
<filter id="filter0_d_4774_123503" x="-18" y="20" width="122" height="122" filterUnits="userSpaceOnUse" color-interpolation-filters="sRGB">
<feFlood flood-opacity="0" result="BackgroundImageFix"/>
<feColorMatrix in="SourceAlpha" type="matrix" values="0 0 0 0 0 0 0 0 0 0 0 0 0 0 0 0 0 0 127 0" result="hardAlpha"/>
<feOffset dy="4"/>
<feGaussianBlur stdDeviation="20"/>
<feComposite in2="hardAlpha" operator="out"/>
<feColorMatrix type="matrix" values="0 0 0 0 0 0 0 0 0 0 0 0 0 0 0 0 0 0 0.04 0"/>
<feBlend mode="normal" in2="BackgroundImageFix" result="effect1_dropShadow_4774_123503"/>
<feBlend mode="normal" in="SourceGraphic" in2="effect1_dropShadow_4774_123503" result="shape"/>
</filter>
<linearGradient id="paint0_linear_4774_123503" x1="67.6434" y1="35.6284" x2="67.6434" y2="75.1667" gradientUnits="userSpaceOnUse">
<stop stop-color="#C4C7CD"/>
<stop offset="1" stop-color="#C1CCD1"/>
</linearGradient>
<radialGradient id="paint1_radial_4774_123503" cx="0" cy="0" r="1" gradientUnits="userSpaceOnUse" gradientTransform="translate(67.6434 55.3976) rotate(90) scale(19.7691 18.4393)">
<stop/>
<stop offset="1" stop-opacity="0"/>
</radialGradient>
<linearGradient id="paint2_linear_4774_123503" x1="67.6458" y1="63.8359" x2="67.6458" y2="110.371" gradientUnits="userSpaceOnUse">
<stop stop-color="#E5E8F1"/>
<stop offset="1" stop-color="#AFB3BD"/>
</linearGradient>
<linearGradient id="paint3_linear_4774_123503" x1="67.4025" y1="80.3872" x2="67.4025" y2="98.9921" gradientUnits="userSpaceOnUse">
<stop stop-color="#9398A4"/>
<stop offset="1" stop-color="#61646C"/>
</linearGradient>
<linearGradient id="paint4_linear_4774_123503" x1="13" y1="113.787" x2="104.234" y2="113.787" gradientUnits="userSpaceOnUse">
<stop stop-color="#F6F8FA"/>
<stop offset="0.460263" stop-color="#FAFBFC" stop-opacity="0.13"/>
<stop offset="1" stop-color="white" stop-opacity="0"/>
</linearGradient>
<radialGradient id="paint5_radial_4774_123503" cx="0" cy="0" r="1" gradientUnits="userSpaceOnUse" gradientTransform="translate(35.2632 58.9474) rotate(71.0033) scale(47.5363)">
<stop stop-color="white"/>
<stop offset="1" stop-color="#DFE5EF"/>
</radialGradient>
<clipPath id="clip0_4774_123503">
<rect width="120" height="120" fill="white"/>
</clipPath>
</defs>
</svg>
