<svg width="24" height="24" viewBox="0 0 24 24" fill="none" xmlns="http://www.w3.org/2000/svg">
  <path
    d="M8.325 19.5C7.94167 19.5 7.60833 19.3792 7.325 19.1375C7.04167 18.8958 6.875 18.5833 6.825 18.2L5.1508 5.63205C5.07095 5.0326 5.5373 4.5 6.14205 4.5H17.858C18.4627 4.5 18.9291 5.0326 18.8492 5.63205L17.175 18.2C17.125 18.5833 16.9583 18.8958 16.675 19.1375C16.3917 19.3792 16.0583 19.5 15.675 19.5H8.325ZM8.325 18H15.7L17.275 6H6.725L8.325 18ZM12 12.25C12.7667 12.25 13.4167 11.9833 13.95 11.45C14.4833 10.9167 14.75 10.2667 14.75 9.5V7.75H13.25V9.5C13.25 9.85 13.1292 10.1458 12.8875 10.3875C12.6458 10.6292 12.35 10.75 12 10.75C11.65 10.75 11.3542 10.6292 11.1125 10.3875C10.8708 10.1458 10.75 9.85 10.75 9.5V7.75H9.25V9.5C9.25 10.2667 9.51667 10.9167 10.05 11.45C10.5833 11.9833 11.2333 12.25 12 12.25Z"
    fill="currentColor" />
</svg>