<svg xmlns="http://www.w3.org/2000/svg" width="24" height="24" viewBox="0 0 48 48" fill="none">
    <path fill-rule="evenodd" clip-rule="evenodd" d="M9.02486 30.8578C11.4856 28.6062 14.9573 27 19 27C23.0427 27 26.5144 28.6062 28.9751 30.8578C31.3949 33.072 33 36.073 33 39C33 40.1046 32.1046 41 31 41H7C5.89543 41 5 40.1046 5 39C5 36.073 6.60512 33.072 9.02486 30.8578ZM9.43193 37H28.5681C28.1347 35.9356 27.3732 34.8138 26.2749 33.8088C24.4856 32.1716 21.9573 31 19 31C16.0427 31 13.5144 32.1716 11.7251 33.8088C10.6268 34.8138 9.86533 35.9356 9.43193 37Z" fill="currentColor"/>
    <path fill-rule="evenodd" clip-rule="evenodd" d="M34.3254 29.9809C34.9291 29.0559 36.1683 28.7954 37.0933 29.3991C40.5961 31.6852 43.0002 35.411 43.0002 39C43.0002 40.1046 42.1048 41 41.0002 41H37.0002C35.8957 41 35.0002 40.1046 35.0002 39C35.0002 37.8954 35.8957 37 37.0002 37H38.5672C37.9633 35.518 36.7328 33.9403 34.9071 32.7488C33.9821 32.1451 33.7217 30.9059 34.3254 29.9809Z" fill="currentColor"/>
    <path fill-rule="evenodd" clip-rule="evenodd" d="M19 21C21.7614 21 24 18.7614 24 16C24 13.2386 21.7614 11 19 11C16.2386 11 14 13.2386 14 16C14 18.7614 16.2386 21 19 21ZM19 25C23.9706 25 28 20.9706 28 16C28 11.0294 23.9706 7 19 7C14.0294 7 10 11.0294 10 16C10 20.9706 14.0294 25 19 25Z" fill="currentColor"/>
    <path fill-rule="evenodd" clip-rule="evenodd" d="M31.1935 10.8155C31.6674 9.81779 32.8605 9.3932 33.8582 9.86716C36.8942 11.3094 39 14.4068 39 18.0001C39 22.9706 34.9706 27.0001 30 27.0001C28.8954 27.0001 28 26.1046 28 25.0001C28 23.8955 28.8954 23.0001 30 23.0001C32.7614 23.0001 35 20.7615 35 18.0001C35 16.0085 33.8357 14.2849 32.1418 13.4802C31.1441 13.0062 30.7195 11.8132 31.1935 10.8155Z" fill="currentColor"/>
</svg>
