<svg xmlns="http://www.w3.org/2000/svg" width="20" height="13" viewBox="0 0 20 13" fill="none">
    <path opacity="0.5" fill-rule="evenodd" clip-rule="evenodd" d="M16.9202 4.62145C17.2102 4.19838 17.3682 3.69883 17.3742 3.18597C17.3783 2.84541 17.3152 2.50738 17.1885 2.19121C17.0619 1.87503 16.8742 1.58689 16.6363 1.34324C16.3983 1.0996 16.1146 0.905215 15.8015 0.771201C15.4884 0.637187 15.1519 0.566165 14.8114 0.562189C14.2985 0.5562 13.7954 0.702423 13.3656 0.982367C12.9359 1.26231 12.5988 1.6634 12.397 2.13493C12.1951 2.60645 12.1377 3.12723 12.2318 3.63141C12.326 4.13559 12.5675 4.60053 12.9259 4.96744C13.2843 5.33434 13.7434 5.58674 14.2453 5.69271C14.7471 5.79868 15.2691 5.75347 15.7452 5.56278C16.2214 5.3721 16.6303 5.04452 16.9202 4.62145ZM11.6096 7.03593C10.7771 7.82832 10.2812 8.91048 10.2246 10.0584H19.1685C19.1119 8.91048 18.616 7.82832 17.7836 7.03593C16.9511 6.24353 15.8459 5.80159 14.6966 5.80159C13.5473 5.80159 12.442 6.24353 11.6096 7.03593Z" fill="url(#paint0_linear_6769_8645)"/>
    <path opacity="0.5" fill-rule="evenodd" clip-rule="evenodd" d="M7.52959 4.62145C7.81955 4.19838 7.97755 3.69883 7.98361 3.18597C7.98763 2.84541 7.92453 2.50738 7.79791 2.19121C7.67129 1.87503 7.48362 1.58689 7.24563 1.34324C7.00765 1.0996 6.72399 0.905215 6.41087 0.771201C6.09776 0.637187 5.76131 0.566165 5.42074 0.562189C4.90788 0.5562 4.40476 0.702423 3.975 0.982367C3.54524 1.26231 3.20814 1.6634 3.00633 2.13493C2.80451 2.60645 2.74705 3.12723 2.84121 3.63141C2.93536 4.13559 3.17691 4.60053 3.5353 4.96744C3.89368 5.33434 4.35282 5.58674 4.85465 5.69271C5.35648 5.79868 5.87847 5.75347 6.3546 5.56278C6.83073 5.3721 7.23963 5.04452 7.52959 4.62145ZM2.21894 7.03672C1.38649 7.82911 0.890616 8.91127 0.833984 10.0592H9.77792C9.72129 8.91127 9.22542 7.82911 8.39297 7.03672C7.56052 6.24433 6.45524 5.80238 5.30595 5.80238C4.15667 5.80238 3.05139 6.24433 2.21894 7.03672Z" fill="url(#paint1_linear_6769_8645)"/>
    <path fill-rule="evenodd" clip-rule="evenodd" d="M13.003 6.21724C13.3647 5.68948 13.5618 5.0663 13.5694 4.42652C13.5744 4.00167 13.4957 3.58 13.3377 3.18558C13.1798 2.79115 12.9457 2.4317 12.6488 2.12776C12.3519 1.82382 11.998 1.58134 11.6074 1.41416C11.2168 1.24698 10.7971 1.15838 10.3723 1.15342C9.73249 1.14595 9.10486 1.32836 8.56874 1.67758C8.03263 2.0268 7.6121 2.52716 7.36035 3.11537C7.10859 3.70358 7.03691 4.35324 7.15437 4.98219C7.27182 5.61115 7.57314 6.19114 8.02022 6.64885C8.4673 7.10656 9.04006 7.42141 9.66608 7.55361C10.2921 7.68581 10.9433 7.6294 11.5372 7.39153C12.1312 7.15366 12.6413 6.74501 13.003 6.21724ZM6.38003 9.22956C5.34157 10.2181 4.72299 11.568 4.65234 13H15.8097C15.739 11.568 15.1204 10.2181 14.082 9.22956C13.0435 8.24107 11.6647 7.68976 10.231 7.68976C8.7973 7.68976 7.41849 8.24107 6.38003 9.22956Z" fill="url(#paint2_linear_6769_8645)"/>
    <defs>
        <linearGradient id="paint0_linear_6769_8645" x1="14.6966" y1="0.562012" x2="14.6966" y2="10.0584" gradientUnits="userSpaceOnUse">
            <stop stop-color="#E6E6EF"/>
            <stop offset="1" stop-color="#A2A2B4"/>
        </linearGradient>
        <linearGradient id="paint1_linear_6769_8645" x1="5.30595" y1="0.562012" x2="5.30595" y2="10.0592" gradientUnits="userSpaceOnUse">
            <stop stop-color="#E6E6EF"/>
            <stop offset="1" stop-color="#A2A2B4"/>
        </linearGradient>
        <linearGradient id="paint2_linear_6769_8645" x1="10.231" y1="1.1532" x2="10.231" y2="13" gradientUnits="userSpaceOnUse">
            <stop stop-color="#E0E9EE"/>
            <stop offset="1" stop-color="#9DABB1"/>
        </linearGradient>
    </defs>
</svg>
