<svg xmlns="http://www.w3.org/2000/svg" width="24" height="24" viewBox="0 0 24 24" fill="none">
    <path fill-rule="evenodd" clip-rule="evenodd" d="M4.51243 15.4289C5.7428 14.3031 7.47863 13.5 9.5 13.5C11.5214 13.5 13.2572 14.3031 14.4876 15.4289C15.6974 16.536 16.5 18.0365 16.5 19.5C16.5 20.0523 16.0523 20.5 15.5 20.5H3.5C2.94772 20.5 2.5 20.0523 2.5 19.5C2.5 18.0365 3.30256 16.536 4.51243 15.4289ZM4.71597 18.5H14.284C13.5 18.5 13 18.5 12 18.5C10 18.5 10.9786 18.5 9.5 18.5C8.02137 18.5 7.5 18.5 6.5 18.5C5.5 18.5 5.5 18.5 4.71597 18.5Z" fill="currentColor"/>
    <path fill-rule="evenodd" clip-rule="evenodd" d="M17.1627 14.9904C17.4645 14.5279 18.0842 14.3977 18.5467 14.6995C20.2981 15.8426 21.5001 17.7055 21.5001 19.5C21.5001 20.0523 21.0524 20.5 20.5001 20.5H18.5001C17.9478 20.5 17.5001 20.0523 17.5001 19.5C17.5001 18.9477 17.9478 18.5 18.5001 18.5H19.2836C18.9817 17.759 18.3664 16.9702 17.4536 16.3744C16.9911 16.0726 16.8608 15.4529 17.1627 14.9904Z" fill="currentColor"/>
    <path fill-rule="evenodd" clip-rule="evenodd" d="M9 8.5C9 9.5 9 9.88071 9 8.5C9 9.88071 9 10 9 8.5ZM9.5 12.5C11.9853 12.5 14 10.4853 14 8C14 5.51472 11.9853 3.5 9.5 3.5C7.01472 3.5 5 5.51472 5 8C5 10.4853 7.01472 12.5 9.5 12.5Z" fill="currentColor"/>
    <path fill-rule="evenodd" clip-rule="evenodd" d="M15.5967 5.40775C15.8337 4.90889 16.4302 4.6966 16.9291 4.93358C18.4471 5.65471 19.5 7.20341 19.5 9.00003C19.5 11.4853 17.4853 13.5 15 13.5C14.4477 13.5 14 13.0523 14 12.5C14 11.9477 14.4477 11.5 15 11.5C16.3807 11.5 17.5 10.3807 17.5 9.00003C17.5 8.00425 16.9179 7.14244 16.0709 6.7401C15.5721 6.50312 15.3598 5.90661 15.5967 5.40775Z" fill="currentColor"/>
</svg>
