<svg width="132" height="26" viewBox="0 0 132 26" fill="none" xmlns="http://www.w3.org/2000/svg">
  <path
    d="M40.9129 4.26315C42.8419 4.26315 44.5276 4.64547 45.97 5.41012C47.4124 6.17477 48.5246 7.25223 49.3067 8.6425C50.1061 10.0154 50.5058 11.6055 50.5058 13.4129C50.5058 15.2028 50.1061 16.793 49.3067 18.1832C48.5246 19.5735 47.4037 20.651 45.9439 21.4156C44.5015 22.1803 42.8245 22.5626 40.9129 22.5626H34.0571V4.26315H40.9129ZM40.6262 18.7046C42.3119 18.7046 43.6239 18.2441 44.5624 17.323C45.5008 16.402 45.97 15.0986 45.97 13.4129C45.97 11.7272 45.5008 10.4151 44.5624 9.47667C43.6239 8.53823 42.3119 8.06902 40.6262 8.06902H38.5147V18.7046H40.6262Z"
    fill="#1E2026" />
  <path
    d="M52.2707 13.3868C52.2707 11.5794 52.6617 9.97195 53.4437 8.5643C54.2258 7.13927 55.3119 6.03575 56.7022 5.25372C58.1098 4.45431 59.6999 4.05461 61.4725 4.05461C63.6448 4.05461 65.5043 4.6281 67.051 5.77507C68.5977 6.92204 69.6317 8.4861 70.153 10.4672H65.2523C64.8874 9.70259 64.366 9.12041 63.6883 8.72071C63.0279 8.321 62.2719 8.12115 61.4204 8.12115C60.0475 8.12115 58.9353 8.59906 58.0838 9.55487C57.2322 10.5107 56.8064 11.788 56.8064 13.3868C56.8064 14.9856 57.2322 16.2629 58.0838 17.2187C58.9353 18.1745 60.0475 18.6525 61.4204 18.6525C62.2719 18.6525 63.0279 18.4526 63.6883 18.0529C64.366 17.6532 64.8874 17.071 65.2523 16.3064H70.153C69.6317 18.2875 68.5977 19.8516 67.051 20.9985C65.5043 22.1281 63.6448 22.6929 61.4725 22.6929C59.6999 22.6929 58.1098 22.3019 56.7022 21.5199C55.3119 20.7205 54.2258 19.617 53.4437 18.2093C52.6617 16.8017 52.2707 15.1942 52.2707 13.3868Z"
    fill="#1E2026" />
  <path
    d="M86.6241 15.0551C86.6241 15.4722 86.5981 15.9067 86.5459 16.3585H76.4578C76.5273 17.2622 76.814 17.9573 77.318 18.4439C77.8394 18.9131 78.4737 19.1477 79.2209 19.1477C80.3332 19.1477 81.1065 18.6785 81.541 17.7401H86.2853C86.042 18.6959 85.5988 19.5561 84.9558 20.3208C84.3302 21.0854 83.5395 21.685 82.5837 22.1194C81.6279 22.5539 80.5591 22.7711 79.3774 22.7711C77.9523 22.7711 76.6837 22.467 75.5715 21.8588C74.4593 21.2505 73.5904 20.3816 72.9647 19.252C72.3391 18.1224 72.0263 16.8017 72.0263 15.2897C72.0263 13.7778 72.3304 12.4571 72.9387 11.3275C73.5643 10.1979 74.4332 9.32895 75.5454 8.72071C76.6576 8.11246 77.935 7.80834 79.3774 7.80834C80.785 7.80834 82.0362 8.10377 83.1311 8.69464C84.2259 9.2855 85.0775 10.1284 85.6857 11.2232C86.3113 12.318 86.6241 13.5953 86.6241 15.0551ZM82.0623 13.8821C82.0623 13.1174 81.8016 12.5092 81.2803 12.0574C80.7589 11.6055 80.1072 11.3796 79.3252 11.3796C78.5779 11.3796 77.9436 11.5968 77.4223 12.0313C76.9183 12.4657 76.6055 13.0827 76.4839 13.8821H82.0623Z"
    fill="#1E2026" />
  <path d="M93.4631 3.27258V22.5626H89.0055V3.27258H93.4631Z" fill="#1E2026" />
  <path d="M101.181 3.27258V22.5626H96.7232V3.27258H101.181Z" fill="#1E2026" />
  <path
    d="M103.555 15.2637C103.555 13.7691 103.833 12.4571 104.389 11.3275C104.962 10.1979 105.736 9.32895 106.709 8.72071C107.682 8.11246 108.768 7.80834 109.967 7.80834C110.993 7.80834 111.888 8.01688 112.652 8.43396C113.434 8.85104 114.034 9.39846 114.451 10.0762V8.01688H118.908V22.5626H114.451V20.5032C114.016 21.181 113.408 21.7284 112.626 22.1455C111.861 22.5626 110.966 22.7711 109.941 22.7711C108.759 22.7711 107.682 22.467 106.709 21.8588C105.736 21.2331 104.962 20.3555 104.389 19.2259C103.833 18.079 103.555 16.7582 103.555 15.2637ZM114.451 15.2897C114.451 14.1775 114.138 13.2999 113.512 12.6569C112.904 12.0139 112.157 11.6924 111.271 11.6924C110.384 11.6924 109.628 12.0139 109.003 12.6569C108.394 13.2825 108.09 14.1515 108.09 15.2637C108.09 16.3759 108.394 17.2622 109.003 17.9226C109.628 18.5656 110.384 18.8871 111.271 18.8871C112.157 18.8871 112.904 18.5656 113.512 17.9226C114.138 17.2796 114.451 16.402 114.451 15.2897Z"
    fill="#1E2026" />
  <path
    d="M126.621 10.4412C127.142 9.64176 127.794 9.01614 128.576 8.5643C129.358 8.09508 130.227 7.86048 131.182 7.86048V12.5787H129.957C128.845 12.5787 128.011 12.822 127.455 13.3086C126.899 13.7778 126.621 14.612 126.621 15.8111V22.5626H122.163V8.01688H126.621V10.4412Z"
    fill="#1E2026" />
  <path d="M2.29883 18.04H10.258V10.2578H2.29883V18.04Z" fill="#2EC659" />
  <path d="M10.2577 18.04H18.04V10.2578H10.2577V18.04Z" fill="#5ED47F" />
  <path d="M18.0402 18.04H25.9993V10.2578H18.0402V18.04Z" fill="#009E2C" />
  <path d="M0 7.78223H7.78229V-6.05583e-05H3.59182C1.60811 -6.05583e-05 0 1.60805 0 3.59176V7.78223Z" fill="#00BA34" />
  <path d="M10.2587 10.2587H18.041V2.29951H10.2587V10.2587Z" fill="#009E2C" />
  <path d="M18.0411 10.2587H26.0003V9.64642C26.0003 5.58884 22.711 2.29951 18.6534 2.29951H18.0411V10.2587Z"
    fill="#008425" />
  <path d="M2.29956 22.3264C2.29956 24.3552 3.94422 25.9999 5.97302 25.9999H10.2587V18.0407H2.29956V22.3264Z"
    fill="#5ED47F" />
  <path d="M10.2587 25.9999H18.041V18.0407H10.2587V25.9999Z" fill="#2EC659" />
  <path d="M18.0411 25.9999H18.6534C22.711 25.9999 26.0003 22.7106 26.0003 18.653V18.0407H18.0411V25.9999Z"
    fill="#00BA34" />
</svg>