<svg width="37" height="21" viewBox="0 0 37 21" fill="none" xmlns="http://www.w3.org/2000/svg">
<path d="M7.84988 5.77273H9.44789L12.2263 12.5568H12.3286L15.107 5.77273H16.705V14.5H15.4522V8.18466H15.3712L12.7973 14.4872H11.7576L9.18369 8.1804H9.10272V14.5H7.84988V5.77273ZM20.158 14.6449C19.7432 14.6449 19.3682 14.5682 19.033 14.4148C18.6977 14.2585 18.4321 14.0327 18.2361 13.7372C18.0429 13.4418 17.9463 13.0795 17.9463 12.6506C17.9463 12.2812 18.0173 11.9773 18.1594 11.7386C18.3014 11.5 18.4932 11.3111 18.7347 11.1719C18.9762 11.0327 19.246 10.9276 19.5443 10.8565C19.8426 10.7855 20.1466 10.7315 20.4563 10.6946C20.8483 10.6491 21.1665 10.6122 21.4108 10.5838C21.6551 10.5526 21.8327 10.5028 21.9435 10.4347C22.0543 10.3665 22.1097 10.2557 22.1097 10.1023V10.0724C22.1097 9.70028 22.0046 9.41193 21.7943 9.20739C21.5869 9.00284 21.2773 8.90057 20.8654 8.90057C20.4364 8.90057 20.0983 8.99574 19.8512 9.18608C19.6068 9.37358 19.4378 9.58239 19.344 9.8125L18.1466 9.53977C18.2887 9.14205 18.496 8.82102 18.7688 8.5767C19.0443 8.32955 19.3611 8.15057 19.719 8.03977C20.077 7.92614 20.4534 7.86932 20.8483 7.86932C21.1097 7.86932 21.3867 7.90057 21.6793 7.96307C21.9747 8.02273 22.2503 8.13352 22.506 8.29545C22.7645 8.45739 22.9762 8.68892 23.1409 8.99006C23.3057 9.28835 23.3881 9.67614 23.3881 10.1534V14.5H22.1438V13.6051H22.0926C22.0102 13.7699 21.8867 13.9318 21.7219 14.0909C21.5571 14.25 21.3455 14.3821 21.0869 14.4872C20.8284 14.5923 20.5188 14.6449 20.158 14.6449ZM20.435 13.6222C20.7872 13.6222 21.0884 13.5526 21.3384 13.4134C21.5912 13.2741 21.783 13.0923 21.9137 12.8679C22.0472 12.6406 22.1139 12.3977 22.1139 12.1392V11.2955C22.0685 11.3409 21.9804 11.3835 21.8497 11.4233C21.7219 11.4602 21.5756 11.4929 21.4108 11.5213C21.246 11.5469 21.0855 11.571 20.9293 11.5938C20.773 11.6136 20.6423 11.6307 20.5372 11.6449C20.2901 11.6761 20.0642 11.7287 19.8597 11.8026C19.658 11.8764 19.496 11.983 19.3739 12.1222C19.2546 12.2585 19.1949 12.4403 19.1949 12.6676C19.1949 12.983 19.3114 13.2216 19.5443 13.3835C19.7773 13.5426 20.0742 13.6222 20.435 13.6222ZM25.8269 7.95455L27.2715 10.5028L28.7288 7.95455H30.1223L28.0811 11.2273L30.1394 14.5H28.7459L27.2715 12.054L25.8013 14.5H24.4036L26.4405 11.2273L24.4291 7.95455H25.8269Z" fill="#EAB82E"/>
<rect x="1.48254" y="1.5" width="34" height="18" rx="9" stroke="#EAB82E" stroke-width="2"/>
</svg>
