<svg width="24" height="24" viewBox="0 0 24 24" fill="none" xmlns="http://www.w3.org/2000/svg">
  <path
    d="M11.9998 12.834C12.4601 12.834 12.8332 12.4609 12.8332 12.0007C12.8332 11.5404 12.4601 11.1673 11.9998 11.1673C11.5396 11.1673 11.1665 11.5404 11.1665 12.0007C11.1665 12.4609 11.5396 12.834 11.9998 12.834Z"
    stroke="currentColor" stroke-width="1.66667" stroke-linecap="round" stroke-linejoin="round" />
  <path
    d="M11.9998 7.00065C12.4601 7.00065 12.8332 6.62755 12.8332 6.16732C12.8332 5.70708 12.4601 5.33398 11.9998 5.33398C11.5396 5.33398 11.1665 5.70708 11.1665 6.16732C11.1665 6.62755 11.5396 7.00065 11.9998 7.00065Z"
    stroke="currentColor" stroke-width="1.66667" stroke-linecap="round" stroke-linejoin="round" />
  <path
    d="M11.9998 18.6673C12.4601 18.6673 12.8332 18.2942 12.8332 17.834C12.8332 17.3737 12.4601 17.0007 11.9998 17.0007C11.5396 17.0007 11.1665 17.3737 11.1665 17.834C11.1665 18.2942 11.5396 18.6673 11.9998 18.6673Z"
    stroke="currentColor" stroke-width="1.66667" stroke-linecap="round" stroke-linejoin="round" />
</svg>