<svg width="123" height="120" viewBox="0 0 123 120" fill="none" xmlns="http://www.w3.org/2000/svg">
<path d="M109.797 113.787C109.797 116.983 88.9735 119.574 63.2859 119.574C37.5983 119.574 16.7744 116.983 16.7744 113.787C16.7744 110.591 37.5983 108 63.2859 108C88.9735 108 109.797 110.591 109.797 113.787Z" fill="url(#paint0_linear_1413_65652)"/>
<path d="M27.2107 92.2256L32.2437 110.183L36.6692 92.2256H27.2107Z" fill="#A3AAB6"/>
<path d="M14.3275 67.2542C13.7045 65.8798 14.3355 64.2703 15.7368 63.6593L30.8554 57.0676L43.6078 61.8768L54.4985 85.904C55.1214 87.2784 54.4904 88.8879 53.0891 89.4989L31.68 98.8332C30.2786 99.4442 28.6376 98.8253 28.0146 97.4509L14.3275 67.2542Z" fill="url(#paint1_radial_1413_65652)"/>
<path d="M30.8555 57.0674L43.6079 61.8766L37.3173 64.6193C35.916 65.2303 34.2749 64.6114 33.6519 63.237L30.8555 57.0674Z" fill="url(#paint2_linear_1413_65652)"/>
<path d="M53.1143 54.6306C53.5112 53.1778 55.0339 52.3156 56.5152 52.7049L72.4966 56.9047L79.3279 68.5094L72.389 93.9078C71.9921 95.3606 70.4694 96.2228 68.9881 95.8335L46.3571 89.8862C44.8758 89.4969 43.9967 88.0035 44.3937 86.5507L53.1143 54.6306Z" fill="url(#paint3_radial_1413_65652)"/>
<path d="M72.4966 56.9043L79.3279 68.509L72.6783 66.7615C71.197 66.3722 70.3179 64.8789 70.7148 63.426L72.4966 56.9043Z" fill="url(#paint4_linear_1413_65652)"/>
<path d="M87.6554 69.0195C88.4871 67.7558 90.2059 67.3927 91.4943 68.2085L102.955 75.4648L105.4 86.5958L93.2706 105.023C92.4388 106.287 90.72 106.65 89.4316 105.834L73.4068 95.6883C72.1184 94.8725 71.7481 93.1868 72.5799 91.9232L87.6554 69.0195Z" fill="url(#paint5_radial_1413_65652)"/>
<path d="M102.955 75.4648L105.4 86.5958L100.836 83.7062C99.5475 82.8904 99.1773 81.2047 100.009 79.941L102.955 75.4648Z" fill="url(#paint6_linear_1413_65652)"/>
<path d="M88.9715 77.8721L88.1563 103.456C88.0684 106.216 91.7423 107.337 93.2665 105.015L96.0003 100.851L88.9715 77.8721Z" fill="url(#paint7_linear_1413_65652)" fill-opacity="0.5"/>
<path d="M40.9892 73.6981C42.6245 77.3059 40.9681 81.5308 37.2896 83.1347C33.611 84.7385 29.3033 83.114 27.668 79.5062C26.0327 75.8983 27.6891 71.6735 31.3676 70.0696C35.0462 68.4658 39.3539 70.0903 40.9892 73.6981Z" fill="#A0A6B2"/>
<path d="M66.5302 75.5321C68.1655 79.1399 66.5092 83.3648 62.8306 84.9686C59.152 86.5725 54.8443 84.948 53.209 81.3401C51.5737 77.7323 53.2301 73.5074 56.9087 71.9036C60.5872 70.2997 64.8949 71.9243 66.5302 75.5321Z" fill="#A0A6B2"/>
<path d="M93.04 84.5321C94.6753 88.1399 93.0189 92.3648 89.3404 93.9686C85.6618 95.5725 81.3541 93.948 79.7188 90.3401C78.0835 86.7323 79.7399 82.5074 83.4184 80.9036C87.097 79.2997 91.4047 80.9243 93.04 84.5321Z" fill="#A0A6B2"/>
<path d="M36.2215 75.7499L33.3923 79.5645L31.4386 75.2542L36.2215 75.7499Z" fill="white"/>
<path d="M61.7625 77.5849L58.9333 81.3995L56.9796 77.0891L61.7625 77.5849Z" fill="white"/>
<path d="M88.2723 86.5849L85.4431 90.3995L83.4893 86.0891L88.2723 86.5849Z" fill="white"/>
<path d="M50.9156 68.1758L58.4497 74.9493L89.2549 74.9493C90.7885 74.9493 92.0317 76.1686 92.0317 77.6727L92.0317 111.12C92.0317 112.624 90.7885 113.843 89.2549 113.843L35.0205 113.843C33.4869 113.843 32.2437 112.624 32.2437 111.12L32.2437 70.1834C32.2437 68.6793 33.4869 67.46 35.0205 67.46L49.0392 67.46C49.7339 67.46 50.4034 67.7154 50.9156 68.1758Z" fill="url(#paint8_linear_1413_65652)"/>
<path fill-rule="evenodd" clip-rule="evenodd" d="M39.0283 90.6387C39.8813 97.2615 45.6458 102.383 52.63 102.383C59.6142 102.383 65.3787 97.2615 66.2317 90.6387H62.0179C61.2017 94.9963 57.309 98.2982 52.63 98.2982C47.951 98.2982 44.0583 94.9963 43.2421 90.6387H39.0283Z" fill="#989EAC"/>
<path d="M39.1626 86.0422C39.1626 84.7261 40.2504 83.6592 41.5923 83.6592V83.6592C42.9342 83.6592 44.022 84.7261 44.022 86.0422V86.0422C44.022 87.3582 42.9342 88.4251 41.5923 88.4251V88.4251C40.2504 88.4251 39.1626 87.3582 39.1626 86.0422V86.0422Z" fill="#949BA9"/>
<path d="M18.5099 96.0848C18.5099 97.3069 17.4998 98.2976 16.2537 98.2976C15.0077 98.2976 13.9976 97.3069 13.9976 96.0848C13.9976 94.8628 15.0077 93.8721 16.2537 93.8721C17.4998 93.8721 18.5099 94.8628 18.5099 96.0848Z" fill="#EBEEF0"/>
<path d="M11.568 88.2555C11.568 89.1016 10.8687 89.7875 10.006 89.7875C9.1434 89.7875 8.44409 89.1016 8.44409 88.2555C8.44409 87.4095 9.1434 86.7236 10.006 86.7236C10.8687 86.7236 11.568 87.4095 11.568 88.2555Z" fill="#F9F9F9"/>
<path d="M107.194 93.9572C107.194 94.9442 106.378 95.7444 105.372 95.7444C104.365 95.7444 103.55 94.9442 103.55 93.9572C103.55 92.9701 104.365 92.1699 105.372 92.1699C106.378 92.1699 107.194 92.9701 107.194 93.9572Z" fill="#F6F7F7"/>
<path d="M114.483 99.4043C114.483 100.673 113.434 101.702 112.14 101.702C110.846 101.702 109.797 100.673 109.797 99.4043C109.797 98.1352 110.846 97.1064 112.14 97.1064C113.434 97.1064 114.483 98.1352 114.483 99.4043Z" fill="#F3F3F5"/>
<path d="M104.244 104.511C104.244 106.062 102.962 107.319 101.38 107.319C99.7987 107.319 98.5166 106.062 98.5166 104.511C98.5166 102.96 99.7987 101.702 101.38 101.702C102.962 101.702 104.244 102.96 104.244 104.511Z" fill="#E4E5E6"/>
<ellipse cx="92.052" cy="75" rx="10.1961" ry="10" fill="#EAB82E" stroke="white" stroke-width="2"/>
<path fill-rule="evenodd" clip-rule="evenodd" d="M85.9343 75.5C85.9343 74.6716 86.6059 74 87.4343 74L87.4932 74C88.3216 74 88.9932 74.6716 88.9932 75.5V75.5C88.9932 76.3284 88.3216 77 87.4932 77L87.4343 77C86.6059 77 85.9343 76.3284 85.9343 75.5V75.5Z" fill="white"/>
<path fill-rule="evenodd" clip-rule="evenodd" d="M91.0322 75.5C91.0322 74.6716 91.7038 74 92.5322 74L92.5911 74C93.4195 74 94.0911 74.6716 94.0911 75.5V75.5C94.0911 76.3284 93.4195 77 92.5911 77L92.5322 77C91.7038 77 91.0322 76.3284 91.0322 75.5V75.5Z" fill="white"/>
<path fill-rule="evenodd" clip-rule="evenodd" d="M96.1304 75.5C96.1304 74.6716 96.802 74 97.6304 74L97.6892 74C98.5176 74 99.1892 74.6716 99.1892 75.5V75.5C99.1892 76.3284 98.5176 77 97.6892 77L97.6304 77C96.802 77 96.1304 76.3284 96.1304 75.5V75.5Z" fill="white"/>
<defs>
<linearGradient id="paint0_linear_1413_65652" x1="16.7744" y1="113.787" x2="109.797" y2="113.787" gradientUnits="userSpaceOnUse">
<stop stop-color="#F6F8FA"/>
<stop offset="0.460263" stop-color="#FAFBFC" stop-opacity="0.13"/>
<stop offset="1" stop-color="white" stop-opacity="0"/>
</linearGradient>
<radialGradient id="paint1_radial_1413_65652" cx="0" cy="0" r="1" gradientUnits="userSpaceOnUse" gradientTransform="translate(26.4414 58.9921) rotate(65.6169) scale(38.6185 28.8887)">
<stop stop-color="#F8F9F9"/>
<stop offset="1" stop-color="#D5D8DD"/>
</radialGradient>
<linearGradient id="paint2_linear_1413_65652" x1="37.2317" y1="59.472" x2="34.8617" y2="65.7564" gradientUnits="userSpaceOnUse">
<stop stop-color="#E8E7EC"/>
<stop offset="1" stop-color="#D9DBE0"/>
</linearGradient>
<radialGradient id="paint3_radial_1413_65652" cx="0" cy="0" r="1" gradientUnits="userSpaceOnUse" gradientTransform="translate(67.8307 55.6785) rotate(105.28) scale(38.5439 28.9445)">
<stop stop-color="#F8F9F9"/>
<stop offset="1" stop-color="#D5D8DD"/>
</radialGradient>
<linearGradient id="paint4_linear_1413_65652" x1="75.9122" y1="62.7066" x2="70.0541" y2="66.1551" gradientUnits="userSpaceOnUse">
<stop stop-color="#F9F8F8"/>
<stop offset="1" stop-color="#DBDEE2"/>
</linearGradient>
<radialGradient id="paint5_radial_1413_65652" cx="0" cy="0" r="1" gradientUnits="userSpaceOnUse" gradientTransform="translate(99.5067 73.2815) rotate(123.353) scale(32.8983 24.4852)">
<stop stop-color="#F8F9F9"/>
<stop offset="1" stop-color="#D5D8DD"/>
</radialGradient>
<linearGradient id="paint6_linear_1413_65652" x1="104.178" y1="81.0303" x2="98.513" y2="82.2744" gradientUnits="userSpaceOnUse">
<stop stop-color="#EDEDF0"/>
<stop offset="1" stop-color="#CCCFD6"/>
</linearGradient>
<linearGradient id="paint7_linear_1413_65652" x1="94.3949" y1="77.8721" x2="94.3949" y2="111.659" gradientUnits="userSpaceOnUse">
<stop stop-color="#A1A7B5" stop-opacity="0.31"/>
<stop offset="1" stop-color="#9BA2AE"/>
</linearGradient>
<linearGradient id="paint8_linear_1413_65652" x1="62.0943" y1="75.1195" x2="62.136" y2="113.843" gradientUnits="userSpaceOnUse">
<stop stop-color="#FBFBFC"/>
<stop offset="1" stop-color="#DADCE0"/>
</linearGradient>
</defs>
</svg>
