<svg width="16" height="17" viewBox="0 0 16 17" fill="none" xmlns="http://www.w3.org/2000/svg">
<path fill-rule="evenodd" clip-rule="evenodd" d="M8 2.16675C6.52724 2.16675 5.33333 3.36066 5.33333 4.83341V5.83341H4.66666C3.56209 5.83341 2.66666 6.72885 2.66666 7.83341V12.8334C2.66666 13.938 3.56209 14.8334 4.66666 14.8334H11.3333C12.4379 14.8334 13.3333 13.938 13.3333 12.8334V7.83341C13.3333 6.72885 12.4379 5.83341 11.3333 5.83341H10.6667V4.83341C10.6667 3.36066 9.47276 2.16675 8 2.16675ZM9.33333 5.83341V4.83341C9.33333 4.09703 8.73638 3.50008 8 3.50008C7.26362 3.50008 6.66666 4.09703 6.66666 4.83341V5.83341H9.33333ZM9.5 10.3334C9.5 11.1618 8.82842 11.8334 8 11.8334C7.17157 11.8334 6.5 11.1618 6.5 10.3334C6.5 9.50499 7.17157 8.83341 8 8.83341C8.82842 8.83341 9.5 9.50499 9.5 10.3334Z" fill="#474D57"/>
</svg>
