<svg width="16" height="16" viewBox="0 0 16 17" fill="none" xmlns="http://www.w3.org/2000/svg">
<path d="M8 1.5C4.14019 1.5 1 4.64019 1 8.5C1 12.3598 4.14019 15.5 8 15.5C11.8598 15.5 15 12.3598 15 8.5C15 4.64019 11.8598 1.5 8 1.5ZM12.9216 11.412C12.6099 11.1583 12.2071 10.8702 11.9053 10.7839C11.3895 10.6366 11.021 9.64191 10.4316 9.75238C9.84212 9.86295 9.9159 11.2997 9.76844 11.8155C9.62109 12.3313 8.6264 12.3681 8.25791 12.6629C8.00957 12.8615 7.97887 13.6965 7.98525 14.2196C4.83795 14.2116 2.28021 11.6488 2.28021 8.49974C2.28021 6.13302 3.725 4.09757 5.77916 3.22863C5.59718 4.01714 5.30298 5.24345 5.14503 5.6445C4.90555 6.25236 5.93712 7.57863 5.93712 7.57863L5.52309 9.45754C5.52309 9.45754 7.00558 10.0471 7.66868 8.83125C8.33177 7.61543 8.62648 8.68389 9.03175 8.49966C9.43701 8.31542 8.81072 5.74883 9.03175 5.37424C9.21836 5.05801 11.2697 4.64098 11.9704 4.38584C12.705 5.09499 13.2507 5.99859 13.524 7.01263C13.1015 7.28642 11.9054 7.02592 11.6844 7.56011C11.4635 8.09368 12.7433 8.63577 13.72 8.52955C13.7144 9.581 13.4238 10.5663 12.9217 11.4117L12.9216 11.412Z" fill="#474D57"/>
</svg>
