<svg xmlns="http://www.w3.org/2000/svg" width="24" height="24" viewBox="0 0 24 24" fill="none">
<path d="M11.9575 20.3535C9.64666 20.3535 7.67672 19.539 6.04772 17.91C4.41874 16.281 3.60425 14.3111 3.60425 12.0002C3.60425 9.68935 4.41874 7.71706 6.04772 6.08336C7.67672 4.44966 9.64666 3.63281 11.9575 3.63281C13.4307 3.63281 14.7266 3.92973 15.845 4.52356C16.9635 5.11741 17.9285 5.9426 18.7401 6.99911V4.46759C18.7401 4.22832 18.8171 4.02937 18.971 3.87074C19.1249 3.71212 19.3262 3.63281 19.5749 3.63281C19.8142 3.63281 20.0132 3.71212 20.1718 3.87074C20.3304 4.02937 20.4097 4.22832 20.4097 4.46759V9.51544C20.4097 9.79804 20.313 10.0337 20.1195 10.2225C19.926 10.4113 19.688 10.5057 19.4054 10.5057H14.3434C14.1081 10.5057 13.9125 10.4263 13.7566 10.2677C13.6007 10.1091 13.5227 9.91015 13.5227 9.67086C13.5227 9.4356 13.6021 9.24 13.7607 9.08409C13.9193 8.92817 14.1183 8.85021 14.3575 8.85021H17.6662C17.0235 7.8879 16.2289 7.11018 15.2824 6.51706C14.3359 5.92395 13.2277 5.62739 11.9575 5.62739C10.1785 5.62739 8.67166 6.24478 7.43687 7.47956C6.20209 8.71435 5.5847 10.2212 5.5847 12.0002C5.5847 13.7792 6.20209 15.2861 7.43687 16.5209C8.67166 17.7556 10.1785 18.373 11.9575 18.373C13.1322 18.373 14.2329 18.0721 15.2597 17.4703C16.2865 16.8685 17.0713 16.0517 17.614 15.0198C17.7503 14.7878 17.9458 14.6193 18.2005 14.5143C18.4552 14.4093 18.7059 14.4125 18.9528 14.5241C19.2117 14.6263 19.3887 14.7968 19.4836 15.0355C19.5786 15.2743 19.5702 15.5126 19.4586 15.7502C18.7615 17.1597 17.74 18.2792 16.3939 19.1089C15.0479 19.9386 13.5691 20.3535 11.9575 20.3535Z" fill="#474D57"/>
</svg>