<svg width="24" height="24" viewBox="0 0 24 24" fill="none" xmlns="http://www.w3.org/2000/svg">
<rect width="24" height="24" rx="12" />
<path fill-rule="evenodd" clip-rule="evenodd" d="M15.5 6.3002C14.8372 6.3002 14.3 6.83745 14.3 7.5002C14.3 8.16294 14.8372 8.7002 15.5 8.7002C16.1627 8.7002 16.7 8.16294 16.7 7.5002C16.7 6.83745 16.1627 6.3002 15.5 6.3002ZM12.7 7.5002C12.7 5.9538 13.9536 4.7002 15.5 4.7002C17.0464 4.7002 18.3 5.9538 18.3 7.5002C18.3 9.04659 17.0464 10.3002 15.5 10.3002C14.9316 10.3002 14.4028 10.1309 13.9613 9.83991L10.252 11.9815C10.2835 12.1496 10.3 12.323 10.3 12.5002C10.3 12.5634 10.2979 12.6261 10.2937 12.6883L13.5007 14.5399C14.0089 14.0217 14.7169 13.7002 15.5 13.7002C17.0464 13.7002 18.3 14.9538 18.3 16.5002C18.3 18.0466 17.0464 19.3002 15.5 19.3002C13.9536 19.3002 12.7 18.0466 12.7 16.5002C12.7 16.3139 12.7182 16.1318 12.7529 15.9556L9.72113 14.2052C9.20925 14.8711 8.40472 15.3002 7.49995 15.3002C5.95355 15.3002 4.69995 14.0466 4.69995 12.5002C4.69995 10.9538 5.95355 9.7002 7.49995 9.7002C8.29228 9.7002 9.00774 10.0293 9.5171 10.5583L12.9212 8.59289C12.7788 8.25716 12.7 7.88788 12.7 7.5002ZM7.49995 11.3002C6.83721 11.3002 6.29995 11.8375 6.29995 12.5002C6.29995 13.1629 6.83721 13.7002 7.49995 13.7002C8.16269 13.7002 8.69995 13.1629 8.69995 12.5002C8.69995 11.8375 8.16269 11.3002 7.49995 11.3002ZM14.3 16.5002C14.3 15.8375 14.8372 15.3002 15.5 15.3002C16.1627 15.3002 16.7 15.8375 16.7 16.5002C16.7 17.1629 16.1627 17.7002 15.5 17.7002C14.8372 17.7002 14.3 17.1629 14.3 16.5002Z" fill="#00BA34"/>
</svg>
