<svg width="90" height="90" viewBox="0 0 90 90" fill="none" xmlns="http://www.w3.org/2000/svg">
<path d="M7.95752 62.4463H35.5084V35.5076H7.95752V62.4463Z" fill="#2EC659"/>
<path d="M35.5074 62.4463H62.4461V35.5076H35.5074V62.4463Z" fill="#5ED47F"/>
<path d="M62.4467 62.4463H89.9976V35.5076H62.4467V62.4463Z" fill="#009E2C"/>
<path d="M0 26.9385H26.9387V-0.000211716H12.4332C5.56655 -0.000211716 0 5.56634 0 12.433V26.9385Z" fill="#00BA34"/>
<path d="M35.5107 35.5112H62.4494V7.9603H35.5107V35.5112Z" fill="#009E2C"/>
<path d="M62.4501 35.5112H90.001V33.3919C90.001 19.3464 78.6149 7.9603 64.5694 7.9603H62.4501V35.5112Z" fill="#008425"/>
<path d="M7.95996 77.2842C7.95996 84.3069 13.653 90 20.6758 90H35.5109V62.4491H7.95996V77.2842Z" fill="#5ED47F"/>
<path d="M35.5107 90H62.4494V62.4491H35.5107V90Z" fill="#2EC659"/>
<path d="M62.4501 90H64.5694C78.6149 90 90.001 78.6139 90.001 64.5684V62.4491H62.4501V90Z" fill="#00BA34"/>
</svg>
