<svg width="121" height="120" viewBox="0 0 121 120" fill="none" xmlns="http://www.w3.org/2000/svg">
<path d="M107.904 113.787C107.904 116.983 87.481 119.574 62.2874 119.574C37.0938 119.574 16.6704 116.983 16.6704 113.787C16.6704 110.591 37.0938 108 62.2874 108C87.481 108 107.904 110.591 107.904 113.787Z" fill="url(#paint0_linear_1229_60662)"/>
<path d="M26.9058 92.2256L31.8419 110.183L36.1824 92.2256H26.9058Z" fill="#A3AAB6"/>
<path d="M14.2704 67.2542C13.6594 65.8798 14.2782 64.2703 15.6526 63.6593L30.4804 57.0676L42.9876 61.8768L53.6689 85.904C54.2798 87.2784 53.661 88.8879 52.2866 89.4989L31.2892 98.8332C29.9148 99.4442 28.3053 98.8253 27.6943 97.4509L14.2704 67.2542Z" fill="url(#paint1_radial_1229_60662)"/>
<path d="M30.4805 57.0674L42.9876 61.8766L36.818 64.6193C35.4436 65.2303 33.8342 64.6114 33.2232 63.237L30.4805 57.0674Z" fill="url(#paint2_linear_1229_60662)"/>
<path d="M52.3112 54.6306C52.7005 53.1778 54.1939 52.3156 55.6467 52.7049L71.3207 56.9047L78.0207 68.5094L71.2152 93.9078C70.826 95.3606 69.3326 96.2228 67.8798 95.8335L45.684 89.8862C44.2312 89.4969 43.369 88.0035 43.7583 86.5507L52.3112 54.6306Z" fill="url(#paint3_radial_1229_60662)"/>
<path d="M71.3208 56.9043L78.0208 68.509L71.4991 66.7615C70.0462 66.3722 69.184 64.8789 69.5733 63.426L71.3208 56.9043Z" fill="url(#paint4_linear_1229_60662)"/>
<path d="M86.188 69.0195C87.0037 67.7558 88.6894 67.3927 89.9531 68.2085L101.194 75.4648L103.591 86.5958L91.6952 105.023C90.8794 106.287 89.1937 106.65 87.9301 105.834L72.2134 95.6883C70.9498 94.8725 70.5867 93.1868 71.4024 91.9232L86.188 69.0195Z" fill="url(#paint5_radial_1229_60662)"/>
<path d="M101.193 75.4648L103.591 86.5958L99.1147 83.7062C97.8511 82.8904 97.488 81.2047 98.3037 79.941L101.193 75.4648Z" fill="url(#paint6_linear_1229_60662)"/>
<path d="M87.4787 77.8721L86.6793 103.456C86.593 106.216 90.1962 107.337 91.6912 105.015L94.3724 100.851L87.4787 77.8721Z" fill="url(#paint7_linear_1229_60662)" fill-opacity="0.5"/>
<path d="M40.4193 73.6981C42.0231 77.3059 40.3986 81.5308 36.7908 83.1347C33.183 84.7385 28.9581 83.114 27.3542 79.5062C25.7504 75.8983 27.3749 71.6735 30.9827 70.0696C34.5905 68.4658 38.8154 70.0903 40.4193 73.6981Z" fill="#A0A6B2"/>
<path d="M35.7432 75.7499L32.9684 79.5645L31.0523 75.2542L35.7432 75.7499Z" fill="white"/>
<path d="M50.1546 68.1758L57.5439 74.9493L87.7567 74.9493C89.2608 74.9493 90.4801 76.1686 90.4801 77.6727L90.4801 111.12C90.4801 112.624 89.2608 113.843 87.7567 113.843L34.5652 113.843C33.0611 113.843 31.8418 112.624 31.8418 111.12L31.8418 70.1834C31.8418 68.6793 33.0611 67.46 34.5652 67.46L48.3144 67.46C48.9957 67.46 49.6523 67.7154 50.1546 68.1758Z" fill="url(#paint8_linear_1229_60662)"/>
<path fill-rule="evenodd" clip-rule="evenodd" d="M38.4961 90.6387C39.3327 97.2615 44.9863 102.383 51.8362 102.383C58.6861 102.383 64.3397 97.2615 65.1763 90.6387H61.0435C60.2431 94.9963 56.4253 98.2982 51.8362 98.2982C47.2471 98.2982 43.4293 94.9963 42.6289 90.6387H38.4961Z" fill="#989EAC"/>
<path d="M38.5 86.0422C38.5 84.7261 39.5669 83.6592 40.883 83.6592C42.1991 83.6592 43.266 84.7261 43.266 86.0422C43.266 87.3582 42.1991 88.4251 40.883 88.4251C39.5669 88.4251 38.5 87.3582 38.5 86.0422Z" fill="#949BA9"/>
<path d="M18.3723 96.0848C18.3723 97.3069 17.3816 98.2976 16.1595 98.2976C14.9375 98.2976 13.9468 97.3069 13.9468 96.0848C13.9468 94.8628 14.9375 93.8721 16.1595 93.8721C17.3816 93.8721 18.3723 94.8628 18.3723 96.0848Z" fill="#EBEEF0"/>
<path d="M11.5638 88.2555C11.5638 89.1016 10.878 89.7875 10.0319 89.7875C9.18586 89.7875 8.5 89.1016 8.5 88.2555C8.5 87.4095 9.18586 86.7236 10.0319 86.7236C10.878 86.7236 11.5638 87.4095 11.5638 88.2555Z" fill="#F9F9F9"/>
<path d="M105.351 93.9572C105.351 94.9442 104.551 95.7444 103.564 95.7444C102.577 95.7444 101.776 94.9442 101.776 93.9572C101.776 92.9701 102.577 92.1699 103.564 92.1699C104.551 92.1699 105.351 92.9701 105.351 93.9572Z" fill="#F6F7F7"/>
<path d="M112.5 99.4043C112.5 100.673 111.471 101.702 110.202 101.702C108.933 101.702 107.904 100.673 107.904 99.4043C107.904 98.1352 108.933 97.1064 110.202 97.1064C111.471 97.1064 112.5 98.1352 112.5 99.4043Z" fill="#F3F3F5"/>
<path d="M102.457 104.511C102.457 106.062 101.2 107.319 99.6488 107.319C98.0977 107.319 96.8403 106.062 96.8403 104.511C96.8403 102.96 98.0977 101.702 99.6488 101.702C101.2 101.702 102.457 102.96 102.457 104.511Z" fill="#E4E5E6"/>
<circle cx="90.5" cy="71" r="13" fill="#00BA34" stroke="white" stroke-width="2"/>
<path fill-rule="evenodd" clip-rule="evenodd" d="M89.0998 76.0381C88.5791 76.5588 87.7349 76.5588 87.2142 76.0381L83.4429 72.2669C82.9222 71.7462 82.9222 70.902 83.4429 70.3813C83.9636 69.8606 84.8079 69.8606 85.3286 70.3813L89.0998 74.1525C89.6205 74.6732 89.6205 75.5174 89.0998 76.0381Z" fill="white"/>
<path fill-rule="evenodd" clip-rule="evenodd" d="M87.2141 76.038C86.6934 75.5173 86.6934 74.6731 87.2141 74.1524L94.7565 66.6099C95.2772 66.0892 96.1215 66.0892 96.6422 66.6099C97.1629 67.1306 97.1629 67.9748 96.6422 68.4955L89.0997 76.038C88.579 76.5587 87.7348 76.5587 87.2141 76.038Z" fill="white"/>
<defs>
<linearGradient id="paint0_linear_1229_60662" x1="16.6704" y1="113.787" x2="107.904" y2="113.787" gradientUnits="userSpaceOnUse">
<stop stop-color="#F6F8FA"/>
<stop offset="0.460263" stop-color="#FAFBFC" stop-opacity="0.13"/>
<stop offset="1" stop-color="white" stop-opacity="0"/>
</linearGradient>
<radialGradient id="paint1_radial_1229_60662" cx="0" cy="0" r="1" gradientUnits="userSpaceOnUse" gradientTransform="translate(26.1513 58.9921) rotate(66.0325) scale(38.4929 28.4255)">
<stop stop-color="#F8F9F9"/>
<stop offset="1" stop-color="#D5D8DD"/>
</radialGradient>
<linearGradient id="paint2_linear_1229_60662" x1="36.7341" y1="59.472" x2="34.3295" y2="65.7256" gradientUnits="userSpaceOnUse">
<stop stop-color="#E8E7EC"/>
<stop offset="1" stop-color="#D9DBE0"/>
</linearGradient>
<radialGradient id="paint3_radial_1229_60662" cx="0" cy="0" r="1" gradientUnits="userSpaceOnUse" gradientTransform="translate(66.7446 55.6785) rotate(105) scale(38.4929 28.4255)">
<stop stop-color="#F8F9F9"/>
<stop offset="1" stop-color="#D5D8DD"/>
</radialGradient>
<linearGradient id="paint4_linear_1229_60662" x1="74.6708" y1="62.7066" x2="68.8684" y2="66.0566" gradientUnits="userSpaceOnUse">
<stop stop-color="#F9F8F8"/>
<stop offset="1" stop-color="#DBDEE2"/>
</linearGradient>
<radialGradient id="paint5_radial_1229_60662" cx="0" cy="0" r="1" gradientUnits="userSpaceOnUse" gradientTransform="translate(97.8114 73.2815) rotate(122.844) scale(32.7083 24.1538)">
<stop stop-color="#F8F9F9"/>
<stop offset="1" stop-color="#D5D8DD"/>
</radialGradient>
<linearGradient id="paint6_linear_1229_60662" x1="102.392" y1="81.0303" x2="96.8267" y2="82.2291" gradientUnits="userSpaceOnUse">
<stop stop-color="#EDEDF0"/>
<stop offset="1" stop-color="#CCCFD6"/>
</linearGradient>
<linearGradient id="paint7_linear_1229_60662" x1="92.7979" y1="77.8721" x2="92.7979" y2="111.659" gradientUnits="userSpaceOnUse">
<stop stop-color="#A1A7B5" stop-opacity="0.31"/>
<stop offset="1" stop-color="#9BA2AE"/>
</linearGradient>
<linearGradient id="paint8_linear_1229_60662" x1="61.1184" y1="75.1195" x2="61.1609" y2="113.843" gradientUnits="userSpaceOnUse">
<stop stop-color="#FBFBFC"/>
<stop offset="1" stop-color="#DADCE0"/>
</linearGradient>
</defs>
</svg>
