<svg width="17" height="16" viewBox="0 0 17 16" fill="none" xmlns="http://www.w3.org/2000/svg">
  <path fill-rule="evenodd" clip-rule="evenodd"
    d="M10.5218 3.19526C10.7821 2.93491 11.2042 2.93491 11.4646 3.19526L14.1313 5.86193C14.3219 6.05259 14.379 6.33934 14.2758 6.58846C14.1726 6.83757 13.9295 7 13.6599 7H4.32652C3.95833 7 3.65985 6.70152 3.65985 6.33333C3.65985 5.96514 3.95833 5.66667 4.32652 5.66667H12.0504L10.5218 4.13807C10.2614 3.87772 10.2614 3.45561 10.5218 3.19526Z"
    fill="currentColor" />
  <path fill-rule="evenodd" clip-rule="evenodd"
    d="M7.46455 12.8047C7.2042 13.0651 6.78209 13.0651 6.52174 12.8047L3.85507 10.1381C3.66441 9.9474 3.60737 9.66066 3.71056 9.41154C3.81374 9.16243 4.05684 9 4.32648 9L13.6598 9C14.028 9 14.3265 9.29848 14.3265 9.66667C14.3265 10.0349 14.028 10.3333 13.6598 10.3333L5.93595 10.3333L7.46455 11.8619C7.7249 12.1223 7.7249 12.5444 7.46455 12.8047Z"
    fill="currentColor" />
</svg>