
<svg width="24" height="24" viewBox="0 0 24 24" fill="none" xmlns="http://www.w3.org/2000/svg">
<path d="M22 12C22 17.5228 17.5228 22 12 22C6.47715 22 2 17.5228 2 12C2 6.47715 6.47715 2 12 2C17.5228 2 22 6.47715 22 12Z" fill="currentColor"/>
<circle cx="12" cy="6.5" r="1.5" fill="white"/>
<path d="M12.6948 9.06172L9.44478 9.4506C9.19157 9.47874 9 9.69277 9 9.94755V10.5C9 10.7762 9.22717 10.9898 9.49671 11.0498C10.1656 11.1988 10.75 11.6822 10.75 12.5V15.5C10.75 16.3179 10.1656 16.8013 9.49671 16.9503C9.22717 17.0103 9 17.2239 9 17.5V18C9 18.2762 9.22386 18.5 9.5 18.5H14.5C14.7761 18.5 15 18.2762 15 18V17.5C15 17.2239 14.7728 17.0103 14.5033 16.9503C13.8344 16.8013 13.25 16.3179 13.25 15.5V9.5583C13.25 9.26029 12.991 9.02881 12.6948 9.06172Z" fill="white"/>
</svg>
