<svg width="20" height="20" viewBox="0 0 20 20" fill="none" xmlns="http://www.w3.org/2000/svg">
<g id="south_west_FILL0_wght600_GRAD0_opsz48 1">
<path id="Vector" d="M4.79198 16.0335C4.55994 16.0335 4.3644 15.954 4.20536 15.795C4.04632 15.6359 3.9668 15.4404 3.9668 15.2083V8.20834C3.9668 7.97629 4.04666 7.78075 4.2064 7.62171C4.36615 7.46267 4.56256 7.38315 4.79563 7.38315C5.02871 7.38315 5.22391 7.46267 5.38121 7.62171C5.53852 7.78075 5.61717 7.97629 5.61717 8.20834V13.2255L15.2132 3.62952C15.3774 3.46527 15.5704 3.38315 15.792 3.38315C16.0136 3.38315 16.2065 3.46527 16.3708 3.62952C16.535 3.79377 16.6172 3.98868 16.6172 4.21423C16.6172 4.43977 16.535 4.63467 16.3708 4.79892L6.7748 14.3831H11.792C12.024 14.3831 12.2196 14.463 12.3786 14.6228C12.5377 14.7825 12.6172 14.9789 12.6172 15.212C12.6172 15.4451 12.5377 15.6403 12.3786 15.7976C12.2196 15.9549 12.024 16.0335 11.792 16.0335H4.79198Z" fill="#00BA34"/>
</g>
</svg>
