<svg width="20" height="20" viewBox="0 0 20 20" fill="none" xmlns="http://www.w3.org/2000/svg">
<g id="north_east_FILL1_wght600_GRAD0_opsz48 1">
<path id="Vector" d="M14.4536 6.69204L4.77517 16.3705C4.60306 16.5347 4.40815 16.6169 4.19046 16.6169C3.97276 16.6169 3.78179 16.5347 3.61754 16.3705C3.44543 16.2062 3.35938 16.0133 3.35938 15.7917C3.35938 15.57 3.44543 15.3771 3.61754 15.2129L13.296 5.53441H8.27877C8.04674 5.53441 7.85121 5.45455 7.69217 5.29481C7.53311 5.13506 7.45358 4.93473 7.45358 4.69381C7.45358 4.46073 7.53311 4.26553 7.69217 4.10823C7.85121 3.95092 8.04674 3.87227 8.27877 3.87227H15.2788C15.5108 3.87227 15.7064 3.95179 15.8654 4.11083C16.0245 4.26987 16.104 4.46541 16.104 4.69746V11.6975C16.104 11.9373 16.0241 12.1368 15.8644 12.2959C15.7046 12.4549 15.5082 12.5344 15.2751 12.5344C15.0421 12.5344 14.8469 12.4549 14.6896 12.2959C14.5322 12.1368 14.4536 11.9373 14.4536 11.6975V6.69204Z" fill="currentColor"/>
</g>
</svg>
