<svg width="24" height="24" viewBox="0 0 24 24" fill="none" xmlns="http://www.w3.org/2000/svg">
<path fill-rule="evenodd" clip-rule="evenodd" d="M2.5 7.5C2.5 5.84315 3.84315 4.5 5.5 4.5H18.5C20.1569 4.5 21.5 5.84315 21.5 7.5V16.5C21.5 18.1569 20.1569 19.5 18.5 19.5H5.5C3.84315 19.5 2.5 18.1569 2.5 16.5V7.5ZM5.5 6.5C4.94772 6.5 4.5 6.94772 4.5 7.5V16.5C4.5 17.0523 4.94772 17.5 5.5 17.5H18.5C19.0523 17.5 19.5 17.0523 19.5 16.5V15.875H14.5C12.3599 15.875 10.625 14.1401 10.625 12C10.625 9.8599 12.3599 8.125 14.5 8.125H19.5V7.5C19.5 6.94772 19.0523 6.5 18.5 6.5H5.5ZM19.5 9.875H14.5C13.3264 9.875 12.375 10.8264 12.375 12C12.375 13.1736 13.3264 14.125 14.5 14.125H19.5V9.875ZM16 12C16 12.6904 15.4404 13.25 14.75 13.25C14.0596 13.25 13.5 12.6904 13.5 12C13.5 11.3096 14.0596 10.75 14.75 10.75C15.4404 10.75 16 11.3096 16 12Z" fill="currentColor"/>
</svg>
