<svg width="24" height="24" viewBox="0 0 24 24" fill="none" xmlns="http://www.w3.org/2000/svg">
<path fill-rule="evenodd" clip-rule="evenodd" d="M2.5 6.5C2.5 5.39543 3.39543 4.5 4.5 4.5H19.5C20.6046 4.5 21.5 5.39543 21.5 6.5V7.75H15C12.6528 7.75 10.75 9.65279 10.75 12C10.75 14.3472 12.6528 16.25 15 16.25H21.5V17.5C21.5 18.6046 20.6046 19.5 19.5 19.5H4.5C3.39543 19.5 2.5 18.6046 2.5 17.5V6.5ZM15 9.25H21.5V14.75H15C13.4812 14.75 12.25 13.5188 12.25 12C12.25 10.4812 13.4812 9.25 15 9.25ZM15 13C15.5523 13 16 12.5523 16 12C16 11.4477 15.5523 11 15 11C14.4477 11 14 11.4477 14 12C14 12.5523 14.4477 13 15 13Z" fill="currentColor"/>
</svg>
