<svg width="16" height="16" viewBox="0 0 16 16" fill="none" xmlns="http://www.w3.org/2000/svg">
<path d="M1.13937 12.5331L7.1704 2.47023C7.54617 1.84325 8.45383 1.84326 8.8296 2.47023L14.8606 12.5331C15.2475 13.1787 14.783 14 14.031 14H1.96897C1.21695 14 0.75246 13.1787 1.13937 12.5331Z" fill="#EE3911"/>
<path d="M9 11.723C9 12.2753 8.55228 12.723 8 12.723C7.44772 12.723 7 12.2753 7 11.723C7 11.1707 7.44772 10.723 8 10.723C8.55228 10.723 9 11.1707 9 11.723Z" fill="white"/>
<path d="M7.1684 5.6587C7.13842 5.15166 7.51942 4.72302 8.00008 4.72302C8.48075 4.72302 8.86174 5.15166 8.83176 5.6587L8.62831 9.09924C8.60757 9.44987 8.33247 9.72302 8.00008 9.72302C7.66769 9.72302 7.39259 9.44987 7.37186 9.09924L7.1684 5.6587Z" fill="white"/>
</svg>
