<svg width="16" height="16" viewBox="0 0 16 16" fill="none" xmlns="http://www.w3.org/2000/svg">
  <path
    d="M14.6667 7.99967C14.6667 11.6816 11.6819 14.6663 8 14.6663C4.3181 14.6663 1.33334 11.6816 1.33334 7.99967C1.33334 4.31778 4.3181 1.33301 8 1.33301C11.6819 1.33301 14.6667 4.31778 14.6667 7.99967Z"
    fill="currentColor" />
  <path
    d="M9 11C9 11.5523 8.55228 12 8 12C7.44772 12 7 11.5523 7 11C7 10.4477 7.44772 10 8 10C8.55228 10 9 10.4477 9 11Z"
    fill="white" />
  <path
    d="M7.16832 4.93567C7.13834 4.42864 7.51933 4 8 4C8.48066 4 8.86166 4.42864 8.83167 4.93567L8.62822 8.37622C8.60749 8.72684 8.33239 9 8 9C7.66761 9 7.39251 8.72684 7.37177 8.37622L7.16832 4.93567Z"
    fill="white" />
</svg>