<svg width="20" height="20" viewBox="0 0 20 20" fill="none" xmlns="http://www.w3.org/2000/svg">
<g id="icon_regular_Deposit">
<path id="Ellipse 265 (Stroke)" fill-rule="evenodd" clip-rule="evenodd" d="M5.73177 15.1884C6.06593 14.8719 6.08028 14.3445 5.76381 14.0103C4.77308 12.9642 4.16667 11.5538 4.16667 10C4.16667 6.77834 6.77834 4.16667 10 4.16667C13.2217 4.16667 15.8333 6.77834 15.8333 10C15.8333 11.5538 15.2269 12.9642 14.2362 14.0103C13.9197 14.3445 13.9341 14.8719 14.2682 15.1884C14.6024 15.5049 15.1298 15.4905 15.4463 15.1564C16.7185 13.813 17.5 11.9969 17.5 10C17.5 5.85786 14.1421 2.5 10 2.5C5.85786 2.5 2.5 5.85786 2.5 10C2.5 11.9969 3.28151 13.813 4.55369 15.1564C4.87016 15.4905 5.3976 15.5049 5.73177 15.1884Z" fill="#00BA34"/>
<path id="Vector 236 (Stroke)" fill-rule="evenodd" clip-rule="evenodd" d="M13.5059 11.4226C13.8314 11.0972 13.8314 10.5695 13.5059 10.2441L10.5893 7.32741C10.2638 7.00197 9.73618 7.00197 9.41074 7.32741L6.49408 10.2441C6.16864 10.5695 6.16864 11.0972 6.49408 11.4226C6.81951 11.748 7.34715 11.748 7.67259 11.4226L9.16667 9.79167L9.16667 16.6667C9.16667 17.1269 9.53976 17.5 10 17.5C10.4602 17.5 10.8333 17.1269 10.8333 16.6667L10.8333 9.79167L12.3274 11.4226C12.6528 11.748 13.1805 11.748 13.5059 11.4226Z" fill="#00BA34"/>
</g>
</svg>
