<svg xmlns="http://www.w3.org/2000/svg" width="120" height="120" viewBox="0 0 120 120" fill="none">
    <rect width="120" height="120" fill="white"/>
    <path d="M104.234 113.787C104.234 116.983 83.8106 119.574 58.617 119.574C33.4234 119.574 13 116.983 13 113.787C13 110.591 33.4234 108 58.617 108C83.8106 108 104.234 110.591 104.234 113.787Z" fill="url(#paint0_linear_6489_216767)"/>
    <path fill-rule="evenodd" clip-rule="evenodd" d="M26.7436 42H45.6955C46.9346 42 47.9391 42.6586 47.9391 43.4711V53.007C47.9391 53.8195 46.9346 54.4781 45.6955 54.4781H42.0486V57.3427C42.0486 57.3427 38.8366 55.3675 37.6137 54.4781H26.7436C25.5045 54.4781 24.5 53.8195 24.5 53.007V43.4711C24.5 42.6586 25.5045 42 26.7436 42Z" fill="url(#paint1_linear_6489_216767)"/>
    <path fill-rule="evenodd" clip-rule="evenodd" d="M88.5102 76.6525C89.7053 74.9088 90.3565 72.8499 90.3815 70.7361C90.3981 69.3325 90.138 67.9393 89.6161 66.6362C89.0942 65.333 88.3208 64.1454 87.3399 63.1413C86.359 62.1371 85.1899 61.3359 83.8994 60.7836C82.6089 60.2312 81.2222 59.9385 79.8185 59.9221C77.7048 59.8974 75.6311 60.5001 73.8598 61.6539C72.0886 62.8077 70.6992 64.4608 69.8674 66.4042C69.0357 68.3476 68.7988 70.494 69.1869 72.572C69.575 74.65 70.5705 76.5663 72.0476 78.0785C73.5247 79.5907 75.4171 80.631 77.4854 81.0677C79.5537 81.5045 81.705 81.3181 83.6674 80.5322C85.6299 79.7463 87.3151 78.3962 88.5102 76.6525ZM66.628 86.605C63.1971 89.8709 61.1533 94.331 60.9199 99.0621H97.7826C97.5492 94.331 95.5055 89.8709 92.0745 86.605C88.6435 83.3391 84.0881 81.5177 79.3513 81.5177C74.6145 81.5177 70.059 83.3391 66.628 86.605Z" fill="#E0E5EF"/>
    <path fill-rule="evenodd" clip-rule="evenodd" d="M49.8052 76.6525C51.0002 74.9088 51.6514 72.8499 51.6764 70.7361C51.693 69.3325 51.4329 67.9393 50.911 66.6362C50.3891 65.333 49.6157 64.1454 48.6348 63.1413C47.6539 62.1371 46.4848 61.3359 45.1943 60.7836C43.9038 60.2312 42.5171 59.9385 41.1134 59.9221C38.9997 59.8974 36.926 60.5001 35.1548 61.6539C33.3835 62.8077 31.9941 64.4608 31.1624 66.4042C30.3306 68.3476 30.0938 70.494 30.4818 72.572C30.8699 74.65 31.8654 76.5663 33.3425 78.0785C34.8196 79.5907 36.712 80.631 38.7803 81.0677C40.8486 81.5045 43 81.3181 44.9624 80.5322C46.9248 79.7463 48.6101 78.3962 49.8052 76.6525ZM22.2148 99.0621H59.0776C58.8442 94.331 56.8004 89.8709 53.3694 86.605C49.9385 83.3391 45.383 81.5177 40.6462 81.5177C35.9094 81.5177 31.3539 83.3391 27.923 86.605C24.492 89.8709 22.4483 94.331 22.2148 99.0621Z" fill="#E0E5EF"/>
    <path fill-rule="evenodd" clip-rule="evenodd" d="M71.9339 77.0906C73.3689 74.9968 74.1509 72.5244 74.1809 69.9863C74.2008 68.3008 73.8885 66.6278 73.2618 65.063C72.6352 63.4982 71.7064 62.0722 70.5286 60.8664C69.3507 59.6606 67.9469 58.6985 66.3973 58.0353C64.8476 57.3721 63.1825 57.0206 61.497 57.0009C58.9588 56.9712 56.4688 57.6949 54.3419 59.0804C52.2149 60.4659 50.5466 62.4509 49.5478 64.7845C48.549 67.1181 48.2646 69.6955 48.7306 72.1908C49.1966 74.686 50.392 76.987 52.1657 78.8029C53.9394 80.6187 56.2117 81.8679 58.6954 82.3923C61.179 82.9168 63.7623 82.693 66.1187 81.7493C68.4752 80.8056 70.4989 79.1844 71.9339 77.0906ZM45.657 89.0414C41.5371 92.963 39.083 98.3187 38.8027 104H83.0672C82.7869 98.3187 80.3328 92.963 76.2129 89.0414C72.093 85.1197 66.6229 82.9325 60.9349 82.9325C55.247 82.9325 49.7769 85.1197 45.657 89.0414Z" fill="url(#paint2_linear_6489_216767)"/>
    <defs>
        <linearGradient id="paint0_linear_6489_216767" x1="13" y1="113.787" x2="104.234" y2="113.787" gradientUnits="userSpaceOnUse">
            <stop stop-color="#F6F8FA"/>
            <stop offset="0.460263" stop-color="#FAFBFC" stop-opacity="0.13"/>
            <stop offset="1" stop-color="white" stop-opacity="0"/>
        </linearGradient>
        <linearGradient id="paint1_linear_6489_216767" x1="25" y1="42.5" x2="49" y2="53.5" gradientUnits="userSpaceOnUse">
            <stop stop-color="#FAFBFF"/>
            <stop offset="1" stop-color="#D6E0E6"/>
        </linearGradient>
        <linearGradient id="paint2_linear_6489_216767" x1="60.9349" y1="57" x2="60.9349" y2="104" gradientUnits="userSpaceOnUse">
            <stop stop-color="#E4E4F0"/>
            <stop offset="1" stop-color="#B9BBC0"/>
        </linearGradient>
    </defs>
</svg>
