<svg xmlns="http://www.w3.org/2000/svg" width="48" height="48" viewBox="0 0 48 48" fill="none">
    <rect width="48" height="48" rx="4" fill="#00BA34" fill-opacity="0.1"/>
    <path opacity="0.8" d="M42.8008 38.8C42.8008 40.1255 34.2942 41.2 23.8008 41.2C13.3074 41.2 4.80078 40.1255 4.80078 38.8C4.80078 37.4745 13.3074 36.4 23.8008 36.4C34.2942 36.4 42.8008 37.4745 42.8008 38.8Z" fill="url(#paint0_linear_7303_9223)"/>
    <path fill-rule="evenodd" clip-rule="evenodd" d="M7.90985 8H17.0802C17.6797 8 18.1658 8.3187 18.1658 8.71184V13.326C18.1658 13.7192 17.6797 14.0379 17.0802 14.0379H15.3158V15.4239C15.3158 15.4239 13.7617 14.4682 13.17 14.0379H7.90985C7.31027 14.0379 6.82422 13.7192 6.82422 13.326V8.71184C6.82422 8.3187 7.31027 8 7.90985 8Z" fill="white"/>
    <path fill-rule="evenodd" clip-rule="evenodd" d="M37.7913 24.7676C38.3696 23.9238 38.6847 22.9276 38.6968 21.9048C38.7048 21.2256 38.579 20.5515 38.3264 19.9209C38.0739 19.2904 37.6996 18.7157 37.225 18.2298C36.7504 17.7439 36.1847 17.3563 35.5603 17.089C34.9358 16.8217 34.2648 16.6801 33.5856 16.6722C32.5628 16.6602 31.5595 16.9518 30.7024 17.5101C29.8453 18.0684 29.173 18.8683 28.7706 19.8087C28.3681 20.7491 28.2535 21.7876 28.4413 22.7931C28.629 23.7986 29.1107 24.7258 29.8255 25.4576C30.5402 26.1893 31.4559 26.6926 32.4567 26.904C33.4575 27.1153 34.4985 27.0252 35.448 26.6449C36.3976 26.2646 37.2131 25.6113 37.7913 24.7676ZM27.2054 29.5833C25.5452 31.1636 24.5563 33.3217 24.4434 35.611H42.2803C42.1673 33.3217 41.1784 31.1636 39.5183 29.5833C37.8581 28.003 35.6539 27.1217 33.3618 27.1217C31.0698 27.1217 28.8655 28.003 27.2054 29.5833Z" fill="#B7F4C9"/>
    <path fill-rule="evenodd" clip-rule="evenodd" d="M19.0673 24.7676C19.6456 23.9238 19.9607 22.9276 19.9728 21.9048C19.9808 21.2256 19.8549 20.5515 19.6024 19.9209C19.3499 19.2904 18.9756 18.7157 18.501 18.2298C18.0264 17.7439 17.4607 17.3563 16.8363 17.089C16.2118 16.8217 15.5408 16.6801 14.8616 16.6722C13.8388 16.6602 12.8354 16.9518 11.9784 17.5101C11.1213 18.0684 10.449 18.8683 10.0465 19.8087C9.64407 20.7491 9.52948 21.7876 9.71725 22.7931C9.90503 23.7986 10.3867 24.7258 11.1015 25.4576C11.8162 26.1893 12.7319 26.6926 13.7327 26.904C14.7335 27.1153 15.7745 27.0252 16.724 26.6449C17.6736 26.2646 18.489 25.6113 19.0673 24.7676ZM8.47686 29.5833C6.8167 31.1636 5.82778 33.3217 5.71484 35.611H23.5518C23.4388 33.3217 22.4499 31.1636 20.7898 29.5833C19.1296 28.003 16.9253 27.1217 14.6333 27.1217C12.3413 27.1217 10.137 28.003 8.47686 29.5833Z" fill="#B7F4C9"/>
    <path fill-rule="evenodd" clip-rule="evenodd" d="M29.774 24.9794C30.4683 23.9662 30.8467 22.7699 30.8612 21.5418C30.8709 20.7262 30.7197 19.9167 30.4165 19.1596C30.1133 18.4024 29.6639 17.7124 29.094 17.1289C28.524 16.5454 27.8448 16.0799 27.0949 15.759C26.3451 15.4381 25.5394 15.268 24.7238 15.2585C23.4956 15.2441 22.2908 15.5943 21.2616 16.2647C20.2325 16.9351 19.4252 17.8956 18.9419 19.0248C18.4586 20.154 18.321 21.4011 18.5465 22.6085C18.772 23.8159 19.3504 24.9293 20.2087 25.8079C21.0669 26.6866 22.1664 27.291 23.3682 27.5448C24.5699 27.7985 25.8199 27.6903 26.9602 27.2336C28.1004 26.777 29.0796 25.9925 29.774 24.9794ZM17.0588 30.7621C15.0653 32.6597 13.8778 35.2512 13.7422 38.0001H35.1606C35.025 35.2512 33.8375 32.6597 31.844 30.7621C29.8505 28.8645 27.2036 27.8062 24.4514 27.8062C21.6991 27.8062 19.0523 28.8645 17.0588 30.7621Z" fill="#91E1A8"/>
    <defs>
        <linearGradient id="paint0_linear_7303_9223" x1="4.80078" y1="38.8" x2="42.8008" y2="38.8" gradientUnits="userSpaceOnUse">
            <stop stop-color="#91E1A8" stop-opacity="0.15"/>
            <stop offset="0.460263" stop-color="#428455" stop-opacity="0.07"/>
            <stop offset="1" stop-color="#91E1A8" stop-opacity="0.15"/>
        </linearGradient>
    </defs>
</svg>
