<svg xmlns="http://www.w3.org/2000/svg" width="16" height="17" viewBox="0 0 16 17" fill="none">
    <path fill-rule="evenodd" clip-rule="evenodd" d="M12.4304 3.66821C11.1287 2.36646 9.01813 2.36646 7.71638 3.66821L6.30217 5.08242C5.00042 6.38417 5.00042 8.49472 6.30217 9.79646L6.77357 10.2679C7.03392 10.5282 7.45603 10.5282 7.71638 10.2679C7.97673 10.0075 7.97673 9.58541 7.71638 9.32506L7.24498 8.85365C6.46393 8.07261 6.46393 6.80628 7.24498 6.02523L8.65919 4.61101C9.44024 3.82997 10.7066 3.82997 11.4876 4.61101C12.2687 5.39206 12.2687 6.65839 11.4876 7.43944C11.2273 7.69979 11.2273 8.1219 11.4876 8.38225C11.748 8.6426 12.1701 8.6426 12.4304 8.38225C13.7322 7.0805 13.7322 4.96995 12.4304 3.66821ZM3.23803 13.332C4.53978 14.6338 6.65033 14.6338 7.95207 13.332L9.36629 11.9178C10.668 10.616 10.668 8.5055 9.36629 7.20375L8.89488 6.73235C8.63453 6.472 8.21242 6.472 7.95208 6.73235C7.69173 6.9927 7.69173 7.4148 7.95208 7.67515L8.42348 8.14656C9.20453 8.92761 9.20453 10.1939 8.42348 10.975L7.00927 12.3892C6.22822 13.1702 4.96189 13.1702 4.18084 12.3892C3.39979 11.6082 3.39979 10.3418 4.18084 9.56077C4.44119 9.30042 4.44119 8.87831 4.18084 8.61796C3.92049 8.35761 3.49838 8.35761 3.23803 8.61796C1.93628 9.91971 1.93628 12.0303 3.23803 13.332Z" fill="currentColor"/>
</svg>
