<svg xmlns="http://www.w3.org/2000/svg" width="16" height="17" viewBox="0 0 16 17" fill="none">
    <path d="M6.29987 12.1999C6.2332 12.1999 6.17209 12.1888 6.11654 12.1666C6.06098 12.1444 6.00543 12.1055 5.94987 12.0499L2.9332 9.03327C2.8332 8.93327 2.7832 8.81105 2.7832 8.6666C2.7832 8.52216 2.8332 8.39994 2.9332 8.29994C3.0332 8.19993 3.14987 8.14994 3.2832 8.14994C3.41654 8.14994 3.5332 8.19993 3.6332 8.29994L6.29987 10.9666L12.3499 4.9166C12.4499 4.8166 12.5693 4.7666 12.7082 4.7666C12.8471 4.7666 12.9665 4.8166 13.0665 4.9166C13.1665 5.0166 13.2165 5.13605 13.2165 5.27493C13.2165 5.41382 13.1665 5.53327 13.0665 5.63327L6.64987 12.0499C6.59431 12.1055 6.53876 12.1444 6.4832 12.1666C6.42765 12.1888 6.36654 12.1999 6.29987 12.1999Z" fill="#00BA34"/>
</svg>
