<svg width="24" height="24" viewBox="0 0 24 24" fill="none" xmlns="http://www.w3.org/2000/svg">
<path fill-rule="evenodd" clip-rule="evenodd" d="M6.5 3C5.11929 3 4 4.11929 4 5.5V18.5C4 19.8807 5.11929 21 6.5 21H12C13.3807 21 14.5 19.8807 14.5 18.5V17.5C14.5 16.9477 14.0523 16.5 13.5 16.5C12.9477 16.5 12.5 16.9477 12.5 17.5V18.5C12.5 18.7761 12.2761 19 12 19H6.5C6.22386 19 6 18.7761 6 18.5V5.5C6 5.22386 6.22386 5 6.5 5H12C12.2761 5 12.5 5.22386 12.5 5.5V6.5C12.5 7.05228 12.9477 7.5 13.5 7.5C14.0523 7.5 14.5 7.05228 14.5 6.5V5.5C14.5 4.11929 13.3807 3 12 3H6.5ZM17.7071 7.29289C17.3166 6.90237 16.6834 6.90237 16.2929 7.29289C15.9024 7.68342 15.9024 8.31658 16.2929 8.70711L18.75 11H10.5C9.94772 11 9.5 11.4477 9.5 12C9.5 12.5523 9.94772 13 10.5 13H18.75L16.2929 15.2929C15.9024 15.6834 15.9024 16.3166 16.2929 16.7071C16.6834 17.0976 17.3166 17.0976 17.7071 16.7071L21.7071 12.7071C22.0976 12.3166 22.0976 11.6834 21.7071 11.2929L17.7071 7.29289Z" fill="#1E2026"/>
</svg>
