<svg width="17" height="16" viewBox="0 0 17 16" fill="none" xmlns="http://www.w3.org/2000/svg">
<path fill-rule="evenodd" clip-rule="evenodd" d="M10.0286 3.19526C10.289 2.93491 10.7111 2.93491 10.9714 3.19526L13.6381 5.86193C13.8288 6.05259 13.8858 6.33934 13.7826 6.58846C13.6794 6.83757 13.4363 7 13.1667 7H3.83335C3.46516 7 3.16669 6.70152 3.16669 6.33333C3.16669 5.96514 3.46516 5.66667 3.83335 5.66667H11.5572L10.0286 4.13807C9.76827 3.87772 9.76827 3.45561 10.0286 3.19526Z" fill="white"/>
<path fill-rule="evenodd" clip-rule="evenodd" d="M6.97138 12.8047C6.71103 13.0651 6.28892 13.0651 6.02857 12.8047L3.36191 10.1381C3.17124 9.9474 3.11421 9.66066 3.21739 9.41154C3.32058 9.16243 3.56367 9 3.83331 9L13.1666 9C13.5348 9 13.8333 9.29848 13.8333 9.66667C13.8333 10.0349 13.5348 10.3333 13.1666 10.3333L5.44279 10.3333L6.97138 11.8619C7.23173 12.1223 7.23173 12.5444 6.97138 12.8047Z" fill="white"/>
</svg>
