<svg width="16" height="16" viewBox="0 0 16 16" fill="none" xmlns="http://www.w3.org/2000/svg">
<path fill-rule="evenodd" clip-rule="evenodd" d="M6.2359 2.00364C6.55581 2.03704 6.80626 2.2941 6.83131 2.61477L7.33333 10.6667L8.70409 6.44646C8.79719 6.18047 9.04749 6.00175 9.3293 6.00004C9.61111 5.99834 9.86355 6.17402 9.95986 6.43887L10.7667 9.16667L11.0704 8.03522C11.1833 7.80937 11.4142 7.6667 11.6667 7.6667H13.3333C13.7015 7.6667 14 7.96517 14 8.33336C14 8.70155 13.7015 9.00003 13.3333 9.00003H12.0787L11.263 10.6315C11.1438 10.8698 10.8943 11.0142 10.6284 10.9989C10.3625 10.9836 10.1312 10.8115 10.0401 10.5612L9.3293 8.33336L7.62924 13.5536C7.52508 13.8512 7.22667 14.0351 6.914 13.9945C6.60134 13.9538 6.35992 13.6996 6.33536 13.3853L5.83333 6L5.13958 8.52148C5.05613 8.8052 4.79574 9.00003 4.5 9.00003H2.66667C2.29848 9.00003 2 8.70155 2 8.33336C2 7.96517 2.29848 7.6667 2.66667 7.6667H4.00117L5.52709 2.47859C5.61785 2.17001 5.91599 1.97023 6.2359 2.00364Z" fill="white"/>
</svg>
