<svg width="17" height="16" viewBox="0 0 17 16" fill="none" xmlns="http://www.w3.org/2000/svg">
<path fill-rule="evenodd" clip-rule="evenodd" d="M4.16665 4.99961C4.16666 4.96578 4.18112 4.86619 4.35098 4.70555C4.52235 4.54348 4.80611 4.36682 5.21204 4.20445C6.0202 3.88118 7.18237 3.66634 8.49998 3.66634C9.81759 3.66634 10.9798 3.88118 11.7879 4.20445C12.1938 4.36682 12.4776 4.54348 12.649 4.70555C12.8188 4.86619 12.8333 4.96578 12.8333 4.99961V4.99967C12.8333 5.03344 12.819 5.13306 12.649 5.29379C12.4776 5.45587 12.1938 5.63253 11.7879 5.7949C10.9798 6.11817 9.81759 6.33301 8.49998 6.33301C7.18237 6.33301 6.0202 6.11817 5.21204 5.7949C4.80611 5.63253 4.52235 5.45587 4.35098 5.29379C4.18101 5.13306 4.16665 5.03344 4.16665 4.99967V4.99961ZM2.83331 4.99967V4.99961C2.83334 4.48112 3.09879 4.05461 3.43483 3.73681C3.76948 3.42033 4.21796 3.16603 4.71685 2.96648C5.71834 2.56588 7.05617 2.33301 8.49998 2.33301C9.94379 2.33301 11.2816 2.56588 12.2831 2.96648C12.782 3.16603 13.2305 3.42033 13.5651 3.73681C13.9012 4.05461 14.1666 4.48112 14.1666 4.99961V4.99967V7.99961V10.9996C14.1666 11.5181 13.9012 11.9447 13.5651 12.2625C13.2305 12.579 12.782 12.8332 12.2831 13.0328C11.2816 13.4334 9.94379 13.6663 8.49998 13.6663C7.05617 13.6663 5.71834 13.4334 4.71685 13.0328C4.21796 12.8332 3.76948 12.579 3.43483 12.2625C3.09877 11.9447 2.83331 11.5181 2.83331 10.9996V7.99961V4.99967ZM4.16665 10.9996C4.16665 11.0334 4.18101 11.133 4.35098 11.2937C4.52235 11.4558 4.80611 11.6325 5.21204 11.7948C6.0202 12.1181 7.18237 12.3329 8.49998 12.3329C9.81759 12.3329 10.9798 12.1181 11.7879 11.7948C12.1938 11.6325 12.4776 11.4558 12.649 11.2937C12.819 11.133 12.8333 11.0334 12.8333 10.9996V9.77754C12.6598 9.87103 12.4752 9.95597 12.2831 10.0328C11.2816 10.4334 9.94379 10.6663 8.49998 10.6663C7.05617 10.6663 5.71834 10.4334 4.71685 10.0328C4.52477 9.95597 4.34016 9.87103 4.16665 9.77754V10.9996ZM12.8333 6.77761V7.99961C12.8333 8.03337 12.819 8.13299 12.649 8.29373C12.4776 8.4558 12.1938 8.63247 11.7879 8.79484C10.9798 9.1181 9.81759 9.33294 8.49998 9.33294C7.18237 9.33294 6.0202 9.1181 5.21204 8.79484C4.80611 8.63247 4.52235 8.4558 4.35098 8.29373C4.18101 8.13299 4.16665 8.03337 4.16665 7.99961V6.77761C4.34016 6.87109 4.52477 6.95604 4.71685 7.03287C5.71834 7.43347 7.05617 7.66634 8.49998 7.66634C9.94379 7.66634 11.2816 7.43347 12.2831 7.03287C12.4752 6.95604 12.6598 6.87109 12.8333 6.77761Z" fill="white"/>
</svg>
