<svg width="338" height="144" viewBox="0 0 338 144" fill="none" xmlns="http://www.w3.org/2000/svg">
<path d="M52.2441 81.3049H66.938V66.9376H52.2441V81.3049Z" fill="#2EC659"/>
<path d="M66.9373 81.3049H81.3046V66.9376H66.9373V81.3049Z" fill="#5ED47F"/>
<path d="M81.3052 81.3049H95.999V66.9376H81.3052V81.3049Z" fill="#009E2C"/>
<path d="M48 62.3672H62.3673V48H54.6311C50.9688 48 48 50.9688 48 54.631V62.3672Z" fill="#00BA34"/>
<path d="M66.9392 66.9392H81.3065V52.2454H66.9392V66.9392Z" fill="#009E2C"/>
<path d="M81.3066 66.9392H96.0005V65.8089C96.0005 58.318 89.9279 52.2454 82.4369 52.2454H81.3066V66.9392Z" fill="#008425"/>
<path d="M52.2454 89.2182C52.2454 92.9637 55.2817 96 59.0271 96H66.9392V81.3062H52.2454V89.2182Z" fill="#5ED47F"/>
<path d="M66.9392 96H81.3065V81.3062H66.9392V96Z" fill="#2EC659"/>
<path d="M81.3066 96H82.4369C89.9279 96 96.0005 89.9274 96.0005 82.4365V81.3062H81.3066V96Z" fill="#00BA34"/>
<path d="M122.657 55.8299C126.219 55.8299 129.331 56.5358 131.994 57.9474C134.657 59.3591 136.71 61.3483 138.154 63.915C139.63 66.4496 140.368 69.3852 140.368 72.7219C140.368 76.0265 139.63 78.9621 138.154 81.5288C136.71 84.0955 134.641 86.0847 131.946 87.4964C129.283 88.908 126.187 89.6139 122.657 89.6139H110V55.8299H122.657ZM122.128 82.4913C125.24 82.4913 127.662 81.6411 129.395 79.9407C131.127 78.2403 131.994 75.834 131.994 72.7219C131.994 69.6098 131.127 67.1875 129.395 65.455C127.662 63.7225 125.24 62.8562 122.128 62.8562H118.23V82.4913H122.128Z" fill="#1E2026"/>
<path d="M143.626 72.6738C143.626 69.3371 144.348 66.3694 145.792 63.7706C147.235 61.1397 149.241 59.1024 151.807 57.6587C154.406 56.1828 157.342 55.4449 160.614 55.4449C164.625 55.4449 168.057 56.5037 170.913 58.6212C173.768 60.7387 175.677 63.6262 176.64 67.2837H167.592C166.919 65.8721 165.956 64.7973 164.705 64.0593C163.486 63.3214 162.09 62.9525 160.518 62.9525C157.983 62.9525 155.93 63.8348 154.358 65.5994C152.786 67.3639 152 69.7221 152 72.6738C152 75.6255 152.786 77.9836 154.358 79.7482C155.93 81.5128 157.983 82.3951 160.518 82.3951C162.09 82.3951 163.486 82.0261 164.705 81.2882C165.956 80.5503 166.919 79.4755 167.592 78.0638H176.64C175.677 81.7213 173.768 84.6088 170.913 86.7264C168.057 88.8118 164.625 89.8545 160.614 89.8545C157.342 89.8545 154.406 89.1326 151.807 87.6889C149.241 86.213 147.235 84.1757 145.792 81.577C144.348 78.9782 143.626 76.0105 143.626 72.6738Z" fill="#1E2026"/>
<path d="M207.048 75.7538C207.048 76.5238 207 77.3259 206.904 78.1601H188.28C188.408 79.8284 188.937 81.1117 189.868 82.0101C190.83 82.8763 192.001 83.3095 193.381 83.3095C195.434 83.3095 196.862 82.4432 197.664 80.7107H206.423C205.974 82.4753 205.155 84.0634 203.968 85.4751C202.813 86.8868 201.354 87.9937 199.589 88.7957C197.824 89.5978 195.851 89.9989 193.67 89.9989C191.039 89.9989 188.697 89.4374 186.643 88.3145C184.59 87.1916 182.986 85.5874 181.831 83.502C180.676 81.4165 180.098 78.9782 180.098 76.1869C180.098 73.3957 180.66 70.9573 181.783 68.8719C182.938 66.7864 184.542 65.1823 186.595 64.0593C188.648 62.9364 191.007 62.375 193.67 62.375C196.268 62.375 198.578 62.9204 200.6 64.0112C202.621 65.1021 204.193 66.6581 205.316 68.6794C206.471 70.7006 207.048 73.0588 207.048 75.7538ZM198.626 73.5882C198.626 72.1765 198.145 71.0536 197.183 70.2194C196.22 69.3852 195.017 68.9681 193.573 68.9681C192.194 68.9681 191.023 69.3692 190.06 70.1713C189.13 70.9733 188.552 72.1123 188.328 73.5882H198.626Z" fill="#1E2026"/>
<path d="M219.674 54.0012V89.6139H211.445V54.0012H219.674Z" fill="#1E2026"/>
<path d="M233.922 54.0012V89.6139H225.693V54.0012H233.922Z" fill="#1E2026"/>
<path d="M238.305 76.1388C238.305 73.3796 238.818 70.9573 239.845 68.8719C240.904 66.7864 242.331 65.1823 244.128 64.0593C245.925 62.9364 247.93 62.375 250.144 62.375C252.037 62.375 253.689 62.76 255.101 63.53C256.544 64.3 257.651 65.3106 258.421 66.5619V62.76H266.651V89.6139H258.421V85.812C257.619 87.0632 256.496 88.0739 255.053 88.8439C253.641 89.6139 251.989 89.9989 250.096 89.9989C247.914 89.9989 245.925 89.4374 244.128 88.3145C242.331 87.1595 240.904 85.5393 239.845 83.4538C238.818 81.3363 238.305 78.898 238.305 76.1388ZM258.421 76.1869C258.421 74.1336 257.844 72.5134 256.689 71.3263C255.566 70.1392 254.186 69.5456 252.55 69.5456C250.914 69.5456 249.518 70.1392 248.363 71.3263C247.24 72.4813 246.679 74.0854 246.679 76.1388C246.679 78.1921 247.24 79.8284 248.363 81.0476C249.518 82.2347 250.914 82.8282 252.55 82.8282C254.186 82.8282 255.566 82.2347 256.689 81.0476C257.844 79.8605 258.421 78.2403 258.421 76.1869Z" fill="#1E2026"/>
<path d="M280.889 67.2356C281.851 65.7598 283.054 64.6048 284.498 63.7706C285.942 62.9043 287.546 62.4712 289.311 62.4712V71.1819H287.049C284.995 71.1819 283.455 71.6311 282.429 72.5294C281.402 73.3956 280.889 74.9357 280.889 77.1494V89.6139H272.659V62.76H280.889V67.2356Z" fill="#1E2026"/>
</svg>
