<svg width="338" height="144" viewBox="0 0 338 144" fill="none" xmlns="http://www.w3.org/2000/svg">
<path d="M52.2441 81.3049H66.938V66.9376H52.2441V81.3049Z" fill="#2EC659"/>
<path d="M66.9373 81.3049H81.3046V66.9376H66.9373V81.3049Z" fill="#5ED47F"/>
<path d="M81.3052 81.3049H95.999V66.9376H81.3052V81.3049Z" fill="#009E2C"/>
<path d="M48 62.3673H62.3673V48H54.6311C50.9688 48 48 50.9688 48 54.6311V62.3673Z" fill="#00BA34"/>
<path d="M66.9392 66.9392H81.3065V52.2454H66.9392V66.9392Z" fill="#009E2C"/>
<path d="M81.3066 66.9392H96.0005V65.8089C96.0005 58.318 89.9279 52.2454 82.4369 52.2454H81.3066V66.9392Z" fill="#008425"/>
<path d="M52.2454 89.2182C52.2454 92.9637 55.2817 96 59.0271 96H66.9392V81.3062H52.2454V89.2182Z" fill="#5ED47F"/>
<path d="M66.9392 96H81.3065V81.3062H66.9392V96Z" fill="#2EC659"/>
<path d="M81.3066 96H82.4369C89.9279 96 96.0005 89.9274 96.0005 82.4365V81.3062H81.3066V96Z" fill="#00BA34"/>
<path d="M122.657 55.8299C126.219 55.8299 129.331 56.5357 131.994 57.9474C134.657 59.359 136.71 61.3482 138.154 63.9149C139.63 66.4495 140.368 69.3851 140.368 72.7218C140.368 76.0264 139.63 78.9621 138.154 81.5288C136.71 84.0954 134.641 86.0846 131.946 87.4963C129.283 88.908 126.187 89.6138 122.657 89.6138H110V55.8299H122.657ZM122.128 82.4913C125.24 82.4913 127.662 81.6411 129.395 79.9406C131.127 78.2402 131.994 75.8339 131.994 72.7218C131.994 69.6097 131.127 67.1874 129.395 65.4549C127.662 63.7224 125.24 62.8561 122.128 62.8561H118.23V82.4913H122.128Z" fill="white"/>
<path d="M143.626 72.6737C143.626 69.337 144.348 66.3693 145.792 63.7705C147.235 61.1397 149.241 59.1024 151.807 57.6586C154.406 56.1828 157.342 55.4449 160.614 55.4449C164.625 55.4449 168.057 56.5036 170.913 58.6211C173.768 60.7386 175.677 63.6262 176.64 67.2837H167.592C166.919 65.872 165.956 64.7972 164.705 64.0593C163.486 63.3214 162.09 62.9524 160.518 62.9524C157.983 62.9524 155.93 63.8347 154.358 65.5993C152.786 67.3639 152 69.722 152 72.6737C152 75.6254 152.786 77.9835 154.358 79.7481C155.93 81.5127 157.983 82.395 160.518 82.395C162.09 82.395 163.486 82.0261 164.705 81.2881C165.956 80.5502 166.919 79.4754 167.592 78.0637H176.64C175.677 81.7213 173.768 84.6088 170.913 86.7263C168.057 88.8117 164.625 89.8544 160.614 89.8544C157.342 89.8544 154.406 89.1326 151.807 87.6888C149.241 86.213 147.235 84.1757 145.792 81.5769C144.348 78.9781 143.626 76.0104 143.626 72.6737Z" fill="white"/>
<path d="M207.048 75.7537C207.048 76.5237 207 77.3258 206.904 78.16H188.28C188.408 79.8283 188.937 81.1117 189.868 82.01C190.83 82.8763 192.001 83.3094 193.381 83.3094C195.434 83.3094 196.862 82.4431 197.664 80.7106H206.423C205.974 82.4752 205.155 84.0634 203.968 85.475C202.813 86.8867 201.354 87.9936 199.589 88.7957C197.824 89.5978 195.851 89.9988 193.67 89.9988C191.039 89.9988 188.697 89.4374 186.643 88.3144C184.59 87.1915 182.986 85.5873 181.831 83.5019C180.676 81.4165 180.098 78.9781 180.098 76.1869C180.098 73.3956 180.66 70.9572 181.783 68.8718C182.938 66.7864 184.542 65.1822 186.595 64.0593C188.648 62.9364 191.007 62.3749 193.67 62.3749C196.268 62.3749 198.578 62.9203 200.6 64.0112C202.621 65.102 204.193 66.658 205.316 68.6793C206.471 70.7006 207.048 73.0587 207.048 75.7537ZM198.626 73.5881C198.626 72.1764 198.145 71.0535 197.183 70.2193C196.22 69.3851 195.017 68.9681 193.573 68.9681C192.194 68.9681 191.023 69.3691 190.06 70.1712C189.13 70.9733 188.552 72.1122 188.328 73.5881H198.626Z" fill="white"/>
<path d="M219.674 54.0011V89.6138H211.445V54.0011H219.674Z" fill="white"/>
<path d="M233.922 54.0011V89.6138H225.693V54.0011H233.922Z" fill="white"/>
<path d="M238.305 76.1387C238.305 73.3796 238.818 70.9572 239.845 68.8718C240.904 66.7864 242.331 65.1822 244.128 64.0593C245.925 62.9364 247.93 62.3749 250.144 62.3749C252.037 62.3749 253.689 62.7599 255.101 63.5299C256.544 64.2999 257.651 65.3105 258.421 66.5618V62.7599H266.651V89.6138H258.421V85.8119C257.619 87.0632 256.496 88.0738 255.053 88.8438C253.641 89.6138 251.989 89.9988 250.096 89.9988C247.914 89.9988 245.925 89.4374 244.128 88.3144C242.331 87.1594 240.904 85.5392 239.845 83.4538C238.818 81.3363 238.305 78.8979 238.305 76.1387ZM258.421 76.1869C258.421 74.1335 257.844 72.5133 256.689 71.3262C255.566 70.1391 254.186 69.5456 252.55 69.5456C250.914 69.5456 249.518 70.1391 248.363 71.3262C247.24 72.4812 246.679 74.0854 246.679 76.1387C246.679 78.1921 247.24 79.8283 248.363 81.0475C249.518 82.2346 250.914 82.8281 252.55 82.8281C254.186 82.8281 255.566 82.2346 256.689 81.0475C257.844 79.8604 258.421 78.2402 258.421 76.1869Z" fill="white"/>
<path d="M280.889 67.2356C281.851 65.7597 283.054 64.6047 284.498 63.7705C285.942 62.9043 287.546 62.4712 289.311 62.4712V71.1818H287.049C284.995 71.1818 283.455 71.631 282.429 72.5293C281.402 73.3956 280.889 74.9356 280.889 77.1494V89.6138H272.659V62.7599H280.889V67.2356Z" fill="white"/>
</svg>
