<svg width="2154" height="1808" viewBox="0 0 2154 1808" fill="none" xmlns="http://www.w3.org/2000/svg">
  <g filter="url(#filter0_f_4524_121135)">
    <rect x="600" y="600" width="954" height="608" fill="url(#paint0_linear_4524_121135)" fill-opacity="0.4" />
  </g>
  <path opacity="0.36" d="M1070.72 600L465 952L1074.69 1304L1680.41 952L1070.72 600ZM1622.76 920.056L1568.96 951.317L1514.81 920.056L1568.61 888.795L1622.76 920.056ZM1073.7 920.056L1127.49 888.795L1181.65 920.056L1127.85 951.317L1073.7 920.056ZM1126.68 952L1072.88 983.261L1018.73 952L1072.53 920.739L1126.68 952ZM1072.53 919.373L1018.38 888.112L1072.18 856.851L1126.33 888.112L1072.53 919.373ZM1071.36 920.056L1017.56 951.317L963.413 920.056L1017.21 888.795L1071.36 920.056ZM1016.4 952L962.598 983.261L908.448 952L962.246 920.739L1016.4 952ZM1017.56 952.683L1071.71 983.944L1017.92 1015.2L963.766 983.944L1017.56 952.683ZM1072.88 984.627L1127.01 1015.89L1073.21 1047.15L1019.08 1015.89L1072.88 984.627ZM1074.05 983.944L1127.85 952.683L1181.98 983.944L1128.18 1015.2L1074.05 983.944ZM1129.02 952L1182.81 920.739L1236.94 952L1183.14 983.261L1129.02 952ZM1183.98 920.056L1237.78 888.795L1291.91 920.056L1238.11 951.317L1183.98 920.056ZM1182.81 919.373L1128.66 888.112L1182.46 856.851L1236.61 888.112L1182.81 919.373ZM1127.49 887.429L1073.34 856.168L1127.14 824.907L1181.29 856.168L1127.49 887.429ZM1072.18 855.485L1018.03 824.224L1071.82 792.963L1125.97 824.224L1072.18 855.485ZM1071.01 856.168L1017.21 887.429L963.061 856.168L1016.86 824.907L1071.01 856.168ZM1016.04 888.112L962.246 919.373L908.095 888.112L961.893 856.851L1016.04 888.112ZM961.078 920.056L907.28 951.317L853.13 920.056L906.928 888.795L961.078 920.056ZM906.113 952L852.337 983.261L798.186 952L851.962 920.739L906.113 952ZM907.28 952.683L961.431 983.944L907.655 1015.2L853.504 983.944L907.28 952.683ZM962.598 984.627L1016.75 1015.89L962.973 1047.15L908.822 1015.89L962.598 984.627ZM1017.92 1016.57L1072.04 1047.83L1018.27 1079.09L964.14 1047.83L1017.92 1016.57ZM1073.23 1048.51L1127.36 1079.78L1073.59 1111.04L1019.46 1079.78L1073.23 1048.51ZM1074.4 1047.83L1128.2 1016.57L1182.33 1047.83L1128.53 1079.09L1074.4 1047.83ZM1129.37 1015.89L1183.17 984.627L1237.29 1015.89L1183.5 1047.15L1129.37 1015.89ZM1184.33 983.944L1238.13 952.683L1292.26 983.944L1238.46 1015.2L1184.33 983.944ZM1239.3 952L1293.1 920.739L1347.23 952L1293.43 983.261L1239.3 952ZM1294.26 920.056L1348.06 888.795L1402.19 920.056L1348.39 951.317L1294.26 920.056ZM1293.07 919.373L1238.95 888.112L1292.74 856.851L1346.87 888.112L1293.07 919.373ZM1237.76 887.451L1183.61 856.19L1237.4 824.929L1291.55 856.19L1237.76 887.451ZM1182.44 855.507L1128.29 824.246L1182.09 792.985L1236.24 824.246L1182.44 855.507ZM1127.12 823.563L1072.97 792.302L1126.77 761.041L1180.92 792.302L1127.12 823.563ZM1071.8 791.619L1017.65 760.358L1071.45 729.098L1125.6 760.358L1071.8 791.619ZM1070.63 792.302L1016.84 823.563L962.686 792.302L1016.48 761.041L1070.63 792.302ZM1015.67 824.246L961.871 855.507L907.721 824.246L961.519 792.985L1015.67 824.246ZM960.704 856.19L906.906 887.451L852.755 856.19L906.553 824.929L960.704 856.19ZM905.738 888.134L851.94 919.395L797.79 888.134L851.588 856.873L905.738 888.134ZM850.772 920.078L796.996 951.339L742.846 920.078L796.622 888.817L850.772 920.078ZM795.829 952.022L742.031 983.283L687.88 952.022L741.678 920.761L795.829 952.022ZM796.996 952.705L851.147 983.966L797.349 1015.23L743.199 983.966L796.996 952.705ZM852.315 984.649L906.465 1015.91L852.667 1047.17L798.517 1015.91L852.315 984.649ZM907.633 1016.59L961.783 1047.85L907.985 1079.11L853.835 1047.85L907.633 1016.59ZM962.951 1048.54L1017.08 1079.8L963.281 1111.06L909.153 1079.8L962.951 1048.54ZM1018.27 1080.48L1072.4 1111.74L1018.6 1143L964.471 1111.74L1018.27 1080.48ZM1073.59 1112.4L1127.74 1143.66L1073.94 1174.92L1019.79 1143.66L1073.59 1112.4ZM1074.75 1111.72L1128.53 1080.46L1182.68 1111.72L1128.9 1142.98L1074.75 1111.72ZM1129.7 1079.78L1183.5 1048.51L1237.65 1079.78L1183.85 1111.04L1129.7 1079.78ZM1184.66 1047.83L1238.46 1016.57L1292.61 1047.83L1238.81 1079.09L1184.66 1047.83ZM1239.63 1015.89L1293.43 984.627L1347.58 1015.89L1293.78 1047.15L1239.63 1015.89ZM1294.59 983.944L1348.39 952.683L1402.54 983.944L1348.75 1015.2L1294.59 983.944ZM1349.56 952L1403.36 920.739L1457.51 952L1403.71 983.261L1349.56 952ZM1404.53 920.056L1458.32 888.795L1512.47 920.056L1458.68 951.317L1404.53 920.056ZM1403.36 919.373L1349.23 888.112L1403.03 856.851L1457.16 888.112L1403.36 919.373ZM1348.04 887.429L1293.91 856.168L1347.71 824.907L1401.84 856.168L1348.04 887.429ZM1292.72 855.507L1238.57 824.246L1292.37 792.985L1346.52 824.246L1292.72 855.507ZM1237.4 823.563L1183.25 792.302L1237.05 761.041L1291.2 792.302L1237.4 823.563ZM1182.09 791.619L1127.94 760.358L1181.73 729.098L1235.88 760.358L1182.09 791.619ZM1126.77 759.676L1072.62 728.415L1126.42 697.154L1180.57 728.415L1126.77 759.676ZM1071.45 727.732L1017.3 696.471L1071.1 665.21L1125.25 696.471L1071.45 727.732ZM1070.28 728.415L1016.48 759.676L962.334 728.415L1016.13 697.154L1070.28 728.415ZM1015.32 760.358L961.519 791.619L907.368 760.358L961.166 729.098L1015.32 760.358ZM960.351 792.302L906.553 823.563L852.403 792.302L906.201 761.041L960.351 792.302ZM905.386 824.246L851.588 855.507L797.437 824.246L851.235 792.985L905.386 824.246ZM850.42 856.19L796.622 887.451L742.472 856.19L796.269 824.929L850.42 856.19ZM795.454 888.134L741.678 919.395L687.528 888.134L741.304 856.873L795.454 888.134ZM740.511 920.078L686.713 951.339L632.562 920.078L686.36 888.817L740.511 920.078ZM685.545 952.022L631.747 983.283L577.597 952.022L631.395 920.761L685.545 952.022ZM686.713 952.705L740.863 983.966L687.065 1015.23L632.915 983.966L686.713 952.705ZM742.031 984.649L796.181 1015.91L742.383 1047.17L688.233 1015.91L742.031 984.649ZM797.349 1016.59L851.499 1047.85L797.701 1079.11L743.551 1047.85L797.349 1016.59ZM852.667 1048.54L906.818 1079.8L853.02 1111.06L798.869 1079.8L852.667 1048.54ZM907.985 1080.48L962.114 1111.74L908.316 1143L854.187 1111.74L907.985 1080.48ZM963.303 1112.42L1017.43 1143.69L963.634 1174.95L909.505 1143.69L963.303 1112.42ZM1018.62 1144.35L1072.77 1175.61L1018.97 1206.87L964.823 1175.61L1018.62 1144.35ZM1073.94 1176.29L1128.09 1207.55L1074.29 1238.81L1020.14 1207.55L1073.94 1176.29ZM1075.11 1175.61L1128.9 1144.35L1183.06 1175.61L1129.26 1206.87L1075.11 1175.61ZM1130.07 1143.66L1183.85 1112.4L1238 1143.66L1184.22 1174.92L1130.07 1143.66ZM1185.02 1111.72L1238.81 1080.46L1292.96 1111.72L1239.17 1142.98L1185.02 1111.72ZM1239.98 1079.78L1293.78 1048.51L1347.93 1079.78L1294.13 1111.04L1239.98 1079.78ZM1294.95 1047.83L1348.75 1016.57L1402.9 1047.83L1349.1 1079.09L1294.95 1047.83ZM1349.91 1015.89L1403.71 984.627L1457.86 1015.89L1404.06 1047.15L1349.91 1015.89ZM1404.88 983.944L1458.68 952.683L1512.83 983.944L1459.03 1015.2L1404.88 983.944ZM1459.84 952L1513.64 920.739L1567.79 952L1513.99 983.261L1459.84 952ZM1567.42 888.112L1513.62 919.373L1459.47 888.112L1513.27 856.851L1567.42 888.112ZM1512.1 856.168L1458.3 887.429L1404.17 856.168L1457.97 824.907L1512.1 856.168ZM1456.78 824.224L1402.98 855.485L1348.86 824.224L1402.65 792.963L1456.78 824.224ZM1401.46 792.302L1347.67 823.563L1293.52 792.302L1347.31 761.041L1401.46 792.302ZM1346.15 760.358L1292.35 791.619L1238.2 760.358L1292 729.098L1346.15 760.358ZM1290.83 728.415L1237.03 759.676L1182.88 728.415L1236.68 697.154L1290.83 728.415ZM1235.51 696.471L1181.71 727.732L1127.56 696.471L1181.36 665.21L1235.51 696.471ZM1180.19 664.527L1126.39 695.788L1072.24 664.527L1126.04 633.266L1180.19 664.527ZM1070.72 601.322L1124.87 632.583L1071.08 663.844L1016.92 632.583L1070.72 601.322ZM1015.76 633.266L1069.91 664.527L1016.11 695.788L961.959 664.527L1015.76 633.266ZM960.792 665.21L1014.94 696.471L961.144 727.732L906.994 696.471L960.792 665.21ZM905.826 697.154L959.977 728.415L906.179 759.676L852.028 728.415L905.826 697.154ZM850.861 729.098L905.011 760.358L851.213 791.619L797.063 760.358L850.861 729.098ZM795.895 761.041L850.045 792.302L796.247 823.563L742.097 792.302L795.895 761.041ZM740.929 792.985L795.08 824.246L741.282 855.507L687.131 824.246L740.929 792.985ZM685.964 824.929L740.114 856.19L686.338 887.451L632.188 856.19L685.964 824.929ZM631.02 856.873L685.171 888.134L631.373 919.395L577.222 888.134L631.02 856.873ZM576.055 888.817L630.205 920.078L576.407 951.339L522.257 920.078L576.055 888.817ZM467.335 952L521.133 920.739L575.284 952L521.486 983.261L467.335 952ZM522.653 983.944L576.451 952.683L630.602 983.944L576.804 1015.2L522.653 983.944ZM577.971 1015.89L631.769 984.627L685.92 1015.89L632.122 1047.15L577.971 1015.89ZM633.289 1047.83L687.087 1016.57L741.238 1047.83L687.44 1079.09L633.289 1047.83ZM688.607 1079.78L742.405 1048.51L796.556 1079.78L742.758 1111.04L688.607 1079.78ZM743.926 1111.72L797.723 1080.46L851.874 1111.72L798.076 1142.98L743.926 1111.72ZM799.244 1143.66L853.042 1112.4L907.17 1143.66L853.372 1174.92L799.244 1143.66ZM854.562 1175.61L908.36 1144.35L962.488 1175.61L908.69 1206.87L854.562 1175.61ZM909.88 1207.55L963.678 1176.29L1017.83 1207.55L964.03 1238.81L909.88 1207.55ZM965.198 1239.5L1019 1208.23L1073.15 1239.5L1019.35 1270.76L965.198 1239.5ZM1074.67 1302.7L1020.52 1271.44L1074.31 1240.18L1128.46 1271.44L1074.67 1302.7ZM1129.63 1270.76L1075.48 1239.5L1129.28 1208.23L1183.43 1239.5L1129.63 1270.76ZM1184.6 1238.81L1130.45 1207.55L1184.24 1176.29L1238.4 1207.55L1184.6 1238.81ZM1239.56 1206.87L1185.41 1175.61L1239.19 1144.35L1293.34 1175.61L1239.56 1206.87ZM1294.51 1174.92L1240.36 1143.66L1294.15 1112.4L1348.3 1143.66L1294.51 1174.92ZM1349.47 1142.98L1295.32 1111.72L1349.12 1080.46L1403.27 1111.72L1349.47 1142.98ZM1404.44 1111.04L1350.29 1079.78L1404.09 1048.51L1458.24 1079.78L1404.44 1111.04ZM1459.4 1079.09L1405.25 1047.83L1459.05 1016.57L1513.2 1047.83L1459.4 1079.09ZM1514.37 1047.15L1460.22 1015.89L1514.02 984.627L1568.17 1015.89L1514.37 1047.15ZM1569.33 1015.2L1515.18 983.944L1568.98 952.683L1623.13 983.944L1569.33 1015.2ZM1570.15 952L1623.95 920.739L1678.1 952L1624.3 983.261L1570.15 952Z" fill="url(#paint1_radial_4524_121135)" />
  <path d="M1292.72 855.507L1157.96 777.718" stroke="url(#paint2_linear_4524_121135)" stroke-width="0.5" stroke-miterlimit="10" />
  <path d="M1200.9 994.188L1376.99 1095.88C1389.19 1102.93 1389.19 1120.55 1376.99 1127.63L1219.82 1218.37" stroke="#BAEEBB" stroke-width="0.5" stroke-miterlimit="10" />
  <path d="M881.945 809.618L1072.15 920.298" stroke="url(#paint3_linear_4524_121135)" stroke-width="0.5" stroke-miterlimit="10" />
  <path d="M1180.92 921.532L1398.42 793.779" stroke="url(#paint4_linear_4524_121135)" stroke-width="0.5" stroke-miterlimit="10" />
  <path d="M1211.08 746.325V753.221C1211.08 753.551 1210.86 753.86 1210.42 754.102V747.206C1210.86 746.964 1211.08 746.634 1211.08 746.325Z" fill="#009E2C" />
  <path d="M1047.66 753.199V746.303C1047.66 746.634 1047.9 746.942 1048.32 747.207V754.102C1047.88 753.86 1047.66 753.529 1047.66 753.199Z" fill="#009E2C" />
  <path d="M1210.44 747.207V754.102L1131.17 800.167V793.272L1210.44 747.207Z" fill="url(#paint5_linear_4524_121135)" />
  <path d="M1128.11 793.272L1128.09 800.167L1048.32 754.102V747.207L1128.11 793.272Z" fill="url(#paint6_linear_4524_121135)" />
  <path d="M1210.44 745.422C1211.3 745.907 1211.3 746.722 1210.44 747.206L1131.17 793.272C1130.34 793.756 1128.95 793.756 1128.09 793.272L1048.32 747.206C1047.46 746.722 1047.46 745.907 1048.32 745.422L1127.58 699.357C1128.42 698.872 1129.81 698.872 1130.67 699.357L1210.44 745.422Z" fill="url(#paint7_linear_4524_121135)" />
  <path d="M1210.44 745.422C1211.3 745.907 1211.3 746.722 1210.44 747.206L1131.17 793.272C1130.34 793.756 1128.95 793.756 1128.09 793.272L1048.32 747.206C1047.46 746.722 1047.46 745.907 1048.32 745.422L1127.58 699.357C1128.42 698.872 1129.81 698.872 1130.67 699.357L1210.44 745.422Z" stroke="url(#paint8_linear_4524_121135)" stroke-width="0.5" stroke-miterlimit="10" />
  <path d="M1131.17 793.272V800.168C1130.31 800.652 1128.93 800.652 1128.09 800.168V793.272C1128.97 793.757 1130.34 793.757 1131.17 793.272Z" fill="#2EC659" />
  <path d="M1271.53 951.427C1273.03 952.286 1273.03 953.696 1271.53 954.555L1132.52 1035.34C1131.04 1036.2 1128.62 1036.2 1127.12 1035.34L987.206 954.555C985.708 953.696 985.708 952.286 987.206 951.427L1126.22 870.642C1127.69 869.783 1130.12 869.783 1131.61 870.642L1271.53 951.427Z" fill="#009E2C" />
  <g filter="url(#filter1_d_4524_121135)">
    <path d="M1250.06 954.19C1251.19 954.836 1251 955.532 1250.27 956.254C1250.1 956.424 1249.89 956.561 1249.68 956.683L1133.15 1024.46C1131.91 1025.18 1129.87 1025.18 1128.61 1024.46L1010.94 956.81C1009.69 956.09 1009.69 954.91 1010.94 954.19L1127.85 886.54C1129.09 885.82 1131.13 885.82 1132.39 886.54L1250.06 954.19Z" fill="#05270F" />
  </g>
  <path d="M1226.19 870.003V951.625C1226.17 952 1225.93 952.375 1225.42 952.683V871.061C1225.95 870.774 1226.19 870.4 1226.19 870.003Z" fill="url(#paint9_linear_4524_121135)" />
  <path d="M1032.54 951.625V870.003C1032.54 870.378 1032.83 870.774 1033.34 871.061V952.683C1032.81 952.397 1032.54 952 1032.54 951.625Z" fill="url(#paint10_linear_4524_121135)" />
  <path d="M1131.53 925.63L1131.5 1007.25L1225.42 952.683L1225.44 871.061L1131.53 925.63Z" fill="url(#paint11_linear_4524_121135)" />
  <path opacity="0.7" d="M1033.34 871.061L1033.32 952.683L1127.85 1007.25L1127.87 925.63L1033.34 871.061Z" fill="url(#paint12_linear_4524_121135)" />
  <path d="M1225.42 868.946C1226.43 869.519 1226.43 870.466 1225.42 871.061L1131.51 925.652C1130.49 926.225 1128.86 926.225 1127.87 925.652L1033.34 871.061C1032.32 870.488 1032.32 869.541 1033.34 868.946L1127.25 814.355C1128.27 813.782 1129.9 813.782 1130.89 814.355L1225.42 868.946Z" fill="url(#paint13_linear_4524_121135)" />
  <path d="M1129.7 925.63C1129.1 925.63 1128.51 925.497 1128.09 925.255L1033.56 870.664C1033.21 870.466 1033.01 870.223 1033.01 869.981C1033.01 869.739 1033.21 869.518 1033.54 869.32L1127.45 814.729C1127.87 814.487 1128.44 814.355 1129.04 814.355C1129.63 814.355 1130.23 814.487 1130.65 814.729L1225.18 869.32C1225.53 869.518 1225.73 869.761 1225.73 870.003C1225.73 870.245 1225.53 870.466 1225.2 870.664L1131.28 925.255C1130.87 925.497 1130.29 925.63 1129.7 925.63Z" stroke="url(#paint14_linear_4524_121135)" stroke-width="0.5" />
  <path d="M1131.53 925.784V1007.25C1130.49 1007.82 1128.86 1007.82 1127.87 1007.25V925.784C1128.91 926.357 1130.54 926.357 1131.53 925.784Z" fill="url(#paint15_linear_4524_121135)" />
  <path d="M1439.95 920.233C1440.33 920.453 1440.33 920.805 1439.95 921.026L1404.35 941.712C1403.98 941.932 1403.36 941.932 1402.96 941.712L1367.12 921.026C1366.74 920.805 1366.74 920.453 1367.12 920.233L1402.72 899.546C1403.09 899.326 1403.71 899.326 1404.11 899.546L1439.95 920.233Z" fill="url(#paint16_linear_4524_121135)" />
  <path d="M1403.67 941.426C1403.49 941.426 1403.31 941.382 1403.2 941.316L1367.36 920.629L1402.96 899.899C1403.07 899.833 1403.25 899.788 1403.42 899.788C1403.6 899.788 1403.78 899.833 1403.89 899.899L1439.73 920.585L1404.13 941.316C1404.02 941.382 1403.84 941.426 1403.67 941.426Z" fill="url(#paint17_linear_4524_121135)" stroke="url(#paint18_linear_4524_121135)" stroke-width="0.5" />
  <path d="M1439.95 921.026V951.956C1440.13 951.846 1440.22 951.714 1440.22 951.56V920.629C1440.22 920.784 1440.13 920.916 1439.95 921.026Z" fill="url(#paint19_linear_4524_121135)" />
  <path d="M1404.35 941.778C1403.98 941.999 1403.36 941.999 1402.96 941.778V972.665C1403.34 972.885 1403.95 972.885 1404.33 972.665L1439.93 951.978V921.048L1404.33 941.734V941.801L1404.35 941.778Z" fill="url(#paint20_linear_4524_121135)" />
  <path d="M1367.14 921.026C1366.94 920.916 1366.85 920.761 1366.85 920.629V951.56C1366.85 951.714 1366.94 951.846 1367.14 951.956L1402.98 972.643V941.712L1367.16 921.026H1367.14Z" fill="url(#paint21_linear_4524_121135)" />
  <path d="M1534.79 789.615V829.181L1292.96 691.029V651.463L1309.27 644.479C1312.79 642.959 1318.52 646.242 1322.04 651.771C1325.57 657.323 1331.3 660.583 1334.82 659.063L1361.41 647.652C1364.94 646.131 1370.66 649.414 1374.19 654.944L1384.68 671.422C1388.2 676.974 1393.93 680.234 1397.45 678.714L1398.47 678.274C1401.99 676.754 1407.72 680.036 1411.24 685.566L1429.99 715.02C1433.52 720.572 1439.25 723.832 1442.77 722.312L1475.04 708.477C1478.57 706.957 1484.3 710.24 1487.82 715.769L1534.79 789.549V789.615Z" fill="url(#paint22_linear_4524_121135)" />
  <path d="M1534.26 789.923L1487.29 716.144C1483.94 710.878 1478.57 707.706 1475.31 709.116L1443.03 722.951C1439.25 724.581 1433.14 721.189 1429.46 715.373L1410.72 685.918C1407.37 680.653 1401.99 677.502 1398.73 678.89L1397.72 679.331C1393.84 680.983 1387.89 677.657 1384.15 671.753L1373.66 655.274C1370.31 650.009 1364.94 646.858 1361.68 648.246L1335.09 659.658C1331.3 661.288 1325.22 657.896 1321.52 652.102C1318.17 646.836 1312.79 643.686 1309.53 645.074L1293.23 652.057L1292.68 650.912L1308.98 643.928C1312.84 642.276 1318.81 645.603 1322.55 651.507C1325.9 656.772 1331.3 659.922 1334.54 658.534L1361.13 647.123C1366 645 1370.95 648.797 1374.7 654.679L1385.18 671.158C1388.53 676.423 1393.91 679.595 1397.17 678.185L1398.18 677.745C1402.01 676.093 1407.98 679.419 1411.75 685.301L1430.5 714.756C1433.85 720.021 1439.22 723.171 1442.48 721.783L1474.76 707.948C1478.55 706.34 1484.63 709.711 1488.33 715.527L1535.3 789.306L1534.26 789.923Z" fill="#24FF3A" />
  <path d="M1483.82 711.187C1483.82 711.839 1483.56 712.154 1483.28 712.277C1482.95 712.415 1482.4 712.396 1481.68 711.986C1480.97 711.581 1480.31 710.912 1479.82 710.147C1479.33 709.378 1479.05 708.562 1479.05 707.882C1479.05 707.216 1479.3 706.904 1479.59 706.784C1479.91 706.648 1480.46 706.672 1481.19 707.083C1481.9 707.487 1482.56 708.157 1483.05 708.922C1483.54 709.69 1483.82 710.506 1483.82 711.187Z" fill="#5ED47F" stroke="#00BA34" />
  <path d="M1440.97 724.273C1440.97 725.479 1440.49 726.167 1439.85 726.446C1439.17 726.74 1438.12 726.661 1436.85 725.932C1435.59 725.208 1434.43 724.031 1433.58 722.704C1432.73 721.374 1432.23 719.941 1432.23 718.721C1432.23 717.515 1432.71 716.827 1433.36 716.548C1434.04 716.254 1435.08 716.333 1436.35 717.062C1437.62 717.786 1438.78 718.963 1439.62 720.29C1440.47 721.62 1440.97 723.053 1440.97 724.273Z" fill="#5ED47F" stroke="#00BA34" />
  <path d="M1368.12 651.228L1368.12 651.228L1368.11 651.226C1367.38 650.81 1366.7 650.124 1366.2 649.343C1365.7 648.558 1365.42 647.725 1365.42 647.034C1365.42 646.356 1365.68 646.027 1365.98 645.9C1366.31 645.757 1366.87 645.78 1367.62 646.211L1367.62 646.211L1367.62 646.213C1368.35 646.629 1369.03 647.315 1369.53 648.096C1370.03 648.881 1370.32 649.714 1370.32 650.405C1370.32 651.083 1370.06 651.412 1369.76 651.54C1369.43 651.682 1368.86 651.66 1368.12 651.228Z" fill="#5ED47F" stroke="#00BA34" />
  <path d="M1332.49 660.671C1332.49 661.878 1332.02 662.566 1331.37 662.845C1330.69 663.138 1329.64 663.059 1328.37 662.33C1327.11 661.606 1325.95 660.429 1325.1 659.103C1324.26 657.772 1323.76 656.339 1323.76 655.12C1323.76 653.913 1324.23 653.225 1324.88 652.946C1325.56 652.653 1326.61 652.731 1327.88 653.46C1329.14 654.185 1330.3 655.362 1331.15 656.688C1331.99 658.019 1332.49 659.451 1332.49 660.671Z" fill="#5ED47F" stroke="#00BA34" />
  <path d="M1437.22 788.161L1435.99 788.073V731.279L1437.22 731.367V788.161Z" fill="#18D12A" />
  <path d="M1328.76 724.141L1327.51 724.053V667.259L1328.76 667.347V724.141Z" fill="#18D12A" />
  <path d="M1482.05 813.782L1480.82 813.694V719.338L1482.05 719.426V813.782Z" fill="#18D12A" />
  <path d="M1368.51 748.903L1367.25 748.815V658.513L1368.51 658.601V748.903Z" fill="#18D12A" />
  <path d="M1262.78 700.238L1279.09 693.254C1282.61 691.734 1288.34 695.016 1291.86 700.546C1295.39 706.098 1301.12 709.358 1304.64 707.838L1331.23 696.426C1334.76 694.906 1340.48 698.189 1344.01 703.718L1354.5 720.197C1358.02 725.749 1363.75 729.009 1367.27 727.489L1368.29 727.048C1371.81 725.528 1377.54 728.811 1381.06 734.341L1399.81 763.795C1403.34 769.347 1409.06 772.607 1412.59 771.087L1444.86 757.252C1448.39 755.732 1454.12 759.014 1457.64 764.544L1504.61 838.323L1262.78 700.172V700.238Z" fill="url(#paint23_linear_4524_121135)" />
  <path d="M1186.69 1275.63L1246.44 1240.91C1248.02 1239.98 1248 1238.48 1246.44 1237.58L1186.29 1202.86C1184.71 1201.93 1182.13 1201.93 1180.54 1202.86L1120.8 1237.58C1119.21 1238.5 1119.23 1240 1120.8 1240.91L1180.94 1275.63C1182.53 1276.55 1185.1 1276.55 1186.69 1275.63ZM1247.12 1237.16C1249.1 1238.31 1249.12 1240.18 1247.14 1241.32L1187.39 1276.04C1185.41 1277.19 1182.2 1277.19 1180.21 1276.04L1120.07 1241.32C1118.09 1240.18 1118.07 1238.31 1120.05 1237.16L1179.79 1202.44C1181.78 1201.29 1184.99 1201.29 1186.98 1202.44L1247.12 1237.16Z" fill="#24FF3A" />
  <mask id="mask0_4524_121135" style="mask-type:luminance" maskUnits="userSpaceOnUse" x="1118" y="1201" width="131" height="76">
    <path d="M1186.69 1275.63L1246.44 1240.91C1248.02 1239.98 1248 1238.48 1246.44 1237.58L1186.29 1202.86C1184.71 1201.93 1182.13 1201.93 1180.54 1202.86L1120.8 1237.58C1119.21 1238.5 1119.23 1240 1120.8 1240.91L1180.94 1275.63C1182.53 1276.55 1185.1 1276.55 1186.69 1275.63ZM1247.12 1237.16C1249.1 1238.31 1249.12 1240.18 1247.14 1241.32L1187.39 1276.04C1185.41 1277.19 1182.2 1277.19 1180.21 1276.04L1120.07 1241.32C1118.09 1240.18 1118.07 1238.31 1120.05 1237.16L1179.79 1202.44C1181.78 1201.29 1184.99 1201.29 1186.98 1202.44L1247.12 1237.16Z" fill="white" />
  </mask>
  <g mask="url(#mask0_4524_121135)">
    <path d="M1186.69 1275.63L1246.44 1240.91C1248.02 1239.98 1248 1238.48 1246.44 1237.58L1186.29 1202.86C1184.71 1201.93 1182.13 1201.93 1180.54 1202.86L1120.8 1237.58C1119.21 1238.5 1119.23 1240 1120.8 1240.91L1180.94 1275.63C1182.53 1276.55 1185.1 1276.55 1186.69 1275.63ZM1247.12 1237.16C1249.1 1238.31 1249.12 1240.18 1247.14 1241.32L1187.39 1276.04C1185.41 1277.19 1182.2 1277.19 1180.21 1276.04L1120.07 1241.32C1118.09 1240.18 1118.07 1238.31 1120.05 1237.16L1179.79 1202.44C1181.78 1201.29 1184.99 1201.29 1186.98 1202.44L1247.12 1237.16Z" fill="#24FF3A" />
  </g>
  <path d="M1186.69 1275.63L1246.44 1240.91C1248.02 1239.98 1248 1238.48 1246.44 1237.58L1186.29 1202.86C1184.71 1201.93 1182.13 1201.93 1180.54 1202.86L1120.8 1237.58C1119.21 1238.5 1119.23 1240 1120.8 1240.91L1180.94 1275.63C1182.53 1276.55 1185.1 1276.55 1186.69 1275.63ZM1247.12 1237.16C1249.1 1238.31 1249.12 1240.18 1247.14 1241.32L1187.39 1276.04C1185.41 1277.19 1182.2 1277.19 1180.21 1276.04L1120.07 1241.32C1118.09 1240.18 1118.07 1238.31 1120.05 1237.16L1179.79 1202.44C1181.78 1201.29 1184.99 1201.29 1186.98 1202.44L1247.12 1237.16Z" fill="#24FF3A" />
  <mask id="mask1_4524_121135" style="mask-type:luminance" maskUnits="userSpaceOnUse" x="1118" y="1201" width="131" height="76">
    <path d="M1186.69 1275.63L1246.44 1240.91C1248.02 1239.98 1248 1238.48 1246.44 1237.58L1186.29 1202.86C1184.71 1201.93 1182.13 1201.93 1180.54 1202.86L1120.8 1237.58C1119.21 1238.5 1119.23 1240 1120.8 1240.91L1180.94 1275.63C1182.53 1276.55 1185.1 1276.55 1186.69 1275.63ZM1247.12 1237.16C1249.1 1238.31 1249.12 1240.18 1247.14 1241.32L1187.39 1276.04C1185.41 1277.19 1182.2 1277.19 1180.21 1276.04L1120.07 1241.32C1118.09 1240.18 1118.07 1238.31 1120.05 1237.16L1179.79 1202.44C1181.78 1201.29 1184.99 1201.29 1186.98 1202.44L1247.12 1237.16Z" fill="white" />
  </mask>
  <g mask="url(#mask1_4524_121135)">
    <path d="M1186.69 1275.63L1246.44 1240.91C1248.02 1239.98 1248 1238.48 1246.44 1237.58L1186.29 1202.86C1184.71 1201.93 1182.13 1201.93 1180.54 1202.86L1120.8 1237.58C1119.21 1238.5 1119.23 1240 1120.8 1240.91L1180.94 1275.63C1182.53 1276.55 1185.1 1276.55 1186.69 1275.63ZM1247.12 1237.16C1249.1 1238.31 1249.12 1240.18 1247.14 1241.32L1187.39 1276.04C1185.41 1277.19 1182.2 1277.19 1180.21 1276.04L1120.07 1241.32C1118.09 1240.18 1118.07 1238.31 1120.05 1237.16L1179.79 1202.44C1181.78 1201.29 1184.99 1201.29 1186.98 1202.44L1247.12 1237.16Z" fill="#BBF1B9" />
  </g>
  <path d="M1247.14 1237.18C1249.12 1238.33 1249.12 1240.18 1247.14 1241.35C1249.12 1240.2 1249.1 1238.33 1247.14 1237.18Z" fill="#24FF3A" />
  <mask id="mask2_4524_121135" style="mask-type:luminance" maskUnits="userSpaceOnUse" x="1247" y="1237" width="2" height="5">
    <path d="M1247.14 1237.18C1249.12 1238.33 1249.12 1240.18 1247.14 1241.35C1249.12 1240.2 1249.1 1238.33 1247.14 1237.18Z" fill="white" />
  </mask>
  <g mask="url(#mask2_4524_121135)">
    <path d="M1247.14 1237.18C1249.12 1238.33 1249.12 1240.18 1247.14 1241.35C1249.12 1240.2 1249.1 1238.33 1247.14 1237.18Z" fill="#24FF3A" />
  </g>
  <path d="M1187.4 1276.04C1185.41 1277.19 1182.2 1277.19 1180.24 1276.04C1182.22 1277.19 1185.43 1277.19 1187.4 1276.04Z" fill="#24FF3A" />
  <mask id="mask3_4524_121135" style="mask-type:luminance" maskUnits="userSpaceOnUse" x="1180" y="1276" width="8" height="1">
    <path d="M1187.4 1276.04C1185.41 1277.19 1182.2 1277.19 1180.24 1276.04C1182.22 1277.19 1185.43 1277.19 1187.4 1276.04Z" fill="white" />
  </mask>
  <g mask="url(#mask3_4524_121135)">
    <path d="M1187.4 1276.04C1185.41 1277.19 1182.2 1277.19 1180.24 1276.04C1182.22 1277.19 1185.43 1277.19 1187.4 1276.04Z" fill="#24FF3A" />
  </g>
  <path d="M1120.09 1241.32C1118.11 1240.18 1118.11 1238.33 1120.09 1237.16C1118.11 1238.31 1118.13 1240.18 1120.09 1241.32Z" fill="#24FF3A" />
  <mask id="mask4_4524_121135" style="mask-type:luminance" maskUnits="userSpaceOnUse" x="1118" y="1237" width="3" height="5">
    <path d="M1120.09 1241.32C1118.11 1240.18 1118.11 1238.33 1120.09 1237.16C1118.11 1238.31 1118.13 1240.18 1120.09 1241.32Z" fill="white" />
  </mask>
  <g mask="url(#mask4_4524_121135)">
    <path d="M1120.09 1241.32C1118.11 1240.18 1118.11 1238.33 1120.09 1237.16C1118.11 1238.31 1118.13 1240.18 1120.09 1241.32Z" fill="#24FF3A" />
  </g>
  <path d="M1179.82 1202.44C1181.8 1201.3 1185.02 1201.3 1186.98 1202.44C1184.99 1201.3 1181.78 1201.3 1179.82 1202.44Z" fill="#24FF3A" />
  <mask id="mask5_4524_121135" style="mask-type:luminance" maskUnits="userSpaceOnUse" x="1179" y="1201" width="8" height="2">
    <path d="M1179.82 1202.44C1181.8 1201.3 1185.02 1201.3 1186.98 1202.44C1184.99 1201.3 1181.78 1201.3 1179.82 1202.44Z" fill="white" />
  </mask>
  <g mask="url(#mask5_4524_121135)">
    <path d="M1179.82 1202.44C1181.8 1201.3 1185.02 1201.3 1186.98 1202.44C1184.99 1201.3 1181.78 1201.3 1179.82 1202.44Z" fill="#24FF3A" />
  </g>
  <g opacity="0.4">
    <path d="M1222.67 1238.81C1223.08 1239.05 1223.08 1239.43 1222.67 1239.67L1184.47 1261.88C1184.05 1262.12 1183.39 1262.12 1182.99 1261.88L1144.55 1239.69C1144.13 1239.45 1144.13 1239.08 1144.55 1238.83L1182.75 1216.63C1183.17 1216.39 1183.83 1216.39 1184.22 1216.63L1222.67 1238.81Z" fill="url(#paint24_linear_4524_121135)" />
  </g>
  <path d="M1278.25 707.97L1133.11 640.712C1131.42 639.743 1128.68 639.743 1126.99 640.712L982.624 707.97C981.787 708.455 981.368 709.094 981.368 709.733L1010.01 955.216C1010.01 955.855 1010.43 956.494 1011.29 957.001L1127.78 1024.26C1129.48 1025.23 1132.21 1025.23 1133.91 1024.26L1249.63 957.001C1250.47 956.516 1250.89 955.877 1250.89 955.216L1279.53 709.733C1279.53 709.094 1279.09 708.455 1278.25 707.948V707.97Z" fill="url(#paint25_linear_4524_121135)" />
  <g style="mix-blend-mode:color-dodge" opacity="0.58">
    <path style="mix-blend-mode:screen" opacity="0.57" d="M1213.85 1120.75C1282.32 1120.75 1337.82 1044.66 1337.82 950.788C1337.82 856.92 1282.32 780.825 1213.85 780.825C1145.39 780.825 1089.89 856.92 1089.89 950.788C1089.89 1044.66 1145.39 1120.75 1213.85 1120.75Z" fill="url(#paint26_radial_4524_121135)" />
  </g>
  <defs>
    <filter id="filter0_f_4524_121135" x="0" y="0" width="2154" height="1808" filterUnits="userSpaceOnUse" color-interpolation-filters="sRGB">
      <feFlood flood-opacity="0" result="BackgroundImageFix" />
      <feBlend mode="normal" in="SourceGraphic" in2="BackgroundImageFix" result="shape" />
      <feGaussianBlur stdDeviation="300" result="effect1_foregroundBlur_4524_121135" />
    </filter>
    <filter id="filter1_d_4524_121135" x="1006" y="886" width="248.862" height="147" filterUnits="userSpaceOnUse" color-interpolation-filters="sRGB">
      <feFlood flood-opacity="0" result="BackgroundImageFix" />
      <feColorMatrix in="SourceAlpha" type="matrix" values="0 0 0 0 0 0 0 0 0 0 0 0 0 0 0 0 0 0 127 0" result="hardAlpha" />
      <feOffset dy="4" />
      <feGaussianBlur stdDeviation="2" />
      <feComposite in2="hardAlpha" operator="out" />
      <feColorMatrix type="matrix" values="0 0 0 0 0 0 0 0 0 0 0 0 0 0 0 0 0 0 0.25 0" />
      <feBlend mode="normal" in2="BackgroundImageFix" result="effect1_dropShadow_4524_121135" />
      <feBlend mode="normal" in="SourceGraphic" in2="effect1_dropShadow_4524_121135" result="shape" />
    </filter>
    <linearGradient id="paint0_linear_4524_121135" x1="1077" y1="904" x2="1554.06" y2="913.819" gradientUnits="userSpaceOnUse">
      <stop stop-color="#E8FDE9" stop-opacity="0" />
      <stop offset="0.411458" stop-color="#2ACC31" />
      <stop offset="1" stop-color="#198F1D" stop-opacity="0" />
    </linearGradient>
    <radialGradient id="paint1_radial_4524_121135" cx="0" cy="0" r="1" gradientUnits="userSpaceOnUse" gradientTransform="translate(1150.83 949.46) rotate(22.71) scale(463.473 301.258)">
      <stop stop-color="#27FF30" />
      <stop offset="0.09" stop-color="#37F726" stop-opacity="0.96" />
      <stop offset="0.24" stop-color="#33E124" stop-opacity="0.84" />
      <stop offset="0.45" stop-color="#21BF27" stop-opacity="0.64" />
      <stop offset="0.69" stop-color="#1E9129" stop-opacity="0.37" />
      <stop offset="0.97" stop-color="#1C9819" stop-opacity="0.04" />
      <stop offset="1" stop-color="#19992D" stop-opacity="0" />
    </radialGradient>
    <linearGradient id="paint2_linear_4524_121135" x1="1157.7" y1="816.602" x2="1292.99" y2="816.602" gradientUnits="userSpaceOnUse">
      <stop stop-color="#24FF00" />
      <stop offset="0.04" stop-color="#25FF02" stop-opacity="0.96" />
      <stop offset="0.71" stop-color="#34FF30" stop-opacity="0.28" />
      <stop offset="1" stop-color="#52FF43" stop-opacity="0" />
    </linearGradient>
    <linearGradient id="paint3_linear_4524_121135" x1="881.659" y1="864.958" x2="1072.42" y2="864.958" gradientUnits="userSpaceOnUse">
      <stop stop-color="#43FF61" stop-opacity="0" />
      <stop offset="0.29" stop-color="#30FF45" stop-opacity="0.28" />
      <stop offset="0.96" stop-color="#02FF58" stop-opacity="0.96" />
      <stop offset="1" stop-color="#00FF19" />
    </linearGradient>
    <linearGradient id="paint4_linear_4524_121135" x1="1180.63" y1="857.644" x2="1398.69" y2="857.644" gradientUnits="userSpaceOnUse">
      <stop stop-color="#05FF00" />
      <stop offset="0.04" stop-color="#16FF02" stop-opacity="0.96" />
      <stop offset="0.71" stop-color="#30FF51" stop-opacity="0.28" />
      <stop offset="1" stop-color="#43FF4B" stop-opacity="0" />
    </linearGradient>
    <linearGradient id="paint5_linear_4524_121135" x1="1131.17" y1="773.687" x2="1210.44" y2="773.687" gradientUnits="userSpaceOnUse">
      <stop stop-color="#69E36E" />
      <stop offset="0.4" stop-color="#9DD18D" />
      <stop offset="0.79" stop-color="#009E2C" />
      <stop offset="1" stop-color="#008425" />
    </linearGradient>
    <linearGradient id="paint6_linear_4524_121135" x1="1048.32" y1="773.687" x2="1128.11" y2="773.687" gradientUnits="userSpaceOnUse">
      <stop stop-color="#69E36E" />
      <stop offset="0.4" stop-color="#9DD18D" />
      <stop offset="0.79" stop-color="#009E2C" />
      <stop offset="1" stop-color="#008425" />
    </linearGradient>
    <linearGradient id="paint7_linear_4524_121135" x1="1129.39" y1="793.646" x2="1129.39" y2="699.004" gradientUnits="userSpaceOnUse">
      <stop stop-color="#5ECA62" />
      <stop offset="1" stop-color="#009E2C" />
    </linearGradient>
    <linearGradient id="paint8_linear_4524_121135" x1="1129.39" y1="794.197" x2="1129.39" y2="698.453" gradientUnits="userSpaceOnUse">
      <stop stop-color="#69E36E" />
      <stop offset="1" stop-color="#007721" />
    </linearGradient>
    <linearGradient id="paint9_linear_4524_121135" x1="1225.82" y1="952.683" x2="1225.82" y2="870.003" gradientUnits="userSpaceOnUse">
      <stop stop-color="#4AFF5C" />
      <stop offset="0.11" stop-color="#4CF848" />
      <stop offset="0.28" stop-color="#4FE542" />
      <stop offset="0.47" stop-color="#3AC559" />
      <stop offset="0.68" stop-color="#2EA23A" />
      <stop offset="0.92" stop-color="#209B1E" />
      <stop offset="1" stop-color="#199935" />
    </linearGradient>
    <linearGradient id="paint10_linear_4524_121135" x1="1032.94" y1="952.683" x2="1032.94" y2="870.003" gradientUnits="userSpaceOnUse">
      <stop stop-color="#4AFF9D" />
      <stop offset="0.11" stop-color="#48F84F" />
      <stop offset="0.28" stop-color="#42E549" />
      <stop offset="0.47" stop-color="#3AC548" />
      <stop offset="0.68" stop-color="#2EA241" />
      <stop offset="0.92" stop-color="#1E9B2A" />
      <stop offset="1" stop-color="#199926" />
    </linearGradient>
    <linearGradient id="paint11_linear_4524_121135" x1="1159.89" y1="971.541" x2="1195.37" y2="910.52" gradientUnits="userSpaceOnUse">
      <stop stop-color="#225808" />
      <stop offset="0.23" stop-color="#195E00" />
      <stop offset="0.7" stop-color="#036A01" />
      <stop offset="0.9999" stop-color="#2D971B" />
      <stop offset="1" stop-color="#2DCA46" />
    </linearGradient>
    <linearGradient id="paint12_linear_4524_121135" x1="1098.91" y1="973.017" x2="1064.8" y2="909.141" gradientUnits="userSpaceOnUse">
      <stop stop-color="#57B62B" />
      <stop offset="0.37" stop-color="#36A923" />
      <stop offset="0.78" stop-color="#2D9D1B" />
      <stop offset="1" stop-color="#3A9919" />
    </linearGradient>
    <linearGradient id="paint13_linear_4524_121135" x1="1129.39" y1="926.07" x2="1129.39" y2="813.936" gradientUnits="userSpaceOnUse">
      <stop stop-color="#4EFF5F" />
      <stop offset="1" stop-color="#32B14E" />
    </linearGradient>
    <linearGradient id="paint14_linear_4524_121135" x1="1129.39" y1="925.63" x2="1129.39" y2="814.377" gradientUnits="userSpaceOnUse">
      <stop stop-color="#4ABF56" />
      <stop offset="0.32" stop-color="#38B144" stop-opacity="0.63" />
      <stop offset="0.64" stop-color="#27A433" stop-opacity="0.29" />
      <stop offset="0.88" stop-color="#1C9C30" stop-opacity="0.08" />
      <stop offset="1" stop-color="#199926" stop-opacity="0" />
    </linearGradient>
    <linearGradient id="paint15_linear_4524_121135" x1="1129.68" y1="1007.69" x2="1129.68" y2="925.784" gradientUnits="userSpaceOnUse">
      <stop stop-color="#2BC631" />
      <stop offset="0.15" stop-color="#2CBF29" />
      <stop offset="0.36" stop-color="#32AF27" />
      <stop offset="0.61" stop-color="#22A82F" />
      <stop offset="0.89" stop-color="#1B9D30" />
      <stop offset="1" stop-color="#199935" />
    </linearGradient>
    <linearGradient id="paint16_linear_4524_121135" x1="1403.53" y1="941.888" x2="1403.53" y2="899.37" gradientUnits="userSpaceOnUse">
      <stop stop-color="#31B03E" />
      <stop offset="1" stop-color="#32B156" />
    </linearGradient>
    <linearGradient id="paint17_linear_4524_121135" x1="1403.55" y1="941.437" x2="1403.55" y2="899.778" gradientUnits="userSpaceOnUse">
      <stop stop-color="#31B03E" />
      <stop offset="1" stop-color="#32B156" />
    </linearGradient>
    <linearGradient id="paint18_linear_4524_121135" x1="1403.54" y1="941.426" x2="1403.54" y2="899.81" gradientUnits="userSpaceOnUse">
      <stop stop-color="#4CBF4A" />
      <stop offset="0.32" stop-color="#38B144" stop-opacity="0.63" />
      <stop offset="0.64" stop-color="#27A433" stop-opacity="0.29" />
      <stop offset="0.88" stop-color="#1C9C38" stop-opacity="0.08" />
      <stop offset="1" stop-color="#19992D" stop-opacity="0" />
    </linearGradient>
    <linearGradient id="paint19_linear_4524_121135" x1="1440.08" y1="951.956" x2="1440.08" y2="920.629" gradientUnits="userSpaceOnUse">
      <stop stop-color="#4E1999" />
      <stop offset="0.59" stop-color="#5B22A8" />
      <stop offset="1" stop-color="#672BB6" />
    </linearGradient>
    <linearGradient id="paint20_linear_4524_121135" x1="1421.45" y1="972.819" x2="1421.45" y2="921.026" gradientUnits="userSpaceOnUse">
      <stop stop-color="#19993D" />
      <stop offset="0.59" stop-color="#22A83F" />
      <stop offset="1" stop-color="#2BB631" />
    </linearGradient>
    <linearGradient id="paint21_linear_4524_121135" x1="1373.33" y1="958.213" x2="1396.4" y2="935.147" gradientUnits="userSpaceOnUse">
      <stop stop-color="#2EB62B" />
      <stop offset="0.02" stop-color="#21BF31" />
      <stop offset="0.41" stop-color="#329222" />
      <stop offset="0.8" stop-color="#1D971B" />
      <stop offset="1" stop-color="#199926" />
    </linearGradient>
    <linearGradient id="paint22_linear_4524_121135" x1="1385.1" y1="760.67" x2="1435.43" y2="686.243" gradientUnits="userSpaceOnUse">
      <stop stop-color="#95FA9F" stop-opacity="0.47" />
      <stop offset="0.21" stop-color="#1C8F1A" stop-opacity="0.33" />
      <stop offset="0.42" stop-color="#1BAC32" stop-opacity="0.53" />
      <stop offset="0.61" stop-color="#17C93E" stop-opacity="0.73" />
      <stop offset="0.78" stop-color="#1DE925" stop-opacity="0.88" />
      <stop offset="0.91" stop-color="#2FF91D" stop-opacity="0.97" />
      <stop offset="1" stop-color="#1EFF27" />
    </linearGradient>
    <linearGradient id="paint23_linear_4524_121135" x1="1362.39" y1="775.397" x2="1393.52" y2="729.354" gradientUnits="userSpaceOnUse">
      <stop stop-color="#0C8318" stop-opacity="0" />
      <stop offset="0.11" stop-color="#1A922D" stop-opacity="0.21" />
      <stop offset="0.24" stop-color="#1B973E" stop-opacity="0.42" />
      <stop offset="0.37" stop-color="#1BB72B" stop-opacity="0.6" />
      <stop offset="0.5" stop-color="#1CD14F" stop-opacity="0.74" />
      <stop offset="0.63" stop-color="#1DE531" stop-opacity="0.85" />
      <stop offset="0.75" stop-color="#1DF359" stop-opacity="0.94" />
      <stop offset="0.88" stop-color="#1DFC4E" stop-opacity="0.98" />
      <stop offset="1" stop-color="#1EFF34" />
    </linearGradient>
    <linearGradient id="paint24_linear_4524_121135" x1="1183.61" y1="1262.05" x2="1183.61" y2="1216.45" gradientUnits="userSpaceOnUse">
      <stop stop-color="#34B031" />
      <stop offset="1" stop-color="#32B137" />
    </linearGradient>
    <linearGradient id="paint25_linear_4524_121135" x1="1130.45" y1="1133.51" x2="1130.45" y2="748.506" gradientUnits="userSpaceOnUse">
      <stop stop-color="#5ECA62" />
      <stop offset="0.04" stop-color="#5ECA62" />
      <stop offset="0.71" stop-color="#5ECA62" stop-opacity="0.28" />
      <stop offset="1" stop-color="#69E36E" stop-opacity="0" />
    </linearGradient>
    <radialGradient id="paint26_radial_4524_121135" cx="0" cy="0" r="1" gradientUnits="userSpaceOnUse" gradientTransform="translate(1209.69 950.401) scale(123.061 169.739)">
      <stop stop-color="#1FDE00" />
      <stop offset="1" stop-opacity="0" />
    </radialGradient>
  </defs>
</svg>