<svg width="1216" height="704" viewBox="0 0 1216 704" fill="none" xmlns="http://www.w3.org/2000/svg">
<path opacity="0.36" d="M605.723 0L0 352L609.688 704L1215.41 352L605.723 0ZM1157.76 320.056L1103.96 351.317L1049.81 320.056L1103.61 288.795L1157.76 320.056ZM608.697 320.056L662.495 288.795L716.645 320.056L662.847 351.317L608.697 320.056ZM661.68 352L607.882 383.261L553.731 352L607.529 320.739L661.68 352ZM607.529 319.373L553.379 288.112L607.177 256.851L661.327 288.112L607.529 319.373ZM606.362 320.056L552.564 351.317L498.413 320.056L552.211 288.795L606.362 320.056ZM551.396 352L497.598 383.261L443.448 352L497.246 320.739L551.396 352ZM552.564 352.683L606.714 383.944L552.916 415.205L498.766 383.944L552.564 352.683ZM607.882 384.627L662.01 415.888L608.212 447.149L554.084 415.888L607.882 384.627ZM609.049 383.944L662.847 352.683L716.976 383.944L663.178 415.205L609.049 383.944ZM664.015 352L717.813 320.739L771.941 352L718.143 383.261L664.015 352ZM718.981 320.056L772.779 288.795L826.907 320.056L773.109 351.317L718.981 320.056ZM717.813 319.373L663.663 288.112L717.461 256.851L771.611 288.112L717.813 319.373ZM662.495 287.429L608.344 256.168L662.142 224.907L716.293 256.168L662.495 287.429ZM607.177 255.485L553.026 224.224L606.824 192.963L660.975 224.224L607.177 255.485ZM606.009 256.168L552.211 287.429L498.061 256.168L551.859 224.907L606.009 256.168ZM551.044 288.112L497.246 319.373L443.095 288.112L496.893 256.851L551.044 288.112ZM496.078 320.056L442.28 351.317L388.13 320.056L441.928 288.795L496.078 320.056ZM441.113 352L387.337 383.261L333.186 352L386.962 320.739L441.113 352ZM442.28 352.683L496.431 383.944L442.655 415.205L388.504 383.944L442.28 352.683ZM497.598 384.627L551.749 415.888L497.973 447.149L443.822 415.888L497.598 384.627ZM552.916 416.571L607.045 447.832L553.269 479.093L499.14 447.832L552.916 416.571ZM608.234 448.515L662.363 479.776L608.587 511.037L554.458 479.776L608.234 448.515ZM609.402 447.832L663.2 416.571L717.328 447.832L663.53 479.093L609.402 447.832ZM664.367 415.888L718.165 384.627L772.294 415.888L718.496 447.149L664.367 415.888ZM719.333 383.944L773.131 352.683L827.26 383.944L773.461 415.205L719.333 383.944ZM774.299 352L828.097 320.739L882.225 352L828.427 383.261L774.299 352ZM829.264 320.056L883.062 288.795L937.191 320.056L883.393 351.317L829.264 320.056ZM828.075 319.373L773.946 288.112L827.744 256.851L881.873 288.112L828.075 319.373ZM772.757 287.451L718.606 256.19L772.404 224.929L826.555 256.19L772.757 287.451ZM717.438 255.507L663.288 224.246L717.086 192.985L771.236 224.246L717.438 255.507ZM662.12 223.563L607.97 192.302L661.768 161.041L715.918 192.302L662.12 223.563ZM606.802 191.619L552.652 160.358L606.45 129.098L660.6 160.358L606.802 191.619ZM605.635 192.302L551.837 223.563L497.686 192.302L551.484 161.041L605.635 192.302ZM550.669 224.246L496.871 255.507L442.721 224.246L496.519 192.985L550.669 224.246ZM495.704 256.19L441.906 287.451L387.755 256.19L441.553 224.929L495.704 256.19ZM440.738 288.134L386.94 319.395L332.79 288.134L386.588 256.873L440.738 288.134ZM385.772 320.078L331.996 351.339L277.846 320.078L331.622 288.817L385.772 320.078ZM330.829 352.022L277.031 383.283L222.88 352.022L276.678 320.761L330.829 352.022ZM331.996 352.705L386.147 383.966L332.349 415.227L278.199 383.966L331.996 352.705ZM387.315 384.649L441.465 415.91L387.667 447.171L333.517 415.91L387.315 384.649ZM442.633 416.593L496.783 447.854L442.985 479.115L388.835 447.854L442.633 416.593ZM497.951 448.537L552.079 479.798L498.281 511.059L444.153 479.798L497.951 448.537ZM553.269 480.481L607.397 511.742L553.599 543.003L499.471 511.742L553.269 480.481ZM608.587 512.403L662.737 543.664L608.939 574.924L554.789 543.664L608.587 512.403ZM609.754 511.72L663.53 480.459L717.681 511.72L663.905 542.981L609.754 511.72ZM664.698 479.776L718.496 448.515L772.646 479.776L718.848 511.037L664.698 479.776ZM719.664 447.832L773.461 416.571L827.612 447.832L773.814 479.093L719.664 447.832ZM774.629 415.888L828.427 384.627L882.578 415.888L828.78 447.149L774.629 415.888ZM829.595 383.944L883.393 352.683L937.543 383.944L883.745 415.205L829.595 383.944ZM884.56 352L938.358 320.739L992.509 352L938.711 383.261L884.56 352ZM939.526 320.056L993.324 288.795L1047.47 320.056L993.676 351.317L939.526 320.056ZM938.358 319.373L884.23 288.112L938.028 256.851L992.156 288.112L938.358 319.373ZM883.04 287.429L828.912 256.168L882.71 224.907L936.838 256.168L883.04 287.429ZM827.722 255.507L773.572 224.246L827.37 192.985L881.52 224.246L827.722 255.507ZM772.404 223.563L718.254 192.302L772.052 161.041L826.202 192.302L772.404 223.563ZM717.086 191.619L662.936 160.358L716.734 129.098L770.884 160.358L717.086 191.619ZM661.768 159.676L607.617 128.415L661.415 97.1536L715.566 128.415L661.768 159.676ZM606.45 127.732L552.299 96.4706L606.097 65.2097L660.248 96.4706L606.45 127.732ZM605.282 128.415L551.484 159.676L497.334 128.415L551.132 97.1536L605.282 128.415ZM550.317 160.358L496.519 191.619L442.368 160.358L496.166 129.098L550.317 160.358ZM495.351 192.302L441.553 223.563L387.403 192.302L441.201 161.041L495.351 192.302ZM440.386 224.246L386.588 255.507L332.437 224.246L386.235 192.985L440.386 224.246ZM385.42 256.19L331.622 287.451L277.472 256.19L331.269 224.929L385.42 256.19ZM330.454 288.134L276.678 319.395L222.528 288.134L276.304 256.873L330.454 288.134ZM275.511 320.078L221.713 351.339L167.562 320.078L221.36 288.817L275.511 320.078ZM220.545 352.022L166.747 383.283L112.597 352.022L166.395 320.761L220.545 352.022ZM221.713 352.705L275.863 383.966L222.065 415.227L167.915 383.966L221.713 352.705ZM277.031 384.649L331.181 415.91L277.383 447.171L223.233 415.91L277.031 384.649ZM332.349 416.593L386.499 447.854L332.701 479.115L278.551 447.854L332.349 416.593ZM387.667 448.537L441.818 479.798L388.02 511.059L333.869 479.798L387.667 448.537ZM442.985 480.481L497.114 511.742L443.316 543.003L389.187 511.742L442.985 480.481ZM498.303 512.425L552.432 543.686L498.634 574.947L444.505 543.686L498.303 512.425ZM553.621 544.346L607.772 575.607L553.974 606.868L499.823 575.607L553.621 544.346ZM608.939 576.29L663.09 607.551L609.292 638.812L555.141 607.551L608.939 576.29ZM610.107 575.607L663.905 544.346L718.055 575.607L664.257 606.868L610.107 575.607ZM665.073 543.664L718.848 512.403L772.999 543.664L719.223 574.924L665.073 543.664ZM720.016 511.72L773.814 480.459L827.964 511.72L774.167 542.981L720.016 511.72ZM774.982 479.776L828.78 448.515L882.93 479.776L829.132 511.037L774.982 479.776ZM829.947 447.832L883.745 416.571L937.896 447.832L884.098 479.093L829.947 447.832ZM884.913 415.888L938.711 384.627L992.861 415.888L939.063 447.149L884.913 415.888ZM939.878 383.944L993.676 352.683L1047.83 383.944L994.029 415.205L939.878 383.944ZM994.844 352L1048.64 320.739L1102.79 352L1048.99 383.261L994.844 352ZM1102.42 288.112L1048.62 319.373L994.469 288.112L1048.27 256.851L1102.42 288.112ZM1047.1 256.168L993.302 287.429L939.173 256.168L992.971 224.907L1047.1 256.168ZM991.782 224.224L937.984 255.485L883.855 224.224L937.653 192.963L991.782 224.224ZM936.464 192.302L882.666 223.563L828.515 192.302L882.313 161.041L936.464 192.302ZM881.146 160.358L827.348 191.619L773.197 160.358L826.995 129.098L881.146 160.358ZM825.827 128.415L772.03 159.676L717.879 128.415L771.677 97.1536L825.827 128.415ZM770.509 96.4706L716.711 127.732L662.561 96.4706L716.359 65.2097L770.509 96.4706ZM715.191 64.5267L661.393 95.7877L607.243 64.5267L661.041 33.2657L715.191 64.5267ZM605.723 1.32182L659.873 32.5828L606.075 63.8438L551.925 32.5828L605.723 1.32182ZM550.757 33.2657L604.908 64.5267L551.11 95.7877L496.959 64.5267L550.757 33.2657ZM495.792 65.2097L549.942 96.4706L496.144 127.732L441.994 96.4706L495.792 65.2097ZM440.826 97.1536L494.977 128.415L441.179 159.676L387.028 128.415L440.826 97.1536ZM385.861 129.098L440.011 160.358L386.213 191.619L332.063 160.358L385.861 129.098ZM330.895 161.041L385.045 192.302L331.247 223.563L277.097 192.302L330.895 161.041ZM275.929 192.985L330.08 224.246L276.282 255.507L222.131 224.246L275.929 192.985ZM220.964 224.929L275.114 256.19L221.338 287.451L167.188 256.19L220.964 224.929ZM166.02 256.873L220.171 288.134L166.373 319.395L112.222 288.134L166.02 256.873ZM111.055 288.817L165.205 320.078L111.407 351.339L57.2567 320.078L111.055 288.817ZM2.33521 352L56.1332 320.739L110.284 352L56.4857 383.261L2.33521 352ZM57.6533 383.944L111.451 352.683L165.602 383.944L111.804 415.205L57.6533 383.944ZM112.971 415.888L166.769 384.627L220.92 415.888L167.122 447.149L112.971 415.888ZM168.289 447.832L222.087 416.571L276.238 447.832L222.44 479.093L168.289 447.832ZM223.607 479.776L277.405 448.515L331.556 479.776L277.758 511.037L223.607 479.776ZM278.926 511.72L332.723 480.459L386.874 511.72L333.076 542.981L278.926 511.72ZM334.244 543.664L388.042 512.403L442.17 543.664L388.372 574.924L334.244 543.664ZM389.562 575.607L443.36 544.346L497.488 575.607L443.69 606.868L389.562 575.607ZM444.88 607.551L498.678 576.29L552.828 607.551L499.03 638.812L444.88 607.551ZM500.198 639.495L553.996 608.234L608.146 639.495L554.348 670.756L500.198 639.495ZM609.666 702.7L555.516 671.439L609.314 640.178L663.464 671.439L609.666 702.7ZM664.632 670.756L610.481 639.495L664.279 608.234L718.43 639.495L664.632 670.756ZM719.597 638.812L665.447 607.551L719.245 576.29L773.395 607.551L719.597 638.812ZM774.563 606.868L720.413 575.607L774.189 544.346L828.339 575.607L774.563 606.868ZM829.507 574.924L775.356 543.664L829.154 512.403L883.305 543.664L829.507 574.924ZM884.472 542.981L830.322 511.72L884.12 480.459L938.27 511.72L884.472 542.981ZM939.438 511.037L885.287 479.776L939.085 448.515L993.236 479.776L939.438 511.037ZM994.403 479.093L940.253 447.832L994.051 416.571L1048.2 447.832L994.403 479.093ZM1049.37 447.149L995.218 415.888L1049.02 384.627L1103.17 415.888L1049.37 447.149ZM1104.33 415.205L1050.18 383.944L1103.98 352.683L1158.13 383.944L1104.33 415.205ZM1105.15 352L1158.95 320.739L1213.1 352L1159.3 383.261L1105.15 352Z" fill="url(#paint0_radial_4524_121137)"/>
<path d="M827.722 255.507L692.963 177.718" stroke="url(#paint1_linear_4524_121137)" stroke-width="0.5" stroke-miterlimit="10"/>
<path d="M735.9 394.188L911.989 495.88C924.193 502.93 924.193 520.554 911.989 527.625L754.824 618.368" stroke="#BAEEBB" stroke-width="0.5" stroke-miterlimit="10"/>
<path d="M416.945 209.618L607.155 320.298" stroke="url(#paint2_linear_4524_121137)" stroke-width="0.5" stroke-miterlimit="10"/>
<path d="M715.918 321.532L933.423 193.779" stroke="url(#paint3_linear_4524_121137)" stroke-width="0.5" stroke-miterlimit="10"/>
<path d="M746.077 146.325V153.221C746.077 153.551 745.857 153.86 745.416 154.102V147.206C745.857 146.964 746.077 146.634 746.077 146.325Z" fill="#009E2C"/>
<path d="M582.656 153.199V146.303C582.656 146.634 582.899 146.942 583.317 147.207V154.102C582.877 153.86 582.656 153.529 582.656 153.199Z" fill="#009E2C"/>
<path d="M745.439 147.207V154.102L666.174 200.167V193.272L745.439 147.207Z" fill="url(#paint4_linear_4524_121137)"/>
<path d="M663.112 193.272L663.09 200.167L583.318 154.102V147.207L663.112 193.272Z" fill="url(#paint5_linear_4524_121137)"/>
<path d="M745.439 145.422C746.298 145.907 746.298 146.722 745.439 147.206L666.174 193.272C665.337 193.756 663.949 193.756 663.09 193.272L583.318 147.206C582.459 146.722 582.459 145.907 583.318 145.422L662.583 99.3565C663.42 98.8719 664.808 98.8719 665.667 99.3565L745.439 145.422Z" fill="url(#paint6_linear_4524_121137)"/>
<path d="M745.439 145.422C746.298 145.907 746.298 146.722 745.439 147.206L666.174 193.272C665.337 193.756 663.949 193.756 663.09 193.272L583.318 147.206C582.459 146.722 582.459 145.907 583.318 145.422L662.583 99.3565C663.42 98.8719 664.808 98.8719 665.667 99.3565L745.439 145.422Z" stroke="url(#paint7_linear_4524_121137)" stroke-width="0.5" stroke-miterlimit="10"/>
<path d="M666.174 193.272V200.168C665.315 200.652 663.927 200.652 663.09 200.168V193.272C663.971 193.757 665.337 193.757 666.174 193.272Z" fill="#2EC659"/>
<path d="M806.529 351.427C808.027 352.286 808.027 353.696 806.529 354.555L667.517 435.341C666.041 436.2 663.618 436.2 662.12 435.341L522.206 354.555C520.708 353.696 520.708 352.286 522.206 351.427L661.217 270.642C662.693 269.783 665.116 269.783 666.614 270.642L806.529 351.427Z" fill="#009E2C"/>
<g filter="url(#filter0_d_4524_121137)">
<path d="M785.055 354.19C786.187 354.836 786.003 355.532 785.269 356.254C785.096 356.424 784.895 356.561 784.685 356.683L668.149 424.46C666.908 425.18 664.87 425.18 663.61 424.46L545.945 356.81C544.685 356.09 544.685 354.91 545.945 354.19L662.851 286.54C664.092 285.82 666.13 285.82 667.39 286.54L785.055 354.19Z" fill="#05270F"/>
</g>
<path d="M761.191 270.003V351.625C761.169 352 760.927 352.375 760.42 352.683V271.061C760.949 270.774 761.191 270.4 761.191 270.003Z" fill="url(#paint8_linear_4524_121137)"/>
<path d="M567.545 351.625V270.003C567.545 270.378 567.831 270.774 568.338 271.061V352.683C567.809 352.397 567.545 352 567.545 351.625Z" fill="url(#paint9_linear_4524_121137)"/>
<path d="M666.528 325.63L666.506 407.252L760.421 352.683L760.443 271.061L666.528 325.63Z" fill="url(#paint10_linear_4524_121137)"/>
<path opacity="0.7" d="M568.338 271.061L568.316 352.683L662.848 407.252L662.87 325.63L568.338 271.061Z" fill="url(#paint11_linear_4524_121137)"/>
<path d="M760.42 268.946C761.434 269.519 761.434 270.466 760.42 271.061L666.505 325.652C665.492 326.225 663.862 326.225 662.87 325.652L568.338 271.061C567.325 270.488 567.325 269.541 568.338 268.946L662.253 214.355C663.267 213.782 664.897 213.782 665.888 214.355L760.42 268.946Z" fill="url(#paint12_linear_4524_121137)"/>
<path d="M664.699 325.63C664.104 325.63 663.509 325.497 663.091 325.255L568.559 270.664C568.206 270.466 568.008 270.223 568.008 269.981C568.008 269.739 568.206 269.518 568.537 269.32L662.452 214.729C662.87 214.487 663.443 214.355 664.038 214.355C664.633 214.355 665.228 214.487 665.646 214.729L760.178 269.32C760.531 269.518 760.729 269.761 760.729 270.003C760.729 270.245 760.531 270.466 760.2 270.664L666.285 325.255C665.866 325.497 665.294 325.63 664.699 325.63Z" stroke="url(#paint13_linear_4524_121137)" stroke-width="0.5"/>
<path d="M666.526 325.784V407.252C665.491 407.825 663.861 407.825 662.869 407.252V325.784C663.905 326.357 665.535 326.357 666.526 325.784Z" fill="url(#paint14_linear_4524_121137)"/>
<path d="M974.951 320.233C975.325 320.453 975.325 320.805 974.951 321.026L939.35 341.712C938.976 341.932 938.359 341.932 937.962 341.712L902.119 321.026C901.744 320.805 901.744 320.453 902.119 320.233L937.72 299.546C938.094 299.326 938.711 299.326 939.108 299.546L974.951 320.233Z" fill="url(#paint15_linear_4524_121137)"/>
<path d="M938.667 341.426C938.491 341.426 938.315 341.382 938.205 341.316L902.361 320.629L937.962 299.899C938.072 299.833 938.249 299.788 938.425 299.788C938.601 299.788 938.777 299.833 938.888 299.899L974.731 320.585L939.13 341.316C939.02 341.382 938.843 341.426 938.667 341.426Z" fill="url(#paint16_linear_4524_121137)" stroke="url(#paint17_linear_4524_121137)" stroke-width="0.5"/>
<path d="M974.949 321.026V351.956C975.125 351.846 975.214 351.714 975.214 351.56V320.629C975.214 320.784 975.125 320.916 974.949 321.026Z" fill="url(#paint18_linear_4524_121137)"/>
<path d="M939.349 341.778C938.974 341.999 938.357 341.999 937.961 341.778V372.665C938.335 372.885 938.952 372.885 939.327 372.665L974.928 351.978V321.048L939.327 341.734V341.801L939.349 341.778Z" fill="url(#paint19_linear_4524_121137)"/>
<path d="M902.14 321.026C901.942 320.916 901.854 320.761 901.854 320.629V351.56C901.854 351.714 901.942 351.846 902.14 351.956L937.983 372.643V341.712L902.162 321.026H902.14Z" fill="url(#paint20_linear_4524_121137)"/>
<path d="M1069.79 189.615V229.181L827.965 91.0292V51.4628L844.267 44.4792C847.792 42.9591 853.52 46.2416 857.045 51.7712C860.57 57.3229 866.298 60.5834 869.822 59.0633L896.413 47.6516C899.938 46.1315 905.666 49.414 909.191 54.9436L919.677 71.4223C923.202 76.9739 928.93 80.2344 932.455 78.7143L933.468 78.2737C936.993 76.7536 942.721 80.0361 946.245 85.5657L964.993 115.02C968.518 120.572 974.246 123.832 977.771 122.312L1010.05 108.477C1013.57 106.957 1019.3 110.24 1022.82 115.769L1069.79 189.549V189.615Z" fill="url(#paint21_linear_4524_121137)"/>
<path d="M1069.26 189.923L1022.29 116.144C1018.94 110.878 1013.57 107.706 1010.31 109.116L978.034 122.951C974.245 124.581 968.143 121.189 964.464 115.373L945.716 85.918C942.367 80.6528 936.992 77.5025 933.732 78.8904L932.718 79.331C928.841 80.9832 922.893 77.6567 919.147 71.7526L908.661 55.2739C905.312 50.0087 899.937 46.8583 896.677 48.2462L870.086 59.6579C866.297 61.2882 860.216 57.8955 856.515 52.1015C853.167 46.8363 847.791 43.686 844.531 45.0739L828.228 52.0575L827.678 50.9119L843.98 43.9283C847.835 42.276 853.806 45.6026 857.551 51.5067C860.899 56.772 866.297 59.9223 869.535 58.5344L896.126 47.1227C901 44.9999 905.951 48.797 909.696 54.6791L920.183 71.1577C923.532 76.423 928.907 79.5953 932.167 78.1854L933.181 77.7448C937.014 76.0925 942.984 79.4191 946.751 85.3012L965.499 114.756C968.848 120.021 974.223 123.171 977.484 121.783L1009.76 107.948C1013.55 106.34 1019.63 109.711 1023.33 115.527L1070.3 189.306L1069.26 189.923Z" fill="#24FF3A"/>
<path d="M1018.82 111.187C1018.82 111.839 1018.56 112.154 1018.27 112.277C1017.95 112.415 1017.4 112.396 1016.68 111.986C1015.97 111.581 1015.3 110.912 1014.82 110.147C1014.33 109.378 1014.05 108.562 1014.05 107.882C1014.05 107.216 1014.3 106.904 1014.59 106.784C1014.91 106.648 1015.46 106.672 1016.19 107.083C1016.9 107.487 1017.56 108.157 1018.05 108.922C1018.54 109.69 1018.82 110.506 1018.82 111.187Z" fill="#5ED47F" stroke="#00BA34"/>
<path d="M975.97 124.273C975.97 125.479 975.492 126.167 974.845 126.446C974.165 126.74 973.12 126.661 971.85 125.932C970.588 125.208 969.426 124.031 968.58 122.704C967.732 121.374 967.232 119.941 967.232 118.721C967.232 117.515 967.71 116.827 968.357 116.548C969.038 116.254 970.082 116.333 971.352 117.062C972.614 117.786 973.776 118.963 974.622 120.29C975.47 121.62 975.97 123.053 975.97 124.273Z" fill="#5ED47F" stroke="#00BA34"/>
<path d="M903.119 51.2283L903.119 51.2283L903.115 51.2258C902.383 50.8102 901.701 50.124 901.202 49.3428C900.701 48.5578 900.416 47.7254 900.416 47.0343C900.416 46.356 900.679 46.0272 900.977 45.8995C901.31 45.7573 901.875 45.7795 902.617 46.2109L902.617 46.2109L902.621 46.2134C903.354 46.629 904.035 47.3152 904.534 48.0963C905.035 48.8814 905.32 49.7138 905.32 50.4049C905.32 51.0831 905.057 51.412 904.759 51.5396C904.426 51.6819 903.862 51.6596 903.119 51.2283Z" fill="#5ED47F" stroke="#00BA34"/>
<path d="M867.493 60.6712C867.493 61.8776 867.016 62.5657 866.369 62.8447C865.688 63.1383 864.644 63.0593 863.373 62.3304C862.111 61.6062 860.95 60.4292 860.104 59.1027C859.256 57.7721 858.756 56.3393 858.756 55.1196C858.756 53.9132 859.233 53.2251 859.88 52.9461C860.561 52.6525 861.605 52.7315 862.876 53.4604C864.138 54.1846 865.3 55.3616 866.145 56.6881C866.993 58.0187 867.493 59.4515 867.493 60.6712Z" fill="#5ED47F" stroke="#00BA34"/>
<path d="M972.218 188.161L970.984 188.073V131.279L972.218 131.367V188.161Z" fill="#18D12A"/>
<path d="M863.763 124.141L862.508 124.053V67.2587L863.763 67.3468V124.141Z" fill="#18D12A"/>
<path d="M1017.05 213.782L1015.82 213.694V119.338L1017.05 119.426V213.782Z" fill="#18D12A"/>
<path d="M903.506 148.903L902.25 148.815V58.5126L903.506 58.6007V148.903Z" fill="#18D12A"/>
<path d="M797.783 100.238L814.086 93.254C817.61 91.7339 823.338 95.0164 826.863 100.546C830.388 106.098 836.116 109.358 839.641 107.838L866.231 96.4264C869.756 94.9063 875.484 98.1888 879.009 103.718L889.495 120.197C893.02 125.749 898.748 129.009 902.273 127.489L903.286 127.048C906.811 125.528 912.539 128.811 916.064 134.341L934.812 163.795C938.336 169.347 944.064 172.607 947.589 171.087L979.864 157.252C983.388 155.732 989.116 159.014 992.641 164.544L1039.61 238.323L797.783 100.172V100.238Z" fill="url(#paint22_linear_4524_121137)"/>
<path d="M721.69 675.625L781.436 640.905C783.022 639.98 783 638.482 781.436 637.579L721.293 602.859C719.707 601.934 717.13 601.934 715.543 602.859L655.797 637.579C654.211 638.504 654.233 640.002 655.797 640.905L715.94 675.625C717.526 676.55 720.104 676.55 721.69 675.625ZM782.119 637.16C784.102 638.306 784.124 640.178 782.141 641.324L722.395 676.044C720.412 677.189 717.196 677.189 715.213 676.044L655.07 641.324C653.088 640.178 653.066 638.306 655.048 637.16L714.794 602.44C716.777 601.295 719.994 601.295 721.976 602.44L782.119 637.16Z" fill="#24FF3A"/>
<mask id="mask0_4524_121137" style="mask-type:luminance" maskUnits="userSpaceOnUse" x="653" y="601" width="131" height="76">
<path d="M721.69 675.625L781.436 640.905C783.022 639.98 783 638.482 781.436 637.579L721.293 602.859C719.707 601.934 717.13 601.934 715.543 602.859L655.797 637.579C654.211 638.504 654.233 640.002 655.797 640.905L715.94 675.625C717.526 676.55 720.104 676.55 721.69 675.625ZM782.119 637.16C784.102 638.306 784.124 640.178 782.141 641.324L722.395 676.044C720.412 677.189 717.196 677.189 715.213 676.044L655.07 641.324C653.088 640.178 653.066 638.306 655.048 637.16L714.794 602.44C716.777 601.295 719.994 601.295 721.976 602.44L782.119 637.16Z" fill="white"/>
</mask>
<g mask="url(#mask0_4524_121137)">
<path d="M721.69 675.625L781.436 640.905C783.022 639.98 783 638.482 781.436 637.579L721.293 602.859C719.707 601.934 717.13 601.934 715.543 602.859L655.797 637.579C654.211 638.504 654.233 640.002 655.797 640.905L715.94 675.625C717.526 676.55 720.104 676.55 721.69 675.625ZM782.119 637.16C784.102 638.306 784.124 640.178 782.141 641.324L722.395 676.044C720.412 677.189 717.196 677.189 715.213 676.044L655.07 641.324C653.088 640.178 653.066 638.306 655.048 637.16L714.794 602.44C716.777 601.295 719.994 601.295 721.976 602.44L782.119 637.16Z" fill="#24FF3A"/>
</g>
<path d="M721.69 675.625L781.436 640.905C783.022 639.98 783 638.482 781.436 637.579L721.293 602.859C719.707 601.934 717.13 601.934 715.543 602.859L655.797 637.579C654.211 638.504 654.233 640.002 655.797 640.905L715.94 675.625C717.526 676.55 720.104 676.55 721.69 675.625ZM782.119 637.16C784.102 638.306 784.124 640.178 782.141 641.324L722.395 676.044C720.412 677.189 717.196 677.189 715.213 676.044L655.07 641.324C653.088 640.178 653.066 638.306 655.048 637.16L714.794 602.44C716.777 601.295 719.994 601.295 721.976 602.44L782.119 637.16Z" fill="#24FF3A"/>
<mask id="mask1_4524_121137" style="mask-type:luminance" maskUnits="userSpaceOnUse" x="653" y="601" width="131" height="76">
<path d="M721.69 675.625L781.436 640.905C783.022 639.98 783 638.482 781.436 637.579L721.293 602.859C719.707 601.934 717.13 601.934 715.543 602.859L655.797 637.579C654.211 638.504 654.233 640.002 655.797 640.905L715.94 675.625C717.526 676.55 720.104 676.55 721.69 675.625ZM782.119 637.16C784.102 638.306 784.124 640.178 782.141 641.324L722.395 676.044C720.412 677.189 717.196 677.189 715.213 676.044L655.07 641.324C653.088 640.178 653.066 638.306 655.048 637.16L714.794 602.44C716.777 601.295 719.994 601.295 721.976 602.44L782.119 637.16Z" fill="white"/>
</mask>
<g mask="url(#mask1_4524_121137)">
<path d="M721.69 675.625L781.436 640.905C783.022 639.98 783 638.482 781.436 637.579L721.293 602.859C719.707 601.934 717.13 601.934 715.543 602.859L655.797 637.579C654.211 638.504 654.233 640.002 655.797 640.905L715.94 675.625C717.526 676.55 720.104 676.55 721.69 675.625ZM782.119 637.16C784.102 638.306 784.124 640.178 782.141 641.324L722.395 676.044C720.412 677.189 717.196 677.189 715.213 676.044L655.07 641.324C653.088 640.178 653.066 638.306 655.048 637.16L714.794 602.44C716.777 601.295 719.994 601.295 721.976 602.44L782.119 637.16Z" fill="#BBF1B9"/>
</g>
<path d="M782.141 637.182C784.123 638.328 784.123 640.178 782.141 641.346C784.123 640.2 784.101 638.328 782.141 637.182Z" fill="#24FF3A"/>
<mask id="mask2_4524_121137" style="mask-type:luminance" maskUnits="userSpaceOnUse" x="782" y="637" width="2" height="5">
<path d="M782.141 637.182C784.123 638.328 784.123 640.178 782.141 641.346C784.123 640.2 784.101 638.328 782.141 637.182Z" fill="white"/>
</mask>
<g mask="url(#mask2_4524_121137)">
<path d="M782.141 637.182C784.123 638.328 784.123 640.178 782.141 641.346C784.123 640.2 784.101 638.328 782.141 637.182Z" fill="#24FF3A"/>
</g>
<path d="M722.394 676.044C720.411 677.19 717.195 677.19 715.234 676.044C717.217 677.19 720.434 677.19 722.394 676.044Z" fill="#24FF3A"/>
<mask id="mask3_4524_121137" style="mask-type:luminance" maskUnits="userSpaceOnUse" x="715" y="676" width="8" height="1">
<path d="M722.394 676.044C720.411 677.19 717.195 677.19 715.234 676.044C717.217 677.19 720.434 677.19 722.394 676.044Z" fill="white"/>
</mask>
<g mask="url(#mask3_4524_121137)">
<path d="M722.394 676.044C720.411 677.19 717.195 677.19 715.234 676.044C717.217 677.19 720.434 677.19 722.394 676.044Z" fill="#24FF3A"/>
</g>
<path d="M655.093 641.324C653.11 640.178 653.11 638.328 655.093 637.16C653.11 638.306 653.132 640.178 655.093 641.324Z" fill="#24FF3A"/>
<mask id="mask4_4524_121137" style="mask-type:luminance" maskUnits="userSpaceOnUse" x="653" y="637" width="3" height="5">
<path d="M655.093 641.324C653.11 640.178 653.11 638.328 655.093 637.16C653.11 638.306 653.132 640.178 655.093 641.324Z" fill="white"/>
</mask>
<g mask="url(#mask4_4524_121137)">
<path d="M655.093 641.324C653.11 640.178 653.11 638.328 655.093 637.16C653.11 638.306 653.132 640.178 655.093 641.324Z" fill="#24FF3A"/>
</g>
<path d="M714.816 602.441C716.799 601.295 720.016 601.295 721.976 602.441C719.994 601.295 716.777 601.295 714.816 602.441Z" fill="#24FF3A"/>
<mask id="mask5_4524_121137" style="mask-type:luminance" maskUnits="userSpaceOnUse" x="714" y="601" width="8" height="2">
<path d="M714.816 602.441C716.799 601.295 720.016 601.295 721.976 602.441C719.994 601.295 716.777 601.295 714.816 602.441Z" fill="white"/>
</mask>
<g mask="url(#mask5_4524_121137)">
<path d="M714.816 602.441C716.799 601.295 720.016 601.295 721.976 602.441C719.994 601.295 716.777 601.295 714.816 602.441Z" fill="#24FF3A"/>
</g>
<g opacity="0.4">
<path d="M757.666 638.813C758.084 639.055 758.084 639.429 757.666 639.672L719.465 661.878C719.047 662.121 718.386 662.121 717.989 661.878L679.546 639.694C679.128 639.451 679.128 639.077 679.546 638.835L717.747 616.628C718.165 616.386 718.826 616.386 719.223 616.628L757.666 638.813Z" fill="url(#paint23_linear_4524_121137)"/>
</g>
<path d="M813.247 107.97L668.112 40.712C666.415 39.7427 663.684 39.7427 661.987 40.712L517.623 107.97C516.786 108.455 516.367 109.094 516.367 109.733L545.007 355.216C545.007 355.855 545.425 356.494 546.284 357.001L662.781 424.259C664.477 425.229 667.209 425.229 668.905 424.259L784.63 357.001C785.467 356.516 785.886 355.877 785.886 355.216L814.525 109.733C814.525 109.094 814.085 108.455 813.247 107.948V107.97Z" fill="url(#paint24_linear_4524_121137)"/>
<g style="mix-blend-mode:color-dodge" opacity="0.58">
<path style="mix-blend-mode:screen" opacity="0.57" d="M748.853 520.752C817.317 520.752 872.818 444.657 872.818 350.788C872.818 256.92 817.317 180.825 748.853 180.825C680.389 180.825 624.889 256.92 624.889 350.788C624.889 444.657 680.389 520.752 748.853 520.752Z" fill="url(#paint25_radial_4524_121137)"/>
</g>
<defs>
<filter id="filter0_d_4524_121137" x="541" y="286" width="248.861" height="147" filterUnits="userSpaceOnUse" color-interpolation-filters="sRGB">
<feFlood flood-opacity="0" result="BackgroundImageFix"/>
<feColorMatrix in="SourceAlpha" type="matrix" values="0 0 0 0 0 0 0 0 0 0 0 0 0 0 0 0 0 0 127 0" result="hardAlpha"/>
<feOffset dy="4"/>
<feGaussianBlur stdDeviation="2"/>
<feComposite in2="hardAlpha" operator="out"/>
<feColorMatrix type="matrix" values="0 0 0 0 0 0 0 0 0 0 0 0 0 0 0 0 0 0 0.25 0"/>
<feBlend mode="normal" in2="BackgroundImageFix" result="effect1_dropShadow_4524_121137"/>
<feBlend mode="normal" in="SourceGraphic" in2="effect1_dropShadow_4524_121137" result="shape"/>
</filter>
<radialGradient id="paint0_radial_4524_121137" cx="0" cy="0" r="1" gradientUnits="userSpaceOnUse" gradientTransform="translate(685.832 349.46) rotate(22.71) scale(463.473 301.258)">
<stop stop-color="#27FF30"/>
<stop offset="0.09" stop-color="#37F726" stop-opacity="0.96"/>
<stop offset="0.24" stop-color="#33E124" stop-opacity="0.84"/>
<stop offset="0.45" stop-color="#21BF27" stop-opacity="0.64"/>
<stop offset="0.69" stop-color="#1E9129" stop-opacity="0.37"/>
<stop offset="0.97" stop-color="#1C9819" stop-opacity="0.04"/>
<stop offset="1" stop-color="#19992D" stop-opacity="0"/>
</radialGradient>
<linearGradient id="paint1_linear_4524_121137" x1="692.699" y1="216.602" x2="827.987" y2="216.602" gradientUnits="userSpaceOnUse">
<stop stop-color="#24FF00"/>
<stop offset="0.04" stop-color="#25FF02" stop-opacity="0.96"/>
<stop offset="0.71" stop-color="#34FF30" stop-opacity="0.28"/>
<stop offset="1" stop-color="#52FF43" stop-opacity="0"/>
</linearGradient>
<linearGradient id="paint2_linear_4524_121137" x1="416.659" y1="264.958" x2="607.419" y2="264.958" gradientUnits="userSpaceOnUse">
<stop stop-color="#43FF61" stop-opacity="0"/>
<stop offset="0.29" stop-color="#30FF45" stop-opacity="0.28"/>
<stop offset="0.96" stop-color="#02FF58" stop-opacity="0.96"/>
<stop offset="1" stop-color="#00FF19"/>
</linearGradient>
<linearGradient id="paint3_linear_4524_121137" x1="715.632" y1="257.644" x2="933.687" y2="257.644" gradientUnits="userSpaceOnUse">
<stop stop-color="#05FF00"/>
<stop offset="0.04" stop-color="#16FF02" stop-opacity="0.96"/>
<stop offset="0.71" stop-color="#30FF51" stop-opacity="0.28"/>
<stop offset="1" stop-color="#43FF4B" stop-opacity="0"/>
</linearGradient>
<linearGradient id="paint4_linear_4524_121137" x1="666.174" y1="173.687" x2="745.439" y2="173.687" gradientUnits="userSpaceOnUse">
<stop stop-color="#69E36E"/>
<stop offset="0.4" stop-color="#9DD18D"/>
<stop offset="0.79" stop-color="#009E2C"/>
<stop offset="1" stop-color="#008425"/>
</linearGradient>
<linearGradient id="paint5_linear_4524_121137" x1="583.318" y1="173.687" x2="663.112" y2="173.687" gradientUnits="userSpaceOnUse">
<stop stop-color="#69E36E"/>
<stop offset="0.4" stop-color="#9DD18D"/>
<stop offset="0.79" stop-color="#009E2C"/>
<stop offset="1" stop-color="#008425"/>
</linearGradient>
<linearGradient id="paint6_linear_4524_121137" x1="664.39" y1="193.646" x2="664.39" y2="99.0041" gradientUnits="userSpaceOnUse">
<stop stop-color="#5ECA62"/>
<stop offset="1" stop-color="#009E2C"/>
</linearGradient>
<linearGradient id="paint7_linear_4524_121137" x1="664.39" y1="194.197" x2="664.39" y2="98.4533" gradientUnits="userSpaceOnUse">
<stop stop-color="#69E36E"/>
<stop offset="1" stop-color="#007721"/>
</linearGradient>
<linearGradient id="paint8_linear_4524_121137" x1="760.816" y1="352.683" x2="760.816" y2="270.003" gradientUnits="userSpaceOnUse">
<stop stop-color="#4AFF5C"/>
<stop offset="0.11" stop-color="#4CF848"/>
<stop offset="0.28" stop-color="#4FE542"/>
<stop offset="0.47" stop-color="#3AC559"/>
<stop offset="0.68" stop-color="#2EA23A"/>
<stop offset="0.92" stop-color="#209B1E"/>
<stop offset="1" stop-color="#199935"/>
</linearGradient>
<linearGradient id="paint9_linear_4524_121137" x1="567.941" y1="352.683" x2="567.941" y2="270.003" gradientUnits="userSpaceOnUse">
<stop stop-color="#4AFF9D"/>
<stop offset="0.11" stop-color="#48F84F"/>
<stop offset="0.28" stop-color="#42E549"/>
<stop offset="0.47" stop-color="#3AC548"/>
<stop offset="0.68" stop-color="#2EA241"/>
<stop offset="0.92" stop-color="#1E9B2A"/>
<stop offset="1" stop-color="#199926"/>
</linearGradient>
<linearGradient id="paint10_linear_4524_121137" x1="694.893" y1="371.541" x2="730.367" y2="310.52" gradientUnits="userSpaceOnUse">
<stop stop-color="#225808"/>
<stop offset="0.23" stop-color="#195E00"/>
<stop offset="0.7" stop-color="#036A01"/>
<stop offset="0.9999" stop-color="#2D971B"/>
<stop offset="1" stop-color="#2DCA46"/>
</linearGradient>
<linearGradient id="paint11_linear_4524_121137" x1="633.91" y1="373.017" x2="599.799" y2="309.141" gradientUnits="userSpaceOnUse">
<stop stop-color="#57B62B"/>
<stop offset="0.37" stop-color="#36A923"/>
<stop offset="0.78" stop-color="#2D9D1B"/>
<stop offset="1" stop-color="#3A9919"/>
</linearGradient>
<linearGradient id="paint12_linear_4524_121137" x1="664.39" y1="326.07" x2="664.39" y2="213.936" gradientUnits="userSpaceOnUse">
<stop stop-color="#4EFF5F"/>
<stop offset="1" stop-color="#32B14E"/>
</linearGradient>
<linearGradient id="paint13_linear_4524_121137" x1="664.39" y1="325.63" x2="664.39" y2="214.377" gradientUnits="userSpaceOnUse">
<stop stop-color="#4ABF56"/>
<stop offset="0.32" stop-color="#38B144" stop-opacity="0.63"/>
<stop offset="0.64" stop-color="#27A433" stop-opacity="0.29"/>
<stop offset="0.88" stop-color="#1C9C30" stop-opacity="0.08"/>
<stop offset="1" stop-color="#199926" stop-opacity="0"/>
</linearGradient>
<linearGradient id="paint14_linear_4524_121137" x1="664.676" y1="407.693" x2="664.676" y2="325.784" gradientUnits="userSpaceOnUse">
<stop stop-color="#2BC631"/>
<stop offset="0.15" stop-color="#2CBF29"/>
<stop offset="0.36" stop-color="#32AF27"/>
<stop offset="0.61" stop-color="#22A82F"/>
<stop offset="0.89" stop-color="#1B9D30"/>
<stop offset="1" stop-color="#199935"/>
</linearGradient>
<linearGradient id="paint15_linear_4524_121137" x1="938.535" y1="341.888" x2="938.535" y2="299.37" gradientUnits="userSpaceOnUse">
<stop stop-color="#31B03E"/>
<stop offset="1" stop-color="#32B156"/>
</linearGradient>
<linearGradient id="paint16_linear_4524_121137" x1="938.546" y1="341.437" x2="938.546" y2="299.778" gradientUnits="userSpaceOnUse">
<stop stop-color="#31B03E"/>
<stop offset="1" stop-color="#32B156"/>
</linearGradient>
<linearGradient id="paint17_linear_4524_121137" x1="938.535" y1="341.426" x2="938.535" y2="299.81" gradientUnits="userSpaceOnUse">
<stop stop-color="#4CBF4A"/>
<stop offset="0.32" stop-color="#38B144" stop-opacity="0.63"/>
<stop offset="0.64" stop-color="#27A433" stop-opacity="0.29"/>
<stop offset="0.88" stop-color="#1C9C38" stop-opacity="0.08"/>
<stop offset="1" stop-color="#19992D" stop-opacity="0"/>
</linearGradient>
<linearGradient id="paint18_linear_4524_121137" x1="975.081" y1="351.956" x2="975.081" y2="320.629" gradientUnits="userSpaceOnUse">
<stop stop-color="#4E1999"/>
<stop offset="0.59" stop-color="#5B22A8"/>
<stop offset="1" stop-color="#672BB6"/>
</linearGradient>
<linearGradient id="paint19_linear_4524_121137" x1="956.444" y1="372.819" x2="956.444" y2="321.026" gradientUnits="userSpaceOnUse">
<stop stop-color="#19993D"/>
<stop offset="0.59" stop-color="#22A83F"/>
<stop offset="1" stop-color="#2BB631"/>
</linearGradient>
<linearGradient id="paint20_linear_4524_121137" x1="908.33" y1="358.213" x2="931.396" y2="335.147" gradientUnits="userSpaceOnUse">
<stop stop-color="#2EB62B"/>
<stop offset="0.02" stop-color="#21BF31"/>
<stop offset="0.41" stop-color="#329222"/>
<stop offset="0.8" stop-color="#1D971B"/>
<stop offset="1" stop-color="#199926"/>
</linearGradient>
<linearGradient id="paint21_linear_4524_121137" x1="920.104" y1="160.67" x2="970.433" y2="86.243" gradientUnits="userSpaceOnUse">
<stop stop-color="#95FA9F" stop-opacity="0.47"/>
<stop offset="0.21" stop-color="#1C8F1A" stop-opacity="0.33"/>
<stop offset="0.42" stop-color="#1BAC32" stop-opacity="0.53"/>
<stop offset="0.61" stop-color="#17C93E" stop-opacity="0.73"/>
<stop offset="0.78" stop-color="#1DE925" stop-opacity="0.88"/>
<stop offset="0.91" stop-color="#2FF91D" stop-opacity="0.97"/>
<stop offset="1" stop-color="#1EFF27"/>
</linearGradient>
<linearGradient id="paint22_linear_4524_121137" x1="897.39" y1="175.397" x2="928.516" y2="129.354" gradientUnits="userSpaceOnUse">
<stop stop-color="#0C8318" stop-opacity="0"/>
<stop offset="0.11" stop-color="#1A922D" stop-opacity="0.21"/>
<stop offset="0.24" stop-color="#1B973E" stop-opacity="0.42"/>
<stop offset="0.37" stop-color="#1BB72B" stop-opacity="0.6"/>
<stop offset="0.5" stop-color="#1CD14F" stop-opacity="0.74"/>
<stop offset="0.63" stop-color="#1DE531" stop-opacity="0.85"/>
<stop offset="0.75" stop-color="#1DF359" stop-opacity="0.94"/>
<stop offset="0.88" stop-color="#1DFC4E" stop-opacity="0.98"/>
<stop offset="1" stop-color="#1EFF34"/>
</linearGradient>
<linearGradient id="paint23_linear_4524_121137" x1="718.606" y1="662.055" x2="718.606" y2="616.452" gradientUnits="userSpaceOnUse">
<stop stop-color="#34B031"/>
<stop offset="1" stop-color="#32B137"/>
</linearGradient>
<linearGradient id="paint24_linear_4524_121137" x1="665.446" y1="533.508" x2="665.446" y2="148.506" gradientUnits="userSpaceOnUse">
<stop stop-color="#5ECA62"/>
<stop offset="0.04" stop-color="#5ECA62"/>
<stop offset="0.71" stop-color="#5ECA62" stop-opacity="0.28"/>
<stop offset="1" stop-color="#69E36E" stop-opacity="0"/>
</linearGradient>
<radialGradient id="paint25_radial_4524_121137" cx="0" cy="0" r="1" gradientUnits="userSpaceOnUse" gradientTransform="translate(744.691 350.401) scale(123.061 169.739)">
<stop stop-color="#1FDE00"/>
<stop offset="1" stop-opacity="0"/>
</radialGradient>
</defs>
</svg>
