<svg width="120" height="120" viewBox="0 0 120 120" fill="none" xmlns="http://www.w3.org/2000/svg">
<g id="File">
<path id="Ellipse 1998" d="M17.8728 97.7811C17.8728 99.0032 16.8821 99.9939 15.66 99.9939C14.438 99.9939 13.4473 99.0032 13.4473 97.7811C13.4473 96.559 14.438 95.5684 15.66 95.5684C16.8821 95.5684 17.8728 96.559 17.8728 97.7811Z" fill="#EBEEF0"/>
<path id="Ellipse 2002" d="M11.0638 89.9518C11.0638 90.7979 10.378 91.4838 9.53191 91.4838C8.68586 91.4838 8 90.7979 8 89.9518C8 89.1058 8.68586 88.4199 9.53191 88.4199C10.378 88.4199 11.0638 89.1058 11.0638 89.9518Z" fill="#F9F9F9"/>
<path id="Ellipse 2001" d="M104.851 94.6534C104.851 95.6405 104.051 96.4407 103.064 96.4407C102.077 96.4407 101.276 95.6405 101.276 94.6534C101.276 93.6664 102.077 92.8662 103.064 92.8662C104.051 92.8662 104.851 93.6664 104.851 94.6534Z" fill="#F6F7F7"/>
<path id="Ellipse 2000" d="M112 100.101C112 101.37 110.971 102.398 109.702 102.398C108.433 102.398 107.404 101.37 107.404 100.101C107.404 98.8315 108.433 97.8027 109.702 97.8027C110.971 97.8027 112 98.8315 112 100.101Z" fill="#F3F3F5"/>
<path id="Ellipse 1999" d="M101.957 105.207C101.957 106.758 100.699 108.015 99.1484 108.015C97.5973 108.015 96.3398 106.758 96.3398 105.207C96.3398 103.656 97.5973 102.398 99.1484 102.398C100.699 102.398 101.957 103.656 101.957 105.207Z" fill="#E4E5E6"/>
<path id="Ellipse 1997" d="M105.234 113.787C105.234 116.983 84.8106 119.574 59.617 119.574C34.4234 119.574 14 116.983 14 113.787C14 110.591 34.4234 108 59.617 108C84.8106 108 105.234 110.591 105.234 113.787Z" fill="url(#paint0_linear_6099_171137)"/>
<g id="Group 48098819">
<path id="Vector" d="M71.9159 91.5813L71.2571 91.5813L71.2571 91.252L70.9277 91.252L70.9277 90.585L71.9159 90.585L71.9159 91.5813Z" fill="#F9F9F9"/>
<path id="Vector_2" d="M74.5749 87.958L68.6543 87.958L68.6543 93.8786L74.5749 93.8786L74.5749 87.958Z" fill="white"/>
<path id="Vector_3" d="M74.8727 94.2082L68.2852 94.2082L68.2852 87.6206L74.8727 87.6206L74.8727 94.2082ZM68.9933 93.5824L74.2469 93.5824L74.2469 88.3205L68.9933 88.3205L68.9933 93.5824Z" fill="#F9F9F9"/>
<path id="Vector_4" d="M50.8259 87.958L44.9053 87.958L44.9053 93.8786L50.8259 93.8786L50.8259 87.958Z" fill="white"/>
<path id="Vector_5" d="M51.1306 94.2082L44.543 94.2082L44.543 87.6206L51.1306 87.6206L51.1306 94.2082ZM45.21 93.5494L50.4718 93.5494L50.4718 88.2876L45.21 88.2876L45.21 93.5494Z" fill="#F9F9F9"/>
<path id="Vector_6" d="M89.8091 111.196C89.8091 113.096 88.2694 114.635 86.3701 114.635L35.6889 114.635C33.7897 114.635 32.25 113.096 32.25 111.196L32.25 70.1468L61.0295 51.8745L89.8091 70.1468L89.8091 111.196Z" fill="#A3AAB6"/>
<path id="Vector_7" d="M40.4834 109.26L82.084 109.26L82.084 107.58L40.4834 107.58L40.4834 109.26Z" fill="#91E1A8"/>
<path id="Vector_8" d="M89.8082 86.6323C87.4861 88.2792 85.1146 89.8355 82.776 91.4413C80.4374 93.047 78.0494 94.5868 75.6696 96.1432C73.2898 97.6995 70.7289 99.3793 68.2092 100.977L67.9869 101.133L61.3993 105.358L61.0699 105.555L60.7487 105.358C58.5528 103.952 56.357 102.541 54.1611 101.125L53.9223 100.977C51.43 99.3793 48.9405 97.7654 46.4536 96.1349C44.0904 94.5868 41.7188 93.0141 39.3555 91.4413C36.9922 89.8685 34.6454 88.271 32.3232 86.6323C34.7936 88.0322 37.264 89.5062 39.6684 90.939C42.0729 92.3718 44.5432 93.8622 46.9642 95.3444C49.6651 96.9913 52.3605 98.6574 55.0505 100.343C57.0679 101.594 59.0771 102.863 61.0945 104.122C63.0955 102.863 65.113 101.586 67.1222 100.343C69.8066 98.6629 72.4993 96.9968 75.2002 95.3444C77.6212 93.8704 80.0504 92.3965 82.4878 90.9472C84.9252 89.4979 87.3379 88.0322 89.8082 86.6323Z" fill="white"/>
<path id="Rectangle 8207" d="M28.8141 59.0458C28.2097 56.7901 29.5484 54.4714 31.8041 53.867L56.1403 47.3461L66.2662 44.6329C68.522 44.0285 70.8406 45.3672 71.4451 47.6229L85.614 100.502C86.2184 102.758 84.8797 105.076 82.624 105.681L48.1619 114.915C45.9061 115.519 43.5875 114.181 42.9831 111.925L28.8141 59.0458Z" fill="url(#paint1_linear_6099_171137)"/>
<path id="Rectangle 8209" d="M32.9655 61.3647C32.3611 59.1089 33.6997 56.7903 35.9555 56.1859L48.4404 52.8405L52.6407 51.7151C54.8964 51.1107 57.215 52.4493 57.8195 54.7051L64.1625 78.3777C64.767 80.6334 63.4283 82.9521 61.1725 83.5565L44.4874 88.0273C42.2316 88.6317 39.913 87.293 39.3086 85.0373L32.9655 61.3647Z" fill="url(#paint2_linear_6099_171137)"/>
<path id="Rectangle 8207_2" d="M44.119 46.6306C44.3181 44.3037 46.3658 42.5789 48.6926 42.778L73.7955 44.926L87.1993 60.8383L83.4258 104.939C83.2267 107.265 81.179 108.99 78.8522 108.791L43.3043 105.749C40.9775 105.55 39.2526 103.503 39.4517 101.176L44.119 46.6306Z" fill="url(#paint3_radial_6099_171137)"/>
<path id="Rectangle 8208" d="M73.7959 44.9258L87.1997 60.8381L76.7547 59.9443C74.4279 59.7452 72.7031 57.6976 72.9022 55.3707L73.7959 44.9258Z" fill="url(#paint4_linear_6099_171137)"/>
<path id="Vector_9" d="M89.8091 77.3975L89.8091 111.661C89.8091 113.56 88.2694 115.1 86.3701 115.1L35.6889 115.1C33.7897 115.1 32.25 113.56 32.25 111.661L32.25 77.3975C34.7203 78.7973 37.1907 80.2713 39.5951 81.7041C41.9996 83.1369 44.47 84.6273 46.8909 86.1095C49.5918 87.7564 52.2872 89.4225 54.9772 91.1079L55.0595 91.0585L54.9936 91.1161C57.0111 92.3677 59.0203 93.6359 61.0378 94.8957C63.0388 93.6359 65.0562 92.3595 67.0654 91.1161L66.9995 91.0585L67.0901 91.0585C69.7746 89.3786 72.4672 87.7125 75.1681 86.0601C77.5891 84.5862 80.0182 83.1122 82.4556 81.6629C84.893 80.2137 87.3387 78.7973 89.8091 77.3975Z" fill="#EBECEF"/>
</g>
</g>
<defs>
<linearGradient id="paint0_linear_6099_171137" x1="14" y1="113.787" x2="105.234" y2="113.787" gradientUnits="userSpaceOnUse">
<stop stop-color="#F6F8FA"/>
<stop offset="0.460263" stop-color="#FAFBFC" stop-opacity="0.13"/>
<stop offset="1" stop-color="white" stop-opacity="0"/>
</linearGradient>
<linearGradient id="paint1_linear_6099_171137" x1="45.0836" y1="48.3027" x2="64.8476" y2="113.359" gradientUnits="userSpaceOnUse">
<stop stop-color="#C5C8CD"/>
<stop offset="1" stop-color="#ACB0BB"/>
</linearGradient>
<linearGradient id="paint2_linear_6099_171137" x1="25.7314" y1="74.2431" x2="54.3782" y2="63.2166" gradientUnits="userSpaceOnUse">
<stop stop-color="#ECEDEE" stop-opacity="0.63"/>
<stop offset="1" stop-color="#AEB3BD" stop-opacity="0"/>
</linearGradient>
<radialGradient id="paint3_radial_6099_171137" cx="0" cy="0" r="1" gradientUnits="userSpaceOnUse" gradientTransform="translate(66.4665 44.2989) rotate(94.8907) scale(59.7658 44.1348)">
<stop stop-color="#F8F9F9"/>
<stop offset="1" stop-color="#D5D8DD"/>
</radialGradient>
<linearGradient id="paint4_linear_6099_171137" x1="80.5835" y1="52.9885" x2="72.5416" y2="59.5838" gradientUnits="userSpaceOnUse">
<stop stop-color="#D4D7DE"/>
<stop offset="0.448008" stop-color="#D7DAE0"/>
<stop offset="1" stop-color="#DBDEE2"/>
</linearGradient>
</defs>
</svg>
